<?xml version="1.0" encoding="utf-8" standalone="no"?>
<!DOCTYPE svg PUBLIC "-//W3C//DTD SVG 1.1//EN"
  "http://www.w3.org/Graphics/SVG/1.1/DTD/svg11.dtd">
<svg xmlns:xlink="http://www.w3.org/1999/xlink" width="858.412969pt" height="306.752pt" viewBox="0 0 858.412969 306.752" xmlns="http://www.w3.org/2000/svg" version="1.1">
 <metadata>
  <rdf:RDF xmlns:dc="http://purl.org/dc/elements/1.1/" xmlns:cc="http://creativecommons.org/ns#" xmlns:rdf="http://www.w3.org/1999/02/22-rdf-syntax-ns#">
   <cc:Work>
    <dc:type rdf:resource="http://purl.org/dc/dcmitype/StillImage"/>
    <dc:date>2026-04-09T20:42:38.696308</dc:date>
    <dc:format>image/svg+xml</dc:format>
    <dc:creator>
     <cc:Agent>
      <dc:title>Matplotlib v3.10.8, https://matplotlib.org/</dc:title>
     </cc:Agent>
    </dc:creator>
   </cc:Work>
  </rdf:RDF>
 </metadata>
 <defs>
  <style type="text/css">*{stroke-linejoin: round; stroke-linecap: butt}</style>
 </defs>
 <g id="figure_1">
  <g id="patch_1">
   <path d="M 0 306.752 
L 858.412969 306.752 
L 858.412969 0 
L 0 0 
z
" style="fill: #0e1117"/>
  </g>
  <g id="axes_1">
   <g id="patch_2">
    <path d="M 42.712969 246.468 
L 424.072969 246.468 
L 424.072969 62.432 
L 42.712969 62.432 
z
" style="fill: #161b22"/>
   </g>
   <g id="matplotlib.axis_1">
    <g id="xtick_1">
     <g id="line2d_1">
      <path d="M 42.712969 246.468 
L 42.712969 62.432 
" clip-path="url(#p40998691be)" style="fill: none; stroke: #21262d; stroke-width: 0.5; stroke-linecap: square"/>
     </g>
     <g id="line2d_2">
      <defs>
       <path id="m8e339f4ee9" d="M 0 0 
L 0 3 
" style="stroke: #8b949e; stroke-width: 0.5"/>
      </defs>
      <g>
       <use xlink:href="#m8e339f4ee9" x="42.712969" y="246.468" style="fill: #8b949e; stroke: #8b949e; stroke-width: 0.5"/>
      </g>
     </g>
     <g id="text_1">
      <!-- 0 -->
      <g style="fill: #8b949e" transform="translate(40.003828 259.854406) scale(0.09 -0.09)">
       <defs>
        <path id="DejaVuSansMono-30" d="M 1509 2344 
Q 1509 2516 1629 2641 
Q 1750 2766 1919 2766 
Q 2094 2766 2219 2641 
Q 2344 2516 2344 2344 
Q 2344 2169 2220 2047 
Q 2097 1925 1919 1925 
Q 1744 1925 1626 2044 
Q 1509 2163 1509 2344 
z
M 1925 4250 
Q 1484 4250 1267 3775 
Q 1050 3300 1050 2328 
Q 1050 1359 1267 884 
Q 1484 409 1925 409 
Q 2369 409 2586 884 
Q 2803 1359 2803 2328 
Q 2803 3300 2586 3775 
Q 2369 4250 1925 4250 
z
M 1925 4750 
Q 2672 4750 3055 4137 
Q 3438 3525 3438 2328 
Q 3438 1134 3055 521 
Q 2672 -91 1925 -91 
Q 1178 -91 797 521 
Q 416 1134 416 2328 
Q 416 3525 797 4137 
Q 1178 4750 1925 4750 
z
" transform="scale(0.015625)"/>
       </defs>
       <use xlink:href="#DejaVuSansMono-30"/>
      </g>
     </g>
    </g>
    <g id="xtick_2">
     <g id="line2d_3">
      <path d="M 100.494787 246.468 
L 100.494787 62.432 
" clip-path="url(#p40998691be)" style="fill: none; stroke: #21262d; stroke-width: 0.5; stroke-linecap: square"/>
     </g>
     <g id="line2d_4">
      <g>
       <use xlink:href="#m8e339f4ee9" x="100.494787" y="246.468" style="fill: #8b949e; stroke: #8b949e; stroke-width: 0.5"/>
      </g>
     </g>
     <g id="text_2">
      <!-- 10 -->
      <g style="fill: #8b949e" transform="translate(95.076506 259.854406) scale(0.09 -0.09)">
       <defs>
        <path id="DejaVuSansMono-31" d="M 844 531 
L 1825 531 
L 1825 4097 
L 769 3859 
L 769 4434 
L 1819 4666 
L 2450 4666 
L 2450 531 
L 3419 531 
L 3419 0 
L 844 0 
L 844 531 
z
" transform="scale(0.015625)"/>
       </defs>
       <use xlink:href="#DejaVuSansMono-31"/>
       <use xlink:href="#DejaVuSansMono-30" transform="translate(60.205078 0)"/>
      </g>
     </g>
    </g>
    <g id="xtick_3">
     <g id="line2d_5">
      <path d="M 158.276605 246.468 
L 158.276605 62.432 
" clip-path="url(#p40998691be)" style="fill: none; stroke: #21262d; stroke-width: 0.5; stroke-linecap: square"/>
     </g>
     <g id="line2d_6">
      <g>
       <use xlink:href="#m8e339f4ee9" x="158.276605" y="246.468" style="fill: #8b949e; stroke: #8b949e; stroke-width: 0.5"/>
      </g>
     </g>
     <g id="text_3">
      <!-- 20 -->
      <g style="fill: #8b949e" transform="translate(152.858324 259.854406) scale(0.09 -0.09)">
       <defs>
        <path id="DejaVuSansMono-32" d="M 1166 531 
L 3309 531 
L 3309 0 
L 475 0 
L 475 531 
Q 1059 1147 1496 1619 
Q 1934 2091 2100 2284 
Q 2413 2666 2522 2902 
Q 2631 3138 2631 3384 
Q 2631 3775 2401 3997 
Q 2172 4219 1772 4219 
Q 1488 4219 1175 4116 
Q 863 4013 513 3803 
L 513 4441 
Q 834 4594 1145 4672 
Q 1456 4750 1759 4750 
Q 2444 4750 2861 4386 
Q 3278 4022 3278 3431 
Q 3278 3131 3139 2831 
Q 3000 2531 2688 2169 
Q 2513 1966 2180 1606 
Q 1847 1247 1166 531 
z
" transform="scale(0.015625)"/>
       </defs>
       <use xlink:href="#DejaVuSansMono-32"/>
       <use xlink:href="#DejaVuSansMono-30" transform="translate(60.205078 0)"/>
      </g>
     </g>
    </g>
    <g id="xtick_4">
     <g id="line2d_7">
      <path d="M 216.058423 246.468 
L 216.058423 62.432 
" clip-path="url(#p40998691be)" style="fill: none; stroke: #21262d; stroke-width: 0.5; stroke-linecap: square"/>
     </g>
     <g id="line2d_8">
      <g>
       <use xlink:href="#m8e339f4ee9" x="216.058423" y="246.468" style="fill: #8b949e; stroke: #8b949e; stroke-width: 0.5"/>
      </g>
     </g>
     <g id="text_4">
      <!-- 30 -->
      <g style="fill: #8b949e" transform="translate(210.640142 259.854406) scale(0.09 -0.09)">
       <defs>
        <path id="DejaVuSansMono-33" d="M 2425 2497 
Q 2884 2375 3128 2064 
Q 3372 1753 3372 1288 
Q 3372 644 2939 276 
Q 2506 -91 1741 -91 
Q 1419 -91 1084 -31 
Q 750 28 428 141 
L 428 769 
Q 747 603 1056 522 
Q 1366 441 1672 441 
Q 2191 441 2469 675 
Q 2747 909 2747 1350 
Q 2747 1756 2469 1995 
Q 2191 2234 1716 2234 
L 1234 2234 
L 1234 2753 
L 1716 2753 
Q 2150 2753 2394 2943 
Q 2638 3134 2638 3475 
Q 2638 3834 2411 4026 
Q 2184 4219 1766 4219 
Q 1488 4219 1191 4156 
Q 894 4094 569 3969 
L 569 4550 
Q 947 4650 1242 4700 
Q 1538 4750 1766 4750 
Q 2447 4750 2855 4408 
Q 3263 4066 3263 3500 
Q 3263 3116 3048 2859 
Q 2834 2603 2425 2497 
z
" transform="scale(0.015625)"/>
       </defs>
       <use xlink:href="#DejaVuSansMono-33"/>
       <use xlink:href="#DejaVuSansMono-30" transform="translate(60.205078 0)"/>
      </g>
     </g>
    </g>
    <g id="xtick_5">
     <g id="line2d_9">
      <path d="M 273.840241 246.468 
L 273.840241 62.432 
" clip-path="url(#p40998691be)" style="fill: none; stroke: #21262d; stroke-width: 0.5; stroke-linecap: square"/>
     </g>
     <g id="line2d_10">
      <g>
       <use xlink:href="#m8e339f4ee9" x="273.840241" y="246.468" style="fill: #8b949e; stroke: #8b949e; stroke-width: 0.5"/>
      </g>
     </g>
     <g id="text_5">
      <!-- 40 -->
      <g style="fill: #8b949e" transform="translate(268.42196 259.854406) scale(0.09 -0.09)">
       <defs>
        <path id="DejaVuSansMono-34" d="M 2297 4091 
L 825 1625 
L 2297 1625 
L 2297 4091 
z
M 2194 4666 
L 2925 4666 
L 2925 1625 
L 3547 1625 
L 3547 1113 
L 2925 1113 
L 2925 0 
L 2297 0 
L 2297 1113 
L 319 1113 
L 319 1709 
L 2194 4666 
z
" transform="scale(0.015625)"/>
       </defs>
       <use xlink:href="#DejaVuSansMono-34"/>
       <use xlink:href="#DejaVuSansMono-30" transform="translate(60.205078 0)"/>
      </g>
     </g>
    </g>
    <g id="xtick_6">
     <g id="line2d_11">
      <path d="M 331.62206 246.468 
L 331.62206 62.432 
" clip-path="url(#p40998691be)" style="fill: none; stroke: #21262d; stroke-width: 0.5; stroke-linecap: square"/>
     </g>
     <g id="line2d_12">
      <g>
       <use xlink:href="#m8e339f4ee9" x="331.62206" y="246.468" style="fill: #8b949e; stroke: #8b949e; stroke-width: 0.5"/>
      </g>
     </g>
     <g id="text_6">
      <!-- 50 -->
      <g style="fill: #8b949e" transform="translate(326.203778 259.854406) scale(0.09 -0.09)">
       <defs>
        <path id="DejaVuSansMono-35" d="M 647 4666 
L 3009 4666 
L 3009 4134 
L 1222 4134 
L 1222 2988 
Q 1356 3038 1492 3061 
Q 1628 3084 1766 3084 
Q 2491 3084 2916 2656 
Q 3341 2228 3341 1497 
Q 3341 759 2895 334 
Q 2450 -91 1678 -91 
Q 1306 -91 998 -41 
Q 691 9 447 109 
L 447 750 
Q 734 594 1025 517 
Q 1316 441 1619 441 
Q 2141 441 2423 716 
Q 2706 991 2706 1497 
Q 2706 1997 2414 2275 
Q 2122 2553 1600 2553 
Q 1347 2553 1106 2495 
Q 866 2438 647 2322 
L 647 4666 
z
" transform="scale(0.015625)"/>
       </defs>
       <use xlink:href="#DejaVuSansMono-35"/>
       <use xlink:href="#DejaVuSansMono-30" transform="translate(60.205078 0)"/>
      </g>
     </g>
    </g>
    <g id="xtick_7">
     <g id="line2d_13">
      <path d="M 389.403878 246.468 
L 389.403878 62.432 
" clip-path="url(#p40998691be)" style="fill: none; stroke: #21262d; stroke-width: 0.5; stroke-linecap: square"/>
     </g>
     <g id="line2d_14">
      <g>
       <use xlink:href="#m8e339f4ee9" x="389.403878" y="246.468" style="fill: #8b949e; stroke: #8b949e; stroke-width: 0.5"/>
      </g>
     </g>
     <g id="text_7">
      <!-- 60 -->
      <g style="fill: #8b949e" transform="translate(383.985597 259.854406) scale(0.09 -0.09)">
       <defs>
        <path id="DejaVuSansMono-36" d="M 3097 4563 
L 3097 3981 
Q 2900 4097 2678 4158 
Q 2456 4219 2216 4219 
Q 1616 4219 1306 3767 
Q 997 3316 997 2438 
Q 1147 2750 1412 2917 
Q 1678 3084 2022 3084 
Q 2697 3084 3067 2670 
Q 3438 2256 3438 1497 
Q 3438 741 3056 325 
Q 2675 -91 1984 -91 
Q 1172 -91 794 492 
Q 416 1075 416 2328 
Q 416 3509 870 4129 
Q 1325 4750 2188 4750 
Q 2419 4750 2650 4701 
Q 2881 4653 3097 4563 
z
M 1972 2591 
Q 1569 2591 1337 2300 
Q 1106 2009 1106 1497 
Q 1106 984 1337 693 
Q 1569 403 1972 403 
Q 2391 403 2603 679 
Q 2816 956 2816 1497 
Q 2816 2041 2603 2316 
Q 2391 2591 1972 2591 
z
" transform="scale(0.015625)"/>
       </defs>
       <use xlink:href="#DejaVuSansMono-36"/>
       <use xlink:href="#DejaVuSansMono-30" transform="translate(60.205078 0)"/>
      </g>
     </g>
    </g>
    <g id="text_8">
     <!-- threads -->
     <g style="fill: #8b949e" transform="translate(214.428984 272.612531) scale(0.09 -0.09)">
      <defs>
       <path id="DejaVuSansMono-74" d="M 1919 4494 
L 1919 3500 
L 3225 3500 
L 3225 3053 
L 1919 3053 
L 1919 1153 
Q 1919 766 2066 612 
Q 2213 459 2578 459 
L 3225 459 
L 3225 0 
L 2522 0 
Q 1875 0 1609 259 
Q 1344 519 1344 1153 
L 1344 3053 
L 409 3053 
L 409 3500 
L 1344 3500 
L 1344 4494 
L 1919 4494 
z
" transform="scale(0.015625)"/>
       <path id="DejaVuSansMono-68" d="M 3284 2169 
L 3284 0 
L 2706 0 
L 2706 2169 
Q 2706 2641 2540 2862 
Q 2375 3084 2022 3084 
Q 1619 3084 1401 2798 
Q 1184 2513 1184 1978 
L 1184 0 
L 609 0 
L 609 4863 
L 1184 4863 
L 1184 2975 
Q 1338 3275 1600 3429 
Q 1863 3584 2222 3584 
Q 2756 3584 3020 3232 
Q 3284 2881 3284 2169 
z
" transform="scale(0.015625)"/>
       <path id="DejaVuSansMono-72" d="M 3609 2778 
Q 3425 2922 3234 2987 
Q 3044 3053 2816 3053 
Q 2278 3053 1993 2715 
Q 1709 2378 1709 1741 
L 1709 0 
L 1131 0 
L 1131 3500 
L 1709 3500 
L 1709 2816 
Q 1853 3188 2151 3386 
Q 2450 3584 2859 3584 
Q 3072 3584 3256 3531 
Q 3441 3478 3609 3366 
L 3609 2778 
z
" transform="scale(0.015625)"/>
       <path id="DejaVuSansMono-65" d="M 3475 1894 
L 3475 1613 
L 984 1613 
L 984 1594 
Q 984 1022 1282 709 
Q 1581 397 2125 397 
Q 2400 397 2700 484 
Q 3000 572 3341 750 
L 3341 178 
Q 3013 44 2708 -23 
Q 2403 -91 2119 -91 
Q 1303 -91 843 398 
Q 384 888 384 1747 
Q 384 2584 834 3084 
Q 1284 3584 2034 3584 
Q 2703 3584 3089 3131 
Q 3475 2678 3475 1894 
z
M 2900 2063 
Q 2888 2569 2661 2833 
Q 2434 3097 2009 3097 
Q 1594 3097 1325 2822 
Q 1056 2547 1006 2059 
L 2900 2063 
z
" transform="scale(0.015625)"/>
       <path id="DejaVuSansMono-61" d="M 2194 1759 
L 2003 1759 
Q 1500 1759 1245 1582 
Q 991 1406 991 1056 
Q 991 741 1181 566 
Q 1372 391 1709 391 
Q 2184 391 2456 720 
Q 2728 1050 2731 1631 
L 2731 1759 
L 2194 1759 
z
M 3309 1997 
L 3309 0 
L 2731 0 
L 2731 519 
Q 2547 206 2267 57 
Q 1988 -91 1588 -91 
Q 1053 -91 734 211 
Q 416 513 416 1019 
Q 416 1603 808 1906 
Q 1200 2209 1959 2209 
L 2731 2209 
L 2731 2300 
Q 2728 2719 2518 2908 
Q 2309 3097 1850 3097 
Q 1556 3097 1256 3012 
Q 956 2928 672 2766 
L 672 3341 
Q 991 3463 1283 3523 
Q 1575 3584 1850 3584 
Q 2284 3584 2592 3456 
Q 2900 3328 3091 3072 
Q 3209 2916 3259 2686 
Q 3309 2456 3309 1997 
z
" transform="scale(0.015625)"/>
       <path id="DejaVuSansMono-64" d="M 2681 3053 
L 2681 4863 
L 3256 4863 
L 3256 0 
L 2681 0 
L 2681 441 
Q 2538 181 2298 45 
Q 2059 -91 1747 -91 
Q 1113 -91 748 401 
Q 384 894 384 1759 
Q 384 2613 750 3098 
Q 1116 3584 1747 3584 
Q 2063 3584 2303 3448 
Q 2544 3313 2681 3053 
z
M 991 1747 
Q 991 1078 1203 737 
Q 1416 397 1831 397 
Q 2247 397 2464 740 
Q 2681 1084 2681 1747 
Q 2681 2413 2464 2755 
Q 2247 3097 1831 3097 
Q 1416 3097 1203 2756 
Q 991 2416 991 1747 
z
" transform="scale(0.015625)"/>
       <path id="DejaVuSansMono-73" d="M 3041 3378 
L 3041 2816 
Q 2794 2959 2544 3031 
Q 2294 3103 2034 3103 
Q 1644 3103 1451 2976 
Q 1259 2850 1259 2591 
Q 1259 2356 1403 2240 
Q 1547 2125 2119 2016 
L 2350 1972 
Q 2778 1891 2998 1647 
Q 3219 1403 3219 1013 
Q 3219 494 2850 201 
Q 2481 -91 1825 -91 
Q 1566 -91 1281 -36 
Q 997 19 666 128 
L 666 722 
Q 988 556 1281 473 
Q 1575 391 1838 391 
Q 2219 391 2428 545 
Q 2638 700 2638 978 
Q 2638 1378 1872 1531 
L 1847 1538 
L 1631 1581 
Q 1134 1678 906 1908 
Q 678 2138 678 2534 
Q 678 3038 1018 3311 
Q 1359 3584 1991 3584 
Q 2272 3584 2531 3532 
Q 2791 3481 3041 3378 
z
" transform="scale(0.015625)"/>
      </defs>
      <use xlink:href="#DejaVuSansMono-74"/>
      <use xlink:href="#DejaVuSansMono-68" transform="translate(60.205078 0)"/>
      <use xlink:href="#DejaVuSansMono-72" transform="translate(120.410156 0)"/>
      <use xlink:href="#DejaVuSansMono-65" transform="translate(180.615234 0)"/>
      <use xlink:href="#DejaVuSansMono-61" transform="translate(240.820312 0)"/>
      <use xlink:href="#DejaVuSansMono-64" transform="translate(301.025391 0)"/>
      <use xlink:href="#DejaVuSansMono-73" transform="translate(361.230469 0)"/>
     </g>
    </g>
   </g>
   <g id="matplotlib.axis_2">
    <g id="ytick_1">
     <g id="line2d_15">
      <path d="M 42.712969 246.468 
L 424.072969 246.468 
" clip-path="url(#p40998691be)" style="fill: none; stroke: #21262d; stroke-width: 0.5; stroke-linecap: square"/>
     </g>
     <g id="line2d_16">
      <defs>
       <path id="m3f4da0f625" d="M 0 0 
L -3 0 
" style="stroke: #8b949e; stroke-width: 0.5"/>
      </defs>
      <g>
       <use xlink:href="#m3f4da0f625" x="42.712969" y="246.468" style="fill: #8b949e; stroke: #8b949e; stroke-width: 0.5"/>
      </g>
     </g>
     <g id="text_9">
      <!-- 0 -->
      <g style="fill: #8b949e" transform="translate(30.794688 249.911203) scale(0.09 -0.09)">
       <use xlink:href="#DejaVuSansMono-30"/>
      </g>
     </g>
    </g>
    <g id="ytick_2">
     <g id="line2d_17">
      <path d="M 42.712969 224.575893 
L 424.072969 224.575893 
" clip-path="url(#p40998691be)" style="fill: none; stroke: #21262d; stroke-width: 0.5; stroke-linecap: square"/>
     </g>
     <g id="line2d_18">
      <g>
       <use xlink:href="#m3f4da0f625" x="42.712969" y="224.575893" style="fill: #8b949e; stroke: #8b949e; stroke-width: 0.5"/>
      </g>
     </g>
     <g id="text_10">
      <!-- 100 -->
      <g style="fill: #8b949e" transform="translate(19.958125 228.019096) scale(0.09 -0.09)">
       <use xlink:href="#DejaVuSansMono-31"/>
       <use xlink:href="#DejaVuSansMono-30" transform="translate(60.205078 0)"/>
       <use xlink:href="#DejaVuSansMono-30" transform="translate(120.410156 0)"/>
      </g>
     </g>
    </g>
    <g id="ytick_3">
     <g id="line2d_19">
      <path d="M 42.712969 202.683785 
L 424.072969 202.683785 
" clip-path="url(#p40998691be)" style="fill: none; stroke: #21262d; stroke-width: 0.5; stroke-linecap: square"/>
     </g>
     <g id="line2d_20">
      <g>
       <use xlink:href="#m3f4da0f625" x="42.712969" y="202.683785" style="fill: #8b949e; stroke: #8b949e; stroke-width: 0.5"/>
      </g>
     </g>
     <g id="text_11">
      <!-- 200 -->
      <g style="fill: #8b949e" transform="translate(19.958125 206.126989) scale(0.09 -0.09)">
       <use xlink:href="#DejaVuSansMono-32"/>
       <use xlink:href="#DejaVuSansMono-30" transform="translate(60.205078 0)"/>
       <use xlink:href="#DejaVuSansMono-30" transform="translate(120.410156 0)"/>
      </g>
     </g>
    </g>
    <g id="ytick_4">
     <g id="line2d_21">
      <path d="M 42.712969 180.791678 
L 424.072969 180.791678 
" clip-path="url(#p40998691be)" style="fill: none; stroke: #21262d; stroke-width: 0.5; stroke-linecap: square"/>
     </g>
     <g id="line2d_22">
      <g>
       <use xlink:href="#m3f4da0f625" x="42.712969" y="180.791678" style="fill: #8b949e; stroke: #8b949e; stroke-width: 0.5"/>
      </g>
     </g>
     <g id="text_12">
      <!-- 300 -->
      <g style="fill: #8b949e" transform="translate(19.958125 184.234881) scale(0.09 -0.09)">
       <use xlink:href="#DejaVuSansMono-33"/>
       <use xlink:href="#DejaVuSansMono-30" transform="translate(60.205078 0)"/>
       <use xlink:href="#DejaVuSansMono-30" transform="translate(120.410156 0)"/>
      </g>
     </g>
    </g>
    <g id="ytick_5">
     <g id="line2d_23">
      <path d="M 42.712969 158.899571 
L 424.072969 158.899571 
" clip-path="url(#p40998691be)" style="fill: none; stroke: #21262d; stroke-width: 0.5; stroke-linecap: square"/>
     </g>
     <g id="line2d_24">
      <g>
       <use xlink:href="#m3f4da0f625" x="42.712969" y="158.899571" style="fill: #8b949e; stroke: #8b949e; stroke-width: 0.5"/>
      </g>
     </g>
     <g id="text_13">
      <!-- 400 -->
      <g style="fill: #8b949e" transform="translate(19.958125 162.342774) scale(0.09 -0.09)">
       <use xlink:href="#DejaVuSansMono-34"/>
       <use xlink:href="#DejaVuSansMono-30" transform="translate(60.205078 0)"/>
       <use xlink:href="#DejaVuSansMono-30" transform="translate(120.410156 0)"/>
      </g>
     </g>
    </g>
    <g id="ytick_6">
     <g id="line2d_25">
      <path d="M 42.712969 137.007464 
L 424.072969 137.007464 
" clip-path="url(#p40998691be)" style="fill: none; stroke: #21262d; stroke-width: 0.5; stroke-linecap: square"/>
     </g>
     <g id="line2d_26">
      <g>
       <use xlink:href="#m3f4da0f625" x="42.712969" y="137.007464" style="fill: #8b949e; stroke: #8b949e; stroke-width: 0.5"/>
      </g>
     </g>
     <g id="text_14">
      <!-- 500 -->
      <g style="fill: #8b949e" transform="translate(19.958125 140.450667) scale(0.09 -0.09)">
       <use xlink:href="#DejaVuSansMono-35"/>
       <use xlink:href="#DejaVuSansMono-30" transform="translate(60.205078 0)"/>
       <use xlink:href="#DejaVuSansMono-30" transform="translate(120.410156 0)"/>
      </g>
     </g>
    </g>
    <g id="ytick_7">
     <g id="line2d_27">
      <path d="M 42.712969 115.115356 
L 424.072969 115.115356 
" clip-path="url(#p40998691be)" style="fill: none; stroke: #21262d; stroke-width: 0.5; stroke-linecap: square"/>
     </g>
     <g id="line2d_28">
      <g>
       <use xlink:href="#m3f4da0f625" x="42.712969" y="115.115356" style="fill: #8b949e; stroke: #8b949e; stroke-width: 0.5"/>
      </g>
     </g>
     <g id="text_15">
      <!-- 600 -->
      <g style="fill: #8b949e" transform="translate(19.958125 118.558559) scale(0.09 -0.09)">
       <use xlink:href="#DejaVuSansMono-36"/>
       <use xlink:href="#DejaVuSansMono-30" transform="translate(60.205078 0)"/>
       <use xlink:href="#DejaVuSansMono-30" transform="translate(120.410156 0)"/>
      </g>
     </g>
    </g>
    <g id="ytick_8">
     <g id="line2d_29">
      <path d="M 42.712969 93.223249 
L 424.072969 93.223249 
" clip-path="url(#p40998691be)" style="fill: none; stroke: #21262d; stroke-width: 0.5; stroke-linecap: square"/>
     </g>
     <g id="line2d_30">
      <g>
       <use xlink:href="#m3f4da0f625" x="42.712969" y="93.223249" style="fill: #8b949e; stroke: #8b949e; stroke-width: 0.5"/>
      </g>
     </g>
     <g id="text_16">
      <!-- 700 -->
      <g style="fill: #8b949e" transform="translate(19.958125 96.666452) scale(0.09 -0.09)">
       <defs>
        <path id="DejaVuSansMono-37" d="M 434 4666 
L 3372 4666 
L 3372 4397 
L 1703 0 
L 1044 0 
L 2669 4134 
L 434 4134 
L 434 4666 
z
" transform="scale(0.015625)"/>
       </defs>
       <use xlink:href="#DejaVuSansMono-37"/>
       <use xlink:href="#DejaVuSansMono-30" transform="translate(60.205078 0)"/>
       <use xlink:href="#DejaVuSansMono-30" transform="translate(120.410156 0)"/>
      </g>
     </g>
    </g>
    <g id="ytick_9">
     <g id="line2d_31">
      <path d="M 42.712969 71.331142 
L 424.072969 71.331142 
" clip-path="url(#p40998691be)" style="fill: none; stroke: #21262d; stroke-width: 0.5; stroke-linecap: square"/>
     </g>
     <g id="line2d_32">
      <g>
       <use xlink:href="#m3f4da0f625" x="42.712969" y="71.331142" style="fill: #8b949e; stroke: #8b949e; stroke-width: 0.5"/>
      </g>
     </g>
     <g id="text_17">
      <!-- 800 -->
      <g style="fill: #8b949e" transform="translate(19.958125 74.774345) scale(0.09 -0.09)">
       <defs>
        <path id="DejaVuSansMono-38" d="M 1925 2216 
Q 1503 2216 1273 1980 
Q 1044 1744 1044 1313 
Q 1044 881 1276 642 
Q 1509 403 1925 403 
Q 2350 403 2579 639 
Q 2809 875 2809 1313 
Q 2809 1741 2576 1978 
Q 2344 2216 1925 2216 
z
M 1375 2478 
Q 972 2581 745 2862 
Q 519 3144 519 3541 
Q 519 4097 897 4423 
Q 1275 4750 1925 4750 
Q 2578 4750 2956 4423 
Q 3334 4097 3334 3541 
Q 3334 3144 3107 2862 
Q 2881 2581 2478 2478 
Q 2947 2375 3195 2062 
Q 3444 1750 3444 1253 
Q 3444 622 3041 265 
Q 2638 -91 1925 -91 
Q 1213 -91 811 264 
Q 409 619 409 1247 
Q 409 1747 657 2061 
Q 906 2375 1375 2478 
z
M 1147 3481 
Q 1147 3106 1347 2909 
Q 1547 2713 1925 2713 
Q 2306 2713 2506 2909 
Q 2706 3106 2706 3481 
Q 2706 3863 2507 4063 
Q 2309 4263 1925 4263 
Q 1547 4263 1347 4061 
Q 1147 3859 1147 3481 
z
" transform="scale(0.015625)"/>
       </defs>
       <use xlink:href="#DejaVuSansMono-38"/>
       <use xlink:href="#DejaVuSansMono-30" transform="translate(60.205078 0)"/>
       <use xlink:href="#DejaVuSansMono-30" transform="translate(120.410156 0)"/>
      </g>
     </g>
    </g>
    <g id="text_18">
     <!-- MB/s -->
     <g style="fill: #8b949e" transform="translate(14.086406 165.286563) rotate(-90) scale(0.09 -0.09)">
      <defs>
       <path id="DejaVuSansMono-4d" d="M 269 4666 
L 1113 4666 
L 1919 2291 
L 2731 4666 
L 3578 4666 
L 3578 0 
L 2994 0 
L 2994 4122 
L 2163 1663 
L 1684 1663 
L 850 4122 
L 850 0 
L 269 0 
L 269 4666 
z
" transform="scale(0.015625)"/>
       <path id="DejaVuSansMono-42" d="M 1153 2228 
L 1153 519 
L 1900 519 
Q 2450 519 2684 711 
Q 2919 903 2919 1344 
Q 2919 1800 2672 2014 
Q 2425 2228 1900 2228 
L 1153 2228 
z
M 1153 4147 
L 1153 2741 
L 1888 2741 
Q 2344 2741 2548 2916 
Q 2753 3091 2753 3481 
Q 2753 3834 2551 3990 
Q 2350 4147 1888 4147 
L 1153 4147 
z
M 519 4666 
L 1900 4666 
Q 2616 4666 3003 4356 
Q 3391 4047 3391 3481 
Q 3391 3053 3186 2806 
Q 2981 2559 2572 2497 
Q 3031 2428 3292 2104 
Q 3553 1781 3553 1281 
Q 3553 647 3137 323 
Q 2722 0 1900 0 
L 519 0 
L 519 4666 
z
" transform="scale(0.015625)"/>
       <path id="DejaVuSansMono-2f" d="M 2778 4666 
L 3372 4666 
L 916 -594 
L 319 -594 
L 2778 4666 
z
" transform="scale(0.015625)"/>
      </defs>
      <use xlink:href="#DejaVuSansMono-4d"/>
      <use xlink:href="#DejaVuSansMono-42" transform="translate(60.205078 0)"/>
      <use xlink:href="#DejaVuSansMono-2f" transform="translate(120.410156 0)"/>
      <use xlink:href="#DejaVuSansMono-73" transform="translate(180.615234 0)"/>
     </g>
    </g>
   </g>
   <g id="line2d_33">
    <path d="M 48.491151 184.858246 
L 50.320424 173.68663 
L 52.149698 164.602141 
L 53.978971 157.072594 
L 55.808245 150.732556 
L 57.637519 145.322783 
L 59.466792 140.654261 
L 61.296066 136.58593 
L 63.12534 133.010385 
L 64.954613 129.844403 
L 66.783887 127.022503 
L 68.613161 124.492453 
L 70.442434 122.212082 
L 72.271708 120.146972 
L 74.100982 118.268748 
L 77.759529 114.982387 
L 81.418076 112.205684 
L 85.076623 109.832298 
L 88.735171 107.783536 
L 92.393718 105.99992 
L 96.052265 104.43566 
L 99.710813 103.054928 
L 105.198633 101.267312 
L 110.686454 99.756162 
L 116.174275 98.467031 
L 123.49137 97.024032 
L 130.808464 95.831639 
L 139.954833 94.615385 
L 149.101201 93.6367 
L 160.076843 92.703624 
L 172.881758 91.869317 
L 187.515947 91.167437 
L 203.97941 90.615696 
L 222.272146 90.220161 
L 244.22343 89.96537 
L 271.662535 89.886418 
L 304.58946 90.033184 
L 344.83348 90.449662 
L 396.053142 91.218925 
L 412.516605 91.505206 
L 412.516605 91.505206 
" clip-path="url(#p40998691be)" style="fill: none; stroke: #238636; stroke-opacity: 0.6; stroke-width: 1.5; stroke-linecap: square"/>
   </g>
   <g id="patch_3">
    <path d="M 42.712969 246.468 
L 42.712969 62.432 
" style="fill: none; stroke: #30363d; stroke-width: 0.8; stroke-linejoin: miter; stroke-linecap: square"/>
   </g>
   <g id="patch_4">
    <path d="M 424.072969 246.468 
L 424.072969 62.432 
" style="fill: none; stroke: #30363d; stroke-width: 0.8; stroke-linejoin: miter; stroke-linecap: square"/>
   </g>
   <g id="patch_5">
    <path d="M 42.712969 246.468 
L 424.072969 246.468 
" style="fill: none; stroke: #30363d; stroke-width: 0.8; stroke-linejoin: miter; stroke-linecap: square"/>
   </g>
   <g id="patch_6">
    <path d="M 42.712969 62.432 
L 424.072969 62.432 
" style="fill: none; stroke: #30363d; stroke-width: 0.8; stroke-linejoin: miter; stroke-linecap: square"/>
   </g>
   <g id="text_19">
    <!-- THROUGHPUT -->
    <g style="fill: #e6edf3" transform="translate(42.712969 54.432) scale(0.11 -0.11)">
     <defs>
      <path id="DejaVuSansMono-Bold-54" d="M 2388 0 
L 1466 0 
L 1466 3859 
L 281 3859 
L 281 4666 
L 3572 4666 
L 3572 3859 
L 2388 3859 
L 2388 0 
z
" transform="scale(0.015625)"/>
      <path id="DejaVuSansMono-Bold-48" d="M 428 4666 
L 1350 4666 
L 1350 2888 
L 2503 2888 
L 2503 4666 
L 3425 4666 
L 3425 0 
L 2503 0 
L 2503 2075 
L 1350 2075 
L 1350 0 
L 428 0 
L 428 4666 
z
" transform="scale(0.015625)"/>
      <path id="DejaVuSansMono-Bold-52" d="M 2522 2203 
Q 2659 2175 2761 2073 
Q 2863 1972 3009 1678 
L 3853 0 
L 2841 0 
L 2278 1178 
Q 2253 1228 2213 1316 
Q 1966 1844 1631 1844 
L 1338 1844 
L 1338 0 
L 416 0 
L 416 4666 
L 1747 4666 
Q 2647 4666 3039 4347 
Q 3431 4028 3431 3309 
Q 3431 2828 3197 2543 
Q 2963 2259 2522 2203 
z
M 1338 3891 
L 1338 2619 
L 1772 2619 
Q 2150 2619 2314 2767 
Q 2478 2916 2478 3256 
Q 2478 3597 2315 3744 
Q 2153 3891 1772 3891 
L 1338 3891 
z
" transform="scale(0.015625)"/>
      <path id="DejaVuSansMono-Bold-4f" d="M 1925 3922 
Q 1572 3922 1409 3545 
Q 1247 3169 1247 2328 
Q 1247 1491 1409 1114 
Q 1572 738 1925 738 
Q 2281 738 2443 1114 
Q 2606 1491 2606 2328 
Q 2606 3169 2443 3545 
Q 2281 3922 1925 3922 
z
M 288 2328 
Q 288 3525 702 4137 
Q 1116 4750 1925 4750 
Q 2738 4750 3152 4137 
Q 3566 3525 3566 2328 
Q 3566 1134 3152 521 
Q 2738 -91 1925 -91 
Q 1116 -91 702 521 
Q 288 1134 288 2328 
z
" transform="scale(0.015625)"/>
      <path id="DejaVuSansMono-Bold-55" d="M 331 1722 
L 331 4666 
L 1253 4666 
L 1253 1491 
Q 1253 1141 1431 942 
Q 1609 744 1925 744 
Q 2241 744 2419 942 
Q 2597 1141 2597 1491 
L 2597 4666 
L 3519 4666 
L 3519 1722 
Q 3519 772 3141 340 
Q 2763 -91 1925 -91 
Q 1091 -91 711 340 
Q 331 772 331 1722 
z
" transform="scale(0.015625)"/>
      <path id="DejaVuSansMono-Bold-47" d="M 2725 844 
L 2725 1734 
L 2094 1734 
L 2094 2509 
L 3531 2509 
L 3531 372 
Q 3266 144 2945 26 
Q 2625 -91 2259 -91 
Q 1353 -91 859 539 
Q 366 1169 366 2328 
Q 366 3506 864 4128 
Q 1363 4750 2303 4750 
Q 2584 4750 2856 4670 
Q 3128 4591 3366 4441 
L 3366 3419 
Q 3172 3669 2920 3795 
Q 2669 3922 2369 3922 
Q 1844 3922 1584 3526 
Q 1325 3131 1325 2328 
Q 1325 1550 1575 1144 
Q 1825 738 2303 738 
Q 2447 738 2553 764 
Q 2659 791 2725 844 
z
" transform="scale(0.015625)"/>
      <path id="DejaVuSansMono-Bold-50" d="M 1428 3891 
L 1428 2522 
L 1806 2522 
Q 2259 2522 2442 2675 
Q 2625 2828 2625 3206 
Q 2625 3584 2442 3737 
Q 2259 3891 1806 3891 
L 1428 3891 
z
M 506 4666 
L 1772 4666 
Q 2738 4666 3161 4322 
Q 3584 3978 3584 3206 
Q 3584 2434 3161 2090 
Q 2738 1747 1772 1747 
L 1428 1747 
L 1428 0 
L 506 0 
L 506 4666 
z
" transform="scale(0.015625)"/>
     </defs>
     <use xlink:href="#DejaVuSansMono-Bold-54"/>
     <use xlink:href="#DejaVuSansMono-Bold-48" transform="translate(60.205078 0)"/>
     <use xlink:href="#DejaVuSansMono-Bold-52" transform="translate(120.410156 0)"/>
     <use xlink:href="#DejaVuSansMono-Bold-4f" transform="translate(180.615234 0)"/>
     <use xlink:href="#DejaVuSansMono-Bold-55" transform="translate(240.820312 0)"/>
     <use xlink:href="#DejaVuSansMono-Bold-47" transform="translate(301.025391 0)"/>
     <use xlink:href="#DejaVuSansMono-Bold-48" transform="translate(361.230469 0)"/>
     <use xlink:href="#DejaVuSansMono-Bold-50" transform="translate(421.435547 0)"/>
     <use xlink:href="#DejaVuSansMono-Bold-55" transform="translate(481.640625 0)"/>
     <use xlink:href="#DejaVuSansMono-Bold-54" transform="translate(541.845703 0)"/>
    </g>
   </g>
   <g id="PathCollection_1">
    <defs>
     <path id="mf0693e59ae" d="M 0 2.738613 
C 0.726289 2.738613 1.422928 2.450055 1.936492 1.936492 
C 2.450055 1.422928 2.738613 0.726289 2.738613 0 
C 2.738613 -0.726289 2.450055 -1.422928 1.936492 -1.936492 
C 1.422928 -2.450055 0.726289 -2.738613 0 -2.738613 
C -0.726289 -2.738613 -1.422928 -2.450055 -1.936492 -1.936492 
C -2.450055 -1.422928 -2.738613 -0.726289 -2.738613 0 
C -2.738613 0.726289 -2.450055 1.422928 -1.936492 1.936492 
C -1.422928 2.450055 -0.726289 2.738613 0 2.738613 
z
" style="stroke: #161b22; stroke-width: 1.5"/>
    </defs>
    <g clip-path="url(#p40998691be)">
     <use xlink:href="#mf0693e59ae" x="48.491151" y="179.959778" style="fill: #3fb950; stroke: #161b22; stroke-width: 1.5"/>
     <use xlink:href="#mf0693e59ae" x="54.269332" y="153.426544" style="fill: #3fb950; stroke: #161b22; stroke-width: 1.5"/>
     <use xlink:href="#mf0693e59ae" x="65.825696" y="131.687681" style="fill: #3fb950; stroke: #161b22; stroke-width: 1.5"/>
     <use xlink:href="#mf0693e59ae" x="88.938423" y="118.26782" style="fill: #3fb950; stroke: #161b22; stroke-width: 1.5"/>
     <use xlink:href="#mf0693e59ae" x="112.051151" y="101.629818" style="fill: #3fb950; stroke: #161b22; stroke-width: 1.5"/>
     <use xlink:href="#mf0693e59ae" x="135.163878" y="96.178683" style="fill: #3fb950; stroke: #161b22; stroke-width: 1.5"/>
     <use xlink:href="#mf0693e59ae" x="158.276605" y="91.077822" style="fill: #3fb950; stroke: #161b22; stroke-width: 1.5"/>
     <use xlink:href="#mf0693e59ae" x="181.389332" y="87.42184" style="fill: #3fb950; stroke: #161b22; stroke-width: 1.5"/>
     <use xlink:href="#mf0693e59ae" x="204.50206" y="87.049675" style="fill: #3fb950; stroke: #161b22; stroke-width: 1.5"/>
     <use xlink:href="#mf0693e59ae" x="227.614787" y="86.436696" style="fill: #3fb950; stroke: #161b22; stroke-width: 1.5"/>
     <use xlink:href="#mf0693e59ae" x="250.727514" y="86.58994" style="fill: #3fb950; stroke: #161b22; stroke-width: 1.5"/>
     <use xlink:href="#mf0693e59ae" x="273.840241" y="87.706438" style="fill: #3fb950; stroke: #161b22; stroke-width: 1.5"/>
     <use xlink:href="#mf0693e59ae" x="296.952969" y="88.385093" style="fill: #3fb950; stroke: #161b22; stroke-width: 1.5"/>
     <use xlink:href="#mf0693e59ae" x="320.065696" y="89.983217" style="fill: #3fb950; stroke: #161b22; stroke-width: 1.5"/>
     <use xlink:href="#mf0693e59ae" x="343.178423" y="91.099715" style="fill: #3fb950; stroke: #161b22; stroke-width: 1.5"/>
     <use xlink:href="#mf0693e59ae" x="366.291151" y="93.004328" style="fill: #3fb950; stroke: #161b22; stroke-width: 1.5"/>
     <use xlink:href="#mf0693e59ae" x="389.403878" y="94.16461" style="fill: #3fb950; stroke: #161b22; stroke-width: 1.5"/>
     <use xlink:href="#mf0693e59ae" x="412.516605" y="94.405423" style="fill: #3fb950; stroke: #161b22; stroke-width: 1.5"/>
    </g>
   </g>
  </g>
  <g id="axes_2">
   <g id="patch_7">
    <path d="M 469.852969 246.468 
L 851.212969 246.468 
L 851.212969 62.432 
L 469.852969 62.432 
z
" style="fill: #161b22"/>
   </g>
   <g id="matplotlib.axis_3">
    <g id="xtick_8">
     <g id="line2d_34">
      <path d="M 469.852969 246.468 
L 469.852969 62.432 
" clip-path="url(#pa8aa13405d)" style="fill: none; stroke: #21262d; stroke-width: 0.5; stroke-linecap: square"/>
     </g>
     <g id="line2d_35">
      <g>
       <use xlink:href="#m8e339f4ee9" x="469.852969" y="246.468" style="fill: #8b949e; stroke: #8b949e; stroke-width: 0.5"/>
      </g>
     </g>
     <g id="text_20">
      <!-- 0 -->
      <g style="fill: #8b949e" transform="translate(467.143828 259.854406) scale(0.09 -0.09)">
       <use xlink:href="#DejaVuSansMono-30"/>
      </g>
     </g>
    </g>
    <g id="xtick_9">
     <g id="line2d_36">
      <path d="M 527.634787 246.468 
L 527.634787 62.432 
" clip-path="url(#pa8aa13405d)" style="fill: none; stroke: #21262d; stroke-width: 0.5; stroke-linecap: square"/>
     </g>
     <g id="line2d_37">
      <g>
       <use xlink:href="#m8e339f4ee9" x="527.634787" y="246.468" style="fill: #8b949e; stroke: #8b949e; stroke-width: 0.5"/>
      </g>
     </g>
     <g id="text_21">
      <!-- 10 -->
      <g style="fill: #8b949e" transform="translate(522.216506 259.854406) scale(0.09 -0.09)">
       <use xlink:href="#DejaVuSansMono-31"/>
       <use xlink:href="#DejaVuSansMono-30" transform="translate(60.205078 0)"/>
      </g>
     </g>
    </g>
    <g id="xtick_10">
     <g id="line2d_38">
      <path d="M 585.416605 246.468 
L 585.416605 62.432 
" clip-path="url(#pa8aa13405d)" style="fill: none; stroke: #21262d; stroke-width: 0.5; stroke-linecap: square"/>
     </g>
     <g id="line2d_39">
      <g>
       <use xlink:href="#m8e339f4ee9" x="585.416605" y="246.468" style="fill: #8b949e; stroke: #8b949e; stroke-width: 0.5"/>
      </g>
     </g>
     <g id="text_22">
      <!-- 20 -->
      <g style="fill: #8b949e" transform="translate(579.998324 259.854406) scale(0.09 -0.09)">
       <use xlink:href="#DejaVuSansMono-32"/>
       <use xlink:href="#DejaVuSansMono-30" transform="translate(60.205078 0)"/>
      </g>
     </g>
    </g>
    <g id="xtick_11">
     <g id="line2d_40">
      <path d="M 643.198423 246.468 
L 643.198423 62.432 
" clip-path="url(#pa8aa13405d)" style="fill: none; stroke: #21262d; stroke-width: 0.5; stroke-linecap: square"/>
     </g>
     <g id="line2d_41">
      <g>
       <use xlink:href="#m8e339f4ee9" x="643.198423" y="246.468" style="fill: #8b949e; stroke: #8b949e; stroke-width: 0.5"/>
      </g>
     </g>
     <g id="text_23">
      <!-- 30 -->
      <g style="fill: #8b949e" transform="translate(637.780142 259.854406) scale(0.09 -0.09)">
       <use xlink:href="#DejaVuSansMono-33"/>
       <use xlink:href="#DejaVuSansMono-30" transform="translate(60.205078 0)"/>
      </g>
     </g>
    </g>
    <g id="xtick_12">
     <g id="line2d_42">
      <path d="M 700.980241 246.468 
L 700.980241 62.432 
" clip-path="url(#pa8aa13405d)" style="fill: none; stroke: #21262d; stroke-width: 0.5; stroke-linecap: square"/>
     </g>
     <g id="line2d_43">
      <g>
       <use xlink:href="#m8e339f4ee9" x="700.980241" y="246.468" style="fill: #8b949e; stroke: #8b949e; stroke-width: 0.5"/>
      </g>
     </g>
     <g id="text_24">
      <!-- 40 -->
      <g style="fill: #8b949e" transform="translate(695.56196 259.854406) scale(0.09 -0.09)">
       <use xlink:href="#DejaVuSansMono-34"/>
       <use xlink:href="#DejaVuSansMono-30" transform="translate(60.205078 0)"/>
      </g>
     </g>
    </g>
    <g id="xtick_13">
     <g id="line2d_44">
      <path d="M 758.76206 246.468 
L 758.76206 62.432 
" clip-path="url(#pa8aa13405d)" style="fill: none; stroke: #21262d; stroke-width: 0.5; stroke-linecap: square"/>
     </g>
     <g id="line2d_45">
      <g>
       <use xlink:href="#m8e339f4ee9" x="758.76206" y="246.468" style="fill: #8b949e; stroke: #8b949e; stroke-width: 0.5"/>
      </g>
     </g>
     <g id="text_25">
      <!-- 50 -->
      <g style="fill: #8b949e" transform="translate(753.343778 259.854406) scale(0.09 -0.09)">
       <use xlink:href="#DejaVuSansMono-35"/>
       <use xlink:href="#DejaVuSansMono-30" transform="translate(60.205078 0)"/>
      </g>
     </g>
    </g>
    <g id="xtick_14">
     <g id="line2d_46">
      <path d="M 816.543878 246.468 
L 816.543878 62.432 
" clip-path="url(#pa8aa13405d)" style="fill: none; stroke: #21262d; stroke-width: 0.5; stroke-linecap: square"/>
     </g>
     <g id="line2d_47">
      <g>
       <use xlink:href="#m8e339f4ee9" x="816.543878" y="246.468" style="fill: #8b949e; stroke: #8b949e; stroke-width: 0.5"/>
      </g>
     </g>
     <g id="text_26">
      <!-- 60 -->
      <g style="fill: #8b949e" transform="translate(811.125597 259.854406) scale(0.09 -0.09)">
       <use xlink:href="#DejaVuSansMono-36"/>
       <use xlink:href="#DejaVuSansMono-30" transform="translate(60.205078 0)"/>
      </g>
     </g>
    </g>
    <g id="text_27">
     <!-- threads -->
     <g style="fill: #8b949e" transform="translate(641.568984 272.612531) scale(0.09 -0.09)">
      <use xlink:href="#DejaVuSansMono-74"/>
      <use xlink:href="#DejaVuSansMono-68" transform="translate(60.205078 0)"/>
      <use xlink:href="#DejaVuSansMono-72" transform="translate(120.410156 0)"/>
      <use xlink:href="#DejaVuSansMono-65" transform="translate(180.615234 0)"/>
      <use xlink:href="#DejaVuSansMono-61" transform="translate(240.820312 0)"/>
      <use xlink:href="#DejaVuSansMono-64" transform="translate(301.025391 0)"/>
      <use xlink:href="#DejaVuSansMono-73" transform="translate(361.230469 0)"/>
     </g>
    </g>
   </g>
   <g id="matplotlib.axis_4">
    <g id="ytick_10">
     <g id="line2d_48">
      <path d="M 469.852969 246.468 
L 851.212969 246.468 
" clip-path="url(#pa8aa13405d)" style="fill: none; stroke: #21262d; stroke-width: 0.5; stroke-linecap: square"/>
     </g>
     <g id="line2d_49">
      <g>
       <use xlink:href="#m3f4da0f625" x="469.852969" y="246.468" style="fill: #8b949e; stroke: #8b949e; stroke-width: 0.5"/>
      </g>
     </g>
     <g id="text_28">
      <!-- 0.0 -->
      <g style="fill: #8b949e" transform="translate(447.098125 249.911203) scale(0.09 -0.09)">
       <defs>
        <path id="DejaVuSansMono-2e" d="M 1528 953 
L 2316 953 
L 2316 0 
L 1528 0 
L 1528 953 
z
" transform="scale(0.015625)"/>
       </defs>
       <use xlink:href="#DejaVuSansMono-30"/>
       <use xlink:href="#DejaVuSansMono-2e" transform="translate(60.205078 0)"/>
       <use xlink:href="#DejaVuSansMono-30" transform="translate(120.410156 0)"/>
      </g>
     </g>
    </g>
    <g id="ytick_11">
     <g id="line2d_50">
      <path d="M 469.852969 213.213889 
L 851.212969 213.213889 
" clip-path="url(#pa8aa13405d)" style="fill: none; stroke: #21262d; stroke-width: 0.5; stroke-linecap: square"/>
     </g>
     <g id="line2d_51">
      <g>
       <use xlink:href="#m3f4da0f625" x="469.852969" y="213.213889" style="fill: #8b949e; stroke: #8b949e; stroke-width: 0.5"/>
      </g>
     </g>
     <g id="text_29">
      <!-- 0.5 -->
      <g style="fill: #8b949e" transform="translate(447.098125 216.657092) scale(0.09 -0.09)">
       <use xlink:href="#DejaVuSansMono-30"/>
       <use xlink:href="#DejaVuSansMono-2e" transform="translate(60.205078 0)"/>
       <use xlink:href="#DejaVuSansMono-35" transform="translate(120.410156 0)"/>
      </g>
     </g>
    </g>
    <g id="ytick_12">
     <g id="line2d_52">
      <path d="M 469.852969 179.959778 
L 851.212969 179.959778 
" clip-path="url(#pa8aa13405d)" style="fill: none; stroke: #21262d; stroke-width: 0.5; stroke-linecap: square"/>
     </g>
     <g id="line2d_53">
      <g>
       <use xlink:href="#m3f4da0f625" x="469.852969" y="179.959778" style="fill: #8b949e; stroke: #8b949e; stroke-width: 0.5"/>
      </g>
     </g>
     <g id="text_30">
      <!-- 1.0 -->
      <g style="fill: #8b949e" transform="translate(447.098125 183.402981) scale(0.09 -0.09)">
       <use xlink:href="#DejaVuSansMono-31"/>
       <use xlink:href="#DejaVuSansMono-2e" transform="translate(60.205078 0)"/>
       <use xlink:href="#DejaVuSansMono-30" transform="translate(120.410156 0)"/>
      </g>
     </g>
    </g>
    <g id="ytick_13">
     <g id="line2d_54">
      <path d="M 469.852969 146.705667 
L 851.212969 146.705667 
" clip-path="url(#pa8aa13405d)" style="fill: none; stroke: #21262d; stroke-width: 0.5; stroke-linecap: square"/>
     </g>
     <g id="line2d_55">
      <g>
       <use xlink:href="#m3f4da0f625" x="469.852969" y="146.705667" style="fill: #8b949e; stroke: #8b949e; stroke-width: 0.5"/>
      </g>
     </g>
     <g id="text_31">
      <!-- 1.5 -->
      <g style="fill: #8b949e" transform="translate(447.098125 150.14887) scale(0.09 -0.09)">
       <use xlink:href="#DejaVuSansMono-31"/>
       <use xlink:href="#DejaVuSansMono-2e" transform="translate(60.205078 0)"/>
       <use xlink:href="#DejaVuSansMono-35" transform="translate(120.410156 0)"/>
      </g>
     </g>
    </g>
    <g id="ytick_14">
     <g id="line2d_56">
      <path d="M 469.852969 113.451556 
L 851.212969 113.451556 
" clip-path="url(#pa8aa13405d)" style="fill: none; stroke: #21262d; stroke-width: 0.5; stroke-linecap: square"/>
     </g>
     <g id="line2d_57">
      <g>
       <use xlink:href="#m3f4da0f625" x="469.852969" y="113.451556" style="fill: #8b949e; stroke: #8b949e; stroke-width: 0.5"/>
      </g>
     </g>
     <g id="text_32">
      <!-- 2.0 -->
      <g style="fill: #8b949e" transform="translate(447.098125 116.894759) scale(0.09 -0.09)">
       <use xlink:href="#DejaVuSansMono-32"/>
       <use xlink:href="#DejaVuSansMono-2e" transform="translate(60.205078 0)"/>
       <use xlink:href="#DejaVuSansMono-30" transform="translate(120.410156 0)"/>
      </g>
     </g>
    </g>
    <g id="ytick_15">
     <g id="line2d_58">
      <path d="M 469.852969 80.197445 
L 851.212969 80.197445 
" clip-path="url(#pa8aa13405d)" style="fill: none; stroke: #21262d; stroke-width: 0.5; stroke-linecap: square"/>
     </g>
     <g id="line2d_59">
      <g>
       <use xlink:href="#m3f4da0f625" x="469.852969" y="80.197445" style="fill: #8b949e; stroke: #8b949e; stroke-width: 0.5"/>
      </g>
     </g>
     <g id="text_33">
      <!-- 2.5 -->
      <g style="fill: #8b949e" transform="translate(447.098125 83.640648) scale(0.09 -0.09)">
       <use xlink:href="#DejaVuSansMono-32"/>
       <use xlink:href="#DejaVuSansMono-2e" transform="translate(60.205078 0)"/>
       <use xlink:href="#DejaVuSansMono-35" transform="translate(120.410156 0)"/>
      </g>
     </g>
    </g>
    <g id="text_34">
     <!-- speedup -->
     <g style="fill: #8b949e" transform="translate(441.226406 173.413984) rotate(-90) scale(0.09 -0.09)">
      <defs>
       <path id="DejaVuSansMono-70" d="M 1172 441 
L 1172 -1331 
L 594 -1331 
L 594 3500 
L 1172 3500 
L 1172 3053 
Q 1316 3313 1555 3448 
Q 1794 3584 2106 3584 
Q 2741 3584 3102 3093 
Q 3463 2603 3463 1734 
Q 3463 881 3100 395 
Q 2738 -91 2106 -91 
Q 1788 -91 1548 45 
Q 1309 181 1172 441 
z
M 2859 1747 
Q 2859 2416 2648 2756 
Q 2438 3097 2022 3097 
Q 1603 3097 1387 2755 
Q 1172 2413 1172 1747 
Q 1172 1084 1387 740 
Q 1603 397 2022 397 
Q 2438 397 2648 737 
Q 2859 1078 2859 1747 
z
" transform="scale(0.015625)"/>
       <path id="DejaVuSansMono-75" d="M 609 1325 
L 609 3494 
L 1184 3494 
L 1184 1325 
Q 1184 853 1351 631 
Q 1519 409 1869 409 
Q 2275 409 2490 695 
Q 2706 981 2706 1516 
L 2706 3494 
L 3284 3494 
L 3284 0 
L 2706 0 
L 2706 525 
Q 2553 222 2289 65 
Q 2025 -91 1672 -91 
Q 1134 -91 871 261 
Q 609 613 609 1325 
z
" transform="scale(0.015625)"/>
      </defs>
      <use xlink:href="#DejaVuSansMono-73"/>
      <use xlink:href="#DejaVuSansMono-70" transform="translate(60.205078 0)"/>
      <use xlink:href="#DejaVuSansMono-65" transform="translate(120.410156 0)"/>
      <use xlink:href="#DejaVuSansMono-65" transform="translate(180.615234 0)"/>
      <use xlink:href="#DejaVuSansMono-64" transform="translate(240.820312 0)"/>
      <use xlink:href="#DejaVuSansMono-75" transform="translate(301.025391 0)"/>
      <use xlink:href="#DejaVuSansMono-70" transform="translate(361.230469 0)"/>
     </g>
    </g>
   </g>
   <g id="line2d_60">
    <path d="M 475.631151 184.858246 
L 477.460424 173.68663 
L 479.289698 164.602141 
L 481.118971 157.072594 
L 482.948245 150.732556 
L 484.777519 145.322783 
L 486.606792 140.654261 
L 488.436066 136.58593 
L 490.26534 133.010385 
L 492.094613 129.844403 
L 493.923887 127.022503 
L 495.753161 124.492453 
L 497.582434 122.212082 
L 499.411708 120.146972 
L 501.240982 118.268748 
L 504.899529 114.982387 
L 508.558076 112.205684 
L 512.216623 109.832298 
L 515.875171 107.783536 
L 519.533718 105.99992 
L 523.192265 104.43566 
L 526.850813 103.054928 
L 532.338633 101.267312 
L 537.826454 99.756162 
L 543.314275 98.467031 
L 550.63137 97.024032 
L 557.948464 95.831639 
L 567.094833 94.615385 
L 576.241201 93.6367 
L 587.216843 92.703624 
L 600.021758 91.869317 
L 614.655947 91.167437 
L 631.11941 90.615696 
L 649.412146 90.220161 
L 671.36343 89.96537 
L 698.802535 89.886418 
L 731.72946 90.033184 
L 771.97348 90.449662 
L 823.193142 91.218925 
L 839.656605 91.505206 
L 839.656605 91.505206 
" clip-path="url(#pa8aa13405d)" style="fill: none; stroke: #238636; stroke-opacity: 0.6; stroke-width: 1.5; stroke-linecap: square"/>
   </g>
   <g id="patch_8">
    <path d="M 469.852969 246.468 
L 469.852969 62.432 
" style="fill: none; stroke: #30363d; stroke-width: 0.8; stroke-linejoin: miter; stroke-linecap: square"/>
   </g>
   <g id="patch_9">
    <path d="M 851.212969 246.468 
L 851.212969 62.432 
" style="fill: none; stroke: #30363d; stroke-width: 0.8; stroke-linejoin: miter; stroke-linecap: square"/>
   </g>
   <g id="patch_10">
    <path d="M 469.852969 246.468 
L 851.212969 246.468 
" style="fill: none; stroke: #30363d; stroke-width: 0.8; stroke-linejoin: miter; stroke-linecap: square"/>
   </g>
   <g id="patch_11">
    <path d="M 469.852969 62.432 
L 851.212969 62.432 
" style="fill: none; stroke: #30363d; stroke-width: 0.8; stroke-linejoin: miter; stroke-linecap: square"/>
   </g>
   <g id="text_35">
    <!-- SPEEDUP -->
    <g style="fill: #e6edf3" transform="translate(469.852969 54.432) scale(0.11 -0.11)">
     <defs>
      <path id="DejaVuSansMono-Bold-53" d="M 1594 2047 
Q 897 2313 650 2605 
Q 403 2897 403 3391 
Q 403 4025 809 4387 
Q 1216 4750 1925 4750 
Q 2247 4750 2569 4676 
Q 2891 4603 3206 4459 
L 3206 3559 
Q 2909 3769 2603 3878 
Q 2297 3988 1997 3988 
Q 1663 3988 1484 3853 
Q 1306 3719 1306 3469 
Q 1306 3275 1436 3148 
Q 1566 3022 1978 2869 
L 2375 2719 
Q 2938 2513 3203 2172 
Q 3469 1831 3469 1313 
Q 3469 606 3051 257 
Q 2634 -91 1791 -91 
Q 1444 -91 1095 -8 
Q 747 75 422 238 
L 422 1191 
Q 791 928 1136 800 
Q 1481 672 1819 672 
Q 2159 672 2346 826 
Q 2534 981 2534 1259 
Q 2534 1469 2409 1626 
Q 2284 1784 2047 1875 
L 1594 2047 
z
" transform="scale(0.015625)"/>
      <path id="DejaVuSansMono-Bold-45" d="M 3431 0 
L 525 0 
L 525 4666 
L 3431 4666 
L 3431 3853 
L 1447 3853 
L 1447 2847 
L 3244 2847 
L 3244 2034 
L 1447 2034 
L 1447 813 
L 3431 813 
L 3431 0 
z
" transform="scale(0.015625)"/>
      <path id="DejaVuSansMono-Bold-44" d="M 1350 3834 
L 1350 831 
L 1600 831 
Q 2144 831 2375 1173 
Q 2606 1516 2606 2338 
Q 2606 3153 2375 3493 
Q 2144 3834 1600 3834 
L 1350 3834 
z
M 428 4666 
L 1416 4666 
Q 2559 4666 3062 4120 
Q 3566 3575 3566 2338 
Q 3566 1097 3062 548 
Q 2559 0 1416 0 
L 428 0 
L 428 4666 
z
" transform="scale(0.015625)"/>
     </defs>
     <use xlink:href="#DejaVuSansMono-Bold-53"/>
     <use xlink:href="#DejaVuSansMono-Bold-50" transform="translate(60.205078 0)"/>
     <use xlink:href="#DejaVuSansMono-Bold-45" transform="translate(120.410156 0)"/>
     <use xlink:href="#DejaVuSansMono-Bold-45" transform="translate(180.615234 0)"/>
     <use xlink:href="#DejaVuSansMono-Bold-44" transform="translate(240.820312 0)"/>
     <use xlink:href="#DejaVuSansMono-Bold-55" transform="translate(301.025391 0)"/>
     <use xlink:href="#DejaVuSansMono-Bold-50" transform="translate(361.230469 0)"/>
    </g>
   </g>
   <g id="PathCollection_2">
    <g clip-path="url(#pa8aa13405d)">
     <use xlink:href="#mf0693e59ae" x="475.631151" y="179.959778" style="fill: #3fb950; stroke: #161b22; stroke-width: 1.5"/>
     <use xlink:href="#mf0693e59ae" x="481.409332" y="153.426544" style="fill: #3fb950; stroke: #161b22; stroke-width: 1.5"/>
     <use xlink:href="#mf0693e59ae" x="492.965696" y="131.687681" style="fill: #3fb950; stroke: #161b22; stroke-width: 1.5"/>
     <use xlink:href="#mf0693e59ae" x="516.078423" y="118.26782" style="fill: #3fb950; stroke: #161b22; stroke-width: 1.5"/>
     <use xlink:href="#mf0693e59ae" x="539.191151" y="101.629818" style="fill: #3fb950; stroke: #161b22; stroke-width: 1.5"/>
     <use xlink:href="#mf0693e59ae" x="562.303878" y="96.178683" style="fill: #3fb950; stroke: #161b22; stroke-width: 1.5"/>
     <use xlink:href="#mf0693e59ae" x="585.416605" y="91.077822" style="fill: #3fb950; stroke: #161b22; stroke-width: 1.5"/>
     <use xlink:href="#mf0693e59ae" x="608.529332" y="87.42184" style="fill: #3fb950; stroke: #161b22; stroke-width: 1.5"/>
     <use xlink:href="#mf0693e59ae" x="631.64206" y="87.049675" style="fill: #3fb950; stroke: #161b22; stroke-width: 1.5"/>
     <use xlink:href="#mf0693e59ae" x="654.754787" y="86.436696" style="fill: #3fb950; stroke: #161b22; stroke-width: 1.5"/>
     <use xlink:href="#mf0693e59ae" x="677.867514" y="86.58994" style="fill: #3fb950; stroke: #161b22; stroke-width: 1.5"/>
     <use xlink:href="#mf0693e59ae" x="700.980241" y="87.706438" style="fill: #3fb950; stroke: #161b22; stroke-width: 1.5"/>
     <use xlink:href="#mf0693e59ae" x="724.092969" y="88.385093" style="fill: #3fb950; stroke: #161b22; stroke-width: 1.5"/>
     <use xlink:href="#mf0693e59ae" x="747.205696" y="89.983217" style="fill: #3fb950; stroke: #161b22; stroke-width: 1.5"/>
     <use xlink:href="#mf0693e59ae" x="770.318423" y="91.099715" style="fill: #3fb950; stroke: #161b22; stroke-width: 1.5"/>
     <use xlink:href="#mf0693e59ae" x="793.431151" y="93.004328" style="fill: #3fb950; stroke: #161b22; stroke-width: 1.5"/>
     <use xlink:href="#mf0693e59ae" x="816.543878" y="94.16461" style="fill: #3fb950; stroke: #161b22; stroke-width: 1.5"/>
     <use xlink:href="#mf0693e59ae" x="839.656605" y="94.405423" style="fill: #3fb950; stroke: #161b22; stroke-width: 1.5"/>
    </g>
   </g>
  </g>
  <g id="text_36">
   <!-- tdg  /  core scaling  [tdg 0.5.7] -->
   <g style="fill: #8b949e" transform="translate(329.597812 14.851562) scale(0.1 -0.1)">
    <defs>
     <path id="DejaVuSansMono-67" d="M 2681 1778 
Q 2681 2425 2470 2761 
Q 2259 3097 1856 3097 
Q 1434 3097 1212 2761 
Q 991 2425 991 1778 
Q 991 1131 1214 792 
Q 1438 453 1863 453 
Q 2259 453 2470 793 
Q 2681 1134 2681 1778 
z
M 3256 225 
Q 3256 -563 2884 -969 
Q 2513 -1375 1791 -1375 
Q 1553 -1375 1293 -1331 
Q 1034 -1288 775 -1203 
L 775 -634 
Q 1081 -778 1331 -847 
Q 1581 -916 1791 -916 
Q 2256 -916 2468 -662 
Q 2681 -409 2681 141 
L 2681 166 
L 2681 556 
Q 2544 263 2306 119 
Q 2069 -25 1728 -25 
Q 1116 -25 750 465 
Q 384 956 384 1778 
Q 384 2603 750 3093 
Q 1116 3584 1728 3584 
Q 2066 3584 2300 3450 
Q 2534 3316 2681 3034 
L 2681 3488 
L 3256 3488 
L 3256 225 
z
" transform="scale(0.015625)"/>
     <path id="DejaVuSansMono-20" transform="scale(0.015625)"/>
     <path id="DejaVuSansMono-63" d="M 3316 178 
Q 3084 44 2839 -23 
Q 2594 -91 2338 -91 
Q 1525 -91 1067 396 
Q 609 884 609 1747 
Q 609 2609 1067 3096 
Q 1525 3584 2338 3584 
Q 2591 3584 2831 3518 
Q 3072 3453 3316 3316 
L 3316 2713 
Q 3088 2916 2858 3006 
Q 2628 3097 2338 3097 
Q 1797 3097 1506 2747 
Q 1216 2397 1216 1747 
Q 1216 1100 1508 748 
Q 1800 397 2338 397 
Q 2638 397 2875 489 
Q 3113 581 3316 775 
L 3316 178 
z
" transform="scale(0.015625)"/>
     <path id="DejaVuSansMono-6f" d="M 1925 3097 
Q 1488 3097 1263 2756 
Q 1038 2416 1038 1747 
Q 1038 1081 1263 739 
Q 1488 397 1925 397 
Q 2366 397 2591 739 
Q 2816 1081 2816 1747 
Q 2816 2416 2591 2756 
Q 2366 3097 1925 3097 
z
M 1925 3584 
Q 2653 3584 3039 3112 
Q 3425 2641 3425 1747 
Q 3425 850 3040 379 
Q 2656 -91 1925 -91 
Q 1197 -91 812 379 
Q 428 850 428 1747 
Q 428 2641 812 3112 
Q 1197 3584 1925 3584 
z
" transform="scale(0.015625)"/>
     <path id="DejaVuSansMono-6c" d="M 1997 1269 
Q 1997 881 2139 684 
Q 2281 488 2559 488 
L 3231 488 
L 3231 0 
L 2503 0 
Q 1988 0 1705 331 
Q 1422 663 1422 1269 
L 1422 4447 
L 500 4447 
L 500 4897 
L 1997 4897 
L 1997 1269 
z
" transform="scale(0.015625)"/>
     <path id="DejaVuSansMono-69" d="M 800 3500 
L 2272 3500 
L 2272 447 
L 3413 447 
L 3413 0 
L 556 0 
L 556 447 
L 1697 447 
L 1697 3053 
L 800 3053 
L 800 3500 
z
M 1697 4863 
L 2272 4863 
L 2272 4134 
L 1697 4134 
L 1697 4863 
z
" transform="scale(0.015625)"/>
     <path id="DejaVuSansMono-6e" d="M 3284 2169 
L 3284 0 
L 2706 0 
L 2706 2169 
Q 2706 2641 2540 2862 
Q 2375 3084 2022 3084 
Q 1619 3084 1401 2798 
Q 1184 2513 1184 1978 
L 1184 0 
L 609 0 
L 609 3500 
L 1184 3500 
L 1184 2975 
Q 1338 3275 1600 3429 
Q 1863 3584 2222 3584 
Q 2756 3584 3020 3232 
Q 3284 2881 3284 2169 
z
" transform="scale(0.015625)"/>
     <path id="DejaVuSansMono-5b" d="M 1447 4863 
L 2772 4863 
L 2772 4416 
L 2022 4416 
L 2022 -397 
L 2772 -397 
L 2772 -844 
L 1447 -844 
L 1447 4863 
z
" transform="scale(0.015625)"/>
     <path id="DejaVuSansMono-5d" d="M 2406 4863 
L 2406 -844 
L 1081 -844 
L 1081 -397 
L 1831 -397 
L 1831 4416 
L 1081 4416 
L 1081 4863 
L 2406 4863 
z
" transform="scale(0.015625)"/>
    </defs>
    <use xlink:href="#DejaVuSansMono-74"/>
    <use xlink:href="#DejaVuSansMono-64" transform="translate(60.205078 0)"/>
    <use xlink:href="#DejaVuSansMono-67" transform="translate(120.410156 0)"/>
    <use xlink:href="#DejaVuSansMono-20" transform="translate(180.615234 0)"/>
    <use xlink:href="#DejaVuSansMono-20" transform="translate(240.820312 0)"/>
    <use xlink:href="#DejaVuSansMono-2f" transform="translate(301.025391 0)"/>
    <use xlink:href="#DejaVuSansMono-20" transform="translate(361.230469 0)"/>
    <use xlink:href="#DejaVuSansMono-20" transform="translate(421.435547 0)"/>
    <use xlink:href="#DejaVuSansMono-63" transform="translate(481.640625 0)"/>
    <use xlink:href="#DejaVuSansMono-6f" transform="translate(541.845703 0)"/>
    <use xlink:href="#DejaVuSansMono-72" transform="translate(602.050781 0)"/>
    <use xlink:href="#DejaVuSansMono-65" transform="translate(662.255859 0)"/>
    <use xlink:href="#DejaVuSansMono-20" transform="translate(722.460938 0)"/>
    <use xlink:href="#DejaVuSansMono-73" transform="translate(782.666016 0)"/>
    <use xlink:href="#DejaVuSansMono-63" transform="translate(842.871094 0)"/>
    <use xlink:href="#DejaVuSansMono-61" transform="translate(903.076172 0)"/>
    <use xlink:href="#DejaVuSansMono-6c" transform="translate(963.28125 0)"/>
    <use xlink:href="#DejaVuSansMono-69" transform="translate(1023.486328 0)"/>
    <use xlink:href="#DejaVuSansMono-6e" transform="translate(1083.691406 0)"/>
    <use xlink:href="#DejaVuSansMono-67" transform="translate(1143.896484 0)"/>
    <use xlink:href="#DejaVuSansMono-20" transform="translate(1204.101562 0)"/>
    <use xlink:href="#DejaVuSansMono-20" transform="translate(1264.306641 0)"/>
    <use xlink:href="#DejaVuSansMono-5b" transform="translate(1324.511719 0)"/>
    <use xlink:href="#DejaVuSansMono-74" transform="translate(1384.716797 0)"/>
    <use xlink:href="#DejaVuSansMono-64" transform="translate(1444.921875 0)"/>
    <use xlink:href="#DejaVuSansMono-67" transform="translate(1505.126953 0)"/>
    <use xlink:href="#DejaVuSansMono-20" transform="translate(1565.332031 0)"/>
    <use xlink:href="#DejaVuSansMono-30" transform="translate(1625.537109 0)"/>
    <use xlink:href="#DejaVuSansMono-2e" transform="translate(1685.742188 0)"/>
    <use xlink:href="#DejaVuSansMono-35" transform="translate(1745.947266 0)"/>
    <use xlink:href="#DejaVuSansMono-2e" transform="translate(1806.152344 0)"/>
    <use xlink:href="#DejaVuSansMono-37" transform="translate(1866.357422 0)"/>
    <use xlink:href="#DejaVuSansMono-5d" transform="translate(1926.5625 0)"/>
   </g>
  </g>
  <g id="legend_1">
   <g id="patch_12">
    <path d="M 322.554609 302.752 
L 535.858359 302.752 
Q 537.458359 302.752 537.458359 301.152 
L 537.458359 290.167 
Q 537.458359 288.567 535.858359 288.567 
L 322.554609 288.567 
Q 320.954609 288.567 320.954609 290.167 
L 320.954609 301.152 
Q 320.954609 302.752 322.554609 302.752 
z
" style="fill: #161b22; opacity: 0.8; stroke: #30363d; stroke-linejoin: miter"/>
   </g>
   <g id="line2d_61">
    <path d="M 324.154609 295.08825 
L 332.154609 295.08825 
L 340.154609 295.08825 
" style="fill: none; stroke: #238636; stroke-opacity: 0.6; stroke-width: 1.5; stroke-linecap: square"/>
   </g>
   <g id="text_37">
    <!-- amdahl+overhead (s=36%) -->
    <g style="fill: #8b949e" transform="translate(346.554609 297.88825) scale(0.08 -0.08)">
     <defs>
      <path id="DejaVuSansMono-6d" d="M 2113 3144 
Q 2219 3369 2383 3476 
Q 2547 3584 2778 3584 
Q 3200 3584 3373 3257 
Q 3547 2931 3547 2028 
L 3547 0 
L 3022 0 
L 3022 2003 
Q 3022 2744 2939 2923 
Q 2856 3103 2638 3103 
Q 2388 3103 2295 2911 
Q 2203 2719 2203 2003 
L 2203 0 
L 1678 0 
L 1678 2003 
Q 1678 2753 1589 2928 
Q 1500 3103 1269 3103 
Q 1041 3103 952 2911 
Q 863 2719 863 2003 
L 863 0 
L 341 0 
L 341 3500 
L 863 3500 
L 863 3200 
Q 966 3388 1120 3486 
Q 1275 3584 1472 3584 
Q 1709 3584 1867 3475 
Q 2025 3366 2113 3144 
z
" transform="scale(0.015625)"/>
      <path id="DejaVuSansMono-2b" d="M 2188 3659 
L 2188 2272 
L 3578 2272 
L 3578 1741 
L 2188 1741 
L 2188 353 
L 1663 353 
L 1663 1741 
L 275 1741 
L 275 2272 
L 1663 2272 
L 1663 3659 
L 2188 3659 
z
" transform="scale(0.015625)"/>
      <path id="DejaVuSansMono-76" d="M 313 3500 
L 909 3500 
L 1925 563 
L 2944 3500 
L 3541 3500 
L 2297 0 
L 1556 0 
L 313 3500 
z
" transform="scale(0.015625)"/>
      <path id="DejaVuSansMono-28" d="M 2766 4856 
Q 2350 4144 2145 3436 
Q 1941 2728 1941 2009 
Q 1941 1294 2145 584 
Q 2350 -125 2766 -844 
L 2266 -844 
Q 1794 -100 1562 604 
Q 1331 1309 1331 2009 
Q 1331 2706 1562 3412 
Q 1794 4119 2266 4856 
L 2766 4856 
z
" transform="scale(0.015625)"/>
      <path id="DejaVuSansMono-3d" d="M 275 1638 
L 3578 1638 
L 3578 1100 
L 275 1100 
L 275 1638 
z
M 275 2906 
L 3578 2906 
L 3578 2375 
L 275 2375 
L 275 2906 
z
" transform="scale(0.015625)"/>
      <path id="DejaVuSansMono-25" d="M 2175 997 
Q 2175 753 2339 587 
Q 2503 422 2747 422 
Q 2988 422 3155 589 
Q 3322 756 3322 997 
Q 3322 1238 3153 1406 
Q 2984 1575 2747 1575 
Q 2503 1575 2339 1409 
Q 2175 1244 2175 997 
z
M 1753 997 
Q 1753 1419 2040 1708 
Q 2328 1997 2747 1997 
Q 2947 1997 3126 1922 
Q 3306 1847 3450 1703 
Q 3594 1556 3672 1375 
Q 3750 1194 3750 997 
Q 3750 581 3459 290 
Q 3169 0 2747 0 
Q 2322 0 2037 286 
Q 1753 572 1753 997 
z
M 378 1453 
L 269 1753 
L 3525 3059 
L 3653 2759 
L 378 1453 
z
M 525 3475 
Q 525 3228 689 3064 
Q 853 2900 1100 2900 
Q 1341 2900 1509 3067 
Q 1678 3234 1678 3475 
Q 1678 3716 1509 3883 
Q 1341 4050 1100 4050 
Q 859 4050 692 3884 
Q 525 3719 525 3475 
z
M 103 3475 
Q 103 3897 390 4186 
Q 678 4475 1100 4475 
Q 1300 4475 1483 4400 
Q 1666 4325 1806 4184 
Q 1947 4044 2023 3861 
Q 2100 3678 2100 3475 
Q 2100 3056 1809 2767 
Q 1519 2478 1100 2478 
Q 678 2478 390 2765 
Q 103 3053 103 3475 
z
" transform="scale(0.015625)"/>
      <path id="DejaVuSansMono-29" d="M 1088 4856 
L 1588 4856 
Q 2059 4119 2290 3412 
Q 2522 2706 2522 2009 
Q 2522 1306 2290 600 
Q 2059 -106 1588 -844 
L 1088 -844 
Q 1503 -119 1708 590 
Q 1913 1300 1913 2009 
Q 1913 2722 1708 3431 
Q 1503 4141 1088 4856 
z
" transform="scale(0.015625)"/>
     </defs>
     <use xlink:href="#DejaVuSansMono-61"/>
     <use xlink:href="#DejaVuSansMono-6d" transform="translate(60.205078 0)"/>
     <use xlink:href="#DejaVuSansMono-64" transform="translate(120.410156 0)"/>
     <use xlink:href="#DejaVuSansMono-61" transform="translate(180.615234 0)"/>
     <use xlink:href="#DejaVuSansMono-68" transform="translate(240.820312 0)"/>
     <use xlink:href="#DejaVuSansMono-6c" transform="translate(301.025391 0)"/>
     <use xlink:href="#DejaVuSansMono-2b" transform="translate(361.230469 0)"/>
     <use xlink:href="#DejaVuSansMono-6f" transform="translate(421.435547 0)"/>
     <use xlink:href="#DejaVuSansMono-76" transform="translate(481.640625 0)"/>
     <use xlink:href="#DejaVuSansMono-65" transform="translate(541.845703 0)"/>
     <use xlink:href="#DejaVuSansMono-72" transform="translate(602.050781 0)"/>
     <use xlink:href="#DejaVuSansMono-68" transform="translate(662.255859 0)"/>
     <use xlink:href="#DejaVuSansMono-65" transform="translate(722.460938 0)"/>
     <use xlink:href="#DejaVuSansMono-61" transform="translate(782.666016 0)"/>
     <use xlink:href="#DejaVuSansMono-64" transform="translate(842.871094 0)"/>
     <use xlink:href="#DejaVuSansMono-20" transform="translate(903.076172 0)"/>
     <use xlink:href="#DejaVuSansMono-28" transform="translate(963.28125 0)"/>
     <use xlink:href="#DejaVuSansMono-73" transform="translate(1023.486328 0)"/>
     <use xlink:href="#DejaVuSansMono-3d" transform="translate(1083.691406 0)"/>
     <use xlink:href="#DejaVuSansMono-33" transform="translate(1143.896484 0)"/>
     <use xlink:href="#DejaVuSansMono-36" transform="translate(1204.101562 0)"/>
     <use xlink:href="#DejaVuSansMono-25" transform="translate(1264.306641 0)"/>
     <use xlink:href="#DejaVuSansMono-29" transform="translate(1324.511719 0)"/>
    </g>
   </g>
   <g id="PathCollection_3">
    <g>
     <use xlink:href="#mf0693e59ae" x="481.328359" y="295.78825" style="fill: #3fb950; stroke: #161b22; stroke-width: 1.5"/>
    </g>
   </g>
   <g id="text_38">
    <!-- measured -->
    <g style="fill: #8b949e" transform="translate(495.728359 297.88825) scale(0.08 -0.08)">
     <use xlink:href="#DejaVuSansMono-6d"/>
     <use xlink:href="#DejaVuSansMono-65" transform="translate(60.205078 0)"/>
     <use xlink:href="#DejaVuSansMono-61" transform="translate(120.410156 0)"/>
     <use xlink:href="#DejaVuSansMono-73" transform="translate(180.615234 0)"/>
     <use xlink:href="#DejaVuSansMono-75" transform="translate(240.820312 0)"/>
     <use xlink:href="#DejaVuSansMono-72" transform="translate(301.025391 0)"/>
     <use xlink:href="#DejaVuSansMono-65" transform="translate(361.230469 0)"/>
     <use xlink:href="#DejaVuSansMono-64" transform="translate(421.435547 0)"/>
    </g>
   </g>
  </g>
 </g>
 <defs>
  <clipPath id="p40998691be">
   <rect x="42.712969" y="62.432" width="381.36" height="184.036"/>
  </clipPath>
  <clipPath id="pa8aa13405d">
   <rect x="469.852969" y="62.432" width="381.36" height="184.036"/>
  </clipPath>
 </defs>
</svg>
