<?xml version="1.0" encoding="utf-8" standalone="no"?>
<!DOCTYPE svg PUBLIC "-//W3C//DTD SVG 1.1//EN"
  "http://www.w3.org/Graphics/SVG/1.1/DTD/svg11.dtd">
<svg xmlns:xlink="http://www.w3.org/1999/xlink" width="858.43125pt" height="306.752pt" viewBox="0 0 858.43125 306.752" xmlns="http://www.w3.org/2000/svg" version="1.1">
 <metadata>
  <rdf:RDF xmlns:dc="http://purl.org/dc/elements/1.1/" xmlns:cc="http://creativecommons.org/ns#" xmlns:rdf="http://www.w3.org/1999/02/22-rdf-syntax-ns#">
   <cc:Work>
    <dc:type rdf:resource="http://purl.org/dc/dcmitype/StillImage"/>
    <dc:date>2026-04-09T18:53:00.837835</dc:date>
    <dc:format>image/svg+xml</dc:format>
    <dc:creator>
     <cc:Agent>
      <dc:title>Matplotlib v3.10.8, https://matplotlib.org/</dc:title>
     </cc:Agent>
    </dc:creator>
   </cc:Work>
  </rdf:RDF>
 </metadata>
 <defs>
  <style type="text/css">*{stroke-linejoin: round; stroke-linecap: butt}</style>
 </defs>
 <g id="figure_1">
  <g id="patch_1">
   <path d="M 0 306.752 
L 858.43125 306.752 
L 858.43125 0 
L 0 0 
z
" style="fill: #0e1117"/>
  </g>
  <g id="axes_1">
   <g id="patch_2">
    <path d="M 48.13125 246.468 
L 392.652509 246.468 
L 392.652509 62.432 
L 48.13125 62.432 
z
" style="fill: #161b22"/>
   </g>
   <g id="FillBetweenPolyCollection_1">
    <defs>
     <path id="m58a19bd3f1" d="M 50.781414 -98.159684 
L 50.781414 -60.284 
L 53.431577 -60.284 
L 56.081741 -60.284 
L 58.731904 -60.284 
L 61.382068 -60.284 
L 64.032231 -60.284 
L 66.682395 -60.284 
L 69.332558 -60.284 
L 71.982722 -60.284 
L 74.632885 -60.284 
L 77.283049 -60.284 
L 79.933212 -60.284 
L 82.583376 -60.284 
L 85.233539 -60.284 
L 87.883703 -60.284 
L 90.533866 -60.284 
L 93.18403 -60.284 
L 95.834194 -60.284 
L 98.484357 -60.284 
L 101.134521 -60.284 
L 103.784684 -60.284 
L 106.434848 -60.284 
L 109.085011 -60.284 
L 111.735175 -60.284 
L 114.385338 -60.284 
L 117.035502 -60.284 
L 119.685665 -60.284 
L 122.335829 -60.284 
L 124.985992 -60.284 
L 127.636156 -60.284 
L 130.286319 -60.284 
L 132.936483 -60.284 
L 135.586646 -60.284 
L 138.23681 -60.284 
L 140.886974 -60.284 
L 143.537137 -60.284 
L 146.187301 -60.284 
L 148.837464 -60.284 
L 151.487628 -60.284 
L 154.137791 -60.284 
L 156.787955 -60.284 
L 159.438118 -60.284 
L 162.088282 -60.284 
L 164.738445 -60.284 
L 167.388609 -60.284 
L 170.038772 -60.284 
L 172.688936 -60.284 
L 175.339099 -60.284 
L 177.989263 -60.284 
L 180.639426 -60.284 
L 183.28959 -60.284 
L 185.939753 -60.284 
L 188.589917 -60.284 
L 191.240081 -60.284 
L 193.890244 -60.284 
L 196.540408 -60.284 
L 199.190571 -60.284 
L 201.840735 -60.284 
L 204.490898 -60.284 
L 207.141062 -60.284 
L 209.791225 -60.284 
L 212.441389 -60.284 
L 215.091552 -60.284 
L 217.741716 -60.284 
L 220.391879 -60.284 
L 223.042043 -60.284 
L 225.692206 -60.284 
L 228.34237 -60.284 
L 230.992533 -60.284 
L 233.642697 -60.284 
L 236.292861 -60.284 
L 238.943024 -60.284 
L 241.593188 -60.284 
L 244.243351 -60.284 
L 246.893515 -60.284 
L 249.543678 -60.284 
L 252.193842 -60.284 
L 254.844005 -60.284 
L 257.494169 -60.284 
L 260.144332 -60.284 
L 262.794496 -60.284 
L 265.444659 -60.284 
L 268.094823 -60.284 
L 270.744986 -60.284 
L 273.39515 -60.284 
L 276.045313 -60.284 
L 278.695477 -60.284 
L 281.345641 -60.284 
L 283.995804 -60.284 
L 286.645968 -60.284 
L 289.296131 -60.284 
L 291.946295 -60.284 
L 294.596458 -60.284 
L 297.246622 -60.284 
L 299.896785 -60.284 
L 302.546949 -60.284 
L 305.197112 -60.284 
L 307.847276 -60.284 
L 310.497439 -60.284 
L 313.147603 -60.284 
L 315.797766 -60.284 
L 318.44793 -60.284 
L 321.098093 -60.284 
L 323.748257 -60.284 
L 326.398421 -60.284 
L 329.048584 -60.284 
L 331.698748 -60.284 
L 334.348911 -60.284 
L 336.999075 -60.284 
L 339.649238 -60.284 
L 342.299402 -60.284 
L 344.949565 -60.284 
L 347.599729 -60.284 
L 350.249892 -60.284 
L 352.900056 -60.284 
L 355.550219 -60.284 
L 358.200383 -60.284 
L 360.850546 -60.284 
L 363.50071 -60.284 
L 366.150873 -60.284 
L 368.801037 -60.284 
L 371.451201 -60.284 
L 374.101364 -60.284 
L 376.751528 -60.284 
L 379.401691 -60.284 
L 382.051855 -60.284 
L 384.702018 -60.284 
L 387.352182 -60.284 
L 387.352182 -220.315304 
L 387.352182 -220.315304 
L 384.702018 -220.283311 
L 382.051855 -220.250822 
L 379.401691 -220.217828 
L 376.751528 -220.184315 
L 374.101364 -220.150271 
L 371.451201 -220.115685 
L 368.801037 -220.080542 
L 366.150873 -220.044829 
L 363.50071 -220.008532 
L 360.850546 -219.971637 
L 358.200383 -219.934129 
L 355.550219 -219.895992 
L 352.900056 -219.85721 
L 350.249892 -219.817768 
L 347.599729 -219.777647 
L 344.949565 -219.736831 
L 342.299402 -219.695301 
L 339.649238 -219.653038 
L 336.999075 -219.610022 
L 334.348911 -219.566234 
L 331.698748 -219.521652 
L 329.048584 -219.476254 
L 326.398421 -219.430018 
L 323.748257 -219.382921 
L 321.098093 -219.334938 
L 318.44793 -219.286044 
L 315.797766 -219.236213 
L 313.147603 -219.185417 
L 310.497439 -219.133629 
L 307.847276 -219.080818 
L 305.197112 -219.026955 
L 302.546949 -218.972007 
L 299.896785 -218.915942 
L 297.246622 -218.858725 
L 294.596458 -218.800319 
L 291.946295 -218.740689 
L 289.296131 -218.679794 
L 286.645968 -218.617595 
L 283.995804 -218.554048 
L 281.345641 -218.48911 
L 278.695477 -218.422734 
L 276.045313 -218.354872 
L 273.39515 -218.285473 
L 270.744986 -218.214486 
L 268.094823 -218.141853 
L 265.444659 -218.067519 
L 262.794496 -217.991422 
L 260.144332 -217.913498 
L 257.494169 -217.833682 
L 254.844005 -217.751903 
L 252.193842 -217.668088 
L 249.543678 -217.58216 
L 246.893515 -217.494038 
L 244.243351 -217.403637 
L 241.593188 -217.310868 
L 238.943024 -217.215636 
L 236.292861 -217.117841 
L 233.642697 -217.01738 
L 230.992533 -216.914141 
L 228.34237 -216.808007 
L 225.692206 -216.698856 
L 223.042043 -216.586556 
L 220.391879 -216.470969 
L 217.741716 -216.351949 
L 215.091552 -216.229341 
L 212.441389 -216.10298 
L 209.791225 -215.97269 
L 207.141062 -215.838286 
L 204.490898 -215.69957 
L 201.840735 -215.55633 
L 199.190571 -215.408342 
L 196.540408 -215.255367 
L 193.890244 -215.097146 
L 191.240081 -214.933406 
L 188.589917 -214.763854 
L 185.939753 -214.588173 
L 183.28959 -214.406025 
L 180.639426 -214.217048 
L 177.989263 -214.020848 
L 175.339099 -213.817005 
L 172.688936 -213.605062 
L 170.038772 -213.384527 
L 167.388609 -213.154867 
L 164.738445 -212.915503 
L 162.088282 -212.665808 
L 159.438118 -212.405097 
L 156.787955 -212.132626 
L 154.137791 -211.847579 
L 151.487628 -211.549066 
L 148.837464 -211.236109 
L 146.187301 -210.907635 
L 143.537137 -210.56246 
L 140.886974 -210.199276 
L 138.23681 -209.816637 
L 135.586646 -209.412937 
L 132.936483 -208.986386 
L 130.286319 -208.53499 
L 127.636156 -208.056511 
L 124.985992 -207.548438 
L 122.335829 -207.007936 
L 119.685665 -206.431799 
L 117.035502 -205.816383 
L 114.385338 -205.157528 
L 111.735175 -204.450468 
L 109.085011 -203.689711 
L 106.434848 -202.868899 
L 103.784684 -201.980628 
L 101.134521 -201.016226 
L 98.484357 -199.965468 
L 95.834194 -198.816209 
L 93.18403 -197.55392 
L 90.533866 -196.161061 
L 87.883703 -194.616271 
L 85.233539 -192.893256 
L 82.583376 -190.959284 
L 79.933212 -188.773086 
L 77.283049 -186.281879 
L 74.632885 -183.417046 
L 71.982722 -180.087717 
L 69.332558 -176.17096 
L 66.682395 -171.496263 
L 64.032231 -165.820052 
L 61.382068 -158.781867 
L 58.731904 -149.824683 
L 56.081741 -138.039778 
L 53.431577 -121.837135 
L 50.781414 -98.159684 
z
" style="stroke: #238636; stroke-opacity: 0.08"/>
    </defs>
    <g clip-path="url(#p36e94fc1ca)">
     <use xlink:href="#m58a19bd3f1" x="0" y="306.752" style="fill: #238636; fill-opacity: 0.08; stroke: #238636; stroke-opacity: 0.08"/>
    </g>
   </g>
   <g id="matplotlib.axis_1">
    <g id="xtick_1">
     <g id="line2d_1">
      <path d="M 48.13125 246.468 
L 48.13125 62.432 
" clip-path="url(#p36e94fc1ca)" style="fill: none; stroke: #21262d; stroke-width: 0.5; stroke-linecap: square"/>
     </g>
     <g id="line2d_2">
      <defs>
       <path id="m6d58dc01d1" d="M 0 0 
L 0 3 
" style="stroke: #8b949e; stroke-width: 0.5"/>
      </defs>
      <g>
       <use xlink:href="#m6d58dc01d1" x="48.13125" y="246.468" style="fill: #8b949e; stroke: #8b949e; stroke-width: 0.5"/>
      </g>
     </g>
     <g id="text_1">
      <!-- 0 -->
      <g style="fill: #8b949e" transform="translate(45.422109 259.854406) scale(0.09 -0.09)">
       <defs>
        <path id="DejaVuSansMono-30" d="M 1509 2344 
Q 1509 2516 1629 2641 
Q 1750 2766 1919 2766 
Q 2094 2766 2219 2641 
Q 2344 2516 2344 2344 
Q 2344 2169 2220 2047 
Q 2097 1925 1919 1925 
Q 1744 1925 1626 2044 
Q 1509 2163 1509 2344 
z
M 1925 4250 
Q 1484 4250 1267 3775 
Q 1050 3300 1050 2328 
Q 1050 1359 1267 884 
Q 1484 409 1925 409 
Q 2369 409 2586 884 
Q 2803 1359 2803 2328 
Q 2803 3300 2586 3775 
Q 2369 4250 1925 4250 
z
M 1925 4750 
Q 2672 4750 3055 4137 
Q 3438 3525 3438 2328 
Q 3438 1134 3055 521 
Q 2672 -91 1925 -91 
Q 1178 -91 797 521 
Q 416 1134 416 2328 
Q 416 3525 797 4137 
Q 1178 4750 1925 4750 
z
" transform="scale(0.015625)"/>
       </defs>
       <use xlink:href="#DejaVuSansMono-30"/>
      </g>
     </g>
    </g>
    <g id="xtick_2">
     <g id="line2d_3">
      <path d="M 101.134521 246.468 
L 101.134521 62.432 
" clip-path="url(#p36e94fc1ca)" style="fill: none; stroke: #21262d; stroke-width: 0.5; stroke-linecap: square"/>
     </g>
     <g id="line2d_4">
      <g>
       <use xlink:href="#m6d58dc01d1" x="101.134521" y="246.468" style="fill: #8b949e; stroke: #8b949e; stroke-width: 0.5"/>
      </g>
     </g>
     <g id="text_2">
      <!-- 20 -->
      <g style="fill: #8b949e" transform="translate(95.716239 259.854406) scale(0.09 -0.09)">
       <defs>
        <path id="DejaVuSansMono-32" d="M 1166 531 
L 3309 531 
L 3309 0 
L 475 0 
L 475 531 
Q 1059 1147 1496 1619 
Q 1934 2091 2100 2284 
Q 2413 2666 2522 2902 
Q 2631 3138 2631 3384 
Q 2631 3775 2401 3997 
Q 2172 4219 1772 4219 
Q 1488 4219 1175 4116 
Q 863 4013 513 3803 
L 513 4441 
Q 834 4594 1145 4672 
Q 1456 4750 1759 4750 
Q 2444 4750 2861 4386 
Q 3278 4022 3278 3431 
Q 3278 3131 3139 2831 
Q 3000 2531 2688 2169 
Q 2513 1966 2180 1606 
Q 1847 1247 1166 531 
z
" transform="scale(0.015625)"/>
       </defs>
       <use xlink:href="#DejaVuSansMono-32"/>
       <use xlink:href="#DejaVuSansMono-30" transform="translate(60.205078 0)"/>
      </g>
     </g>
    </g>
    <g id="xtick_3">
     <g id="line2d_5">
      <path d="M 154.137791 246.468 
L 154.137791 62.432 
" clip-path="url(#p36e94fc1ca)" style="fill: none; stroke: #21262d; stroke-width: 0.5; stroke-linecap: square"/>
     </g>
     <g id="line2d_6">
      <g>
       <use xlink:href="#m6d58dc01d1" x="154.137791" y="246.468" style="fill: #8b949e; stroke: #8b949e; stroke-width: 0.5"/>
      </g>
     </g>
     <g id="text_3">
      <!-- 40 -->
      <g style="fill: #8b949e" transform="translate(148.71951 259.854406) scale(0.09 -0.09)">
       <defs>
        <path id="DejaVuSansMono-34" d="M 2297 4091 
L 825 1625 
L 2297 1625 
L 2297 4091 
z
M 2194 4666 
L 2925 4666 
L 2925 1625 
L 3547 1625 
L 3547 1113 
L 2925 1113 
L 2925 0 
L 2297 0 
L 2297 1113 
L 319 1113 
L 319 1709 
L 2194 4666 
z
" transform="scale(0.015625)"/>
       </defs>
       <use xlink:href="#DejaVuSansMono-34"/>
       <use xlink:href="#DejaVuSansMono-30" transform="translate(60.205078 0)"/>
      </g>
     </g>
    </g>
    <g id="xtick_4">
     <g id="line2d_7">
      <path d="M 207.141062 246.468 
L 207.141062 62.432 
" clip-path="url(#p36e94fc1ca)" style="fill: none; stroke: #21262d; stroke-width: 0.5; stroke-linecap: square"/>
     </g>
     <g id="line2d_8">
      <g>
       <use xlink:href="#m6d58dc01d1" x="207.141062" y="246.468" style="fill: #8b949e; stroke: #8b949e; stroke-width: 0.5"/>
      </g>
     </g>
     <g id="text_4">
      <!-- 60 -->
      <g style="fill: #8b949e" transform="translate(201.72278 259.854406) scale(0.09 -0.09)">
       <defs>
        <path id="DejaVuSansMono-36" d="M 3097 4563 
L 3097 3981 
Q 2900 4097 2678 4158 
Q 2456 4219 2216 4219 
Q 1616 4219 1306 3767 
Q 997 3316 997 2438 
Q 1147 2750 1412 2917 
Q 1678 3084 2022 3084 
Q 2697 3084 3067 2670 
Q 3438 2256 3438 1497 
Q 3438 741 3056 325 
Q 2675 -91 1984 -91 
Q 1172 -91 794 492 
Q 416 1075 416 2328 
Q 416 3509 870 4129 
Q 1325 4750 2188 4750 
Q 2419 4750 2650 4701 
Q 2881 4653 3097 4563 
z
M 1972 2591 
Q 1569 2591 1337 2300 
Q 1106 2009 1106 1497 
Q 1106 984 1337 693 
Q 1569 403 1972 403 
Q 2391 403 2603 679 
Q 2816 956 2816 1497 
Q 2816 2041 2603 2316 
Q 2391 2591 1972 2591 
z
" transform="scale(0.015625)"/>
       </defs>
       <use xlink:href="#DejaVuSansMono-36"/>
       <use xlink:href="#DejaVuSansMono-30" transform="translate(60.205078 0)"/>
      </g>
     </g>
    </g>
    <g id="xtick_5">
     <g id="line2d_9">
      <path d="M 260.144332 246.468 
L 260.144332 62.432 
" clip-path="url(#p36e94fc1ca)" style="fill: none; stroke: #21262d; stroke-width: 0.5; stroke-linecap: square"/>
     </g>
     <g id="line2d_10">
      <g>
       <use xlink:href="#m6d58dc01d1" x="260.144332" y="246.468" style="fill: #8b949e; stroke: #8b949e; stroke-width: 0.5"/>
      </g>
     </g>
     <g id="text_5">
      <!-- 80 -->
      <g style="fill: #8b949e" transform="translate(254.726051 259.854406) scale(0.09 -0.09)">
       <defs>
        <path id="DejaVuSansMono-38" d="M 1925 2216 
Q 1503 2216 1273 1980 
Q 1044 1744 1044 1313 
Q 1044 881 1276 642 
Q 1509 403 1925 403 
Q 2350 403 2579 639 
Q 2809 875 2809 1313 
Q 2809 1741 2576 1978 
Q 2344 2216 1925 2216 
z
M 1375 2478 
Q 972 2581 745 2862 
Q 519 3144 519 3541 
Q 519 4097 897 4423 
Q 1275 4750 1925 4750 
Q 2578 4750 2956 4423 
Q 3334 4097 3334 3541 
Q 3334 3144 3107 2862 
Q 2881 2581 2478 2478 
Q 2947 2375 3195 2062 
Q 3444 1750 3444 1253 
Q 3444 622 3041 265 
Q 2638 -91 1925 -91 
Q 1213 -91 811 264 
Q 409 619 409 1247 
Q 409 1747 657 2061 
Q 906 2375 1375 2478 
z
M 1147 3481 
Q 1147 3106 1347 2909 
Q 1547 2713 1925 2713 
Q 2306 2713 2506 2909 
Q 2706 3106 2706 3481 
Q 2706 3863 2507 4063 
Q 2309 4263 1925 4263 
Q 1547 4263 1347 4061 
Q 1147 3859 1147 3481 
z
" transform="scale(0.015625)"/>
       </defs>
       <use xlink:href="#DejaVuSansMono-38"/>
       <use xlink:href="#DejaVuSansMono-30" transform="translate(60.205078 0)"/>
      </g>
     </g>
    </g>
    <g id="xtick_6">
     <g id="line2d_11">
      <path d="M 313.147603 246.468 
L 313.147603 62.432 
" clip-path="url(#p36e94fc1ca)" style="fill: none; stroke: #21262d; stroke-width: 0.5; stroke-linecap: square"/>
     </g>
     <g id="line2d_12">
      <g>
       <use xlink:href="#m6d58dc01d1" x="313.147603" y="246.468" style="fill: #8b949e; stroke: #8b949e; stroke-width: 0.5"/>
      </g>
     </g>
     <g id="text_6">
      <!-- 100 -->
      <g style="fill: #8b949e" transform="translate(305.020181 259.854406) scale(0.09 -0.09)">
       <defs>
        <path id="DejaVuSansMono-31" d="M 844 531 
L 1825 531 
L 1825 4097 
L 769 3859 
L 769 4434 
L 1819 4666 
L 2450 4666 
L 2450 531 
L 3419 531 
L 3419 0 
L 844 0 
L 844 531 
z
" transform="scale(0.015625)"/>
       </defs>
       <use xlink:href="#DejaVuSansMono-31"/>
       <use xlink:href="#DejaVuSansMono-30" transform="translate(60.205078 0)"/>
       <use xlink:href="#DejaVuSansMono-30" transform="translate(120.410156 0)"/>
      </g>
     </g>
    </g>
    <g id="xtick_7">
     <g id="line2d_13">
      <path d="M 366.150873 246.468 
L 366.150873 62.432 
" clip-path="url(#p36e94fc1ca)" style="fill: none; stroke: #21262d; stroke-width: 0.5; stroke-linecap: square"/>
     </g>
     <g id="line2d_14">
      <g>
       <use xlink:href="#m6d58dc01d1" x="366.150873" y="246.468" style="fill: #8b949e; stroke: #8b949e; stroke-width: 0.5"/>
      </g>
     </g>
     <g id="text_7">
      <!-- 120 -->
      <g style="fill: #8b949e" transform="translate(358.023452 259.854406) scale(0.09 -0.09)">
       <use xlink:href="#DejaVuSansMono-31"/>
       <use xlink:href="#DejaVuSansMono-32" transform="translate(60.205078 0)"/>
       <use xlink:href="#DejaVuSansMono-30" transform="translate(120.410156 0)"/>
      </g>
     </g>
    </g>
    <g id="text_8">
     <!-- threads -->
     <g style="fill: #8b949e" transform="translate(201.427895 272.612531) scale(0.09 -0.09)">
      <defs>
       <path id="DejaVuSansMono-74" d="M 1919 4494 
L 1919 3500 
L 3225 3500 
L 3225 3053 
L 1919 3053 
L 1919 1153 
Q 1919 766 2066 612 
Q 2213 459 2578 459 
L 3225 459 
L 3225 0 
L 2522 0 
Q 1875 0 1609 259 
Q 1344 519 1344 1153 
L 1344 3053 
L 409 3053 
L 409 3500 
L 1344 3500 
L 1344 4494 
L 1919 4494 
z
" transform="scale(0.015625)"/>
       <path id="DejaVuSansMono-68" d="M 3284 2169 
L 3284 0 
L 2706 0 
L 2706 2169 
Q 2706 2641 2540 2862 
Q 2375 3084 2022 3084 
Q 1619 3084 1401 2798 
Q 1184 2513 1184 1978 
L 1184 0 
L 609 0 
L 609 4863 
L 1184 4863 
L 1184 2975 
Q 1338 3275 1600 3429 
Q 1863 3584 2222 3584 
Q 2756 3584 3020 3232 
Q 3284 2881 3284 2169 
z
" transform="scale(0.015625)"/>
       <path id="DejaVuSansMono-72" d="M 3609 2778 
Q 3425 2922 3234 2987 
Q 3044 3053 2816 3053 
Q 2278 3053 1993 2715 
Q 1709 2378 1709 1741 
L 1709 0 
L 1131 0 
L 1131 3500 
L 1709 3500 
L 1709 2816 
Q 1853 3188 2151 3386 
Q 2450 3584 2859 3584 
Q 3072 3584 3256 3531 
Q 3441 3478 3609 3366 
L 3609 2778 
z
" transform="scale(0.015625)"/>
       <path id="DejaVuSansMono-65" d="M 3475 1894 
L 3475 1613 
L 984 1613 
L 984 1594 
Q 984 1022 1282 709 
Q 1581 397 2125 397 
Q 2400 397 2700 484 
Q 3000 572 3341 750 
L 3341 178 
Q 3013 44 2708 -23 
Q 2403 -91 2119 -91 
Q 1303 -91 843 398 
Q 384 888 384 1747 
Q 384 2584 834 3084 
Q 1284 3584 2034 3584 
Q 2703 3584 3089 3131 
Q 3475 2678 3475 1894 
z
M 2900 2063 
Q 2888 2569 2661 2833 
Q 2434 3097 2009 3097 
Q 1594 3097 1325 2822 
Q 1056 2547 1006 2059 
L 2900 2063 
z
" transform="scale(0.015625)"/>
       <path id="DejaVuSansMono-61" d="M 2194 1759 
L 2003 1759 
Q 1500 1759 1245 1582 
Q 991 1406 991 1056 
Q 991 741 1181 566 
Q 1372 391 1709 391 
Q 2184 391 2456 720 
Q 2728 1050 2731 1631 
L 2731 1759 
L 2194 1759 
z
M 3309 1997 
L 3309 0 
L 2731 0 
L 2731 519 
Q 2547 206 2267 57 
Q 1988 -91 1588 -91 
Q 1053 -91 734 211 
Q 416 513 416 1019 
Q 416 1603 808 1906 
Q 1200 2209 1959 2209 
L 2731 2209 
L 2731 2300 
Q 2728 2719 2518 2908 
Q 2309 3097 1850 3097 
Q 1556 3097 1256 3012 
Q 956 2928 672 2766 
L 672 3341 
Q 991 3463 1283 3523 
Q 1575 3584 1850 3584 
Q 2284 3584 2592 3456 
Q 2900 3328 3091 3072 
Q 3209 2916 3259 2686 
Q 3309 2456 3309 1997 
z
" transform="scale(0.015625)"/>
       <path id="DejaVuSansMono-64" d="M 2681 3053 
L 2681 4863 
L 3256 4863 
L 3256 0 
L 2681 0 
L 2681 441 
Q 2538 181 2298 45 
Q 2059 -91 1747 -91 
Q 1113 -91 748 401 
Q 384 894 384 1759 
Q 384 2613 750 3098 
Q 1116 3584 1747 3584 
Q 2063 3584 2303 3448 
Q 2544 3313 2681 3053 
z
M 991 1747 
Q 991 1078 1203 737 
Q 1416 397 1831 397 
Q 2247 397 2464 740 
Q 2681 1084 2681 1747 
Q 2681 2413 2464 2755 
Q 2247 3097 1831 3097 
Q 1416 3097 1203 2756 
Q 991 2416 991 1747 
z
" transform="scale(0.015625)"/>
       <path id="DejaVuSansMono-73" d="M 3041 3378 
L 3041 2816 
Q 2794 2959 2544 3031 
Q 2294 3103 2034 3103 
Q 1644 3103 1451 2976 
Q 1259 2850 1259 2591 
Q 1259 2356 1403 2240 
Q 1547 2125 2119 2016 
L 2350 1972 
Q 2778 1891 2998 1647 
Q 3219 1403 3219 1013 
Q 3219 494 2850 201 
Q 2481 -91 1825 -91 
Q 1566 -91 1281 -36 
Q 997 19 666 128 
L 666 722 
Q 988 556 1281 473 
Q 1575 391 1838 391 
Q 2219 391 2428 545 
Q 2638 700 2638 978 
Q 2638 1378 1872 1531 
L 1847 1538 
L 1631 1581 
Q 1134 1678 906 1908 
Q 678 2138 678 2534 
Q 678 3038 1018 3311 
Q 1359 3584 1991 3584 
Q 2272 3584 2531 3532 
Q 2791 3481 3041 3378 
z
" transform="scale(0.015625)"/>
      </defs>
      <use xlink:href="#DejaVuSansMono-74"/>
      <use xlink:href="#DejaVuSansMono-68" transform="translate(60.205078 0)"/>
      <use xlink:href="#DejaVuSansMono-72" transform="translate(120.410156 0)"/>
      <use xlink:href="#DejaVuSansMono-65" transform="translate(180.615234 0)"/>
      <use xlink:href="#DejaVuSansMono-61" transform="translate(240.820312 0)"/>
      <use xlink:href="#DejaVuSansMono-64" transform="translate(301.025391 0)"/>
      <use xlink:href="#DejaVuSansMono-73" transform="translate(361.230469 0)"/>
     </g>
    </g>
   </g>
   <g id="matplotlib.axis_2">
    <g id="ytick_1">
     <g id="line2d_15">
      <path d="M 48.13125 246.468 
L 392.652509 246.468 
" clip-path="url(#p36e94fc1ca)" style="fill: none; stroke: #21262d; stroke-width: 0.5; stroke-linecap: square"/>
     </g>
     <g id="line2d_16">
      <defs>
       <path id="m4a250df224" d="M 0 0 
L -3 0 
" style="stroke: #8b949e; stroke-width: 0.5"/>
      </defs>
      <g>
       <use xlink:href="#m4a250df224" x="48.13125" y="246.468" style="fill: #8b949e; stroke: #8b949e; stroke-width: 0.5"/>
      </g>
     </g>
     <g id="text_9">
      <!-- 0 -->
      <g style="fill: #8b949e" transform="translate(36.212969 249.911203) scale(0.09 -0.09)">
       <use xlink:href="#DejaVuSansMono-30"/>
      </g>
     </g>
    </g>
    <g id="ytick_2">
     <g id="line2d_17">
      <path d="M 48.13125 222.503632 
L 392.652509 222.503632 
" clip-path="url(#p36e94fc1ca)" style="fill: none; stroke: #21262d; stroke-width: 0.5; stroke-linecap: square"/>
     </g>
     <g id="line2d_18">
      <g>
       <use xlink:href="#m4a250df224" x="48.13125" y="222.503632" style="fill: #8b949e; stroke: #8b949e; stroke-width: 0.5"/>
      </g>
     </g>
     <g id="text_10">
      <!-- 200 -->
      <g style="fill: #8b949e" transform="translate(25.376406 225.946835) scale(0.09 -0.09)">
       <use xlink:href="#DejaVuSansMono-32"/>
       <use xlink:href="#DejaVuSansMono-30" transform="translate(60.205078 0)"/>
       <use xlink:href="#DejaVuSansMono-30" transform="translate(120.410156 0)"/>
      </g>
     </g>
    </g>
    <g id="ytick_3">
     <g id="line2d_19">
      <path d="M 48.13125 198.539263 
L 392.652509 198.539263 
" clip-path="url(#p36e94fc1ca)" style="fill: none; stroke: #21262d; stroke-width: 0.5; stroke-linecap: square"/>
     </g>
     <g id="line2d_20">
      <g>
       <use xlink:href="#m4a250df224" x="48.13125" y="198.539263" style="fill: #8b949e; stroke: #8b949e; stroke-width: 0.5"/>
      </g>
     </g>
     <g id="text_11">
      <!-- 400 -->
      <g style="fill: #8b949e" transform="translate(25.376406 201.982466) scale(0.09 -0.09)">
       <use xlink:href="#DejaVuSansMono-34"/>
       <use xlink:href="#DejaVuSansMono-30" transform="translate(60.205078 0)"/>
       <use xlink:href="#DejaVuSansMono-30" transform="translate(120.410156 0)"/>
      </g>
     </g>
    </g>
    <g id="ytick_4">
     <g id="line2d_21">
      <path d="M 48.13125 174.574895 
L 392.652509 174.574895 
" clip-path="url(#p36e94fc1ca)" style="fill: none; stroke: #21262d; stroke-width: 0.5; stroke-linecap: square"/>
     </g>
     <g id="line2d_22">
      <g>
       <use xlink:href="#m4a250df224" x="48.13125" y="174.574895" style="fill: #8b949e; stroke: #8b949e; stroke-width: 0.5"/>
      </g>
     </g>
     <g id="text_12">
      <!-- 600 -->
      <g style="fill: #8b949e" transform="translate(25.376406 178.018098) scale(0.09 -0.09)">
       <use xlink:href="#DejaVuSansMono-36"/>
       <use xlink:href="#DejaVuSansMono-30" transform="translate(60.205078 0)"/>
       <use xlink:href="#DejaVuSansMono-30" transform="translate(120.410156 0)"/>
      </g>
     </g>
    </g>
    <g id="ytick_5">
     <g id="line2d_23">
      <path d="M 48.13125 150.610526 
L 392.652509 150.610526 
" clip-path="url(#p36e94fc1ca)" style="fill: none; stroke: #21262d; stroke-width: 0.5; stroke-linecap: square"/>
     </g>
     <g id="line2d_24">
      <g>
       <use xlink:href="#m4a250df224" x="48.13125" y="150.610526" style="fill: #8b949e; stroke: #8b949e; stroke-width: 0.5"/>
      </g>
     </g>
     <g id="text_13">
      <!-- 800 -->
      <g style="fill: #8b949e" transform="translate(25.376406 154.053729) scale(0.09 -0.09)">
       <use xlink:href="#DejaVuSansMono-38"/>
       <use xlink:href="#DejaVuSansMono-30" transform="translate(60.205078 0)"/>
       <use xlink:href="#DejaVuSansMono-30" transform="translate(120.410156 0)"/>
      </g>
     </g>
    </g>
    <g id="ytick_6">
     <g id="line2d_25">
      <path d="M 48.13125 126.646158 
L 392.652509 126.646158 
" clip-path="url(#p36e94fc1ca)" style="fill: none; stroke: #21262d; stroke-width: 0.5; stroke-linecap: square"/>
     </g>
     <g id="line2d_26">
      <g>
       <use xlink:href="#m4a250df224" x="48.13125" y="126.646158" style="fill: #8b949e; stroke: #8b949e; stroke-width: 0.5"/>
      </g>
     </g>
     <g id="text_14">
      <!-- 1000 -->
      <g style="fill: #8b949e" transform="translate(19.958125 130.089361) scale(0.09 -0.09)">
       <use xlink:href="#DejaVuSansMono-31"/>
       <use xlink:href="#DejaVuSansMono-30" transform="translate(60.205078 0)"/>
       <use xlink:href="#DejaVuSansMono-30" transform="translate(120.410156 0)"/>
       <use xlink:href="#DejaVuSansMono-30" transform="translate(180.615234 0)"/>
      </g>
     </g>
    </g>
    <g id="ytick_7">
     <g id="line2d_27">
      <path d="M 48.13125 102.681789 
L 392.652509 102.681789 
" clip-path="url(#p36e94fc1ca)" style="fill: none; stroke: #21262d; stroke-width: 0.5; stroke-linecap: square"/>
     </g>
     <g id="line2d_28">
      <g>
       <use xlink:href="#m4a250df224" x="48.13125" y="102.681789" style="fill: #8b949e; stroke: #8b949e; stroke-width: 0.5"/>
      </g>
     </g>
     <g id="text_15">
      <!-- 1200 -->
      <g style="fill: #8b949e" transform="translate(19.958125 106.124993) scale(0.09 -0.09)">
       <use xlink:href="#DejaVuSansMono-31"/>
       <use xlink:href="#DejaVuSansMono-32" transform="translate(60.205078 0)"/>
       <use xlink:href="#DejaVuSansMono-30" transform="translate(120.410156 0)"/>
       <use xlink:href="#DejaVuSansMono-30" transform="translate(180.615234 0)"/>
      </g>
     </g>
    </g>
    <g id="ytick_8">
     <g id="line2d_29">
      <path d="M 48.13125 78.717421 
L 392.652509 78.717421 
" clip-path="url(#p36e94fc1ca)" style="fill: none; stroke: #21262d; stroke-width: 0.5; stroke-linecap: square"/>
     </g>
     <g id="line2d_30">
      <g>
       <use xlink:href="#m4a250df224" x="48.13125" y="78.717421" style="fill: #8b949e; stroke: #8b949e; stroke-width: 0.5"/>
      </g>
     </g>
     <g id="text_16">
      <!-- 1400 -->
      <g style="fill: #8b949e" transform="translate(19.958125 82.160624) scale(0.09 -0.09)">
       <use xlink:href="#DejaVuSansMono-31"/>
       <use xlink:href="#DejaVuSansMono-34" transform="translate(60.205078 0)"/>
       <use xlink:href="#DejaVuSansMono-30" transform="translate(120.410156 0)"/>
       <use xlink:href="#DejaVuSansMono-30" transform="translate(180.615234 0)"/>
      </g>
     </g>
    </g>
    <g id="text_17">
     <!-- MB/s -->
     <g style="fill: #8b949e" transform="translate(14.086406 165.286563) rotate(-90) scale(0.09 -0.09)">
      <defs>
       <path id="DejaVuSansMono-4d" d="M 269 4666 
L 1113 4666 
L 1919 2291 
L 2731 4666 
L 3578 4666 
L 3578 0 
L 2994 0 
L 2994 4122 
L 2163 1663 
L 1684 1663 
L 850 4122 
L 850 0 
L 269 0 
L 269 4666 
z
" transform="scale(0.015625)"/>
       <path id="DejaVuSansMono-42" d="M 1153 2228 
L 1153 519 
L 1900 519 
Q 2450 519 2684 711 
Q 2919 903 2919 1344 
Q 2919 1800 2672 2014 
Q 2425 2228 1900 2228 
L 1153 2228 
z
M 1153 4147 
L 1153 2741 
L 1888 2741 
Q 2344 2741 2548 2916 
Q 2753 3091 2753 3481 
Q 2753 3834 2551 3990 
Q 2350 4147 1888 4147 
L 1153 4147 
z
M 519 4666 
L 1900 4666 
Q 2616 4666 3003 4356 
Q 3391 4047 3391 3481 
Q 3391 3053 3186 2806 
Q 2981 2559 2572 2497 
Q 3031 2428 3292 2104 
Q 3553 1781 3553 1281 
Q 3553 647 3137 323 
Q 2722 0 1900 0 
L 519 0 
L 519 4666 
z
" transform="scale(0.015625)"/>
       <path id="DejaVuSansMono-2f" d="M 2778 4666 
L 3372 4666 
L 916 -594 
L 319 -594 
L 2778 4666 
z
" transform="scale(0.015625)"/>
      </defs>
      <use xlink:href="#DejaVuSansMono-4d"/>
      <use xlink:href="#DejaVuSansMono-42" transform="translate(60.205078 0)"/>
      <use xlink:href="#DejaVuSansMono-2f" transform="translate(120.410156 0)"/>
      <use xlink:href="#DejaVuSansMono-73" transform="translate(180.615234 0)"/>
     </g>
    </g>
   </g>
   <g id="line2d_31">
    <path d="M 50.781414 208.592316 
L 53.431577 184.914865 
L 56.081741 168.712222 
L 58.731904 156.927317 
L 61.382068 147.970133 
L 64.032231 140.931948 
L 66.682395 135.255737 
L 69.332558 130.58104 
L 71.982722 126.664283 
L 74.632885 123.334954 
L 77.283049 120.470121 
L 79.933212 117.978914 
L 82.583376 115.792716 
L 85.233539 113.858744 
L 87.883703 112.135729 
L 90.533866 110.590939 
L 93.18403 109.19808 
L 98.484357 106.786532 
L 103.784684 104.771372 
L 109.085011 103.062289 
L 114.385338 101.594472 
L 119.685665 100.320201 
L 127.636156 98.695489 
L 135.586646 97.339063 
L 143.537137 96.18954 
L 154.137791 94.904421 
L 164.738445 93.836497 
L 177.989263 92.731152 
L 193.890244 91.654854 
L 212.441389 90.64902 
L 233.642697 89.73462 
L 260.144332 88.838502 
L 291.946295 88.011311 
L 329.048584 87.275746 
L 376.751528 86.567685 
L 387.352182 86.436696 
L 387.352182 86.436696 
" clip-path="url(#p36e94fc1ca)" style="fill: none; stroke: #238636; stroke-opacity: 0.6; stroke-width: 1.5; stroke-linecap: square"/>
   </g>
   <g id="line2d_32">
    <path d="M 50.781414 208.592316 
L 53.431577 170.716631 
L 56.081741 132.840947 
L 58.731904 94.965263 
L 61.382068 57.089578 
L 64.032231 19.213894 
L 65.446598 -1 
" clip-path="url(#p36e94fc1ca)" style="fill: none; stroke-dasharray: 3.7,1.6; stroke-dashoffset: 0; stroke: #30363d"/>
   </g>
   <g id="line2d_33">
    <path d="M 217.741716 246.468 
L 217.741716 62.432 
" clip-path="url(#p36e94fc1ca)" style="fill: none; stroke-dasharray: 0.8,1.32; stroke-dashoffset: 0; stroke: #d29922; stroke-opacity: 0.4; stroke-width: 0.8"/>
   </g>
   <g id="patch_3">
    <path d="M 48.13125 246.468 
L 48.13125 62.432 
" style="fill: none; stroke: #30363d; stroke-width: 0.8; stroke-linejoin: miter; stroke-linecap: square"/>
   </g>
   <g id="patch_4">
    <path d="M 392.652509 246.468 
L 392.652509 62.432 
" style="fill: none; stroke: #30363d; stroke-width: 0.8; stroke-linejoin: miter; stroke-linecap: square"/>
   </g>
   <g id="patch_5">
    <path d="M 48.13125 246.468 
L 392.652509 246.468 
" style="fill: none; stroke: #30363d; stroke-width: 0.8; stroke-linejoin: miter; stroke-linecap: square"/>
   </g>
   <g id="patch_6">
    <path d="M 48.13125 62.432 
L 392.652509 62.432 
" style="fill: none; stroke: #30363d; stroke-width: 0.8; stroke-linejoin: miter; stroke-linecap: square"/>
   </g>
   <g id="text_18">
    <!-- 316 -->
    <g style="fill: #3fb950" transform="translate(60.781414 211.592316) scale(0.09 -0.09)">
     <defs>
      <path id="DejaVuSansMono-Bold-33" d="M 1716 2088 
L 1222 2088 
L 1222 2900 
L 1716 2900 
Q 2059 2900 2248 3036 
Q 2438 3172 2438 3419 
Q 2438 3678 2248 3823 
Q 2059 3969 1716 3969 
Q 1453 3969 1153 3903 
Q 853 3838 531 3713 
L 531 4550 
Q 853 4647 1165 4698 
Q 1478 4750 1766 4750 
Q 2503 4750 2915 4428 
Q 3328 4106 3328 3541 
Q 3328 3125 3090 2861 
Q 2853 2597 2413 2516 
Q 2913 2428 3175 2117 
Q 3438 1806 3438 1300 
Q 3438 622 3003 265 
Q 2569 -91 1741 -91 
Q 1388 -91 1045 -31 
Q 703 28 391 141 
L 391 997 
Q 684 850 1025 773 
Q 1366 697 1741 697 
Q 2116 697 2334 870 
Q 2553 1044 2553 1338 
Q 2553 1697 2334 1892 
Q 2116 2088 1716 2088 
z
" transform="scale(0.015625)"/>
      <path id="DejaVuSansMono-Bold-31" d="M 588 813 
L 1619 813 
L 1619 3841 
L 659 3603 
L 659 4434 
L 1625 4666 
L 2516 4666 
L 2516 813 
L 3547 813 
L 3547 0 
L 588 0 
L 588 813 
z
" transform="scale(0.015625)"/>
      <path id="DejaVuSansMono-Bold-36" d="M 2009 2338 
Q 1709 2338 1551 2120 
Q 1394 1903 1394 1491 
Q 1394 1081 1551 864 
Q 1709 647 2009 647 
Q 2309 647 2470 864 
Q 2631 1081 2631 1491 
Q 2631 1900 2470 2119 
Q 2309 2338 2009 2338 
z
M 3219 4556 
L 3219 3719 
Q 2972 3859 2745 3929 
Q 2519 4000 2309 4000 
Q 1809 4000 1548 3664 
Q 1288 3328 1275 2672 
Q 1422 2875 1650 2976 
Q 1878 3078 2188 3078 
Q 2819 3078 3162 2679 
Q 3506 2281 3506 1550 
Q 3506 766 3120 334 
Q 2734 -97 2034 -97 
Q 1181 -97 795 475 
Q 409 1047 409 2322 
Q 409 3534 881 4139 
Q 1353 4744 2297 4744 
Q 2516 4744 2748 4697 
Q 2981 4650 3219 4556 
z
" transform="scale(0.015625)"/>
     </defs>
     <use xlink:href="#DejaVuSansMono-Bold-33"/>
     <use xlink:href="#DejaVuSansMono-Bold-31" transform="translate(60.205078 0)"/>
     <use xlink:href="#DejaVuSansMono-Bold-36" transform="translate(120.410156 0)"/>
    </g>
   </g>
   <g id="text_19">
    <!-- 1302 -->
    <g style="fill: #3fb950" transform="translate(225.741716 84.400051) scale(0.09 -0.09)">
     <defs>
      <path id="DejaVuSansMono-Bold-30" d="M 1538 2328 
Q 1538 2494 1650 2606 
Q 1763 2719 1925 2719 
Q 2091 2719 2203 2606 
Q 2316 2494 2316 2328 
Q 2316 2166 2203 2053 
Q 2091 1941 1925 1941 
Q 1763 1941 1650 2052 
Q 1538 2163 1538 2328 
z
M 1925 3969 
Q 1606 3969 1459 3578 
Q 1313 3188 1313 2328 
Q 1313 1472 1459 1081 
Q 1606 691 1925 691 
Q 2247 691 2394 1081 
Q 2541 1472 2541 2328 
Q 2541 3188 2394 3578 
Q 2247 3969 1925 3969 
z
M 384 2328 
Q 384 3541 768 4145 
Q 1153 4750 1925 4750 
Q 2700 4750 3084 4147 
Q 3469 3544 3469 2328 
Q 3469 1116 3084 512 
Q 2700 -91 1925 -91 
Q 1153 -91 768 514 
Q 384 1119 384 2328 
z
" transform="scale(0.015625)"/>
      <path id="DejaVuSansMono-Bold-32" d="M 1356 813 
L 3322 813 
L 3322 0 
L 359 0 
L 359 788 
L 859 1319 
Q 1750 2266 1941 2484 
Q 2175 2753 2278 2961 
Q 2381 3169 2381 3372 
Q 2381 3684 2192 3854 
Q 2003 4025 1656 4025 
Q 1409 4025 1101 3926 
Q 794 3828 459 3641 
L 459 4500 
Q 794 4622 1114 4686 
Q 1434 4750 1728 4750 
Q 2469 4750 2892 4404 
Q 3316 4059 3316 3463 
Q 3316 3188 3223 2947 
Q 3131 2706 2906 2413 
Q 2741 2200 1997 1456 
Q 1594 1053 1356 813 
z
" transform="scale(0.015625)"/>
     </defs>
     <use xlink:href="#DejaVuSansMono-Bold-31"/>
     <use xlink:href="#DejaVuSansMono-Bold-33" transform="translate(60.205078 0)"/>
     <use xlink:href="#DejaVuSansMono-Bold-30" transform="translate(120.410156 0)"/>
     <use xlink:href="#DejaVuSansMono-Bold-32" transform="translate(180.615234 0)"/>
    </g>
   </g>
   <g id="text_20">
    <!-- 1336 MB/s @ 128c -->
    <g style="fill: #d29922" transform="translate(393.352182 98.436696) scale(0.08 -0.08)">
     <defs>
      <path id="DejaVuSansMono-33" d="M 2425 2497 
Q 2884 2375 3128 2064 
Q 3372 1753 3372 1288 
Q 3372 644 2939 276 
Q 2506 -91 1741 -91 
Q 1419 -91 1084 -31 
Q 750 28 428 141 
L 428 769 
Q 747 603 1056 522 
Q 1366 441 1672 441 
Q 2191 441 2469 675 
Q 2747 909 2747 1350 
Q 2747 1756 2469 1995 
Q 2191 2234 1716 2234 
L 1234 2234 
L 1234 2753 
L 1716 2753 
Q 2150 2753 2394 2943 
Q 2638 3134 2638 3475 
Q 2638 3834 2411 4026 
Q 2184 4219 1766 4219 
Q 1488 4219 1191 4156 
Q 894 4094 569 3969 
L 569 4550 
Q 947 4650 1242 4700 
Q 1538 4750 1766 4750 
Q 2447 4750 2855 4408 
Q 3263 4066 3263 3500 
Q 3263 3116 3048 2859 
Q 2834 2603 2425 2497 
z
" transform="scale(0.015625)"/>
      <path id="DejaVuSansMono-20" transform="scale(0.015625)"/>
      <path id="DejaVuSansMono-40" d="M 3244 1703 
Q 3244 2106 3044 2348 
Q 2844 2591 2509 2591 
Q 2175 2591 1973 2348 
Q 1772 2106 1772 1703 
Q 1772 1297 1973 1055 
Q 2175 813 2509 813 
Q 2844 813 3044 1055 
Q 3244 1297 3244 1703 
z
M 3681 422 
L 3231 422 
L 3231 769 
Q 3116 572 2911 465 
Q 2706 359 2450 359 
Q 1947 359 1617 737 
Q 1288 1116 1288 1703 
Q 1288 2291 1617 2669 
Q 1947 3047 2450 3047 
Q 2700 3047 2909 2937 
Q 3119 2828 3231 2638 
L 3231 2834 
Q 3231 3322 2956 3619 
Q 2681 3916 2228 3916 
Q 1459 3916 1004 3317 
Q 550 2719 550 1697 
Q 550 669 1065 59 
Q 1581 -550 2438 -550 
Q 2606 -550 2775 -519 
Q 2944 -488 3122 -422 
L 3272 -844 
Q 3075 -922 2883 -959 
Q 2691 -997 2509 -997 
Q 1394 -997 739 -269 
Q 84 459 84 1697 
Q 84 2916 671 3637 
Q 1259 4359 2247 4359 
Q 2900 4359 3290 3943 
Q 3681 3528 3681 2828 
L 3681 422 
z
" transform="scale(0.015625)"/>
      <path id="DejaVuSansMono-63" d="M 3316 178 
Q 3084 44 2839 -23 
Q 2594 -91 2338 -91 
Q 1525 -91 1067 396 
Q 609 884 609 1747 
Q 609 2609 1067 3096 
Q 1525 3584 2338 3584 
Q 2591 3584 2831 3518 
Q 3072 3453 3316 3316 
L 3316 2713 
Q 3088 2916 2858 3006 
Q 2628 3097 2338 3097 
Q 1797 3097 1506 2747 
Q 1216 2397 1216 1747 
Q 1216 1100 1508 748 
Q 1800 397 2338 397 
Q 2638 397 2875 489 
Q 3113 581 3316 775 
L 3316 178 
z
" transform="scale(0.015625)"/>
     </defs>
     <use xlink:href="#DejaVuSansMono-31"/>
     <use xlink:href="#DejaVuSansMono-33" transform="translate(60.205078 0)"/>
     <use xlink:href="#DejaVuSansMono-33" transform="translate(120.410156 0)"/>
     <use xlink:href="#DejaVuSansMono-36" transform="translate(180.615234 0)"/>
     <use xlink:href="#DejaVuSansMono-20" transform="translate(240.820312 0)"/>
     <use xlink:href="#DejaVuSansMono-4d" transform="translate(301.025391 0)"/>
     <use xlink:href="#DejaVuSansMono-42" transform="translate(361.230469 0)"/>
     <use xlink:href="#DejaVuSansMono-2f" transform="translate(421.435547 0)"/>
     <use xlink:href="#DejaVuSansMono-73" transform="translate(481.640625 0)"/>
     <use xlink:href="#DejaVuSansMono-20" transform="translate(541.845703 0)"/>
     <use xlink:href="#DejaVuSansMono-40" transform="translate(602.050781 0)"/>
     <use xlink:href="#DejaVuSansMono-20" transform="translate(662.255859 0)"/>
     <use xlink:href="#DejaVuSansMono-31" transform="translate(722.460938 0)"/>
     <use xlink:href="#DejaVuSansMono-32" transform="translate(782.666016 0)"/>
     <use xlink:href="#DejaVuSansMono-38" transform="translate(842.871094 0)"/>
     <use xlink:href="#DejaVuSansMono-63" transform="translate(903.076172 0)"/>
    </g>
   </g>
   <g id="text_21">
    <!-- THROUGHPUT -->
    <g style="fill: #e6edf3" transform="translate(48.13125 54.432) scale(0.11 -0.11)">
     <defs>
      <path id="DejaVuSansMono-Bold-54" d="M 2388 0 
L 1466 0 
L 1466 3859 
L 281 3859 
L 281 4666 
L 3572 4666 
L 3572 3859 
L 2388 3859 
L 2388 0 
z
" transform="scale(0.015625)"/>
      <path id="DejaVuSansMono-Bold-48" d="M 428 4666 
L 1350 4666 
L 1350 2888 
L 2503 2888 
L 2503 4666 
L 3425 4666 
L 3425 0 
L 2503 0 
L 2503 2075 
L 1350 2075 
L 1350 0 
L 428 0 
L 428 4666 
z
" transform="scale(0.015625)"/>
      <path id="DejaVuSansMono-Bold-52" d="M 2522 2203 
Q 2659 2175 2761 2073 
Q 2863 1972 3009 1678 
L 3853 0 
L 2841 0 
L 2278 1178 
Q 2253 1228 2213 1316 
Q 1966 1844 1631 1844 
L 1338 1844 
L 1338 0 
L 416 0 
L 416 4666 
L 1747 4666 
Q 2647 4666 3039 4347 
Q 3431 4028 3431 3309 
Q 3431 2828 3197 2543 
Q 2963 2259 2522 2203 
z
M 1338 3891 
L 1338 2619 
L 1772 2619 
Q 2150 2619 2314 2767 
Q 2478 2916 2478 3256 
Q 2478 3597 2315 3744 
Q 2153 3891 1772 3891 
L 1338 3891 
z
" transform="scale(0.015625)"/>
      <path id="DejaVuSansMono-Bold-4f" d="M 1925 3922 
Q 1572 3922 1409 3545 
Q 1247 3169 1247 2328 
Q 1247 1491 1409 1114 
Q 1572 738 1925 738 
Q 2281 738 2443 1114 
Q 2606 1491 2606 2328 
Q 2606 3169 2443 3545 
Q 2281 3922 1925 3922 
z
M 288 2328 
Q 288 3525 702 4137 
Q 1116 4750 1925 4750 
Q 2738 4750 3152 4137 
Q 3566 3525 3566 2328 
Q 3566 1134 3152 521 
Q 2738 -91 1925 -91 
Q 1116 -91 702 521 
Q 288 1134 288 2328 
z
" transform="scale(0.015625)"/>
      <path id="DejaVuSansMono-Bold-55" d="M 331 1722 
L 331 4666 
L 1253 4666 
L 1253 1491 
Q 1253 1141 1431 942 
Q 1609 744 1925 744 
Q 2241 744 2419 942 
Q 2597 1141 2597 1491 
L 2597 4666 
L 3519 4666 
L 3519 1722 
Q 3519 772 3141 340 
Q 2763 -91 1925 -91 
Q 1091 -91 711 340 
Q 331 772 331 1722 
z
" transform="scale(0.015625)"/>
      <path id="DejaVuSansMono-Bold-47" d="M 2725 844 
L 2725 1734 
L 2094 1734 
L 2094 2509 
L 3531 2509 
L 3531 372 
Q 3266 144 2945 26 
Q 2625 -91 2259 -91 
Q 1353 -91 859 539 
Q 366 1169 366 2328 
Q 366 3506 864 4128 
Q 1363 4750 2303 4750 
Q 2584 4750 2856 4670 
Q 3128 4591 3366 4441 
L 3366 3419 
Q 3172 3669 2920 3795 
Q 2669 3922 2369 3922 
Q 1844 3922 1584 3526 
Q 1325 3131 1325 2328 
Q 1325 1550 1575 1144 
Q 1825 738 2303 738 
Q 2447 738 2553 764 
Q 2659 791 2725 844 
z
" transform="scale(0.015625)"/>
      <path id="DejaVuSansMono-Bold-50" d="M 1428 3891 
L 1428 2522 
L 1806 2522 
Q 2259 2522 2442 2675 
Q 2625 2828 2625 3206 
Q 2625 3584 2442 3737 
Q 2259 3891 1806 3891 
L 1428 3891 
z
M 506 4666 
L 1772 4666 
Q 2738 4666 3161 4322 
Q 3584 3978 3584 3206 
Q 3584 2434 3161 2090 
Q 2738 1747 1772 1747 
L 1428 1747 
L 1428 0 
L 506 0 
L 506 4666 
z
" transform="scale(0.015625)"/>
     </defs>
     <use xlink:href="#DejaVuSansMono-Bold-54"/>
     <use xlink:href="#DejaVuSansMono-Bold-48" transform="translate(60.205078 0)"/>
     <use xlink:href="#DejaVuSansMono-Bold-52" transform="translate(120.410156 0)"/>
     <use xlink:href="#DejaVuSansMono-Bold-4f" transform="translate(180.615234 0)"/>
     <use xlink:href="#DejaVuSansMono-Bold-55" transform="translate(240.820312 0)"/>
     <use xlink:href="#DejaVuSansMono-Bold-47" transform="translate(301.025391 0)"/>
     <use xlink:href="#DejaVuSansMono-Bold-48" transform="translate(361.230469 0)"/>
     <use xlink:href="#DejaVuSansMono-Bold-50" transform="translate(421.435547 0)"/>
     <use xlink:href="#DejaVuSansMono-Bold-55" transform="translate(481.640625 0)"/>
     <use xlink:href="#DejaVuSansMono-Bold-54" transform="translate(541.845703 0)"/>
    </g>
   </g>
   <g id="line2d_34">
    <defs>
     <path id="m8ef7b54071" d="M -2 2 
L 2 2 
L 2 -2 
L -2 -2 
z
" style="stroke: #d29922; stroke-linejoin: miter"/>
    </defs>
    <g clip-path="url(#p36e94fc1ca)">
     <use xlink:href="#m8ef7b54071" x="387.352182" y="86.436696" style="fill: #d29922; stroke: #d29922; stroke-linejoin: miter"/>
    </g>
   </g>
   <g id="line2d_35">
    <path d="M 50.781414 208.592316 
L 53.431577 183.369818 
L 58.731904 152.096317 
L 69.332558 136.064155 
L 79.933212 106.85159 
L 90.533866 91.118982 
L 101.134521 80.658535 
L 111.735175 78.010472 
L 122.335829 67.933455 
L 132.936483 67.118667 
L 143.537137 66.663344 
L 154.137791 70.114213 
L 164.738445 73.660939 
L 175.339099 78.513724 
L 185.939753 80.946107 
L 196.540408 86.050518 
L 207.141062 88.614705 
L 217.741716 90.400051 
" clip-path="url(#p36e94fc1ca)" style="fill: none; stroke: #3fb950; stroke-width: 2; stroke-linecap: square"/>
    <defs>
     <path id="m8ccf1ca4c3" d="M 0 3 
C 0.795609 3 1.55874 2.683901 2.12132 2.12132 
C 2.683901 1.55874 3 0.795609 3 0 
C 3 -0.795609 2.683901 -1.55874 2.12132 -2.12132 
C 1.55874 -2.683901 0.795609 -3 0 -3 
C -0.795609 -3 -1.55874 -2.683901 -2.12132 -2.12132 
C -2.683901 -1.55874 -3 -0.795609 -3 0 
C -3 0.795609 -2.683901 1.55874 -2.12132 2.12132 
C -1.55874 2.683901 -0.795609 3 0 3 
z
" style="stroke: #161b22; stroke-width: 1.5"/>
    </defs>
    <g clip-path="url(#p36e94fc1ca)">
     <use xlink:href="#m8ccf1ca4c3" x="50.781414" y="208.592316" style="fill: #3fb950; stroke: #161b22; stroke-width: 1.5"/>
     <use xlink:href="#m8ccf1ca4c3" x="53.431577" y="183.369818" style="fill: #3fb950; stroke: #161b22; stroke-width: 1.5"/>
     <use xlink:href="#m8ccf1ca4c3" x="58.731904" y="152.096317" style="fill: #3fb950; stroke: #161b22; stroke-width: 1.5"/>
     <use xlink:href="#m8ccf1ca4c3" x="69.332558" y="136.064155" style="fill: #3fb950; stroke: #161b22; stroke-width: 1.5"/>
     <use xlink:href="#m8ccf1ca4c3" x="79.933212" y="106.85159" style="fill: #3fb950; stroke: #161b22; stroke-width: 1.5"/>
     <use xlink:href="#m8ccf1ca4c3" x="90.533866" y="91.118982" style="fill: #3fb950; stroke: #161b22; stroke-width: 1.5"/>
     <use xlink:href="#m8ccf1ca4c3" x="101.134521" y="80.658535" style="fill: #3fb950; stroke: #161b22; stroke-width: 1.5"/>
     <use xlink:href="#m8ccf1ca4c3" x="111.735175" y="78.010472" style="fill: #3fb950; stroke: #161b22; stroke-width: 1.5"/>
     <use xlink:href="#m8ccf1ca4c3" x="122.335829" y="67.933455" style="fill: #3fb950; stroke: #161b22; stroke-width: 1.5"/>
     <use xlink:href="#m8ccf1ca4c3" x="132.936483" y="67.118667" style="fill: #3fb950; stroke: #161b22; stroke-width: 1.5"/>
     <use xlink:href="#m8ccf1ca4c3" x="143.537137" y="66.663344" style="fill: #3fb950; stroke: #161b22; stroke-width: 1.5"/>
     <use xlink:href="#m8ccf1ca4c3" x="154.137791" y="70.114213" style="fill: #3fb950; stroke: #161b22; stroke-width: 1.5"/>
     <use xlink:href="#m8ccf1ca4c3" x="164.738445" y="73.660939" style="fill: #3fb950; stroke: #161b22; stroke-width: 1.5"/>
     <use xlink:href="#m8ccf1ca4c3" x="175.339099" y="78.513724" style="fill: #3fb950; stroke: #161b22; stroke-width: 1.5"/>
     <use xlink:href="#m8ccf1ca4c3" x="185.939753" y="80.946107" style="fill: #3fb950; stroke: #161b22; stroke-width: 1.5"/>
     <use xlink:href="#m8ccf1ca4c3" x="196.540408" y="86.050518" style="fill: #3fb950; stroke: #161b22; stroke-width: 1.5"/>
     <use xlink:href="#m8ccf1ca4c3" x="207.141062" y="88.614705" style="fill: #3fb950; stroke: #161b22; stroke-width: 1.5"/>
     <use xlink:href="#m8ccf1ca4c3" x="217.741716" y="90.400051" style="fill: #3fb950; stroke: #161b22; stroke-width: 1.5"/>
    </g>
   </g>
  </g>
  <g id="axes_2">
   <g id="patch_7">
    <path d="M 506.709991 246.468 
L 851.23125 246.468 
L 851.23125 62.432 
L 506.709991 62.432 
z
" style="fill: #161b22"/>
   </g>
   <g id="FillBetweenPolyCollection_2">
    <defs>
     <path id="m39a4a9b3c4" d="M 509.360155 -98.159684 
L 509.360155 -60.284 
L 512.010318 -60.284 
L 514.660482 -60.284 
L 517.310645 -60.284 
L 519.960809 -60.284 
L 522.610972 -60.284 
L 525.261136 -60.284 
L 527.911299 -60.284 
L 530.561463 -60.284 
L 533.211627 -60.284 
L 535.86179 -60.284 
L 538.511954 -60.284 
L 541.162117 -60.284 
L 543.812281 -60.284 
L 546.462444 -60.284 
L 549.112608 -60.284 
L 551.762771 -60.284 
L 554.412935 -60.284 
L 557.063098 -60.284 
L 559.713262 -60.284 
L 562.363425 -60.284 
L 565.013589 -60.284 
L 567.663752 -60.284 
L 570.313916 -60.284 
L 572.964079 -60.284 
L 575.614243 -60.284 
L 578.264407 -60.284 
L 580.91457 -60.284 
L 583.564734 -60.284 
L 586.214897 -60.284 
L 588.865061 -60.284 
L 591.515224 -60.284 
L 594.165388 -60.284 
L 596.815551 -60.284 
L 599.465715 -60.284 
L 602.115878 -60.284 
L 604.766042 -60.284 
L 607.416205 -60.284 
L 610.066369 -60.284 
L 612.716532 -60.284 
L 615.366696 -60.284 
L 618.016859 -60.284 
L 620.667023 -60.284 
L 623.317187 -60.284 
L 625.96735 -60.284 
L 628.617514 -60.284 
L 631.267677 -60.284 
L 633.917841 -60.284 
L 636.568004 -60.284 
L 639.218168 -60.284 
L 641.868331 -60.284 
L 644.518495 -60.284 
L 647.168658 -60.284 
L 649.818822 -60.284 
L 652.468985 -60.284 
L 655.119149 -60.284 
L 657.769312 -60.284 
L 660.419476 -60.284 
L 663.069639 -60.284 
L 665.719803 -60.284 
L 668.369967 -60.284 
L 671.02013 -60.284 
L 673.670294 -60.284 
L 676.320457 -60.284 
L 678.970621 -60.284 
L 681.620784 -60.284 
L 684.270948 -60.284 
L 686.921111 -60.284 
L 689.571275 -60.284 
L 692.221438 -60.284 
L 694.871602 -60.284 
L 697.521765 -60.284 
L 700.171929 -60.284 
L 702.822092 -60.284 
L 705.472256 -60.284 
L 708.122419 -60.284 
L 710.772583 -60.284 
L 713.422747 -60.284 
L 716.07291 -60.284 
L 718.723074 -60.284 
L 721.373237 -60.284 
L 724.023401 -60.284 
L 726.673564 -60.284 
L 729.323728 -60.284 
L 731.973891 -60.284 
L 734.624055 -60.284 
L 737.274218 -60.284 
L 739.924382 -60.284 
L 742.574545 -60.284 
L 745.224709 -60.284 
L 747.874872 -60.284 
L 750.525036 -60.284 
L 753.175199 -60.284 
L 755.825363 -60.284 
L 758.475526 -60.284 
L 761.12569 -60.284 
L 763.775854 -60.284 
L 766.426017 -60.284 
L 769.076181 -60.284 
L 771.726344 -60.284 
L 774.376508 -60.284 
L 777.026671 -60.284 
L 779.676835 -60.284 
L 782.326998 -60.284 
L 784.977162 -60.284 
L 787.627325 -60.284 
L 790.277489 -60.284 
L 792.927652 -60.284 
L 795.577816 -60.284 
L 798.227979 -60.284 
L 800.878143 -60.284 
L 803.528306 -60.284 
L 806.17847 -60.284 
L 808.828634 -60.284 
L 811.478797 -60.284 
L 814.128961 -60.284 
L 816.779124 -60.284 
L 819.429288 -60.284 
L 822.079451 -60.284 
L 824.729615 -60.284 
L 827.379778 -60.284 
L 830.029942 -60.284 
L 832.680105 -60.284 
L 835.330269 -60.284 
L 837.980432 -60.284 
L 840.630596 -60.284 
L 843.280759 -60.284 
L 845.930923 -60.284 
L 845.930923 -220.315304 
L 845.930923 -220.315304 
L 843.280759 -220.283311 
L 840.630596 -220.250822 
L 837.980432 -220.217828 
L 835.330269 -220.184315 
L 832.680105 -220.150271 
L 830.029942 -220.115685 
L 827.379778 -220.080542 
L 824.729615 -220.044829 
L 822.079451 -220.008532 
L 819.429288 -219.971637 
L 816.779124 -219.934129 
L 814.128961 -219.895992 
L 811.478797 -219.85721 
L 808.828634 -219.817768 
L 806.17847 -219.777647 
L 803.528306 -219.736831 
L 800.878143 -219.695301 
L 798.227979 -219.653038 
L 795.577816 -219.610022 
L 792.927652 -219.566234 
L 790.277489 -219.521652 
L 787.627325 -219.476254 
L 784.977162 -219.430018 
L 782.326998 -219.382921 
L 779.676835 -219.334938 
L 777.026671 -219.286044 
L 774.376508 -219.236213 
L 771.726344 -219.185417 
L 769.076181 -219.133629 
L 766.426017 -219.080818 
L 763.775854 -219.026955 
L 761.12569 -218.972007 
L 758.475526 -218.915942 
L 755.825363 -218.858725 
L 753.175199 -218.800319 
L 750.525036 -218.740689 
L 747.874872 -218.679794 
L 745.224709 -218.617595 
L 742.574545 -218.554048 
L 739.924382 -218.48911 
L 737.274218 -218.422734 
L 734.624055 -218.354872 
L 731.973891 -218.285473 
L 729.323728 -218.214486 
L 726.673564 -218.141853 
L 724.023401 -218.067519 
L 721.373237 -217.991422 
L 718.723074 -217.913498 
L 716.07291 -217.833682 
L 713.422747 -217.751903 
L 710.772583 -217.668088 
L 708.122419 -217.58216 
L 705.472256 -217.494038 
L 702.822092 -217.403637 
L 700.171929 -217.310868 
L 697.521765 -217.215636 
L 694.871602 -217.117841 
L 692.221438 -217.01738 
L 689.571275 -216.914141 
L 686.921111 -216.808007 
L 684.270948 -216.698856 
L 681.620784 -216.586556 
L 678.970621 -216.470969 
L 676.320457 -216.351949 
L 673.670294 -216.229341 
L 671.02013 -216.10298 
L 668.369967 -215.97269 
L 665.719803 -215.838286 
L 663.069639 -215.69957 
L 660.419476 -215.55633 
L 657.769312 -215.408342 
L 655.119149 -215.255367 
L 652.468985 -215.097146 
L 649.818822 -214.933406 
L 647.168658 -214.763854 
L 644.518495 -214.588173 
L 641.868331 -214.406025 
L 639.218168 -214.217048 
L 636.568004 -214.020848 
L 633.917841 -213.817005 
L 631.267677 -213.605062 
L 628.617514 -213.384527 
L 625.96735 -213.154867 
L 623.317187 -212.915503 
L 620.667023 -212.665808 
L 618.016859 -212.405097 
L 615.366696 -212.132626 
L 612.716532 -211.847579 
L 610.066369 -211.549066 
L 607.416205 -211.236109 
L 604.766042 -210.907635 
L 602.115878 -210.56246 
L 599.465715 -210.199276 
L 596.815551 -209.816637 
L 594.165388 -209.412937 
L 591.515224 -208.986386 
L 588.865061 -208.53499 
L 586.214897 -208.056511 
L 583.564734 -207.548438 
L 580.91457 -207.007936 
L 578.264407 -206.431799 
L 575.614243 -205.816383 
L 572.964079 -205.157528 
L 570.313916 -204.450468 
L 567.663752 -203.689711 
L 565.013589 -202.868899 
L 562.363425 -201.980628 
L 559.713262 -201.016226 
L 557.063098 -199.965468 
L 554.412935 -198.816209 
L 551.762771 -197.55392 
L 549.112608 -196.161061 
L 546.462444 -194.616271 
L 543.812281 -192.893256 
L 541.162117 -190.959284 
L 538.511954 -188.773086 
L 535.86179 -186.281879 
L 533.211627 -183.417046 
L 530.561463 -180.087717 
L 527.911299 -176.17096 
L 525.261136 -171.496263 
L 522.610972 -165.820052 
L 519.960809 -158.781867 
L 517.310645 -149.824683 
L 514.660482 -138.039778 
L 512.010318 -121.837135 
L 509.360155 -98.159684 
z
" style="stroke: #238636; stroke-opacity: 0.08"/>
    </defs>
    <g clip-path="url(#p5a334d8cbc)">
     <use xlink:href="#m39a4a9b3c4" x="0" y="306.752" style="fill: #238636; fill-opacity: 0.08; stroke: #238636; stroke-opacity: 0.08"/>
    </g>
   </g>
   <g id="matplotlib.axis_3">
    <g id="xtick_8">
     <g id="line2d_36">
      <path d="M 506.709991 246.468 
L 506.709991 62.432 
" clip-path="url(#p5a334d8cbc)" style="fill: none; stroke: #21262d; stroke-width: 0.5; stroke-linecap: square"/>
     </g>
     <g id="line2d_37">
      <g>
       <use xlink:href="#m6d58dc01d1" x="506.709991" y="246.468" style="fill: #8b949e; stroke: #8b949e; stroke-width: 0.5"/>
      </g>
     </g>
     <g id="text_22">
      <!-- 0 -->
      <g style="fill: #8b949e" transform="translate(504.000851 259.854406) scale(0.09 -0.09)">
       <use xlink:href="#DejaVuSansMono-30"/>
      </g>
     </g>
    </g>
    <g id="xtick_9">
     <g id="line2d_38">
      <path d="M 559.713262 246.468 
L 559.713262 62.432 
" clip-path="url(#p5a334d8cbc)" style="fill: none; stroke: #21262d; stroke-width: 0.5; stroke-linecap: square"/>
     </g>
     <g id="line2d_39">
      <g>
       <use xlink:href="#m6d58dc01d1" x="559.713262" y="246.468" style="fill: #8b949e; stroke: #8b949e; stroke-width: 0.5"/>
      </g>
     </g>
     <g id="text_23">
      <!-- 20 -->
      <g style="fill: #8b949e" transform="translate(554.294981 259.854406) scale(0.09 -0.09)">
       <use xlink:href="#DejaVuSansMono-32"/>
       <use xlink:href="#DejaVuSansMono-30" transform="translate(60.205078 0)"/>
      </g>
     </g>
    </g>
    <g id="xtick_10">
     <g id="line2d_40">
      <path d="M 612.716532 246.468 
L 612.716532 62.432 
" clip-path="url(#p5a334d8cbc)" style="fill: none; stroke: #21262d; stroke-width: 0.5; stroke-linecap: square"/>
     </g>
     <g id="line2d_41">
      <g>
       <use xlink:href="#m6d58dc01d1" x="612.716532" y="246.468" style="fill: #8b949e; stroke: #8b949e; stroke-width: 0.5"/>
      </g>
     </g>
     <g id="text_24">
      <!-- 40 -->
      <g style="fill: #8b949e" transform="translate(607.298251 259.854406) scale(0.09 -0.09)">
       <use xlink:href="#DejaVuSansMono-34"/>
       <use xlink:href="#DejaVuSansMono-30" transform="translate(60.205078 0)"/>
      </g>
     </g>
    </g>
    <g id="xtick_11">
     <g id="line2d_42">
      <path d="M 665.719803 246.468 
L 665.719803 62.432 
" clip-path="url(#p5a334d8cbc)" style="fill: none; stroke: #21262d; stroke-width: 0.5; stroke-linecap: square"/>
     </g>
     <g id="line2d_43">
      <g>
       <use xlink:href="#m6d58dc01d1" x="665.719803" y="246.468" style="fill: #8b949e; stroke: #8b949e; stroke-width: 0.5"/>
      </g>
     </g>
     <g id="text_25">
      <!-- 60 -->
      <g style="fill: #8b949e" transform="translate(660.301522 259.854406) scale(0.09 -0.09)">
       <use xlink:href="#DejaVuSansMono-36"/>
       <use xlink:href="#DejaVuSansMono-30" transform="translate(60.205078 0)"/>
      </g>
     </g>
    </g>
    <g id="xtick_12">
     <g id="line2d_44">
      <path d="M 718.723074 246.468 
L 718.723074 62.432 
" clip-path="url(#p5a334d8cbc)" style="fill: none; stroke: #21262d; stroke-width: 0.5; stroke-linecap: square"/>
     </g>
     <g id="line2d_45">
      <g>
       <use xlink:href="#m6d58dc01d1" x="718.723074" y="246.468" style="fill: #8b949e; stroke: #8b949e; stroke-width: 0.5"/>
      </g>
     </g>
     <g id="text_26">
      <!-- 80 -->
      <g style="fill: #8b949e" transform="translate(713.304792 259.854406) scale(0.09 -0.09)">
       <use xlink:href="#DejaVuSansMono-38"/>
       <use xlink:href="#DejaVuSansMono-30" transform="translate(60.205078 0)"/>
      </g>
     </g>
    </g>
    <g id="xtick_13">
     <g id="line2d_46">
      <path d="M 771.726344 246.468 
L 771.726344 62.432 
" clip-path="url(#p5a334d8cbc)" style="fill: none; stroke: #21262d; stroke-width: 0.5; stroke-linecap: square"/>
     </g>
     <g id="line2d_47">
      <g>
       <use xlink:href="#m6d58dc01d1" x="771.726344" y="246.468" style="fill: #8b949e; stroke: #8b949e; stroke-width: 0.5"/>
      </g>
     </g>
     <g id="text_27">
      <!-- 100 -->
      <g style="fill: #8b949e" transform="translate(763.598922 259.854406) scale(0.09 -0.09)">
       <use xlink:href="#DejaVuSansMono-31"/>
       <use xlink:href="#DejaVuSansMono-30" transform="translate(60.205078 0)"/>
       <use xlink:href="#DejaVuSansMono-30" transform="translate(120.410156 0)"/>
      </g>
     </g>
    </g>
    <g id="xtick_14">
     <g id="line2d_48">
      <path d="M 824.729615 246.468 
L 824.729615 62.432 
" clip-path="url(#p5a334d8cbc)" style="fill: none; stroke: #21262d; stroke-width: 0.5; stroke-linecap: square"/>
     </g>
     <g id="line2d_49">
      <g>
       <use xlink:href="#m6d58dc01d1" x="824.729615" y="246.468" style="fill: #8b949e; stroke: #8b949e; stroke-width: 0.5"/>
      </g>
     </g>
     <g id="text_28">
      <!-- 120 -->
      <g style="fill: #8b949e" transform="translate(816.602193 259.854406) scale(0.09 -0.09)">
       <use xlink:href="#DejaVuSansMono-31"/>
       <use xlink:href="#DejaVuSansMono-32" transform="translate(60.205078 0)"/>
       <use xlink:href="#DejaVuSansMono-30" transform="translate(120.410156 0)"/>
      </g>
     </g>
    </g>
    <g id="text_29">
     <!-- threads -->
     <g style="fill: #8b949e" transform="translate(660.006636 272.612531) scale(0.09 -0.09)">
      <use xlink:href="#DejaVuSansMono-74"/>
      <use xlink:href="#DejaVuSansMono-68" transform="translate(60.205078 0)"/>
      <use xlink:href="#DejaVuSansMono-72" transform="translate(120.410156 0)"/>
      <use xlink:href="#DejaVuSansMono-65" transform="translate(180.615234 0)"/>
      <use xlink:href="#DejaVuSansMono-61" transform="translate(240.820312 0)"/>
      <use xlink:href="#DejaVuSansMono-64" transform="translate(301.025391 0)"/>
      <use xlink:href="#DejaVuSansMono-73" transform="translate(361.230469 0)"/>
     </g>
    </g>
   </g>
   <g id="matplotlib.axis_4">
    <g id="ytick_9">
     <g id="line2d_50">
      <path d="M 506.709991 246.468 
L 851.23125 246.468 
" clip-path="url(#p5a334d8cbc)" style="fill: none; stroke: #21262d; stroke-width: 0.5; stroke-linecap: square"/>
     </g>
     <g id="line2d_51">
      <g>
       <use xlink:href="#m4a250df224" x="506.709991" y="246.468" style="fill: #8b949e; stroke: #8b949e; stroke-width: 0.5"/>
      </g>
     </g>
     <g id="text_30">
      <!-- 0 -->
      <g style="fill: #8b949e" transform="translate(494.79171 249.911203) scale(0.09 -0.09)">
       <use xlink:href="#DejaVuSansMono-30"/>
      </g>
     </g>
    </g>
    <g id="ytick_10">
     <g id="line2d_52">
      <path d="M 506.709991 208.592316 
L 851.23125 208.592316 
" clip-path="url(#p5a334d8cbc)" style="fill: none; stroke: #21262d; stroke-width: 0.5; stroke-linecap: square"/>
     </g>
     <g id="line2d_53">
      <g>
       <use xlink:href="#m4a250df224" x="506.709991" y="208.592316" style="fill: #8b949e; stroke: #8b949e; stroke-width: 0.5"/>
      </g>
     </g>
     <g id="text_31">
      <!-- 1 -->
      <g style="fill: #8b949e" transform="translate(494.79171 212.035519) scale(0.09 -0.09)">
       <use xlink:href="#DejaVuSansMono-31"/>
      </g>
     </g>
    </g>
    <g id="ytick_11">
     <g id="line2d_54">
      <path d="M 506.709991 170.716631 
L 851.23125 170.716631 
" clip-path="url(#p5a334d8cbc)" style="fill: none; stroke: #21262d; stroke-width: 0.5; stroke-linecap: square"/>
     </g>
     <g id="line2d_55">
      <g>
       <use xlink:href="#m4a250df224" x="506.709991" y="170.716631" style="fill: #8b949e; stroke: #8b949e; stroke-width: 0.5"/>
      </g>
     </g>
     <g id="text_32">
      <!-- 2 -->
      <g style="fill: #8b949e" transform="translate(494.79171 174.159835) scale(0.09 -0.09)">
       <use xlink:href="#DejaVuSansMono-32"/>
      </g>
     </g>
    </g>
    <g id="ytick_12">
     <g id="line2d_56">
      <path d="M 506.709991 132.840947 
L 851.23125 132.840947 
" clip-path="url(#p5a334d8cbc)" style="fill: none; stroke: #21262d; stroke-width: 0.5; stroke-linecap: square"/>
     </g>
     <g id="line2d_57">
      <g>
       <use xlink:href="#m4a250df224" x="506.709991" y="132.840947" style="fill: #8b949e; stroke: #8b949e; stroke-width: 0.5"/>
      </g>
     </g>
     <g id="text_33">
      <!-- 3 -->
      <g style="fill: #8b949e" transform="translate(494.79171 136.28415) scale(0.09 -0.09)">
       <use xlink:href="#DejaVuSansMono-33"/>
      </g>
     </g>
    </g>
    <g id="ytick_13">
     <g id="line2d_58">
      <path d="M 506.709991 94.965263 
L 851.23125 94.965263 
" clip-path="url(#p5a334d8cbc)" style="fill: none; stroke: #21262d; stroke-width: 0.5; stroke-linecap: square"/>
     </g>
     <g id="line2d_59">
      <g>
       <use xlink:href="#m4a250df224" x="506.709991" y="94.965263" style="fill: #8b949e; stroke: #8b949e; stroke-width: 0.5"/>
      </g>
     </g>
     <g id="text_34">
      <!-- 4 -->
      <g style="fill: #8b949e" transform="translate(494.79171 98.408466) scale(0.09 -0.09)">
       <use xlink:href="#DejaVuSansMono-34"/>
      </g>
     </g>
    </g>
    <g id="text_35">
     <!-- speedup -->
     <g style="fill: #8b949e" transform="translate(488.919991 173.413984) rotate(-90) scale(0.09 -0.09)">
      <defs>
       <path id="DejaVuSansMono-70" d="M 1172 441 
L 1172 -1331 
L 594 -1331 
L 594 3500 
L 1172 3500 
L 1172 3053 
Q 1316 3313 1555 3448 
Q 1794 3584 2106 3584 
Q 2741 3584 3102 3093 
Q 3463 2603 3463 1734 
Q 3463 881 3100 395 
Q 2738 -91 2106 -91 
Q 1788 -91 1548 45 
Q 1309 181 1172 441 
z
M 2859 1747 
Q 2859 2416 2648 2756 
Q 2438 3097 2022 3097 
Q 1603 3097 1387 2755 
Q 1172 2413 1172 1747 
Q 1172 1084 1387 740 
Q 1603 397 2022 397 
Q 2438 397 2648 737 
Q 2859 1078 2859 1747 
z
" transform="scale(0.015625)"/>
       <path id="DejaVuSansMono-75" d="M 609 1325 
L 609 3494 
L 1184 3494 
L 1184 1325 
Q 1184 853 1351 631 
Q 1519 409 1869 409 
Q 2275 409 2490 695 
Q 2706 981 2706 1516 
L 2706 3494 
L 3284 3494 
L 3284 0 
L 2706 0 
L 2706 525 
Q 2553 222 2289 65 
Q 2025 -91 1672 -91 
Q 1134 -91 871 261 
Q 609 613 609 1325 
z
" transform="scale(0.015625)"/>
      </defs>
      <use xlink:href="#DejaVuSansMono-73"/>
      <use xlink:href="#DejaVuSansMono-70" transform="translate(60.205078 0)"/>
      <use xlink:href="#DejaVuSansMono-65" transform="translate(120.410156 0)"/>
      <use xlink:href="#DejaVuSansMono-65" transform="translate(180.615234 0)"/>
      <use xlink:href="#DejaVuSansMono-64" transform="translate(240.820312 0)"/>
      <use xlink:href="#DejaVuSansMono-75" transform="translate(301.025391 0)"/>
      <use xlink:href="#DejaVuSansMono-70" transform="translate(361.230469 0)"/>
     </g>
    </g>
   </g>
   <g id="line2d_60">
    <path d="M 509.360155 208.592316 
L 512.010318 184.914865 
L 514.660482 168.712222 
L 517.310645 156.927317 
L 519.960809 147.970133 
L 522.610972 140.931948 
L 525.261136 135.255737 
L 527.911299 130.58104 
L 530.561463 126.664283 
L 533.211627 123.334954 
L 535.86179 120.470121 
L 538.511954 117.978914 
L 541.162117 115.792716 
L 543.812281 113.858744 
L 546.462444 112.135729 
L 549.112608 110.590939 
L 551.762771 109.19808 
L 557.063098 106.786532 
L 562.363425 104.771372 
L 567.663752 103.062289 
L 572.964079 101.594472 
L 578.264407 100.320201 
L 586.214897 98.695489 
L 594.165388 97.339063 
L 602.115878 96.18954 
L 612.716532 94.904421 
L 623.317187 93.836497 
L 636.568004 92.731152 
L 652.468985 91.654854 
L 671.02013 90.64902 
L 692.221438 89.73462 
L 718.723074 88.838502 
L 750.525036 88.011311 
L 787.627325 87.275746 
L 835.330269 86.567685 
L 845.930923 86.436696 
L 845.930923 86.436696 
" clip-path="url(#p5a334d8cbc)" style="fill: none; stroke: #238636; stroke-opacity: 0.6; stroke-width: 1.5; stroke-linecap: square"/>
   </g>
   <g id="line2d_61">
    <path d="M 509.360155 208.592316 
L 524.02534 -1 
L 524.02534 -1 
" clip-path="url(#p5a334d8cbc)" style="fill: none; stroke-dasharray: 3.7,1.6; stroke-dashoffset: 0; stroke: #30363d"/>
   </g>
   <g id="line2d_62">
    <path d="M 676.320457 246.468 
L 676.320457 62.432 
" clip-path="url(#p5a334d8cbc)" style="fill: none; stroke-dasharray: 0.8,1.32; stroke-dashoffset: 0; stroke: #d29922; stroke-opacity: 0.4; stroke-width: 0.8"/>
   </g>
   <g id="patch_8">
    <path d="M 506.709991 246.468 
L 506.709991 62.432 
" style="fill: none; stroke: #30363d; stroke-width: 0.8; stroke-linejoin: miter; stroke-linecap: square"/>
   </g>
   <g id="patch_9">
    <path d="M 851.23125 246.468 
L 851.23125 62.432 
" style="fill: none; stroke: #30363d; stroke-width: 0.8; stroke-linejoin: miter; stroke-linecap: square"/>
   </g>
   <g id="patch_10">
    <path d="M 506.709991 246.468 
L 851.23125 246.468 
" style="fill: none; stroke: #30363d; stroke-width: 0.8; stroke-linejoin: miter; stroke-linecap: square"/>
   </g>
   <g id="patch_11">
    <path d="M 506.709991 62.432 
L 851.23125 62.432 
" style="fill: none; stroke: #30363d; stroke-width: 0.8; stroke-linejoin: miter; stroke-linecap: square"/>
   </g>
   <g id="text_36">
    <!-- SPEEDUP -->
    <g style="fill: #e6edf3" transform="translate(506.709991 54.432) scale(0.11 -0.11)">
     <defs>
      <path id="DejaVuSansMono-Bold-53" d="M 1594 2047 
Q 897 2313 650 2605 
Q 403 2897 403 3391 
Q 403 4025 809 4387 
Q 1216 4750 1925 4750 
Q 2247 4750 2569 4676 
Q 2891 4603 3206 4459 
L 3206 3559 
Q 2909 3769 2603 3878 
Q 2297 3988 1997 3988 
Q 1663 3988 1484 3853 
Q 1306 3719 1306 3469 
Q 1306 3275 1436 3148 
Q 1566 3022 1978 2869 
L 2375 2719 
Q 2938 2513 3203 2172 
Q 3469 1831 3469 1313 
Q 3469 606 3051 257 
Q 2634 -91 1791 -91 
Q 1444 -91 1095 -8 
Q 747 75 422 238 
L 422 1191 
Q 791 928 1136 800 
Q 1481 672 1819 672 
Q 2159 672 2346 826 
Q 2534 981 2534 1259 
Q 2534 1469 2409 1626 
Q 2284 1784 2047 1875 
L 1594 2047 
z
" transform="scale(0.015625)"/>
      <path id="DejaVuSansMono-Bold-45" d="M 3431 0 
L 525 0 
L 525 4666 
L 3431 4666 
L 3431 3853 
L 1447 3853 
L 1447 2847 
L 3244 2847 
L 3244 2034 
L 1447 2034 
L 1447 813 
L 3431 813 
L 3431 0 
z
" transform="scale(0.015625)"/>
      <path id="DejaVuSansMono-Bold-44" d="M 1350 3834 
L 1350 831 
L 1600 831 
Q 2144 831 2375 1173 
Q 2606 1516 2606 2338 
Q 2606 3153 2375 3493 
Q 2144 3834 1600 3834 
L 1350 3834 
z
M 428 4666 
L 1416 4666 
Q 2559 4666 3062 4120 
Q 3566 3575 3566 2338 
Q 3566 1097 3062 548 
Q 2559 0 1416 0 
L 428 0 
L 428 4666 
z
" transform="scale(0.015625)"/>
     </defs>
     <use xlink:href="#DejaVuSansMono-Bold-53"/>
     <use xlink:href="#DejaVuSansMono-Bold-50" transform="translate(60.205078 0)"/>
     <use xlink:href="#DejaVuSansMono-Bold-45" transform="translate(120.410156 0)"/>
     <use xlink:href="#DejaVuSansMono-Bold-45" transform="translate(180.615234 0)"/>
     <use xlink:href="#DejaVuSansMono-Bold-44" transform="translate(240.820312 0)"/>
     <use xlink:href="#DejaVuSansMono-Bold-55" transform="translate(301.025391 0)"/>
     <use xlink:href="#DejaVuSansMono-Bold-50" transform="translate(361.230469 0)"/>
    </g>
   </g>
   <g id="line2d_63">
    <path d="M 509.360155 208.592316 
L 512.010318 183.369818 
L 517.310645 152.096317 
L 527.911299 136.064155 
L 538.511954 106.85159 
L 549.112608 91.118982 
L 559.713262 80.658535 
L 570.313916 78.010472 
L 580.91457 67.933455 
L 591.515224 67.118667 
L 602.115878 66.663344 
L 612.716532 70.114213 
L 623.317187 73.660939 
L 633.917841 78.513724 
L 644.518495 80.946107 
L 655.119149 86.050518 
L 665.719803 88.614705 
L 676.320457 90.400051 
" clip-path="url(#p5a334d8cbc)" style="fill: none; stroke: #3fb950; stroke-width: 2; stroke-linecap: square"/>
    <g clip-path="url(#p5a334d8cbc)">
     <use xlink:href="#m8ccf1ca4c3" x="509.360155" y="208.592316" style="fill: #3fb950; stroke: #161b22; stroke-width: 1.5"/>
     <use xlink:href="#m8ccf1ca4c3" x="512.010318" y="183.369818" style="fill: #3fb950; stroke: #161b22; stroke-width: 1.5"/>
     <use xlink:href="#m8ccf1ca4c3" x="517.310645" y="152.096317" style="fill: #3fb950; stroke: #161b22; stroke-width: 1.5"/>
     <use xlink:href="#m8ccf1ca4c3" x="527.911299" y="136.064155" style="fill: #3fb950; stroke: #161b22; stroke-width: 1.5"/>
     <use xlink:href="#m8ccf1ca4c3" x="538.511954" y="106.85159" style="fill: #3fb950; stroke: #161b22; stroke-width: 1.5"/>
     <use xlink:href="#m8ccf1ca4c3" x="549.112608" y="91.118982" style="fill: #3fb950; stroke: #161b22; stroke-width: 1.5"/>
     <use xlink:href="#m8ccf1ca4c3" x="559.713262" y="80.658535" style="fill: #3fb950; stroke: #161b22; stroke-width: 1.5"/>
     <use xlink:href="#m8ccf1ca4c3" x="570.313916" y="78.010472" style="fill: #3fb950; stroke: #161b22; stroke-width: 1.5"/>
     <use xlink:href="#m8ccf1ca4c3" x="580.91457" y="67.933455" style="fill: #3fb950; stroke: #161b22; stroke-width: 1.5"/>
     <use xlink:href="#m8ccf1ca4c3" x="591.515224" y="67.118667" style="fill: #3fb950; stroke: #161b22; stroke-width: 1.5"/>
     <use xlink:href="#m8ccf1ca4c3" x="602.115878" y="66.663344" style="fill: #3fb950; stroke: #161b22; stroke-width: 1.5"/>
     <use xlink:href="#m8ccf1ca4c3" x="612.716532" y="70.114213" style="fill: #3fb950; stroke: #161b22; stroke-width: 1.5"/>
     <use xlink:href="#m8ccf1ca4c3" x="623.317187" y="73.660939" style="fill: #3fb950; stroke: #161b22; stroke-width: 1.5"/>
     <use xlink:href="#m8ccf1ca4c3" x="633.917841" y="78.513724" style="fill: #3fb950; stroke: #161b22; stroke-width: 1.5"/>
     <use xlink:href="#m8ccf1ca4c3" x="644.518495" y="80.946107" style="fill: #3fb950; stroke: #161b22; stroke-width: 1.5"/>
     <use xlink:href="#m8ccf1ca4c3" x="655.119149" y="86.050518" style="fill: #3fb950; stroke: #161b22; stroke-width: 1.5"/>
     <use xlink:href="#m8ccf1ca4c3" x="665.719803" y="88.614705" style="fill: #3fb950; stroke: #161b22; stroke-width: 1.5"/>
     <use xlink:href="#m8ccf1ca4c3" x="676.320457" y="90.400051" style="fill: #3fb950; stroke: #161b22; stroke-width: 1.5"/>
    </g>
   </g>
  </g>
  <g id="text_37">
   <!-- tdg  /  core scaling  /  measured + extrapolated  [tdg 0.5.6] -->
   <g style="fill: #8b949e" transform="translate(245.331719 14.851562) scale(0.1 -0.1)">
    <defs>
     <path id="DejaVuSansMono-67" d="M 2681 1778 
Q 2681 2425 2470 2761 
Q 2259 3097 1856 3097 
Q 1434 3097 1212 2761 
Q 991 2425 991 1778 
Q 991 1131 1214 792 
Q 1438 453 1863 453 
Q 2259 453 2470 793 
Q 2681 1134 2681 1778 
z
M 3256 225 
Q 3256 -563 2884 -969 
Q 2513 -1375 1791 -1375 
Q 1553 -1375 1293 -1331 
Q 1034 -1288 775 -1203 
L 775 -634 
Q 1081 -778 1331 -847 
Q 1581 -916 1791 -916 
Q 2256 -916 2468 -662 
Q 2681 -409 2681 141 
L 2681 166 
L 2681 556 
Q 2544 263 2306 119 
Q 2069 -25 1728 -25 
Q 1116 -25 750 465 
Q 384 956 384 1778 
Q 384 2603 750 3093 
Q 1116 3584 1728 3584 
Q 2066 3584 2300 3450 
Q 2534 3316 2681 3034 
L 2681 3488 
L 3256 3488 
L 3256 225 
z
" transform="scale(0.015625)"/>
     <path id="DejaVuSansMono-6f" d="M 1925 3097 
Q 1488 3097 1263 2756 
Q 1038 2416 1038 1747 
Q 1038 1081 1263 739 
Q 1488 397 1925 397 
Q 2366 397 2591 739 
Q 2816 1081 2816 1747 
Q 2816 2416 2591 2756 
Q 2366 3097 1925 3097 
z
M 1925 3584 
Q 2653 3584 3039 3112 
Q 3425 2641 3425 1747 
Q 3425 850 3040 379 
Q 2656 -91 1925 -91 
Q 1197 -91 812 379 
Q 428 850 428 1747 
Q 428 2641 812 3112 
Q 1197 3584 1925 3584 
z
" transform="scale(0.015625)"/>
     <path id="DejaVuSansMono-6c" d="M 1997 1269 
Q 1997 881 2139 684 
Q 2281 488 2559 488 
L 3231 488 
L 3231 0 
L 2503 0 
Q 1988 0 1705 331 
Q 1422 663 1422 1269 
L 1422 4447 
L 500 4447 
L 500 4897 
L 1997 4897 
L 1997 1269 
z
" transform="scale(0.015625)"/>
     <path id="DejaVuSansMono-69" d="M 800 3500 
L 2272 3500 
L 2272 447 
L 3413 447 
L 3413 0 
L 556 0 
L 556 447 
L 1697 447 
L 1697 3053 
L 800 3053 
L 800 3500 
z
M 1697 4863 
L 2272 4863 
L 2272 4134 
L 1697 4134 
L 1697 4863 
z
" transform="scale(0.015625)"/>
     <path id="DejaVuSansMono-6e" d="M 3284 2169 
L 3284 0 
L 2706 0 
L 2706 2169 
Q 2706 2641 2540 2862 
Q 2375 3084 2022 3084 
Q 1619 3084 1401 2798 
Q 1184 2513 1184 1978 
L 1184 0 
L 609 0 
L 609 3500 
L 1184 3500 
L 1184 2975 
Q 1338 3275 1600 3429 
Q 1863 3584 2222 3584 
Q 2756 3584 3020 3232 
Q 3284 2881 3284 2169 
z
" transform="scale(0.015625)"/>
     <path id="DejaVuSansMono-6d" d="M 2113 3144 
Q 2219 3369 2383 3476 
Q 2547 3584 2778 3584 
Q 3200 3584 3373 3257 
Q 3547 2931 3547 2028 
L 3547 0 
L 3022 0 
L 3022 2003 
Q 3022 2744 2939 2923 
Q 2856 3103 2638 3103 
Q 2388 3103 2295 2911 
Q 2203 2719 2203 2003 
L 2203 0 
L 1678 0 
L 1678 2003 
Q 1678 2753 1589 2928 
Q 1500 3103 1269 3103 
Q 1041 3103 952 2911 
Q 863 2719 863 2003 
L 863 0 
L 341 0 
L 341 3500 
L 863 3500 
L 863 3200 
Q 966 3388 1120 3486 
Q 1275 3584 1472 3584 
Q 1709 3584 1867 3475 
Q 2025 3366 2113 3144 
z
" transform="scale(0.015625)"/>
     <path id="DejaVuSansMono-2b" d="M 2188 3659 
L 2188 2272 
L 3578 2272 
L 3578 1741 
L 2188 1741 
L 2188 353 
L 1663 353 
L 1663 1741 
L 275 1741 
L 275 2272 
L 1663 2272 
L 1663 3659 
L 2188 3659 
z
" transform="scale(0.015625)"/>
     <path id="DejaVuSansMono-78" d="M 3494 3500 
L 2241 1825 
L 3616 0 
L 2950 0 
L 1925 1403 
L 903 0 
L 238 0 
L 1613 1825 
L 359 3500 
L 997 3500 
L 1925 2234 
L 2847 3500 
L 3494 3500 
z
" transform="scale(0.015625)"/>
     <path id="DejaVuSansMono-5b" d="M 1447 4863 
L 2772 4863 
L 2772 4416 
L 2022 4416 
L 2022 -397 
L 2772 -397 
L 2772 -844 
L 1447 -844 
L 1447 4863 
z
" transform="scale(0.015625)"/>
     <path id="DejaVuSansMono-2e" d="M 1528 953 
L 2316 953 
L 2316 0 
L 1528 0 
L 1528 953 
z
" transform="scale(0.015625)"/>
     <path id="DejaVuSansMono-35" d="M 647 4666 
L 3009 4666 
L 3009 4134 
L 1222 4134 
L 1222 2988 
Q 1356 3038 1492 3061 
Q 1628 3084 1766 3084 
Q 2491 3084 2916 2656 
Q 3341 2228 3341 1497 
Q 3341 759 2895 334 
Q 2450 -91 1678 -91 
Q 1306 -91 998 -41 
Q 691 9 447 109 
L 447 750 
Q 734 594 1025 517 
Q 1316 441 1619 441 
Q 2141 441 2423 716 
Q 2706 991 2706 1497 
Q 2706 1997 2414 2275 
Q 2122 2553 1600 2553 
Q 1347 2553 1106 2495 
Q 866 2438 647 2322 
L 647 4666 
z
" transform="scale(0.015625)"/>
     <path id="DejaVuSansMono-5d" d="M 2406 4863 
L 2406 -844 
L 1081 -844 
L 1081 -397 
L 1831 -397 
L 1831 4416 
L 1081 4416 
L 1081 4863 
L 2406 4863 
z
" transform="scale(0.015625)"/>
    </defs>
    <use xlink:href="#DejaVuSansMono-74"/>
    <use xlink:href="#DejaVuSansMono-64" transform="translate(60.205078 0)"/>
    <use xlink:href="#DejaVuSansMono-67" transform="translate(120.410156 0)"/>
    <use xlink:href="#DejaVuSansMono-20" transform="translate(180.615234 0)"/>
    <use xlink:href="#DejaVuSansMono-20" transform="translate(240.820312 0)"/>
    <use xlink:href="#DejaVuSansMono-2f" transform="translate(301.025391 0)"/>
    <use xlink:href="#DejaVuSansMono-20" transform="translate(361.230469 0)"/>
    <use xlink:href="#DejaVuSansMono-20" transform="translate(421.435547 0)"/>
    <use xlink:href="#DejaVuSansMono-63" transform="translate(481.640625 0)"/>
    <use xlink:href="#DejaVuSansMono-6f" transform="translate(541.845703 0)"/>
    <use xlink:href="#DejaVuSansMono-72" transform="translate(602.050781 0)"/>
    <use xlink:href="#DejaVuSansMono-65" transform="translate(662.255859 0)"/>
    <use xlink:href="#DejaVuSansMono-20" transform="translate(722.460938 0)"/>
    <use xlink:href="#DejaVuSansMono-73" transform="translate(782.666016 0)"/>
    <use xlink:href="#DejaVuSansMono-63" transform="translate(842.871094 0)"/>
    <use xlink:href="#DejaVuSansMono-61" transform="translate(903.076172 0)"/>
    <use xlink:href="#DejaVuSansMono-6c" transform="translate(963.28125 0)"/>
    <use xlink:href="#DejaVuSansMono-69" transform="translate(1023.486328 0)"/>
    <use xlink:href="#DejaVuSansMono-6e" transform="translate(1083.691406 0)"/>
    <use xlink:href="#DejaVuSansMono-67" transform="translate(1143.896484 0)"/>
    <use xlink:href="#DejaVuSansMono-20" transform="translate(1204.101562 0)"/>
    <use xlink:href="#DejaVuSansMono-20" transform="translate(1264.306641 0)"/>
    <use xlink:href="#DejaVuSansMono-2f" transform="translate(1324.511719 0)"/>
    <use xlink:href="#DejaVuSansMono-20" transform="translate(1384.716797 0)"/>
    <use xlink:href="#DejaVuSansMono-20" transform="translate(1444.921875 0)"/>
    <use xlink:href="#DejaVuSansMono-6d" transform="translate(1505.126953 0)"/>
    <use xlink:href="#DejaVuSansMono-65" transform="translate(1565.332031 0)"/>
    <use xlink:href="#DejaVuSansMono-61" transform="translate(1625.537109 0)"/>
    <use xlink:href="#DejaVuSansMono-73" transform="translate(1685.742188 0)"/>
    <use xlink:href="#DejaVuSansMono-75" transform="translate(1745.947266 0)"/>
    <use xlink:href="#DejaVuSansMono-72" transform="translate(1806.152344 0)"/>
    <use xlink:href="#DejaVuSansMono-65" transform="translate(1866.357422 0)"/>
    <use xlink:href="#DejaVuSansMono-64" transform="translate(1926.5625 0)"/>
    <use xlink:href="#DejaVuSansMono-20" transform="translate(1986.767578 0)"/>
    <use xlink:href="#DejaVuSansMono-2b" transform="translate(2046.972656 0)"/>
    <use xlink:href="#DejaVuSansMono-20" transform="translate(2107.177734 0)"/>
    <use xlink:href="#DejaVuSansMono-65" transform="translate(2167.382812 0)"/>
    <use xlink:href="#DejaVuSansMono-78" transform="translate(2227.587891 0)"/>
    <use xlink:href="#DejaVuSansMono-74" transform="translate(2287.792969 0)"/>
    <use xlink:href="#DejaVuSansMono-72" transform="translate(2347.998047 0)"/>
    <use xlink:href="#DejaVuSansMono-61" transform="translate(2408.203125 0)"/>
    <use xlink:href="#DejaVuSansMono-70" transform="translate(2468.408203 0)"/>
    <use xlink:href="#DejaVuSansMono-6f" transform="translate(2528.613281 0)"/>
    <use xlink:href="#DejaVuSansMono-6c" transform="translate(2588.818359 0)"/>
    <use xlink:href="#DejaVuSansMono-61" transform="translate(2649.023438 0)"/>
    <use xlink:href="#DejaVuSansMono-74" transform="translate(2709.228516 0)"/>
    <use xlink:href="#DejaVuSansMono-65" transform="translate(2769.433594 0)"/>
    <use xlink:href="#DejaVuSansMono-64" transform="translate(2829.638672 0)"/>
    <use xlink:href="#DejaVuSansMono-20" transform="translate(2889.84375 0)"/>
    <use xlink:href="#DejaVuSansMono-20" transform="translate(2950.048828 0)"/>
    <use xlink:href="#DejaVuSansMono-5b" transform="translate(3010.253906 0)"/>
    <use xlink:href="#DejaVuSansMono-74" transform="translate(3070.458984 0)"/>
    <use xlink:href="#DejaVuSansMono-64" transform="translate(3130.664062 0)"/>
    <use xlink:href="#DejaVuSansMono-67" transform="translate(3190.869141 0)"/>
    <use xlink:href="#DejaVuSansMono-20" transform="translate(3251.074219 0)"/>
    <use xlink:href="#DejaVuSansMono-30" transform="translate(3311.279297 0)"/>
    <use xlink:href="#DejaVuSansMono-2e" transform="translate(3371.484375 0)"/>
    <use xlink:href="#DejaVuSansMono-35" transform="translate(3431.689453 0)"/>
    <use xlink:href="#DejaVuSansMono-2e" transform="translate(3491.894531 0)"/>
    <use xlink:href="#DejaVuSansMono-36" transform="translate(3552.099609 0)"/>
    <use xlink:href="#DejaVuSansMono-5d" transform="translate(3612.304688 0)"/>
   </g>
  </g>
  <g id="legend_1">
   <g id="patch_12">
    <path d="M 298.5475 302.752 
L 559.88375 302.752 
Q 561.48375 302.752 561.48375 301.152 
L 561.48375 290.167 
Q 561.48375 288.567 559.88375 288.567 
L 298.5475 288.567 
Q 296.9475 288.567 296.9475 290.167 
L 296.9475 301.152 
Q 296.9475 302.752 298.5475 302.752 
z
" style="fill: #161b22; opacity: 0.8; stroke: #30363d; stroke-linejoin: miter"/>
   </g>
   <g id="line2d_64">
    <path d="M 300.1475 295.08825 
L 308.1475 295.08825 
L 316.1475 295.08825 
" style="fill: none; stroke: #238636; stroke-opacity: 0.6; stroke-width: 1.5; stroke-linecap: square"/>
   </g>
   <g id="text_38">
    <!-- amdahl (serial=23%) -->
    <g style="fill: #8b949e" transform="translate(322.5475 297.88825) scale(0.08 -0.08)">
     <defs>
      <path id="DejaVuSansMono-28" d="M 2766 4856 
Q 2350 4144 2145 3436 
Q 1941 2728 1941 2009 
Q 1941 1294 2145 584 
Q 2350 -125 2766 -844 
L 2266 -844 
Q 1794 -100 1562 604 
Q 1331 1309 1331 2009 
Q 1331 2706 1562 3412 
Q 1794 4119 2266 4856 
L 2766 4856 
z
" transform="scale(0.015625)"/>
      <path id="DejaVuSansMono-3d" d="M 275 1638 
L 3578 1638 
L 3578 1100 
L 275 1100 
L 275 1638 
z
M 275 2906 
L 3578 2906 
L 3578 2375 
L 275 2375 
L 275 2906 
z
" transform="scale(0.015625)"/>
      <path id="DejaVuSansMono-25" d="M 2175 997 
Q 2175 753 2339 587 
Q 2503 422 2747 422 
Q 2988 422 3155 589 
Q 3322 756 3322 997 
Q 3322 1238 3153 1406 
Q 2984 1575 2747 1575 
Q 2503 1575 2339 1409 
Q 2175 1244 2175 997 
z
M 1753 997 
Q 1753 1419 2040 1708 
Q 2328 1997 2747 1997 
Q 2947 1997 3126 1922 
Q 3306 1847 3450 1703 
Q 3594 1556 3672 1375 
Q 3750 1194 3750 997 
Q 3750 581 3459 290 
Q 3169 0 2747 0 
Q 2322 0 2037 286 
Q 1753 572 1753 997 
z
M 378 1453 
L 269 1753 
L 3525 3059 
L 3653 2759 
L 378 1453 
z
M 525 3475 
Q 525 3228 689 3064 
Q 853 2900 1100 2900 
Q 1341 2900 1509 3067 
Q 1678 3234 1678 3475 
Q 1678 3716 1509 3883 
Q 1341 4050 1100 4050 
Q 859 4050 692 3884 
Q 525 3719 525 3475 
z
M 103 3475 
Q 103 3897 390 4186 
Q 678 4475 1100 4475 
Q 1300 4475 1483 4400 
Q 1666 4325 1806 4184 
Q 1947 4044 2023 3861 
Q 2100 3678 2100 3475 
Q 2100 3056 1809 2767 
Q 1519 2478 1100 2478 
Q 678 2478 390 2765 
Q 103 3053 103 3475 
z
" transform="scale(0.015625)"/>
      <path id="DejaVuSansMono-29" d="M 1088 4856 
L 1588 4856 
Q 2059 4119 2290 3412 
Q 2522 2706 2522 2009 
Q 2522 1306 2290 600 
Q 2059 -106 1588 -844 
L 1088 -844 
Q 1503 -119 1708 590 
Q 1913 1300 1913 2009 
Q 1913 2722 1708 3431 
Q 1503 4141 1088 4856 
z
" transform="scale(0.015625)"/>
     </defs>
     <use xlink:href="#DejaVuSansMono-61"/>
     <use xlink:href="#DejaVuSansMono-6d" transform="translate(60.205078 0)"/>
     <use xlink:href="#DejaVuSansMono-64" transform="translate(120.410156 0)"/>
     <use xlink:href="#DejaVuSansMono-61" transform="translate(180.615234 0)"/>
     <use xlink:href="#DejaVuSansMono-68" transform="translate(240.820312 0)"/>
     <use xlink:href="#DejaVuSansMono-6c" transform="translate(301.025391 0)"/>
     <use xlink:href="#DejaVuSansMono-20" transform="translate(361.230469 0)"/>
     <use xlink:href="#DejaVuSansMono-28" transform="translate(421.435547 0)"/>
     <use xlink:href="#DejaVuSansMono-73" transform="translate(481.640625 0)"/>
     <use xlink:href="#DejaVuSansMono-65" transform="translate(541.845703 0)"/>
     <use xlink:href="#DejaVuSansMono-72" transform="translate(602.050781 0)"/>
     <use xlink:href="#DejaVuSansMono-69" transform="translate(662.255859 0)"/>
     <use xlink:href="#DejaVuSansMono-61" transform="translate(722.460938 0)"/>
     <use xlink:href="#DejaVuSansMono-6c" transform="translate(782.666016 0)"/>
     <use xlink:href="#DejaVuSansMono-3d" transform="translate(842.871094 0)"/>
     <use xlink:href="#DejaVuSansMono-32" transform="translate(903.076172 0)"/>
     <use xlink:href="#DejaVuSansMono-33" transform="translate(963.28125 0)"/>
     <use xlink:href="#DejaVuSansMono-25" transform="translate(1023.486328 0)"/>
     <use xlink:href="#DejaVuSansMono-29" transform="translate(1083.691406 0)"/>
    </g>
   </g>
   <g id="line2d_65">
    <path d="M 430.05625 295.08825 
L 438.05625 295.08825 
L 446.05625 295.08825 
" style="fill: none; stroke-dasharray: 3.7,1.6; stroke-dashoffset: 0; stroke: #30363d"/>
   </g>
   <g id="text_39">
    <!-- linear -->
    <g style="fill: #8b949e" transform="translate(452.45625 297.88825) scale(0.08 -0.08)">
     <use xlink:href="#DejaVuSansMono-6c"/>
     <use xlink:href="#DejaVuSansMono-69" transform="translate(60.205078 0)"/>
     <use xlink:href="#DejaVuSansMono-6e" transform="translate(120.410156 0)"/>
     <use xlink:href="#DejaVuSansMono-65" transform="translate(180.615234 0)"/>
     <use xlink:href="#DejaVuSansMono-61" transform="translate(240.820312 0)"/>
     <use xlink:href="#DejaVuSansMono-72" transform="translate(301.025391 0)"/>
    </g>
   </g>
   <g id="line2d_66">
    <path d="M 497.35375 295.08825 
L 505.35375 295.08825 
L 513.35375 295.08825 
" style="fill: none; stroke: #3fb950; stroke-width: 2; stroke-linecap: square"/>
    <g>
     <use xlink:href="#m8ccf1ca4c3" x="505.35375" y="295.08825" style="fill: #3fb950; stroke: #161b22; stroke-width: 1.5"/>
    </g>
   </g>
   <g id="text_40">
    <!-- measured -->
    <g style="fill: #8b949e" transform="translate(519.75375 297.88825) scale(0.08 -0.08)">
     <use xlink:href="#DejaVuSansMono-6d"/>
     <use xlink:href="#DejaVuSansMono-65" transform="translate(60.205078 0)"/>
     <use xlink:href="#DejaVuSansMono-61" transform="translate(120.410156 0)"/>
     <use xlink:href="#DejaVuSansMono-73" transform="translate(180.615234 0)"/>
     <use xlink:href="#DejaVuSansMono-75" transform="translate(240.820312 0)"/>
     <use xlink:href="#DejaVuSansMono-72" transform="translate(301.025391 0)"/>
     <use xlink:href="#DejaVuSansMono-65" transform="translate(361.230469 0)"/>
     <use xlink:href="#DejaVuSansMono-64" transform="translate(421.435547 0)"/>
    </g>
   </g>
  </g>
 </g>
 <defs>
  <clipPath id="p36e94fc1ca">
   <rect x="48.13125" y="62.432" width="344.521259" height="184.036"/>
  </clipPath>
  <clipPath id="p5a334d8cbc">
   <rect x="506.709991" y="62.432" width="344.521259" height="184.036"/>
  </clipPath>
 </defs>
</svg>
