<?xml version="1.0" encoding="utf-8" standalone="no"?>
<!DOCTYPE svg PUBLIC "-//W3C//DTD SVG 1.1//EN"
  "http://www.w3.org/Graphics/SVG/1.1/DTD/svg11.dtd">
<svg xmlns:xlink="http://www.w3.org/1999/xlink" width="858.43125pt" height="299.82825pt" viewBox="0 0 858.43125 299.82825" xmlns="http://www.w3.org/2000/svg" version="1.1">
 <metadata>
  <rdf:RDF xmlns:dc="http://purl.org/dc/elements/1.1/" xmlns:cc="http://creativecommons.org/ns#" xmlns:rdf="http://www.w3.org/1999/02/22-rdf-syntax-ns#">
   <cc:Work>
    <dc:type rdf:resource="http://purl.org/dc/dcmitype/StillImage"/>
    <dc:date>2026-04-07T23:51:11.033354</dc:date>
    <dc:format>image/svg+xml</dc:format>
    <dc:creator>
     <cc:Agent>
      <dc:title>Matplotlib v3.10.8, https://matplotlib.org/</dc:title>
     </cc:Agent>
    </dc:creator>
   </cc:Work>
  </rdf:RDF>
 </metadata>
 <defs>
  <style type="text/css">*{stroke-linejoin: round; stroke-linecap: butt}</style>
 </defs>
 <g id="figure_1">
  <g id="patch_1">
   <path d="M 0 299.82825 
L 858.43125 299.82825 
L 858.43125 0 
L 0 0 
z
" style="fill: #0e1117"/>
  </g>
  <g id="axes_1">
   <g id="patch_2">
    <path d="M 48.13125 264.612 
L 391.95282 264.612 
L 391.95282 62.432 
L 48.13125 62.432 
z
" style="fill: #161b22"/>
   </g>
   <g id="FillBetweenPolyCollection_1">
    <defs>
     <path id="m261450405a" d="M 53.340668 -94.428578 
L 53.340668 -35.21625 
L 58.550085 -35.21625 
L 63.759503 -35.21625 
L 68.968921 -35.21625 
L 74.178339 -35.21625 
L 79.387756 -35.21625 
L 84.597174 -35.21625 
L 89.806592 -35.21625 
L 95.01601 -35.21625 
L 100.225427 -35.21625 
L 105.434845 -35.21625 
L 110.644263 -35.21625 
L 115.853681 -35.21625 
L 121.063098 -35.21625 
L 126.272516 -35.21625 
L 131.481934 -35.21625 
L 136.691351 -35.21625 
L 141.900769 -35.21625 
L 147.110187 -35.21625 
L 152.319605 -35.21625 
L 157.529022 -35.21625 
L 162.73844 -35.21625 
L 167.947858 -35.21625 
L 173.157276 -35.21625 
L 178.366693 -35.21625 
L 183.576111 -35.21625 
L 188.785529 -35.21625 
L 193.994946 -35.21625 
L 199.204364 -35.21625 
L 204.413782 -35.21625 
L 209.6232 -35.21625 
L 214.832617 -35.21625 
L 220.042035 -35.21625 
L 225.251453 -35.21625 
L 230.460871 -35.21625 
L 235.670288 -35.21625 
L 240.879706 -35.21625 
L 246.089124 -35.21625 
L 251.298542 -35.21625 
L 256.507959 -35.21625 
L 261.717377 -35.21625 
L 266.926795 -35.21625 
L 272.136212 -35.21625 
L 277.34563 -35.21625 
L 282.555048 -35.21625 
L 287.764466 -35.21625 
L 292.973883 -35.21625 
L 298.183301 -35.21625 
L 303.392719 -35.21625 
L 308.602137 -35.21625 
L 313.811554 -35.21625 
L 319.020972 -35.21625 
L 324.23039 -35.21625 
L 329.439807 -35.21625 
L 334.649225 -35.21625 
L 339.858643 -35.21625 
L 345.068061 -35.21625 
L 350.277478 -35.21625 
L 355.486896 -35.21625 
L 360.696314 -35.21625 
L 365.905732 -35.21625 
L 371.115149 -35.21625 
L 376.324567 -35.21625 
L 381.533985 -35.21625 
L 381.533985 -211.024946 
L 381.533985 -211.024946 
L 376.324567 -210.937766 
L 371.115149 -210.847864 
L 365.905732 -210.755111 
L 360.696314 -210.65937 
L 355.486896 -210.560493 
L 350.277478 -210.458323 
L 345.068061 -210.352694 
L 339.858643 -210.243426 
L 334.649225 -210.130329 
L 329.439807 -210.013197 
L 324.23039 -209.891812 
L 319.020972 -209.765935 
L 313.811554 -209.635315 
L 308.602137 -209.499677 
L 303.392719 -209.358726 
L 298.183301 -209.212145 
L 292.973883 -209.059589 
L 287.764466 -208.900684 
L 282.555048 -208.735028 
L 277.34563 -208.562179 
L 272.136212 -208.381659 
L 266.926795 -208.192945 
L 261.717377 -207.995468 
L 256.507959 -207.788601 
L 251.298542 -207.571659 
L 246.089124 -207.343887 
L 240.879706 -207.104455 
L 235.670288 -206.852442 
L 230.460871 -206.586831 
L 225.251453 -206.30649 
L 220.042035 -206.010159 
L 214.832617 -205.69643 
L 209.6232 -205.363725 
L 204.413782 -205.010268 
L 199.204364 -204.634054 
L 193.994946 -204.232814 
L 188.785529 -203.803964 
L 183.576111 -203.344553 
L 178.366693 -202.851193 
L 173.157276 -202.319977 
L 167.947858 -201.746373 
L 162.73844 -201.125098 
L 157.529022 -200.449952 
L 152.319605 -199.713609 
L 147.110187 -198.907354 
L 141.900769 -198.020734 
L 136.691351 -197.041104 
L 131.481934 -195.953017 
L 126.272516 -194.737407 
L 121.063098 -193.37046 
L 115.853681 -191.822039 
L 110.644263 -190.053436 
L 105.434845 -188.014091 
L 100.225427 -185.636686 
L 95.01601 -182.82956 
L 89.806592 -179.464631 
L 84.597174 -175.357295 
L 79.387756 -170.231391 
L 74.178339 -163.6544 
L 68.968921 -154.908546 
L 63.759503 -142.709192 
L 58.550085 -124.507576 
L 53.340668 -94.428578 
z
" style="stroke: #238636; stroke-opacity: 0.08"/>
    </defs>
    <g clip-path="url(#p3d4a1cac17)">
     <use xlink:href="#m261450405a" x="0" y="299.82825" style="fill: #238636; fill-opacity: 0.08; stroke: #238636; stroke-opacity: 0.08"/>
    </g>
   </g>
   <g id="matplotlib.axis_1">
    <g id="xtick_1">
     <g id="line2d_1">
      <path d="M 48.13125 264.612 
L 48.13125 62.432 
" clip-path="url(#p3d4a1cac17)" style="fill: none; stroke: #21262d; stroke-width: 0.5; stroke-linecap: square"/>
     </g>
     <g id="line2d_2">
      <defs>
       <path id="m2aff69d102" d="M 0 0 
L 0 3 
" style="stroke: #8b949e; stroke-width: 0.5"/>
      </defs>
      <g>
       <use xlink:href="#m2aff69d102" x="48.13125" y="264.612" style="fill: #8b949e; stroke: #8b949e; stroke-width: 0.5"/>
      </g>
     </g>
     <g id="text_1">
      <!-- 0 -->
      <g style="fill: #8b949e" transform="translate(45.422109 277.998406) scale(0.09 -0.09)">
       <defs>
        <path id="DejaVuSansMono-30" d="M 1509 2344 
Q 1509 2516 1629 2641 
Q 1750 2766 1919 2766 
Q 2094 2766 2219 2641 
Q 2344 2516 2344 2344 
Q 2344 2169 2220 2047 
Q 2097 1925 1919 1925 
Q 1744 1925 1626 2044 
Q 1509 2163 1509 2344 
z
M 1925 4250 
Q 1484 4250 1267 3775 
Q 1050 3300 1050 2328 
Q 1050 1359 1267 884 
Q 1484 409 1925 409 
Q 2369 409 2586 884 
Q 2803 1359 2803 2328 
Q 2803 3300 2586 3775 
Q 2369 4250 1925 4250 
z
M 1925 4750 
Q 2672 4750 3055 4137 
Q 3438 3525 3438 2328 
Q 3438 1134 3055 521 
Q 2672 -91 1925 -91 
Q 1178 -91 797 521 
Q 416 1134 416 2328 
Q 416 3525 797 4137 
Q 1178 4750 1925 4750 
z
" transform="scale(0.015625)"/>
       </defs>
       <use xlink:href="#DejaVuSansMono-30"/>
      </g>
     </g>
    </g>
    <g id="xtick_2">
     <g id="line2d_3">
      <path d="M 100.225427 264.612 
L 100.225427 62.432 
" clip-path="url(#p3d4a1cac17)" style="fill: none; stroke: #21262d; stroke-width: 0.5; stroke-linecap: square"/>
     </g>
     <g id="line2d_4">
      <g>
       <use xlink:href="#m2aff69d102" x="100.225427" y="264.612" style="fill: #8b949e; stroke: #8b949e; stroke-width: 0.5"/>
      </g>
     </g>
     <g id="text_2">
      <!-- 10 -->
      <g style="fill: #8b949e" transform="translate(94.807146 277.998406) scale(0.09 -0.09)">
       <defs>
        <path id="DejaVuSansMono-31" d="M 844 531 
L 1825 531 
L 1825 4097 
L 769 3859 
L 769 4434 
L 1819 4666 
L 2450 4666 
L 2450 531 
L 3419 531 
L 3419 0 
L 844 0 
L 844 531 
z
" transform="scale(0.015625)"/>
       </defs>
       <use xlink:href="#DejaVuSansMono-31"/>
       <use xlink:href="#DejaVuSansMono-30" transform="translate(60.205078 0)"/>
      </g>
     </g>
    </g>
    <g id="xtick_3">
     <g id="line2d_5">
      <path d="M 152.319605 264.612 
L 152.319605 62.432 
" clip-path="url(#p3d4a1cac17)" style="fill: none; stroke: #21262d; stroke-width: 0.5; stroke-linecap: square"/>
     </g>
     <g id="line2d_6">
      <g>
       <use xlink:href="#m2aff69d102" x="152.319605" y="264.612" style="fill: #8b949e; stroke: #8b949e; stroke-width: 0.5"/>
      </g>
     </g>
     <g id="text_3">
      <!-- 20 -->
      <g style="fill: #8b949e" transform="translate(146.901323 277.998406) scale(0.09 -0.09)">
       <defs>
        <path id="DejaVuSansMono-32" d="M 1166 531 
L 3309 531 
L 3309 0 
L 475 0 
L 475 531 
Q 1059 1147 1496 1619 
Q 1934 2091 2100 2284 
Q 2413 2666 2522 2902 
Q 2631 3138 2631 3384 
Q 2631 3775 2401 3997 
Q 2172 4219 1772 4219 
Q 1488 4219 1175 4116 
Q 863 4013 513 3803 
L 513 4441 
Q 834 4594 1145 4672 
Q 1456 4750 1759 4750 
Q 2444 4750 2861 4386 
Q 3278 4022 3278 3431 
Q 3278 3131 3139 2831 
Q 3000 2531 2688 2169 
Q 2513 1966 2180 1606 
Q 1847 1247 1166 531 
z
" transform="scale(0.015625)"/>
       </defs>
       <use xlink:href="#DejaVuSansMono-32"/>
       <use xlink:href="#DejaVuSansMono-30" transform="translate(60.205078 0)"/>
      </g>
     </g>
    </g>
    <g id="xtick_4">
     <g id="line2d_7">
      <path d="M 204.413782 264.612 
L 204.413782 62.432 
" clip-path="url(#p3d4a1cac17)" style="fill: none; stroke: #21262d; stroke-width: 0.5; stroke-linecap: square"/>
     </g>
     <g id="line2d_8">
      <g>
       <use xlink:href="#m2aff69d102" x="204.413782" y="264.612" style="fill: #8b949e; stroke: #8b949e; stroke-width: 0.5"/>
      </g>
     </g>
     <g id="text_4">
      <!-- 30 -->
      <g style="fill: #8b949e" transform="translate(198.995501 277.998406) scale(0.09 -0.09)">
       <defs>
        <path id="DejaVuSansMono-33" d="M 2425 2497 
Q 2884 2375 3128 2064 
Q 3372 1753 3372 1288 
Q 3372 644 2939 276 
Q 2506 -91 1741 -91 
Q 1419 -91 1084 -31 
Q 750 28 428 141 
L 428 769 
Q 747 603 1056 522 
Q 1366 441 1672 441 
Q 2191 441 2469 675 
Q 2747 909 2747 1350 
Q 2747 1756 2469 1995 
Q 2191 2234 1716 2234 
L 1234 2234 
L 1234 2753 
L 1716 2753 
Q 2150 2753 2394 2943 
Q 2638 3134 2638 3475 
Q 2638 3834 2411 4026 
Q 2184 4219 1766 4219 
Q 1488 4219 1191 4156 
Q 894 4094 569 3969 
L 569 4550 
Q 947 4650 1242 4700 
Q 1538 4750 1766 4750 
Q 2447 4750 2855 4408 
Q 3263 4066 3263 3500 
Q 3263 3116 3048 2859 
Q 2834 2603 2425 2497 
z
" transform="scale(0.015625)"/>
       </defs>
       <use xlink:href="#DejaVuSansMono-33"/>
       <use xlink:href="#DejaVuSansMono-30" transform="translate(60.205078 0)"/>
      </g>
     </g>
    </g>
    <g id="xtick_5">
     <g id="line2d_9">
      <path d="M 256.507959 264.612 
L 256.507959 62.432 
" clip-path="url(#p3d4a1cac17)" style="fill: none; stroke: #21262d; stroke-width: 0.5; stroke-linecap: square"/>
     </g>
     <g id="line2d_10">
      <g>
       <use xlink:href="#m2aff69d102" x="256.507959" y="264.612" style="fill: #8b949e; stroke: #8b949e; stroke-width: 0.5"/>
      </g>
     </g>
     <g id="text_5">
      <!-- 40 -->
      <g style="fill: #8b949e" transform="translate(251.089678 277.998406) scale(0.09 -0.09)">
       <defs>
        <path id="DejaVuSansMono-34" d="M 2297 4091 
L 825 1625 
L 2297 1625 
L 2297 4091 
z
M 2194 4666 
L 2925 4666 
L 2925 1625 
L 3547 1625 
L 3547 1113 
L 2925 1113 
L 2925 0 
L 2297 0 
L 2297 1113 
L 319 1113 
L 319 1709 
L 2194 4666 
z
" transform="scale(0.015625)"/>
       </defs>
       <use xlink:href="#DejaVuSansMono-34"/>
       <use xlink:href="#DejaVuSansMono-30" transform="translate(60.205078 0)"/>
      </g>
     </g>
    </g>
    <g id="xtick_6">
     <g id="line2d_11">
      <path d="M 308.602137 264.612 
L 308.602137 62.432 
" clip-path="url(#p3d4a1cac17)" style="fill: none; stroke: #21262d; stroke-width: 0.5; stroke-linecap: square"/>
     </g>
     <g id="line2d_12">
      <g>
       <use xlink:href="#m2aff69d102" x="308.602137" y="264.612" style="fill: #8b949e; stroke: #8b949e; stroke-width: 0.5"/>
      </g>
     </g>
     <g id="text_6">
      <!-- 50 -->
      <g style="fill: #8b949e" transform="translate(303.183855 277.998406) scale(0.09 -0.09)">
       <defs>
        <path id="DejaVuSansMono-35" d="M 647 4666 
L 3009 4666 
L 3009 4134 
L 1222 4134 
L 1222 2988 
Q 1356 3038 1492 3061 
Q 1628 3084 1766 3084 
Q 2491 3084 2916 2656 
Q 3341 2228 3341 1497 
Q 3341 759 2895 334 
Q 2450 -91 1678 -91 
Q 1306 -91 998 -41 
Q 691 9 447 109 
L 447 750 
Q 734 594 1025 517 
Q 1316 441 1619 441 
Q 2141 441 2423 716 
Q 2706 991 2706 1497 
Q 2706 1997 2414 2275 
Q 2122 2553 1600 2553 
Q 1347 2553 1106 2495 
Q 866 2438 647 2322 
L 647 4666 
z
" transform="scale(0.015625)"/>
       </defs>
       <use xlink:href="#DejaVuSansMono-35"/>
       <use xlink:href="#DejaVuSansMono-30" transform="translate(60.205078 0)"/>
      </g>
     </g>
    </g>
    <g id="xtick_7">
     <g id="line2d_13">
      <path d="M 360.696314 264.612 
L 360.696314 62.432 
" clip-path="url(#p3d4a1cac17)" style="fill: none; stroke: #21262d; stroke-width: 0.5; stroke-linecap: square"/>
     </g>
     <g id="line2d_14">
      <g>
       <use xlink:href="#m2aff69d102" x="360.696314" y="264.612" style="fill: #8b949e; stroke: #8b949e; stroke-width: 0.5"/>
      </g>
     </g>
     <g id="text_7">
      <!-- 60 -->
      <g style="fill: #8b949e" transform="translate(355.278033 277.998406) scale(0.09 -0.09)">
       <defs>
        <path id="DejaVuSansMono-36" d="M 3097 4563 
L 3097 3981 
Q 2900 4097 2678 4158 
Q 2456 4219 2216 4219 
Q 1616 4219 1306 3767 
Q 997 3316 997 2438 
Q 1147 2750 1412 2917 
Q 1678 3084 2022 3084 
Q 2697 3084 3067 2670 
Q 3438 2256 3438 1497 
Q 3438 741 3056 325 
Q 2675 -91 1984 -91 
Q 1172 -91 794 492 
Q 416 1075 416 2328 
Q 416 3509 870 4129 
Q 1325 4750 2188 4750 
Q 2419 4750 2650 4701 
Q 2881 4653 3097 4563 
z
M 1972 2591 
Q 1569 2591 1337 2300 
Q 1106 2009 1106 1497 
Q 1106 984 1337 693 
Q 1569 403 1972 403 
Q 2391 403 2603 679 
Q 2816 956 2816 1497 
Q 2816 2041 2603 2316 
Q 2391 2591 1972 2591 
z
" transform="scale(0.015625)"/>
       </defs>
       <use xlink:href="#DejaVuSansMono-36"/>
       <use xlink:href="#DejaVuSansMono-30" transform="translate(60.205078 0)"/>
      </g>
     </g>
    </g>
    <g id="text_8">
     <!-- threads -->
     <g style="fill: #8b949e" transform="translate(201.078051 290.756531) scale(0.09 -0.09)">
      <defs>
       <path id="DejaVuSansMono-74" d="M 1919 4494 
L 1919 3500 
L 3225 3500 
L 3225 3053 
L 1919 3053 
L 1919 1153 
Q 1919 766 2066 612 
Q 2213 459 2578 459 
L 3225 459 
L 3225 0 
L 2522 0 
Q 1875 0 1609 259 
Q 1344 519 1344 1153 
L 1344 3053 
L 409 3053 
L 409 3500 
L 1344 3500 
L 1344 4494 
L 1919 4494 
z
" transform="scale(0.015625)"/>
       <path id="DejaVuSansMono-68" d="M 3284 2169 
L 3284 0 
L 2706 0 
L 2706 2169 
Q 2706 2641 2540 2862 
Q 2375 3084 2022 3084 
Q 1619 3084 1401 2798 
Q 1184 2513 1184 1978 
L 1184 0 
L 609 0 
L 609 4863 
L 1184 4863 
L 1184 2975 
Q 1338 3275 1600 3429 
Q 1863 3584 2222 3584 
Q 2756 3584 3020 3232 
Q 3284 2881 3284 2169 
z
" transform="scale(0.015625)"/>
       <path id="DejaVuSansMono-72" d="M 3609 2778 
Q 3425 2922 3234 2987 
Q 3044 3053 2816 3053 
Q 2278 3053 1993 2715 
Q 1709 2378 1709 1741 
L 1709 0 
L 1131 0 
L 1131 3500 
L 1709 3500 
L 1709 2816 
Q 1853 3188 2151 3386 
Q 2450 3584 2859 3584 
Q 3072 3584 3256 3531 
Q 3441 3478 3609 3366 
L 3609 2778 
z
" transform="scale(0.015625)"/>
       <path id="DejaVuSansMono-65" d="M 3475 1894 
L 3475 1613 
L 984 1613 
L 984 1594 
Q 984 1022 1282 709 
Q 1581 397 2125 397 
Q 2400 397 2700 484 
Q 3000 572 3341 750 
L 3341 178 
Q 3013 44 2708 -23 
Q 2403 -91 2119 -91 
Q 1303 -91 843 398 
Q 384 888 384 1747 
Q 384 2584 834 3084 
Q 1284 3584 2034 3584 
Q 2703 3584 3089 3131 
Q 3475 2678 3475 1894 
z
M 2900 2063 
Q 2888 2569 2661 2833 
Q 2434 3097 2009 3097 
Q 1594 3097 1325 2822 
Q 1056 2547 1006 2059 
L 2900 2063 
z
" transform="scale(0.015625)"/>
       <path id="DejaVuSansMono-61" d="M 2194 1759 
L 2003 1759 
Q 1500 1759 1245 1582 
Q 991 1406 991 1056 
Q 991 741 1181 566 
Q 1372 391 1709 391 
Q 2184 391 2456 720 
Q 2728 1050 2731 1631 
L 2731 1759 
L 2194 1759 
z
M 3309 1997 
L 3309 0 
L 2731 0 
L 2731 519 
Q 2547 206 2267 57 
Q 1988 -91 1588 -91 
Q 1053 -91 734 211 
Q 416 513 416 1019 
Q 416 1603 808 1906 
Q 1200 2209 1959 2209 
L 2731 2209 
L 2731 2300 
Q 2728 2719 2518 2908 
Q 2309 3097 1850 3097 
Q 1556 3097 1256 3012 
Q 956 2928 672 2766 
L 672 3341 
Q 991 3463 1283 3523 
Q 1575 3584 1850 3584 
Q 2284 3584 2592 3456 
Q 2900 3328 3091 3072 
Q 3209 2916 3259 2686 
Q 3309 2456 3309 1997 
z
" transform="scale(0.015625)"/>
       <path id="DejaVuSansMono-64" d="M 2681 3053 
L 2681 4863 
L 3256 4863 
L 3256 0 
L 2681 0 
L 2681 441 
Q 2538 181 2298 45 
Q 2059 -91 1747 -91 
Q 1113 -91 748 401 
Q 384 894 384 1759 
Q 384 2613 750 3098 
Q 1116 3584 1747 3584 
Q 2063 3584 2303 3448 
Q 2544 3313 2681 3053 
z
M 991 1747 
Q 991 1078 1203 737 
Q 1416 397 1831 397 
Q 2247 397 2464 740 
Q 2681 1084 2681 1747 
Q 2681 2413 2464 2755 
Q 2247 3097 1831 3097 
Q 1416 3097 1203 2756 
Q 991 2416 991 1747 
z
" transform="scale(0.015625)"/>
       <path id="DejaVuSansMono-73" d="M 3041 3378 
L 3041 2816 
Q 2794 2959 2544 3031 
Q 2294 3103 2034 3103 
Q 1644 3103 1451 2976 
Q 1259 2850 1259 2591 
Q 1259 2356 1403 2240 
Q 1547 2125 2119 2016 
L 2350 1972 
Q 2778 1891 2998 1647 
Q 3219 1403 3219 1013 
Q 3219 494 2850 201 
Q 2481 -91 1825 -91 
Q 1566 -91 1281 -36 
Q 997 19 666 128 
L 666 722 
Q 988 556 1281 473 
Q 1575 391 1838 391 
Q 2219 391 2428 545 
Q 2638 700 2638 978 
Q 2638 1378 1872 1531 
L 1847 1538 
L 1631 1581 
Q 1134 1678 906 1908 
Q 678 2138 678 2534 
Q 678 3038 1018 3311 
Q 1359 3584 1991 3584 
Q 2272 3584 2531 3532 
Q 2791 3481 3041 3378 
z
" transform="scale(0.015625)"/>
      </defs>
      <use xlink:href="#DejaVuSansMono-74"/>
      <use xlink:href="#DejaVuSansMono-68" transform="translate(60.205078 0)"/>
      <use xlink:href="#DejaVuSansMono-72" transform="translate(120.410156 0)"/>
      <use xlink:href="#DejaVuSansMono-65" transform="translate(180.615234 0)"/>
      <use xlink:href="#DejaVuSansMono-61" transform="translate(240.820312 0)"/>
      <use xlink:href="#DejaVuSansMono-64" transform="translate(301.025391 0)"/>
      <use xlink:href="#DejaVuSansMono-73" transform="translate(361.230469 0)"/>
     </g>
    </g>
   </g>
   <g id="matplotlib.axis_2">
    <g id="ytick_1">
     <g id="line2d_15">
      <path d="M 48.13125 264.612 
L 391.95282 264.612 
" clip-path="url(#p3d4a1cac17)" style="fill: none; stroke: #21262d; stroke-width: 0.5; stroke-linecap: square"/>
     </g>
     <g id="line2d_16">
      <defs>
       <path id="m5f6f338c9a" d="M 0 0 
L -3 0 
" style="stroke: #8b949e; stroke-width: 0.5"/>
      </defs>
      <g>
       <use xlink:href="#m5f6f338c9a" x="48.13125" y="264.612" style="fill: #8b949e; stroke: #8b949e; stroke-width: 0.5"/>
      </g>
     </g>
     <g id="text_9">
      <!-- 0 -->
      <g style="fill: #8b949e" transform="translate(36.212969 268.055203) scale(0.09 -0.09)">
       <use xlink:href="#DejaVuSansMono-30"/>
      </g>
     </g>
    </g>
    <g id="ytick_2">
     <g id="line2d_17">
      <path d="M 48.13125 226.621285 
L 391.95282 226.621285 
" clip-path="url(#p3d4a1cac17)" style="fill: none; stroke: #21262d; stroke-width: 0.5; stroke-linecap: square"/>
     </g>
     <g id="line2d_18">
      <g>
       <use xlink:href="#m5f6f338c9a" x="48.13125" y="226.621285" style="fill: #8b949e; stroke: #8b949e; stroke-width: 0.5"/>
      </g>
     </g>
     <g id="text_10">
      <!-- 500 -->
      <g style="fill: #8b949e" transform="translate(25.376406 230.064488) scale(0.09 -0.09)">
       <use xlink:href="#DejaVuSansMono-35"/>
       <use xlink:href="#DejaVuSansMono-30" transform="translate(60.205078 0)"/>
       <use xlink:href="#DejaVuSansMono-30" transform="translate(120.410156 0)"/>
      </g>
     </g>
    </g>
    <g id="ytick_3">
     <g id="line2d_19">
      <path d="M 48.13125 188.630571 
L 391.95282 188.630571 
" clip-path="url(#p3d4a1cac17)" style="fill: none; stroke: #21262d; stroke-width: 0.5; stroke-linecap: square"/>
     </g>
     <g id="line2d_20">
      <g>
       <use xlink:href="#m5f6f338c9a" x="48.13125" y="188.630571" style="fill: #8b949e; stroke: #8b949e; stroke-width: 0.5"/>
      </g>
     </g>
     <g id="text_11">
      <!-- 1000 -->
      <g style="fill: #8b949e" transform="translate(19.958125 192.073774) scale(0.09 -0.09)">
       <use xlink:href="#DejaVuSansMono-31"/>
       <use xlink:href="#DejaVuSansMono-30" transform="translate(60.205078 0)"/>
       <use xlink:href="#DejaVuSansMono-30" transform="translate(120.410156 0)"/>
       <use xlink:href="#DejaVuSansMono-30" transform="translate(180.615234 0)"/>
      </g>
     </g>
    </g>
    <g id="ytick_4">
     <g id="line2d_21">
      <path d="M 48.13125 150.639856 
L 391.95282 150.639856 
" clip-path="url(#p3d4a1cac17)" style="fill: none; stroke: #21262d; stroke-width: 0.5; stroke-linecap: square"/>
     </g>
     <g id="line2d_22">
      <g>
       <use xlink:href="#m5f6f338c9a" x="48.13125" y="150.639856" style="fill: #8b949e; stroke: #8b949e; stroke-width: 0.5"/>
      </g>
     </g>
     <g id="text_12">
      <!-- 1500 -->
      <g style="fill: #8b949e" transform="translate(19.958125 154.083059) scale(0.09 -0.09)">
       <use xlink:href="#DejaVuSansMono-31"/>
       <use xlink:href="#DejaVuSansMono-35" transform="translate(60.205078 0)"/>
       <use xlink:href="#DejaVuSansMono-30" transform="translate(120.410156 0)"/>
       <use xlink:href="#DejaVuSansMono-30" transform="translate(180.615234 0)"/>
      </g>
     </g>
    </g>
    <g id="ytick_5">
     <g id="line2d_23">
      <path d="M 48.13125 112.649141 
L 391.95282 112.649141 
" clip-path="url(#p3d4a1cac17)" style="fill: none; stroke: #21262d; stroke-width: 0.5; stroke-linecap: square"/>
     </g>
     <g id="line2d_24">
      <g>
       <use xlink:href="#m5f6f338c9a" x="48.13125" y="112.649141" style="fill: #8b949e; stroke: #8b949e; stroke-width: 0.5"/>
      </g>
     </g>
     <g id="text_13">
      <!-- 2000 -->
      <g style="fill: #8b949e" transform="translate(19.958125 116.092345) scale(0.09 -0.09)">
       <use xlink:href="#DejaVuSansMono-32"/>
       <use xlink:href="#DejaVuSansMono-30" transform="translate(60.205078 0)"/>
       <use xlink:href="#DejaVuSansMono-30" transform="translate(120.410156 0)"/>
       <use xlink:href="#DejaVuSansMono-30" transform="translate(180.615234 0)"/>
      </g>
     </g>
    </g>
    <g id="ytick_6">
     <g id="line2d_25">
      <path d="M 48.13125 74.658427 
L 391.95282 74.658427 
" clip-path="url(#p3d4a1cac17)" style="fill: none; stroke: #21262d; stroke-width: 0.5; stroke-linecap: square"/>
     </g>
     <g id="line2d_26">
      <g>
       <use xlink:href="#m5f6f338c9a" x="48.13125" y="74.658427" style="fill: #8b949e; stroke: #8b949e; stroke-width: 0.5"/>
      </g>
     </g>
     <g id="text_14">
      <!-- 2500 -->
      <g style="fill: #8b949e" transform="translate(19.958125 78.10163) scale(0.09 -0.09)">
       <use xlink:href="#DejaVuSansMono-32"/>
       <use xlink:href="#DejaVuSansMono-35" transform="translate(60.205078 0)"/>
       <use xlink:href="#DejaVuSansMono-30" transform="translate(120.410156 0)"/>
       <use xlink:href="#DejaVuSansMono-30" transform="translate(180.615234 0)"/>
      </g>
     </g>
    </g>
    <g id="text_15">
     <!-- MB/s -->
     <g style="fill: #8b949e" transform="translate(14.086406 174.358563) rotate(-90) scale(0.09 -0.09)">
      <defs>
       <path id="DejaVuSansMono-4d" d="M 269 4666 
L 1113 4666 
L 1919 2291 
L 2731 4666 
L 3578 4666 
L 3578 0 
L 2994 0 
L 2994 4122 
L 2163 1663 
L 1684 1663 
L 850 4122 
L 850 0 
L 269 0 
L 269 4666 
z
" transform="scale(0.015625)"/>
       <path id="DejaVuSansMono-42" d="M 1153 2228 
L 1153 519 
L 1900 519 
Q 2450 519 2684 711 
Q 2919 903 2919 1344 
Q 2919 1800 2672 2014 
Q 2425 2228 1900 2228 
L 1153 2228 
z
M 1153 4147 
L 1153 2741 
L 1888 2741 
Q 2344 2741 2548 2916 
Q 2753 3091 2753 3481 
Q 2753 3834 2551 3990 
Q 2350 4147 1888 4147 
L 1153 4147 
z
M 519 4666 
L 1900 4666 
Q 2616 4666 3003 4356 
Q 3391 4047 3391 3481 
Q 3391 3053 3186 2806 
Q 2981 2559 2572 2497 
Q 3031 2428 3292 2104 
Q 3553 1781 3553 1281 
Q 3553 647 3137 323 
Q 2722 0 1900 0 
L 519 0 
L 519 4666 
z
" transform="scale(0.015625)"/>
       <path id="DejaVuSansMono-2f" d="M 2778 4666 
L 3372 4666 
L 916 -594 
L 319 -594 
L 2778 4666 
z
" transform="scale(0.015625)"/>
      </defs>
      <use xlink:href="#DejaVuSansMono-4d"/>
      <use xlink:href="#DejaVuSansMono-42" transform="translate(60.205078 0)"/>
      <use xlink:href="#DejaVuSansMono-2f" transform="translate(120.410156 0)"/>
      <use xlink:href="#DejaVuSansMono-73" transform="translate(180.615234 0)"/>
     </g>
    </g>
   </g>
   <g id="line2d_27">
    <path d="M 53.340668 205.399672 
L 58.550085 175.320674 
L 63.759503 157.119058 
L 68.968921 144.919704 
L 74.178339 136.17385 
L 79.387756 129.596859 
L 84.597174 124.470955 
L 89.806592 120.363619 
L 95.01601 116.99869 
L 100.225427 114.191564 
L 105.434845 111.814159 
L 110.644263 109.774814 
L 115.853681 108.006211 
L 121.063098 106.45779 
L 126.272516 105.090843 
L 131.481934 103.875233 
L 136.691351 102.787146 
L 141.900769 101.807516 
L 147.110187 100.920896 
L 152.319605 100.114641 
L 157.529022 99.378298 
L 162.73844 98.703152 
L 167.947858 98.081877 
L 173.157276 97.508273 
L 178.366693 96.977057 
L 183.576111 96.483697 
L 188.785529 96.024286 
L 193.994946 95.595436 
L 199.204364 95.194196 
L 204.413782 94.817982 
L 209.6232 94.464525 
L 214.832617 94.13182 
L 220.042035 93.818091 
L 225.251453 93.52176 
L 230.460871 93.241419 
L 235.670288 92.975808 
L 240.879706 92.723795 
L 246.089124 92.484363 
L 251.298542 92.256591 
L 256.507959 92.039649 
L 261.717377 91.832782 
L 266.926795 91.635305 
L 272.136212 91.446591 
L 277.34563 91.266071 
L 282.555048 91.093222 
L 287.764466 90.927566 
L 292.973883 90.768661 
L 298.183301 90.616105 
L 303.392719 90.469524 
L 308.602137 90.328573 
L 313.811554 90.192935 
L 319.020972 90.062315 
L 324.23039 89.936438 
L 329.439807 89.815053 
L 334.649225 89.697921 
L 339.858643 89.584824 
L 345.068061 89.475556 
L 350.277478 89.369927 
L 355.486896 89.267757 
L 360.696314 89.16888 
L 365.905732 89.073139 
L 371.115149 88.980386 
L 376.324567 88.890484 
L 381.533985 88.803304 
" clip-path="url(#p3d4a1cac17)" style="fill: none; stroke: #238636; stroke-opacity: 0.6; stroke-width: 1.5; stroke-linecap: square"/>
   </g>
   <g id="line2d_28">
    <path d="M 53.340668 205.399672 
L 58.550085 146.187344 
L 63.759503 86.975016 
L 68.968921 27.762689 
L 71.499422 -1 
" clip-path="url(#p3d4a1cac17)" style="fill: none; stroke-dasharray: 3.7,1.6; stroke-dashoffset: 0; stroke: #30363d"/>
   </g>
   <g id="line2d_29">
    <path d="M 100.225427 264.612 
L 100.225427 62.432 
" clip-path="url(#p3d4a1cac17)" style="fill: none; stroke-dasharray: 0.8,1.32; stroke-dashoffset: 0; stroke: #d29922; stroke-opacity: 0.4; stroke-width: 0.8"/>
   </g>
   <g id="patch_3">
    <path d="M 48.13125 264.612 
L 48.13125 62.432 
" style="fill: none; stroke: #30363d; stroke-width: 0.8; stroke-linejoin: miter; stroke-linecap: square"/>
   </g>
   <g id="patch_4">
    <path d="M 391.95282 264.612 
L 391.95282 62.432 
" style="fill: none; stroke: #30363d; stroke-width: 0.8; stroke-linejoin: miter; stroke-linecap: square"/>
   </g>
   <g id="patch_5">
    <path d="M 48.13125 264.612 
L 391.95282 264.612 
" style="fill: none; stroke: #30363d; stroke-width: 0.8; stroke-linejoin: miter; stroke-linecap: square"/>
   </g>
   <g id="patch_6">
    <path d="M 48.13125 62.432 
L 391.95282 62.432 
" style="fill: none; stroke: #30363d; stroke-width: 0.8; stroke-linejoin: miter; stroke-linecap: square"/>
   </g>
   <g id="text_16">
    <!-- 779 -->
    <g style="fill: #3fb950" transform="translate(63.340668 208.399672) scale(0.09 -0.09)">
     <defs>
      <path id="DejaVuSansMono-Bold-37" d="M 422 4666 
L 3372 4666 
L 3372 4013 
L 1791 0 
L 850 0 
L 2369 3853 
L 422 3853 
L 422 4666 
z
" transform="scale(0.015625)"/>
      <path id="DejaVuSansMono-Bold-39" d="M 634 63 
L 634 903 
Q 881 759 1107 690 
Q 1334 622 1544 622 
Q 2041 622 2302 955 
Q 2563 1288 2578 1950 
Q 2431 1747 2203 1645 
Q 1975 1544 1663 1544 
Q 1034 1544 690 1942 
Q 347 2341 347 3072 
Q 347 3853 731 4281 
Q 1116 4709 1819 4709 
Q 2672 4709 3058 4139 
Q 3444 3569 3444 2297 
Q 3444 1088 2972 483 
Q 2500 -122 1556 -122 
Q 1338 -122 1105 -75 
Q 872 -28 634 63 
z
M 1844 2316 
Q 2141 2316 2298 2533 
Q 2456 2750 2456 3163 
Q 2456 3572 2298 3789 
Q 2141 4006 1844 4006 
Q 1544 4006 1383 3789 
Q 1222 3572 1222 3163 
Q 1222 2753 1383 2534 
Q 1544 2316 1844 2316 
z
" transform="scale(0.015625)"/>
     </defs>
     <use xlink:href="#DejaVuSansMono-Bold-37"/>
     <use xlink:href="#DejaVuSansMono-Bold-37" transform="translate(60.205078 0)"/>
     <use xlink:href="#DejaVuSansMono-Bold-39" transform="translate(120.410156 0)"/>
    </g>
   </g>
   <g id="text_17">
    <!-- 1980 -->
    <g style="fill: #3fb950" transform="translate(108.225427 108.191564) scale(0.09 -0.09)">
     <defs>
      <path id="DejaVuSansMono-Bold-31" d="M 588 813 
L 1619 813 
L 1619 3841 
L 659 3603 
L 659 4434 
L 1625 4666 
L 2516 4666 
L 2516 813 
L 3547 813 
L 3547 0 
L 588 0 
L 588 813 
z
" transform="scale(0.015625)"/>
      <path id="DejaVuSansMono-Bold-38" d="M 1925 2081 
Q 1616 2081 1425 1886 
Q 1234 1691 1234 1369 
Q 1234 1047 1425 850 
Q 1616 653 1925 653 
Q 2234 653 2426 853 
Q 2619 1053 2619 1369 
Q 2619 1691 2428 1886 
Q 2238 2081 1925 2081 
z
M 1241 2472 
Q 888 2594 703 2855 
Q 519 3116 519 3494 
Q 519 4075 897 4412 
Q 1275 4750 1925 4750 
Q 2578 4750 2956 4412 
Q 3334 4075 3334 3494 
Q 3334 3119 3153 2858 
Q 2972 2597 2625 2472 
Q 3013 2353 3231 2047 
Q 3450 1741 3450 1313 
Q 3450 641 3053 275 
Q 2656 -91 1925 -91 
Q 1197 -91 800 275 
Q 403 641 403 1313 
Q 403 1744 625 2050 
Q 847 2356 1241 2472 
z
M 1338 3419 
Q 1338 3144 1495 2983 
Q 1653 2822 1925 2822 
Q 2200 2822 2358 2983 
Q 2516 3144 2516 3419 
Q 2516 3691 2358 3848 
Q 2200 4006 1925 4006 
Q 1656 4006 1497 3847 
Q 1338 3688 1338 3419 
z
" transform="scale(0.015625)"/>
      <path id="DejaVuSansMono-Bold-30" d="M 1538 2328 
Q 1538 2494 1650 2606 
Q 1763 2719 1925 2719 
Q 2091 2719 2203 2606 
Q 2316 2494 2316 2328 
Q 2316 2166 2203 2053 
Q 2091 1941 1925 1941 
Q 1763 1941 1650 2052 
Q 1538 2163 1538 2328 
z
M 1925 3969 
Q 1606 3969 1459 3578 
Q 1313 3188 1313 2328 
Q 1313 1472 1459 1081 
Q 1606 691 1925 691 
Q 2247 691 2394 1081 
Q 2541 1472 2541 2328 
Q 2541 3188 2394 3578 
Q 2247 3969 1925 3969 
z
M 384 2328 
Q 384 3541 768 4145 
Q 1153 4750 1925 4750 
Q 2700 4750 3084 4147 
Q 3469 3544 3469 2328 
Q 3469 1116 3084 512 
Q 2700 -91 1925 -91 
Q 1153 -91 768 514 
Q 384 1119 384 2328 
z
" transform="scale(0.015625)"/>
     </defs>
     <use xlink:href="#DejaVuSansMono-Bold-31"/>
     <use xlink:href="#DejaVuSansMono-Bold-39" transform="translate(60.205078 0)"/>
     <use xlink:href="#DejaVuSansMono-Bold-38" transform="translate(120.410156 0)"/>
     <use xlink:href="#DejaVuSansMono-Bold-30" transform="translate(180.615234 0)"/>
    </g>
   </g>
   <g id="text_18">
    <!-- 2244 MB/s @ 32c -->
    <g style="fill: #d29922" transform="translate(220.832617 106.13182) scale(0.08 -0.08)">
     <defs>
      <path id="DejaVuSansMono-20" transform="scale(0.015625)"/>
      <path id="DejaVuSansMono-40" d="M 3244 1703 
Q 3244 2106 3044 2348 
Q 2844 2591 2509 2591 
Q 2175 2591 1973 2348 
Q 1772 2106 1772 1703 
Q 1772 1297 1973 1055 
Q 2175 813 2509 813 
Q 2844 813 3044 1055 
Q 3244 1297 3244 1703 
z
M 3681 422 
L 3231 422 
L 3231 769 
Q 3116 572 2911 465 
Q 2706 359 2450 359 
Q 1947 359 1617 737 
Q 1288 1116 1288 1703 
Q 1288 2291 1617 2669 
Q 1947 3047 2450 3047 
Q 2700 3047 2909 2937 
Q 3119 2828 3231 2638 
L 3231 2834 
Q 3231 3322 2956 3619 
Q 2681 3916 2228 3916 
Q 1459 3916 1004 3317 
Q 550 2719 550 1697 
Q 550 669 1065 59 
Q 1581 -550 2438 -550 
Q 2606 -550 2775 -519 
Q 2944 -488 3122 -422 
L 3272 -844 
Q 3075 -922 2883 -959 
Q 2691 -997 2509 -997 
Q 1394 -997 739 -269 
Q 84 459 84 1697 
Q 84 2916 671 3637 
Q 1259 4359 2247 4359 
Q 2900 4359 3290 3943 
Q 3681 3528 3681 2828 
L 3681 422 
z
" transform="scale(0.015625)"/>
      <path id="DejaVuSansMono-63" d="M 3316 178 
Q 3084 44 2839 -23 
Q 2594 -91 2338 -91 
Q 1525 -91 1067 396 
Q 609 884 609 1747 
Q 609 2609 1067 3096 
Q 1525 3584 2338 3584 
Q 2591 3584 2831 3518 
Q 3072 3453 3316 3316 
L 3316 2713 
Q 3088 2916 2858 3006 
Q 2628 3097 2338 3097 
Q 1797 3097 1506 2747 
Q 1216 2397 1216 1747 
Q 1216 1100 1508 748 
Q 1800 397 2338 397 
Q 2638 397 2875 489 
Q 3113 581 3316 775 
L 3316 178 
z
" transform="scale(0.015625)"/>
     </defs>
     <use xlink:href="#DejaVuSansMono-32"/>
     <use xlink:href="#DejaVuSansMono-32" transform="translate(60.205078 0)"/>
     <use xlink:href="#DejaVuSansMono-34" transform="translate(120.410156 0)"/>
     <use xlink:href="#DejaVuSansMono-34" transform="translate(180.615234 0)"/>
     <use xlink:href="#DejaVuSansMono-20" transform="translate(240.820312 0)"/>
     <use xlink:href="#DejaVuSansMono-4d" transform="translate(301.025391 0)"/>
     <use xlink:href="#DejaVuSansMono-42" transform="translate(361.230469 0)"/>
     <use xlink:href="#DejaVuSansMono-2f" transform="translate(421.435547 0)"/>
     <use xlink:href="#DejaVuSansMono-73" transform="translate(481.640625 0)"/>
     <use xlink:href="#DejaVuSansMono-20" transform="translate(541.845703 0)"/>
     <use xlink:href="#DejaVuSansMono-40" transform="translate(602.050781 0)"/>
     <use xlink:href="#DejaVuSansMono-20" transform="translate(662.255859 0)"/>
     <use xlink:href="#DejaVuSansMono-33" transform="translate(722.460938 0)"/>
     <use xlink:href="#DejaVuSansMono-32" transform="translate(782.666016 0)"/>
     <use xlink:href="#DejaVuSansMono-63" transform="translate(842.871094 0)"/>
    </g>
   </g>
   <g id="text_19">
    <!-- 2314 MB/s @ 64c -->
    <g style="fill: #d29922" transform="translate(387.533985 100.803304) scale(0.08 -0.08)">
     <use xlink:href="#DejaVuSansMono-32"/>
     <use xlink:href="#DejaVuSansMono-33" transform="translate(60.205078 0)"/>
     <use xlink:href="#DejaVuSansMono-31" transform="translate(120.410156 0)"/>
     <use xlink:href="#DejaVuSansMono-34" transform="translate(180.615234 0)"/>
     <use xlink:href="#DejaVuSansMono-20" transform="translate(240.820312 0)"/>
     <use xlink:href="#DejaVuSansMono-4d" transform="translate(301.025391 0)"/>
     <use xlink:href="#DejaVuSansMono-42" transform="translate(361.230469 0)"/>
     <use xlink:href="#DejaVuSansMono-2f" transform="translate(421.435547 0)"/>
     <use xlink:href="#DejaVuSansMono-73" transform="translate(481.640625 0)"/>
     <use xlink:href="#DejaVuSansMono-20" transform="translate(541.845703 0)"/>
     <use xlink:href="#DejaVuSansMono-40" transform="translate(602.050781 0)"/>
     <use xlink:href="#DejaVuSansMono-20" transform="translate(662.255859 0)"/>
     <use xlink:href="#DejaVuSansMono-36" transform="translate(722.460938 0)"/>
     <use xlink:href="#DejaVuSansMono-34" transform="translate(782.666016 0)"/>
     <use xlink:href="#DejaVuSansMono-63" transform="translate(842.871094 0)"/>
    </g>
   </g>
   <g id="text_20">
    <!-- THROUGHPUT -->
    <g style="fill: #e6edf3" transform="translate(48.13125 54.432) scale(0.11 -0.11)">
     <defs>
      <path id="DejaVuSansMono-Bold-54" d="M 2388 0 
L 1466 0 
L 1466 3859 
L 281 3859 
L 281 4666 
L 3572 4666 
L 3572 3859 
L 2388 3859 
L 2388 0 
z
" transform="scale(0.015625)"/>
      <path id="DejaVuSansMono-Bold-48" d="M 428 4666 
L 1350 4666 
L 1350 2888 
L 2503 2888 
L 2503 4666 
L 3425 4666 
L 3425 0 
L 2503 0 
L 2503 2075 
L 1350 2075 
L 1350 0 
L 428 0 
L 428 4666 
z
" transform="scale(0.015625)"/>
      <path id="DejaVuSansMono-Bold-52" d="M 2522 2203 
Q 2659 2175 2761 2073 
Q 2863 1972 3009 1678 
L 3853 0 
L 2841 0 
L 2278 1178 
Q 2253 1228 2213 1316 
Q 1966 1844 1631 1844 
L 1338 1844 
L 1338 0 
L 416 0 
L 416 4666 
L 1747 4666 
Q 2647 4666 3039 4347 
Q 3431 4028 3431 3309 
Q 3431 2828 3197 2543 
Q 2963 2259 2522 2203 
z
M 1338 3891 
L 1338 2619 
L 1772 2619 
Q 2150 2619 2314 2767 
Q 2478 2916 2478 3256 
Q 2478 3597 2315 3744 
Q 2153 3891 1772 3891 
L 1338 3891 
z
" transform="scale(0.015625)"/>
      <path id="DejaVuSansMono-Bold-4f" d="M 1925 3922 
Q 1572 3922 1409 3545 
Q 1247 3169 1247 2328 
Q 1247 1491 1409 1114 
Q 1572 738 1925 738 
Q 2281 738 2443 1114 
Q 2606 1491 2606 2328 
Q 2606 3169 2443 3545 
Q 2281 3922 1925 3922 
z
M 288 2328 
Q 288 3525 702 4137 
Q 1116 4750 1925 4750 
Q 2738 4750 3152 4137 
Q 3566 3525 3566 2328 
Q 3566 1134 3152 521 
Q 2738 -91 1925 -91 
Q 1116 -91 702 521 
Q 288 1134 288 2328 
z
" transform="scale(0.015625)"/>
      <path id="DejaVuSansMono-Bold-55" d="M 331 1722 
L 331 4666 
L 1253 4666 
L 1253 1491 
Q 1253 1141 1431 942 
Q 1609 744 1925 744 
Q 2241 744 2419 942 
Q 2597 1141 2597 1491 
L 2597 4666 
L 3519 4666 
L 3519 1722 
Q 3519 772 3141 340 
Q 2763 -91 1925 -91 
Q 1091 -91 711 340 
Q 331 772 331 1722 
z
" transform="scale(0.015625)"/>
      <path id="DejaVuSansMono-Bold-47" d="M 2725 844 
L 2725 1734 
L 2094 1734 
L 2094 2509 
L 3531 2509 
L 3531 372 
Q 3266 144 2945 26 
Q 2625 -91 2259 -91 
Q 1353 -91 859 539 
Q 366 1169 366 2328 
Q 366 3506 864 4128 
Q 1363 4750 2303 4750 
Q 2584 4750 2856 4670 
Q 3128 4591 3366 4441 
L 3366 3419 
Q 3172 3669 2920 3795 
Q 2669 3922 2369 3922 
Q 1844 3922 1584 3526 
Q 1325 3131 1325 2328 
Q 1325 1550 1575 1144 
Q 1825 738 2303 738 
Q 2447 738 2553 764 
Q 2659 791 2725 844 
z
" transform="scale(0.015625)"/>
      <path id="DejaVuSansMono-Bold-50" d="M 1428 3891 
L 1428 2522 
L 1806 2522 
Q 2259 2522 2442 2675 
Q 2625 2828 2625 3206 
Q 2625 3584 2442 3737 
Q 2259 3891 1806 3891 
L 1428 3891 
z
M 506 4666 
L 1772 4666 
Q 2738 4666 3161 4322 
Q 3584 3978 3584 3206 
Q 3584 2434 3161 2090 
Q 2738 1747 1772 1747 
L 1428 1747 
L 1428 0 
L 506 0 
L 506 4666 
z
" transform="scale(0.015625)"/>
     </defs>
     <use xlink:href="#DejaVuSansMono-Bold-54"/>
     <use xlink:href="#DejaVuSansMono-Bold-48" transform="translate(60.205078 0)"/>
     <use xlink:href="#DejaVuSansMono-Bold-52" transform="translate(120.410156 0)"/>
     <use xlink:href="#DejaVuSansMono-Bold-4f" transform="translate(180.615234 0)"/>
     <use xlink:href="#DejaVuSansMono-Bold-55" transform="translate(240.820312 0)"/>
     <use xlink:href="#DejaVuSansMono-Bold-47" transform="translate(301.025391 0)"/>
     <use xlink:href="#DejaVuSansMono-Bold-48" transform="translate(361.230469 0)"/>
     <use xlink:href="#DejaVuSansMono-Bold-50" transform="translate(421.435547 0)"/>
     <use xlink:href="#DejaVuSansMono-Bold-55" transform="translate(481.640625 0)"/>
     <use xlink:href="#DejaVuSansMono-Bold-54" transform="translate(541.845703 0)"/>
    </g>
   </g>
   <g id="line2d_30">
    <defs>
     <path id="mb91caeb174" d="M -2 2 
L 2 2 
L 2 -2 
L -2 -2 
z
" style="stroke: #d29922; stroke-linejoin: miter"/>
    </defs>
    <g clip-path="url(#p3d4a1cac17)">
     <use xlink:href="#mb91caeb174" x="214.832617" y="94.13182" style="fill: #d29922; stroke: #d29922; stroke-linejoin: miter"/>
    </g>
   </g>
   <g id="line2d_31">
    <g clip-path="url(#p3d4a1cac17)">
     <use xlink:href="#mb91caeb174" x="381.533985" y="88.803304" style="fill: #d29922; stroke: #d29922; stroke-linejoin: miter"/>
    </g>
   </g>
   <g id="line2d_32">
    <path d="M 53.340668 205.399672 
L 58.550085 176.268392 
L 68.968921 140.929429 
L 79.387756 128.863578 
L 89.806592 118.150197 
L 100.225427 114.191564 
" clip-path="url(#p3d4a1cac17)" style="fill: none; stroke: #3fb950; stroke-width: 2; stroke-linecap: square"/>
    <defs>
     <path id="m95f9ef4937" d="M 0 3 
C 0.795609 3 1.55874 2.683901 2.12132 2.12132 
C 2.683901 1.55874 3 0.795609 3 0 
C 3 -0.795609 2.683901 -1.55874 2.12132 -2.12132 
C 1.55874 -2.683901 0.795609 -3 0 -3 
C -0.795609 -3 -1.55874 -2.683901 -2.12132 -2.12132 
C -2.683901 -1.55874 -3 -0.795609 -3 0 
C -3 0.795609 -2.683901 1.55874 -2.12132 2.12132 
C -1.55874 2.683901 -0.795609 3 0 3 
z
" style="stroke: #161b22; stroke-width: 1.5"/>
    </defs>
    <g clip-path="url(#p3d4a1cac17)">
     <use xlink:href="#m95f9ef4937" x="53.340668" y="205.399672" style="fill: #3fb950; stroke: #161b22; stroke-width: 1.5"/>
     <use xlink:href="#m95f9ef4937" x="58.550085" y="176.268392" style="fill: #3fb950; stroke: #161b22; stroke-width: 1.5"/>
     <use xlink:href="#m95f9ef4937" x="68.968921" y="140.929429" style="fill: #3fb950; stroke: #161b22; stroke-width: 1.5"/>
     <use xlink:href="#m95f9ef4937" x="79.387756" y="128.863578" style="fill: #3fb950; stroke: #161b22; stroke-width: 1.5"/>
     <use xlink:href="#m95f9ef4937" x="89.806592" y="118.150197" style="fill: #3fb950; stroke: #161b22; stroke-width: 1.5"/>
     <use xlink:href="#m95f9ef4937" x="100.225427" y="114.191564" style="fill: #3fb950; stroke: #161b22; stroke-width: 1.5"/>
    </g>
   </g>
   <g id="legend_1">
    <g id="patch_7">
     <path d="M 161.48766 260.612 
L 278.59641 260.612 
Q 280.19641 260.612 280.19641 259.012 
L 280.19641 224.457 
Q 280.19641 222.857 278.59641 222.857 
L 161.48766 222.857 
Q 159.88766 222.857 159.88766 224.457 
L 159.88766 259.012 
Q 159.88766 260.612 161.48766 260.612 
z
" style="fill: #161b22; opacity: 0.8; stroke: #30363d; stroke-linejoin: miter"/>
    </g>
    <g id="line2d_33">
     <path d="M 163.08766 229.37825 
L 171.08766 229.37825 
L 179.08766 229.37825 
" style="fill: none; stroke: #238636; stroke-opacity: 0.6; stroke-width: 1.5; stroke-linecap: square"/>
    </g>
    <g id="text_21">
     <!-- amdahl (serial=33%) -->
     <g style="fill: #8b949e" transform="translate(185.48766 232.17825) scale(0.08 -0.08)">
      <defs>
       <path id="DejaVuSansMono-6d" d="M 2113 3144 
Q 2219 3369 2383 3476 
Q 2547 3584 2778 3584 
Q 3200 3584 3373 3257 
Q 3547 2931 3547 2028 
L 3547 0 
L 3022 0 
L 3022 2003 
Q 3022 2744 2939 2923 
Q 2856 3103 2638 3103 
Q 2388 3103 2295 2911 
Q 2203 2719 2203 2003 
L 2203 0 
L 1678 0 
L 1678 2003 
Q 1678 2753 1589 2928 
Q 1500 3103 1269 3103 
Q 1041 3103 952 2911 
Q 863 2719 863 2003 
L 863 0 
L 341 0 
L 341 3500 
L 863 3500 
L 863 3200 
Q 966 3388 1120 3486 
Q 1275 3584 1472 3584 
Q 1709 3584 1867 3475 
Q 2025 3366 2113 3144 
z
" transform="scale(0.015625)"/>
       <path id="DejaVuSansMono-6c" d="M 1997 1269 
Q 1997 881 2139 684 
Q 2281 488 2559 488 
L 3231 488 
L 3231 0 
L 2503 0 
Q 1988 0 1705 331 
Q 1422 663 1422 1269 
L 1422 4447 
L 500 4447 
L 500 4897 
L 1997 4897 
L 1997 1269 
z
" transform="scale(0.015625)"/>
       <path id="DejaVuSansMono-28" d="M 2766 4856 
Q 2350 4144 2145 3436 
Q 1941 2728 1941 2009 
Q 1941 1294 2145 584 
Q 2350 -125 2766 -844 
L 2266 -844 
Q 1794 -100 1562 604 
Q 1331 1309 1331 2009 
Q 1331 2706 1562 3412 
Q 1794 4119 2266 4856 
L 2766 4856 
z
" transform="scale(0.015625)"/>
       <path id="DejaVuSansMono-69" d="M 800 3500 
L 2272 3500 
L 2272 447 
L 3413 447 
L 3413 0 
L 556 0 
L 556 447 
L 1697 447 
L 1697 3053 
L 800 3053 
L 800 3500 
z
M 1697 4863 
L 2272 4863 
L 2272 4134 
L 1697 4134 
L 1697 4863 
z
" transform="scale(0.015625)"/>
       <path id="DejaVuSansMono-3d" d="M 275 1638 
L 3578 1638 
L 3578 1100 
L 275 1100 
L 275 1638 
z
M 275 2906 
L 3578 2906 
L 3578 2375 
L 275 2375 
L 275 2906 
z
" transform="scale(0.015625)"/>
       <path id="DejaVuSansMono-25" d="M 2175 997 
Q 2175 753 2339 587 
Q 2503 422 2747 422 
Q 2988 422 3155 589 
Q 3322 756 3322 997 
Q 3322 1238 3153 1406 
Q 2984 1575 2747 1575 
Q 2503 1575 2339 1409 
Q 2175 1244 2175 997 
z
M 1753 997 
Q 1753 1419 2040 1708 
Q 2328 1997 2747 1997 
Q 2947 1997 3126 1922 
Q 3306 1847 3450 1703 
Q 3594 1556 3672 1375 
Q 3750 1194 3750 997 
Q 3750 581 3459 290 
Q 3169 0 2747 0 
Q 2322 0 2037 286 
Q 1753 572 1753 997 
z
M 378 1453 
L 269 1753 
L 3525 3059 
L 3653 2759 
L 378 1453 
z
M 525 3475 
Q 525 3228 689 3064 
Q 853 2900 1100 2900 
Q 1341 2900 1509 3067 
Q 1678 3234 1678 3475 
Q 1678 3716 1509 3883 
Q 1341 4050 1100 4050 
Q 859 4050 692 3884 
Q 525 3719 525 3475 
z
M 103 3475 
Q 103 3897 390 4186 
Q 678 4475 1100 4475 
Q 1300 4475 1483 4400 
Q 1666 4325 1806 4184 
Q 1947 4044 2023 3861 
Q 2100 3678 2100 3475 
Q 2100 3056 1809 2767 
Q 1519 2478 1100 2478 
Q 678 2478 390 2765 
Q 103 3053 103 3475 
z
" transform="scale(0.015625)"/>
       <path id="DejaVuSansMono-29" d="M 1088 4856 
L 1588 4856 
Q 2059 4119 2290 3412 
Q 2522 2706 2522 2009 
Q 2522 1306 2290 600 
Q 2059 -106 1588 -844 
L 1088 -844 
Q 1503 -119 1708 590 
Q 1913 1300 1913 2009 
Q 1913 2722 1708 3431 
Q 1503 4141 1088 4856 
z
" transform="scale(0.015625)"/>
      </defs>
      <use xlink:href="#DejaVuSansMono-61"/>
      <use xlink:href="#DejaVuSansMono-6d" transform="translate(60.205078 0)"/>
      <use xlink:href="#DejaVuSansMono-64" transform="translate(120.410156 0)"/>
      <use xlink:href="#DejaVuSansMono-61" transform="translate(180.615234 0)"/>
      <use xlink:href="#DejaVuSansMono-68" transform="translate(240.820312 0)"/>
      <use xlink:href="#DejaVuSansMono-6c" transform="translate(301.025391 0)"/>
      <use xlink:href="#DejaVuSansMono-20" transform="translate(361.230469 0)"/>
      <use xlink:href="#DejaVuSansMono-28" transform="translate(421.435547 0)"/>
      <use xlink:href="#DejaVuSansMono-73" transform="translate(481.640625 0)"/>
      <use xlink:href="#DejaVuSansMono-65" transform="translate(541.845703 0)"/>
      <use xlink:href="#DejaVuSansMono-72" transform="translate(602.050781 0)"/>
      <use xlink:href="#DejaVuSansMono-69" transform="translate(662.255859 0)"/>
      <use xlink:href="#DejaVuSansMono-61" transform="translate(722.460938 0)"/>
      <use xlink:href="#DejaVuSansMono-6c" transform="translate(782.666016 0)"/>
      <use xlink:href="#DejaVuSansMono-3d" transform="translate(842.871094 0)"/>
      <use xlink:href="#DejaVuSansMono-33" transform="translate(903.076172 0)"/>
      <use xlink:href="#DejaVuSansMono-33" transform="translate(963.28125 0)"/>
      <use xlink:href="#DejaVuSansMono-25" transform="translate(1023.486328 0)"/>
      <use xlink:href="#DejaVuSansMono-29" transform="translate(1083.691406 0)"/>
     </g>
    </g>
    <g id="line2d_34">
     <path d="M 163.08766 241.16325 
L 171.08766 241.16325 
L 179.08766 241.16325 
" style="fill: none; stroke-dasharray: 3.7,1.6; stroke-dashoffset: 0; stroke: #30363d"/>
    </g>
    <g id="text_22">
     <!-- linear -->
     <g style="fill: #8b949e" transform="translate(185.48766 243.96325) scale(0.08 -0.08)">
      <defs>
       <path id="DejaVuSansMono-6e" d="M 3284 2169 
L 3284 0 
L 2706 0 
L 2706 2169 
Q 2706 2641 2540 2862 
Q 2375 3084 2022 3084 
Q 1619 3084 1401 2798 
Q 1184 2513 1184 1978 
L 1184 0 
L 609 0 
L 609 3500 
L 1184 3500 
L 1184 2975 
Q 1338 3275 1600 3429 
Q 1863 3584 2222 3584 
Q 2756 3584 3020 3232 
Q 3284 2881 3284 2169 
z
" transform="scale(0.015625)"/>
      </defs>
      <use xlink:href="#DejaVuSansMono-6c"/>
      <use xlink:href="#DejaVuSansMono-69" transform="translate(60.205078 0)"/>
      <use xlink:href="#DejaVuSansMono-6e" transform="translate(120.410156 0)"/>
      <use xlink:href="#DejaVuSansMono-65" transform="translate(180.615234 0)"/>
      <use xlink:href="#DejaVuSansMono-61" transform="translate(240.820312 0)"/>
      <use xlink:href="#DejaVuSansMono-72" transform="translate(301.025391 0)"/>
     </g>
    </g>
    <g id="line2d_35">
     <path d="M 163.08766 252.94825 
L 171.08766 252.94825 
L 179.08766 252.94825 
" style="fill: none; stroke: #3fb950; stroke-width: 2; stroke-linecap: square"/>
     <g>
      <use xlink:href="#m95f9ef4937" x="171.08766" y="252.94825" style="fill: #3fb950; stroke: #161b22; stroke-width: 1.5"/>
     </g>
    </g>
    <g id="text_23">
     <!-- measured -->
     <g style="fill: #8b949e" transform="translate(185.48766 255.74825) scale(0.08 -0.08)">
      <defs>
       <path id="DejaVuSansMono-75" d="M 609 1325 
L 609 3494 
L 1184 3494 
L 1184 1325 
Q 1184 853 1351 631 
Q 1519 409 1869 409 
Q 2275 409 2490 695 
Q 2706 981 2706 1516 
L 2706 3494 
L 3284 3494 
L 3284 0 
L 2706 0 
L 2706 525 
Q 2553 222 2289 65 
Q 2025 -91 1672 -91 
Q 1134 -91 871 261 
Q 609 613 609 1325 
z
" transform="scale(0.015625)"/>
      </defs>
      <use xlink:href="#DejaVuSansMono-6d"/>
      <use xlink:href="#DejaVuSansMono-65" transform="translate(60.205078 0)"/>
      <use xlink:href="#DejaVuSansMono-61" transform="translate(120.410156 0)"/>
      <use xlink:href="#DejaVuSansMono-73" transform="translate(180.615234 0)"/>
      <use xlink:href="#DejaVuSansMono-75" transform="translate(240.820312 0)"/>
      <use xlink:href="#DejaVuSansMono-72" transform="translate(301.025391 0)"/>
      <use xlink:href="#DejaVuSansMono-65" transform="translate(361.230469 0)"/>
      <use xlink:href="#DejaVuSansMono-64" transform="translate(421.435547 0)"/>
     </g>
    </g>
   </g>
  </g>
  <g id="axes_2">
   <g id="patch_8">
    <path d="M 507.40968 264.612 
L 851.23125 264.612 
L 851.23125 62.432 
L 507.40968 62.432 
z
" style="fill: #161b22"/>
   </g>
   <g id="FillBetweenPolyCollection_2">
    <defs>
     <path id="maa81987875" d="M 512.619097 -94.428578 
L 512.619097 -35.21625 
L 517.828515 -35.21625 
L 523.037933 -35.21625 
L 528.247351 -35.21625 
L 533.456768 -35.21625 
L 538.666186 -35.21625 
L 543.875604 -35.21625 
L 549.085022 -35.21625 
L 554.294439 -35.21625 
L 559.503857 -35.21625 
L 564.713275 -35.21625 
L 569.922693 -35.21625 
L 575.13211 -35.21625 
L 580.341528 -35.21625 
L 585.550946 -35.21625 
L 590.760363 -35.21625 
L 595.969781 -35.21625 
L 601.179199 -35.21625 
L 606.388617 -35.21625 
L 611.598034 -35.21625 
L 616.807452 -35.21625 
L 622.01687 -35.21625 
L 627.226288 -35.21625 
L 632.435705 -35.21625 
L 637.645123 -35.21625 
L 642.854541 -35.21625 
L 648.063958 -35.21625 
L 653.273376 -35.21625 
L 658.482794 -35.21625 
L 663.692212 -35.21625 
L 668.901629 -35.21625 
L 674.111047 -35.21625 
L 679.320465 -35.21625 
L 684.529883 -35.21625 
L 689.7393 -35.21625 
L 694.948718 -35.21625 
L 700.158136 -35.21625 
L 705.367554 -35.21625 
L 710.576971 -35.21625 
L 715.786389 -35.21625 
L 720.995807 -35.21625 
L 726.205224 -35.21625 
L 731.414642 -35.21625 
L 736.62406 -35.21625 
L 741.833478 -35.21625 
L 747.042895 -35.21625 
L 752.252313 -35.21625 
L 757.461731 -35.21625 
L 762.671149 -35.21625 
L 767.880566 -35.21625 
L 773.089984 -35.21625 
L 778.299402 -35.21625 
L 783.508819 -35.21625 
L 788.718237 -35.21625 
L 793.927655 -35.21625 
L 799.137073 -35.21625 
L 804.34649 -35.21625 
L 809.555908 -35.21625 
L 814.765326 -35.21625 
L 819.974744 -35.21625 
L 825.184161 -35.21625 
L 830.393579 -35.21625 
L 835.602997 -35.21625 
L 840.812415 -35.21625 
L 840.812415 -211.024946 
L 840.812415 -211.024946 
L 835.602997 -210.937766 
L 830.393579 -210.847864 
L 825.184161 -210.755111 
L 819.974744 -210.65937 
L 814.765326 -210.560493 
L 809.555908 -210.458323 
L 804.34649 -210.352694 
L 799.137073 -210.243426 
L 793.927655 -210.130329 
L 788.718237 -210.013197 
L 783.508819 -209.891812 
L 778.299402 -209.765935 
L 773.089984 -209.635315 
L 767.880566 -209.499677 
L 762.671149 -209.358726 
L 757.461731 -209.212145 
L 752.252313 -209.059589 
L 747.042895 -208.900684 
L 741.833478 -208.735028 
L 736.62406 -208.562179 
L 731.414642 -208.381659 
L 726.205224 -208.192945 
L 720.995807 -207.995468 
L 715.786389 -207.788601 
L 710.576971 -207.571659 
L 705.367554 -207.343887 
L 700.158136 -207.104455 
L 694.948718 -206.852442 
L 689.7393 -206.586831 
L 684.529883 -206.30649 
L 679.320465 -206.010159 
L 674.111047 -205.69643 
L 668.901629 -205.363725 
L 663.692212 -205.010268 
L 658.482794 -204.634054 
L 653.273376 -204.232814 
L 648.063958 -203.803964 
L 642.854541 -203.344553 
L 637.645123 -202.851193 
L 632.435705 -202.319977 
L 627.226288 -201.746373 
L 622.01687 -201.125098 
L 616.807452 -200.449952 
L 611.598034 -199.713609 
L 606.388617 -198.907354 
L 601.179199 -198.020734 
L 595.969781 -197.041104 
L 590.760363 -195.953017 
L 585.550946 -194.737407 
L 580.341528 -193.37046 
L 575.13211 -191.822039 
L 569.922693 -190.053436 
L 564.713275 -188.014091 
L 559.503857 -185.636686 
L 554.294439 -182.82956 
L 549.085022 -179.464631 
L 543.875604 -175.357295 
L 538.666186 -170.231391 
L 533.456768 -163.6544 
L 528.247351 -154.908546 
L 523.037933 -142.709192 
L 517.828515 -124.507576 
L 512.619097 -94.428578 
z
" style="stroke: #238636; stroke-opacity: 0.08"/>
    </defs>
    <g clip-path="url(#p360947d212)">
     <use xlink:href="#maa81987875" x="0" y="299.82825" style="fill: #238636; fill-opacity: 0.08; stroke: #238636; stroke-opacity: 0.08"/>
    </g>
   </g>
   <g id="matplotlib.axis_3">
    <g id="xtick_8">
     <g id="line2d_36">
      <path d="M 507.40968 264.612 
L 507.40968 62.432 
" clip-path="url(#p360947d212)" style="fill: none; stroke: #21262d; stroke-width: 0.5; stroke-linecap: square"/>
     </g>
     <g id="line2d_37">
      <g>
       <use xlink:href="#m2aff69d102" x="507.40968" y="264.612" style="fill: #8b949e; stroke: #8b949e; stroke-width: 0.5"/>
      </g>
     </g>
     <g id="text_24">
      <!-- 0 -->
      <g style="fill: #8b949e" transform="translate(504.700539 277.998406) scale(0.09 -0.09)">
       <use xlink:href="#DejaVuSansMono-30"/>
      </g>
     </g>
    </g>
    <g id="xtick_9">
     <g id="line2d_38">
      <path d="M 559.503857 264.612 
L 559.503857 62.432 
" clip-path="url(#p360947d212)" style="fill: none; stroke: #21262d; stroke-width: 0.5; stroke-linecap: square"/>
     </g>
     <g id="line2d_39">
      <g>
       <use xlink:href="#m2aff69d102" x="559.503857" y="264.612" style="fill: #8b949e; stroke: #8b949e; stroke-width: 0.5"/>
      </g>
     </g>
     <g id="text_25">
      <!-- 10 -->
      <g style="fill: #8b949e" transform="translate(554.085576 277.998406) scale(0.09 -0.09)">
       <use xlink:href="#DejaVuSansMono-31"/>
       <use xlink:href="#DejaVuSansMono-30" transform="translate(60.205078 0)"/>
      </g>
     </g>
    </g>
    <g id="xtick_10">
     <g id="line2d_40">
      <path d="M 611.598034 264.612 
L 611.598034 62.432 
" clip-path="url(#p360947d212)" style="fill: none; stroke: #21262d; stroke-width: 0.5; stroke-linecap: square"/>
     </g>
     <g id="line2d_41">
      <g>
       <use xlink:href="#m2aff69d102" x="611.598034" y="264.612" style="fill: #8b949e; stroke: #8b949e; stroke-width: 0.5"/>
      </g>
     </g>
     <g id="text_26">
      <!-- 20 -->
      <g style="fill: #8b949e" transform="translate(606.179753 277.998406) scale(0.09 -0.09)">
       <use xlink:href="#DejaVuSansMono-32"/>
       <use xlink:href="#DejaVuSansMono-30" transform="translate(60.205078 0)"/>
      </g>
     </g>
    </g>
    <g id="xtick_11">
     <g id="line2d_42">
      <path d="M 663.692212 264.612 
L 663.692212 62.432 
" clip-path="url(#p360947d212)" style="fill: none; stroke: #21262d; stroke-width: 0.5; stroke-linecap: square"/>
     </g>
     <g id="line2d_43">
      <g>
       <use xlink:href="#m2aff69d102" x="663.692212" y="264.612" style="fill: #8b949e; stroke: #8b949e; stroke-width: 0.5"/>
      </g>
     </g>
     <g id="text_27">
      <!-- 30 -->
      <g style="fill: #8b949e" transform="translate(658.27393 277.998406) scale(0.09 -0.09)">
       <use xlink:href="#DejaVuSansMono-33"/>
       <use xlink:href="#DejaVuSansMono-30" transform="translate(60.205078 0)"/>
      </g>
     </g>
    </g>
    <g id="xtick_12">
     <g id="line2d_44">
      <path d="M 715.786389 264.612 
L 715.786389 62.432 
" clip-path="url(#p360947d212)" style="fill: none; stroke: #21262d; stroke-width: 0.5; stroke-linecap: square"/>
     </g>
     <g id="line2d_45">
      <g>
       <use xlink:href="#m2aff69d102" x="715.786389" y="264.612" style="fill: #8b949e; stroke: #8b949e; stroke-width: 0.5"/>
      </g>
     </g>
     <g id="text_28">
      <!-- 40 -->
      <g style="fill: #8b949e" transform="translate(710.368108 277.998406) scale(0.09 -0.09)">
       <use xlink:href="#DejaVuSansMono-34"/>
       <use xlink:href="#DejaVuSansMono-30" transform="translate(60.205078 0)"/>
      </g>
     </g>
    </g>
    <g id="xtick_13">
     <g id="line2d_46">
      <path d="M 767.880566 264.612 
L 767.880566 62.432 
" clip-path="url(#p360947d212)" style="fill: none; stroke: #21262d; stroke-width: 0.5; stroke-linecap: square"/>
     </g>
     <g id="line2d_47">
      <g>
       <use xlink:href="#m2aff69d102" x="767.880566" y="264.612" style="fill: #8b949e; stroke: #8b949e; stroke-width: 0.5"/>
      </g>
     </g>
     <g id="text_29">
      <!-- 50 -->
      <g style="fill: #8b949e" transform="translate(762.462285 277.998406) scale(0.09 -0.09)">
       <use xlink:href="#DejaVuSansMono-35"/>
       <use xlink:href="#DejaVuSansMono-30" transform="translate(60.205078 0)"/>
      </g>
     </g>
    </g>
    <g id="xtick_14">
     <g id="line2d_48">
      <path d="M 819.974744 264.612 
L 819.974744 62.432 
" clip-path="url(#p360947d212)" style="fill: none; stroke: #21262d; stroke-width: 0.5; stroke-linecap: square"/>
     </g>
     <g id="line2d_49">
      <g>
       <use xlink:href="#m2aff69d102" x="819.974744" y="264.612" style="fill: #8b949e; stroke: #8b949e; stroke-width: 0.5"/>
      </g>
     </g>
     <g id="text_30">
      <!-- 60 -->
      <g style="fill: #8b949e" transform="translate(814.556462 277.998406) scale(0.09 -0.09)">
       <use xlink:href="#DejaVuSansMono-36"/>
       <use xlink:href="#DejaVuSansMono-30" transform="translate(60.205078 0)"/>
      </g>
     </g>
    </g>
    <g id="text_31">
     <!-- threads -->
     <g style="fill: #8b949e" transform="translate(660.356481 290.756531) scale(0.09 -0.09)">
      <use xlink:href="#DejaVuSansMono-74"/>
      <use xlink:href="#DejaVuSansMono-68" transform="translate(60.205078 0)"/>
      <use xlink:href="#DejaVuSansMono-72" transform="translate(120.410156 0)"/>
      <use xlink:href="#DejaVuSansMono-65" transform="translate(180.615234 0)"/>
      <use xlink:href="#DejaVuSansMono-61" transform="translate(240.820312 0)"/>
      <use xlink:href="#DejaVuSansMono-64" transform="translate(301.025391 0)"/>
      <use xlink:href="#DejaVuSansMono-73" transform="translate(361.230469 0)"/>
     </g>
    </g>
   </g>
   <g id="matplotlib.axis_4">
    <g id="ytick_7">
     <g id="line2d_50">
      <path d="M 507.40968 264.612 
L 851.23125 264.612 
" clip-path="url(#p360947d212)" style="fill: none; stroke: #21262d; stroke-width: 0.5; stroke-linecap: square"/>
     </g>
     <g id="line2d_51">
      <g>
       <use xlink:href="#m5f6f338c9a" x="507.40968" y="264.612" style="fill: #8b949e; stroke: #8b949e; stroke-width: 0.5"/>
      </g>
     </g>
     <g id="text_32">
      <!-- 0.0 -->
      <g style="fill: #8b949e" transform="translate(484.654836 268.055203) scale(0.09 -0.09)">
       <defs>
        <path id="DejaVuSansMono-2e" d="M 1528 953 
L 2316 953 
L 2316 0 
L 1528 0 
L 1528 953 
z
" transform="scale(0.015625)"/>
       </defs>
       <use xlink:href="#DejaVuSansMono-30"/>
       <use xlink:href="#DejaVuSansMono-2e" transform="translate(60.205078 0)"/>
       <use xlink:href="#DejaVuSansMono-30" transform="translate(120.410156 0)"/>
      </g>
     </g>
    </g>
    <g id="ytick_8">
     <g id="line2d_52">
      <path d="M 507.40968 235.005836 
L 851.23125 235.005836 
" clip-path="url(#p360947d212)" style="fill: none; stroke: #21262d; stroke-width: 0.5; stroke-linecap: square"/>
     </g>
     <g id="line2d_53">
      <g>
       <use xlink:href="#m5f6f338c9a" x="507.40968" y="235.005836" style="fill: #8b949e; stroke: #8b949e; stroke-width: 0.5"/>
      </g>
     </g>
     <g id="text_33">
      <!-- 0.5 -->
      <g style="fill: #8b949e" transform="translate(484.654836 238.449039) scale(0.09 -0.09)">
       <use xlink:href="#DejaVuSansMono-30"/>
       <use xlink:href="#DejaVuSansMono-2e" transform="translate(60.205078 0)"/>
       <use xlink:href="#DejaVuSansMono-35" transform="translate(120.410156 0)"/>
      </g>
     </g>
    </g>
    <g id="ytick_9">
     <g id="line2d_54">
      <path d="M 507.40968 205.399672 
L 851.23125 205.399672 
" clip-path="url(#p360947d212)" style="fill: none; stroke: #21262d; stroke-width: 0.5; stroke-linecap: square"/>
     </g>
     <g id="line2d_55">
      <g>
       <use xlink:href="#m5f6f338c9a" x="507.40968" y="205.399672" style="fill: #8b949e; stroke: #8b949e; stroke-width: 0.5"/>
      </g>
     </g>
     <g id="text_34">
      <!-- 1.0 -->
      <g style="fill: #8b949e" transform="translate(484.654836 208.842875) scale(0.09 -0.09)">
       <use xlink:href="#DejaVuSansMono-31"/>
       <use xlink:href="#DejaVuSansMono-2e" transform="translate(60.205078 0)"/>
       <use xlink:href="#DejaVuSansMono-30" transform="translate(120.410156 0)"/>
      </g>
     </g>
    </g>
    <g id="ytick_10">
     <g id="line2d_56">
      <path d="M 507.40968 175.793508 
L 851.23125 175.793508 
" clip-path="url(#p360947d212)" style="fill: none; stroke: #21262d; stroke-width: 0.5; stroke-linecap: square"/>
     </g>
     <g id="line2d_57">
      <g>
       <use xlink:href="#m5f6f338c9a" x="507.40968" y="175.793508" style="fill: #8b949e; stroke: #8b949e; stroke-width: 0.5"/>
      </g>
     </g>
     <g id="text_35">
      <!-- 1.5 -->
      <g style="fill: #8b949e" transform="translate(484.654836 179.236711) scale(0.09 -0.09)">
       <use xlink:href="#DejaVuSansMono-31"/>
       <use xlink:href="#DejaVuSansMono-2e" transform="translate(60.205078 0)"/>
       <use xlink:href="#DejaVuSansMono-35" transform="translate(120.410156 0)"/>
      </g>
     </g>
    </g>
    <g id="ytick_11">
     <g id="line2d_58">
      <path d="M 507.40968 146.187344 
L 851.23125 146.187344 
" clip-path="url(#p360947d212)" style="fill: none; stroke: #21262d; stroke-width: 0.5; stroke-linecap: square"/>
     </g>
     <g id="line2d_59">
      <g>
       <use xlink:href="#m5f6f338c9a" x="507.40968" y="146.187344" style="fill: #8b949e; stroke: #8b949e; stroke-width: 0.5"/>
      </g>
     </g>
     <g id="text_36">
      <!-- 2.0 -->
      <g style="fill: #8b949e" transform="translate(484.654836 149.630547) scale(0.09 -0.09)">
       <use xlink:href="#DejaVuSansMono-32"/>
       <use xlink:href="#DejaVuSansMono-2e" transform="translate(60.205078 0)"/>
       <use xlink:href="#DejaVuSansMono-30" transform="translate(120.410156 0)"/>
      </g>
     </g>
    </g>
    <g id="ytick_12">
     <g id="line2d_60">
      <path d="M 507.40968 116.58118 
L 851.23125 116.58118 
" clip-path="url(#p360947d212)" style="fill: none; stroke: #21262d; stroke-width: 0.5; stroke-linecap: square"/>
     </g>
     <g id="line2d_61">
      <g>
       <use xlink:href="#m5f6f338c9a" x="507.40968" y="116.58118" style="fill: #8b949e; stroke: #8b949e; stroke-width: 0.5"/>
      </g>
     </g>
     <g id="text_37">
      <!-- 2.5 -->
      <g style="fill: #8b949e" transform="translate(484.654836 120.024384) scale(0.09 -0.09)">
       <use xlink:href="#DejaVuSansMono-32"/>
       <use xlink:href="#DejaVuSansMono-2e" transform="translate(60.205078 0)"/>
       <use xlink:href="#DejaVuSansMono-35" transform="translate(120.410156 0)"/>
      </g>
     </g>
    </g>
    <g id="ytick_13">
     <g id="line2d_62">
      <path d="M 507.40968 86.975016 
L 851.23125 86.975016 
" clip-path="url(#p360947d212)" style="fill: none; stroke: #21262d; stroke-width: 0.5; stroke-linecap: square"/>
     </g>
     <g id="line2d_63">
      <g>
       <use xlink:href="#m5f6f338c9a" x="507.40968" y="86.975016" style="fill: #8b949e; stroke: #8b949e; stroke-width: 0.5"/>
      </g>
     </g>
     <g id="text_38">
      <!-- 3.0 -->
      <g style="fill: #8b949e" transform="translate(484.654836 90.41822) scale(0.09 -0.09)">
       <use xlink:href="#DejaVuSansMono-33"/>
       <use xlink:href="#DejaVuSansMono-2e" transform="translate(60.205078 0)"/>
       <use xlink:href="#DejaVuSansMono-30" transform="translate(120.410156 0)"/>
      </g>
     </g>
    </g>
    <g id="text_39">
     <!-- speedup -->
     <g style="fill: #8b949e" transform="translate(478.783117 182.485984) rotate(-90) scale(0.09 -0.09)">
      <defs>
       <path id="DejaVuSansMono-70" d="M 1172 441 
L 1172 -1331 
L 594 -1331 
L 594 3500 
L 1172 3500 
L 1172 3053 
Q 1316 3313 1555 3448 
Q 1794 3584 2106 3584 
Q 2741 3584 3102 3093 
Q 3463 2603 3463 1734 
Q 3463 881 3100 395 
Q 2738 -91 2106 -91 
Q 1788 -91 1548 45 
Q 1309 181 1172 441 
z
M 2859 1747 
Q 2859 2416 2648 2756 
Q 2438 3097 2022 3097 
Q 1603 3097 1387 2755 
Q 1172 2413 1172 1747 
Q 1172 1084 1387 740 
Q 1603 397 2022 397 
Q 2438 397 2648 737 
Q 2859 1078 2859 1747 
z
" transform="scale(0.015625)"/>
      </defs>
      <use xlink:href="#DejaVuSansMono-73"/>
      <use xlink:href="#DejaVuSansMono-70" transform="translate(60.205078 0)"/>
      <use xlink:href="#DejaVuSansMono-65" transform="translate(120.410156 0)"/>
      <use xlink:href="#DejaVuSansMono-65" transform="translate(180.615234 0)"/>
      <use xlink:href="#DejaVuSansMono-64" transform="translate(240.820312 0)"/>
      <use xlink:href="#DejaVuSansMono-75" transform="translate(301.025391 0)"/>
      <use xlink:href="#DejaVuSansMono-70" transform="translate(361.230469 0)"/>
     </g>
    </g>
   </g>
   <g id="line2d_64">
    <path d="M 512.619097 205.399672 
L 517.828515 175.320674 
L 523.037933 157.119058 
L 528.247351 144.919704 
L 533.456768 136.17385 
L 538.666186 129.596859 
L 543.875604 124.470955 
L 549.085022 120.363619 
L 554.294439 116.99869 
L 559.503857 114.191564 
L 564.713275 111.814159 
L 569.922693 109.774814 
L 575.13211 108.006211 
L 580.341528 106.45779 
L 585.550946 105.090843 
L 590.760363 103.875233 
L 595.969781 102.787146 
L 601.179199 101.807516 
L 606.388617 100.920896 
L 611.598034 100.114641 
L 616.807452 99.378298 
L 622.01687 98.703152 
L 627.226288 98.081877 
L 632.435705 97.508273 
L 637.645123 96.977057 
L 642.854541 96.483697 
L 648.063958 96.024286 
L 653.273376 95.595436 
L 658.482794 95.194196 
L 663.692212 94.817982 
L 668.901629 94.464525 
L 674.111047 94.13182 
L 679.320465 93.818091 
L 684.529883 93.52176 
L 689.7393 93.241419 
L 694.948718 92.975808 
L 700.158136 92.723795 
L 705.367554 92.484363 
L 710.576971 92.256591 
L 715.786389 92.039649 
L 720.995807 91.832782 
L 726.205224 91.635305 
L 731.414642 91.446591 
L 736.62406 91.266071 
L 741.833478 91.093222 
L 747.042895 90.927566 
L 752.252313 90.768661 
L 757.461731 90.616105 
L 762.671149 90.469524 
L 767.880566 90.328573 
L 773.089984 90.192935 
L 778.299402 90.062315 
L 783.508819 89.936438 
L 788.718237 89.815053 
L 793.927655 89.697921 
L 799.137073 89.584824 
L 804.34649 89.475556 
L 809.555908 89.369927 
L 814.765326 89.267757 
L 819.974744 89.16888 
L 825.184161 89.073139 
L 830.393579 88.980386 
L 835.602997 88.890484 
L 840.812415 88.803304 
" clip-path="url(#p360947d212)" style="fill: none; stroke: #238636; stroke-opacity: 0.6; stroke-width: 1.5; stroke-linecap: square"/>
   </g>
   <g id="line2d_65">
    <path d="M 512.619097 205.399672 
L 517.828515 146.187344 
L 523.037933 86.975016 
L 528.247351 27.762689 
L 530.777852 -1 
" clip-path="url(#p360947d212)" style="fill: none; stroke-dasharray: 3.7,1.6; stroke-dashoffset: 0; stroke: #30363d"/>
   </g>
   <g id="line2d_66">
    <path d="M 559.503857 264.612 
L 559.503857 62.432 
" clip-path="url(#p360947d212)" style="fill: none; stroke-dasharray: 0.8,1.32; stroke-dashoffset: 0; stroke: #d29922; stroke-opacity: 0.4; stroke-width: 0.8"/>
   </g>
   <g id="patch_9">
    <path d="M 507.40968 264.612 
L 507.40968 62.432 
" style="fill: none; stroke: #30363d; stroke-width: 0.8; stroke-linejoin: miter; stroke-linecap: square"/>
   </g>
   <g id="patch_10">
    <path d="M 851.23125 264.612 
L 851.23125 62.432 
" style="fill: none; stroke: #30363d; stroke-width: 0.8; stroke-linejoin: miter; stroke-linecap: square"/>
   </g>
   <g id="patch_11">
    <path d="M 507.40968 264.612 
L 851.23125 264.612 
" style="fill: none; stroke: #30363d; stroke-width: 0.8; stroke-linejoin: miter; stroke-linecap: square"/>
   </g>
   <g id="patch_12">
    <path d="M 507.40968 62.432 
L 851.23125 62.432 
" style="fill: none; stroke: #30363d; stroke-width: 0.8; stroke-linejoin: miter; stroke-linecap: square"/>
   </g>
   <g id="text_40">
    <!-- SPEEDUP -->
    <g style="fill: #e6edf3" transform="translate(507.40968 54.432) scale(0.11 -0.11)">
     <defs>
      <path id="DejaVuSansMono-Bold-53" d="M 1594 2047 
Q 897 2313 650 2605 
Q 403 2897 403 3391 
Q 403 4025 809 4387 
Q 1216 4750 1925 4750 
Q 2247 4750 2569 4676 
Q 2891 4603 3206 4459 
L 3206 3559 
Q 2909 3769 2603 3878 
Q 2297 3988 1997 3988 
Q 1663 3988 1484 3853 
Q 1306 3719 1306 3469 
Q 1306 3275 1436 3148 
Q 1566 3022 1978 2869 
L 2375 2719 
Q 2938 2513 3203 2172 
Q 3469 1831 3469 1313 
Q 3469 606 3051 257 
Q 2634 -91 1791 -91 
Q 1444 -91 1095 -8 
Q 747 75 422 238 
L 422 1191 
Q 791 928 1136 800 
Q 1481 672 1819 672 
Q 2159 672 2346 826 
Q 2534 981 2534 1259 
Q 2534 1469 2409 1626 
Q 2284 1784 2047 1875 
L 1594 2047 
z
" transform="scale(0.015625)"/>
      <path id="DejaVuSansMono-Bold-45" d="M 3431 0 
L 525 0 
L 525 4666 
L 3431 4666 
L 3431 3853 
L 1447 3853 
L 1447 2847 
L 3244 2847 
L 3244 2034 
L 1447 2034 
L 1447 813 
L 3431 813 
L 3431 0 
z
" transform="scale(0.015625)"/>
      <path id="DejaVuSansMono-Bold-44" d="M 1350 3834 
L 1350 831 
L 1600 831 
Q 2144 831 2375 1173 
Q 2606 1516 2606 2338 
Q 2606 3153 2375 3493 
Q 2144 3834 1600 3834 
L 1350 3834 
z
M 428 4666 
L 1416 4666 
Q 2559 4666 3062 4120 
Q 3566 3575 3566 2338 
Q 3566 1097 3062 548 
Q 2559 0 1416 0 
L 428 0 
L 428 4666 
z
" transform="scale(0.015625)"/>
     </defs>
     <use xlink:href="#DejaVuSansMono-Bold-53"/>
     <use xlink:href="#DejaVuSansMono-Bold-50" transform="translate(60.205078 0)"/>
     <use xlink:href="#DejaVuSansMono-Bold-45" transform="translate(120.410156 0)"/>
     <use xlink:href="#DejaVuSansMono-Bold-45" transform="translate(180.615234 0)"/>
     <use xlink:href="#DejaVuSansMono-Bold-44" transform="translate(240.820312 0)"/>
     <use xlink:href="#DejaVuSansMono-Bold-55" transform="translate(301.025391 0)"/>
     <use xlink:href="#DejaVuSansMono-Bold-50" transform="translate(361.230469 0)"/>
    </g>
   </g>
   <g id="line2d_67">
    <path d="M 512.619097 205.399672 
L 517.828515 176.268392 
L 528.247351 140.929429 
L 538.666186 128.863578 
L 549.085022 118.150197 
L 559.503857 114.191564 
" clip-path="url(#p360947d212)" style="fill: none; stroke: #3fb950; stroke-width: 2; stroke-linecap: square"/>
    <g clip-path="url(#p360947d212)">
     <use xlink:href="#m95f9ef4937" x="512.619097" y="205.399672" style="fill: #3fb950; stroke: #161b22; stroke-width: 1.5"/>
     <use xlink:href="#m95f9ef4937" x="517.828515" y="176.268392" style="fill: #3fb950; stroke: #161b22; stroke-width: 1.5"/>
     <use xlink:href="#m95f9ef4937" x="528.247351" y="140.929429" style="fill: #3fb950; stroke: #161b22; stroke-width: 1.5"/>
     <use xlink:href="#m95f9ef4937" x="538.666186" y="128.863578" style="fill: #3fb950; stroke: #161b22; stroke-width: 1.5"/>
     <use xlink:href="#m95f9ef4937" x="549.085022" y="118.150197" style="fill: #3fb950; stroke: #161b22; stroke-width: 1.5"/>
     <use xlink:href="#m95f9ef4937" x="559.503857" y="114.191564" style="fill: #3fb950; stroke: #161b22; stroke-width: 1.5"/>
    </g>
   </g>
   <g id="legend_2">
    <g id="patch_13">
     <path d="M 647.255465 260.612 
L 711.385465 260.612 
Q 712.985465 260.612 712.985465 259.012 
L 712.985465 224.457 
Q 712.985465 222.857 711.385465 222.857 
L 647.255465 222.857 
Q 645.655465 222.857 645.655465 224.457 
L 645.655465 259.012 
Q 645.655465 260.612 647.255465 260.612 
z
" style="fill: #161b22; opacity: 0.8; stroke: #30363d; stroke-linejoin: miter"/>
    </g>
    <g id="line2d_68">
     <path d="M 648.855465 229.37825 
L 656.855465 229.37825 
L 664.855465 229.37825 
" style="fill: none; stroke: #238636; stroke-opacity: 0.6; stroke-width: 1.5; stroke-linecap: square"/>
    </g>
    <g id="text_41">
     <!-- amdahl -->
     <g style="fill: #8b949e" transform="translate(671.255465 232.17825) scale(0.08 -0.08)">
      <use xlink:href="#DejaVuSansMono-61"/>
      <use xlink:href="#DejaVuSansMono-6d" transform="translate(60.205078 0)"/>
      <use xlink:href="#DejaVuSansMono-64" transform="translate(120.410156 0)"/>
      <use xlink:href="#DejaVuSansMono-61" transform="translate(180.615234 0)"/>
      <use xlink:href="#DejaVuSansMono-68" transform="translate(240.820312 0)"/>
      <use xlink:href="#DejaVuSansMono-6c" transform="translate(301.025391 0)"/>
     </g>
    </g>
    <g id="line2d_69">
     <path d="M 648.855465 241.16325 
L 656.855465 241.16325 
L 664.855465 241.16325 
" style="fill: none; stroke-dasharray: 3.7,1.6; stroke-dashoffset: 0; stroke: #30363d"/>
    </g>
    <g id="text_42">
     <!-- linear -->
     <g style="fill: #8b949e" transform="translate(671.255465 243.96325) scale(0.08 -0.08)">
      <use xlink:href="#DejaVuSansMono-6c"/>
      <use xlink:href="#DejaVuSansMono-69" transform="translate(60.205078 0)"/>
      <use xlink:href="#DejaVuSansMono-6e" transform="translate(120.410156 0)"/>
      <use xlink:href="#DejaVuSansMono-65" transform="translate(180.615234 0)"/>
      <use xlink:href="#DejaVuSansMono-61" transform="translate(240.820312 0)"/>
      <use xlink:href="#DejaVuSansMono-72" transform="translate(301.025391 0)"/>
     </g>
    </g>
    <g id="line2d_70">
     <path d="M 648.855465 252.94825 
L 656.855465 252.94825 
L 664.855465 252.94825 
" style="fill: none; stroke: #3fb950; stroke-width: 2; stroke-linecap: square"/>
     <g>
      <use xlink:href="#m95f9ef4937" x="656.855465" y="252.94825" style="fill: #3fb950; stroke: #161b22; stroke-width: 1.5"/>
     </g>
    </g>
    <g id="text_43">
     <!-- measured -->
     <g style="fill: #8b949e" transform="translate(671.255465 255.74825) scale(0.08 -0.08)">
      <use xlink:href="#DejaVuSansMono-6d"/>
      <use xlink:href="#DejaVuSansMono-65" transform="translate(60.205078 0)"/>
      <use xlink:href="#DejaVuSansMono-61" transform="translate(120.410156 0)"/>
      <use xlink:href="#DejaVuSansMono-73" transform="translate(180.615234 0)"/>
      <use xlink:href="#DejaVuSansMono-75" transform="translate(240.820312 0)"/>
      <use xlink:href="#DejaVuSansMono-72" transform="translate(301.025391 0)"/>
      <use xlink:href="#DejaVuSansMono-65" transform="translate(361.230469 0)"/>
      <use xlink:href="#DejaVuSansMono-64" transform="translate(421.435547 0)"/>
     </g>
    </g>
   </g>
  </g>
  <g id="text_44">
   <!-- tdg  /  core scaling  /  measured + extrapolated -->
   <g style="fill: #8b949e" transform="translate(284.46375 14.851562) scale(0.1 -0.1)">
    <defs>
     <path id="DejaVuSansMono-67" d="M 2681 1778 
Q 2681 2425 2470 2761 
Q 2259 3097 1856 3097 
Q 1434 3097 1212 2761 
Q 991 2425 991 1778 
Q 991 1131 1214 792 
Q 1438 453 1863 453 
Q 2259 453 2470 793 
Q 2681 1134 2681 1778 
z
M 3256 225 
Q 3256 -563 2884 -969 
Q 2513 -1375 1791 -1375 
Q 1553 -1375 1293 -1331 
Q 1034 -1288 775 -1203 
L 775 -634 
Q 1081 -778 1331 -847 
Q 1581 -916 1791 -916 
Q 2256 -916 2468 -662 
Q 2681 -409 2681 141 
L 2681 166 
L 2681 556 
Q 2544 263 2306 119 
Q 2069 -25 1728 -25 
Q 1116 -25 750 465 
Q 384 956 384 1778 
Q 384 2603 750 3093 
Q 1116 3584 1728 3584 
Q 2066 3584 2300 3450 
Q 2534 3316 2681 3034 
L 2681 3488 
L 3256 3488 
L 3256 225 
z
" transform="scale(0.015625)"/>
     <path id="DejaVuSansMono-6f" d="M 1925 3097 
Q 1488 3097 1263 2756 
Q 1038 2416 1038 1747 
Q 1038 1081 1263 739 
Q 1488 397 1925 397 
Q 2366 397 2591 739 
Q 2816 1081 2816 1747 
Q 2816 2416 2591 2756 
Q 2366 3097 1925 3097 
z
M 1925 3584 
Q 2653 3584 3039 3112 
Q 3425 2641 3425 1747 
Q 3425 850 3040 379 
Q 2656 -91 1925 -91 
Q 1197 -91 812 379 
Q 428 850 428 1747 
Q 428 2641 812 3112 
Q 1197 3584 1925 3584 
z
" transform="scale(0.015625)"/>
     <path id="DejaVuSansMono-2b" d="M 2188 3659 
L 2188 2272 
L 3578 2272 
L 3578 1741 
L 2188 1741 
L 2188 353 
L 1663 353 
L 1663 1741 
L 275 1741 
L 275 2272 
L 1663 2272 
L 1663 3659 
L 2188 3659 
z
" transform="scale(0.015625)"/>
     <path id="DejaVuSansMono-78" d="M 3494 3500 
L 2241 1825 
L 3616 0 
L 2950 0 
L 1925 1403 
L 903 0 
L 238 0 
L 1613 1825 
L 359 3500 
L 997 3500 
L 1925 2234 
L 2847 3500 
L 3494 3500 
z
" transform="scale(0.015625)"/>
    </defs>
    <use xlink:href="#DejaVuSansMono-74"/>
    <use xlink:href="#DejaVuSansMono-64" transform="translate(60.205078 0)"/>
    <use xlink:href="#DejaVuSansMono-67" transform="translate(120.410156 0)"/>
    <use xlink:href="#DejaVuSansMono-20" transform="translate(180.615234 0)"/>
    <use xlink:href="#DejaVuSansMono-20" transform="translate(240.820312 0)"/>
    <use xlink:href="#DejaVuSansMono-2f" transform="translate(301.025391 0)"/>
    <use xlink:href="#DejaVuSansMono-20" transform="translate(361.230469 0)"/>
    <use xlink:href="#DejaVuSansMono-20" transform="translate(421.435547 0)"/>
    <use xlink:href="#DejaVuSansMono-63" transform="translate(481.640625 0)"/>
    <use xlink:href="#DejaVuSansMono-6f" transform="translate(541.845703 0)"/>
    <use xlink:href="#DejaVuSansMono-72" transform="translate(602.050781 0)"/>
    <use xlink:href="#DejaVuSansMono-65" transform="translate(662.255859 0)"/>
    <use xlink:href="#DejaVuSansMono-20" transform="translate(722.460938 0)"/>
    <use xlink:href="#DejaVuSansMono-73" transform="translate(782.666016 0)"/>
    <use xlink:href="#DejaVuSansMono-63" transform="translate(842.871094 0)"/>
    <use xlink:href="#DejaVuSansMono-61" transform="translate(903.076172 0)"/>
    <use xlink:href="#DejaVuSansMono-6c" transform="translate(963.28125 0)"/>
    <use xlink:href="#DejaVuSansMono-69" transform="translate(1023.486328 0)"/>
    <use xlink:href="#DejaVuSansMono-6e" transform="translate(1083.691406 0)"/>
    <use xlink:href="#DejaVuSansMono-67" transform="translate(1143.896484 0)"/>
    <use xlink:href="#DejaVuSansMono-20" transform="translate(1204.101562 0)"/>
    <use xlink:href="#DejaVuSansMono-20" transform="translate(1264.306641 0)"/>
    <use xlink:href="#DejaVuSansMono-2f" transform="translate(1324.511719 0)"/>
    <use xlink:href="#DejaVuSansMono-20" transform="translate(1384.716797 0)"/>
    <use xlink:href="#DejaVuSansMono-20" transform="translate(1444.921875 0)"/>
    <use xlink:href="#DejaVuSansMono-6d" transform="translate(1505.126953 0)"/>
    <use xlink:href="#DejaVuSansMono-65" transform="translate(1565.332031 0)"/>
    <use xlink:href="#DejaVuSansMono-61" transform="translate(1625.537109 0)"/>
    <use xlink:href="#DejaVuSansMono-73" transform="translate(1685.742188 0)"/>
    <use xlink:href="#DejaVuSansMono-75" transform="translate(1745.947266 0)"/>
    <use xlink:href="#DejaVuSansMono-72" transform="translate(1806.152344 0)"/>
    <use xlink:href="#DejaVuSansMono-65" transform="translate(1866.357422 0)"/>
    <use xlink:href="#DejaVuSansMono-64" transform="translate(1926.5625 0)"/>
    <use xlink:href="#DejaVuSansMono-20" transform="translate(1986.767578 0)"/>
    <use xlink:href="#DejaVuSansMono-2b" transform="translate(2046.972656 0)"/>
    <use xlink:href="#DejaVuSansMono-20" transform="translate(2107.177734 0)"/>
    <use xlink:href="#DejaVuSansMono-65" transform="translate(2167.382812 0)"/>
    <use xlink:href="#DejaVuSansMono-78" transform="translate(2227.587891 0)"/>
    <use xlink:href="#DejaVuSansMono-74" transform="translate(2287.792969 0)"/>
    <use xlink:href="#DejaVuSansMono-72" transform="translate(2347.998047 0)"/>
    <use xlink:href="#DejaVuSansMono-61" transform="translate(2408.203125 0)"/>
    <use xlink:href="#DejaVuSansMono-70" transform="translate(2468.408203 0)"/>
    <use xlink:href="#DejaVuSansMono-6f" transform="translate(2528.613281 0)"/>
    <use xlink:href="#DejaVuSansMono-6c" transform="translate(2588.818359 0)"/>
    <use xlink:href="#DejaVuSansMono-61" transform="translate(2649.023438 0)"/>
    <use xlink:href="#DejaVuSansMono-74" transform="translate(2709.228516 0)"/>
    <use xlink:href="#DejaVuSansMono-65" transform="translate(2769.433594 0)"/>
    <use xlink:href="#DejaVuSansMono-64" transform="translate(2829.638672 0)"/>
   </g>
  </g>
 </g>
 <defs>
  <clipPath id="p3d4a1cac17">
   <rect x="48.13125" y="62.432" width="343.82157" height="202.18"/>
  </clipPath>
  <clipPath id="p360947d212">
   <rect x="507.40968" y="62.432" width="343.82157" height="202.18"/>
  </clipPath>
 </defs>
</svg>
