<?xml version="1.0" encoding="utf-8" standalone="no"?>
<!DOCTYPE svg PUBLIC "-//W3C//DTD SVG 1.1//EN"
  "http://www.w3.org/Graphics/SVG/1.1/DTD/svg11.dtd">
<svg xmlns:xlink="http://www.w3.org/1999/xlink" width="1000.805938pt" height="406.964063pt" viewBox="0 0 1000.805938 406.964063" xmlns="http://www.w3.org/2000/svg" version="1.1">
 <metadata>
  <rdf:RDF xmlns:dc="http://purl.org/dc/elements/1.1/" xmlns:cc="http://creativecommons.org/ns#" xmlns:rdf="http://www.w3.org/1999/02/22-rdf-syntax-ns#">
   <cc:Work>
    <dc:type rdf:resource="http://purl.org/dc/dcmitype/StillImage"/>
    <dc:date>2026-04-07T23:25:25.553161</dc:date>
    <dc:format>image/svg+xml</dc:format>
    <dc:creator>
     <cc:Agent>
      <dc:title>Matplotlib v3.10.8, https://matplotlib.org/</dc:title>
     </cc:Agent>
    </dc:creator>
   </cc:Work>
  </rdf:RDF>
 </metadata>
 <defs>
  <style type="text/css">*{stroke-linejoin: round; stroke-linecap: butt}</style>
 </defs>
 <g id="figure_1">
  <g id="patch_1">
   <path d="M 0 406.964063 
L 1000.805938 406.964063 
L 1000.805938 -0 
L 0 -0 
z
" style="fill: #0d1117"/>
  </g>
  <g id="axes_1">
   <g id="patch_2">
    <path d="M 54.295938 368.44 
L 480.051103 368.44 
L 480.051103 67.92 
L 54.295938 67.92 
z
" style="fill: #161b22"/>
   </g>
   <g id="matplotlib.axis_1">
    <g id="xtick_1">
     <g id="line2d_1">
      <defs>
       <path id="m32ea3b698b" d="M 0 0 
L 0 3.5 
" style="stroke: #8b949e; stroke-width: 0.8"/>
      </defs>
      <g>
       <use xlink:href="#m32ea3b698b" x="54.295938" y="368.44" style="fill: #8b949e; stroke: #8b949e; stroke-width: 0.8"/>
      </g>
     </g>
     <g id="text_1">
      <!-- 0 -->
      <g style="fill: #8b949e" transform="translate(51.114688 383.038437) scale(0.1 -0.1)">
       <defs>
        <path id="DejaVuSans-30" d="M 2034 4250 
Q 1547 4250 1301 3770 
Q 1056 3291 1056 2328 
Q 1056 1369 1301 889 
Q 1547 409 2034 409 
Q 2525 409 2770 889 
Q 3016 1369 3016 2328 
Q 3016 3291 2770 3770 
Q 2525 4250 2034 4250 
z
M 2034 4750 
Q 2819 4750 3233 4129 
Q 3647 3509 3647 2328 
Q 3647 1150 3233 529 
Q 2819 -91 2034 -91 
Q 1250 -91 836 529 
Q 422 1150 422 2328 
Q 422 3509 836 4129 
Q 1250 4750 2034 4750 
z
" transform="scale(0.015625)"/>
       </defs>
       <use xlink:href="#DejaVuSans-30"/>
      </g>
     </g>
    </g>
    <g id="xtick_2">
     <g id="line2d_2">
      <g>
       <use xlink:href="#m32ea3b698b" x="118.804296" y="368.44" style="fill: #8b949e; stroke: #8b949e; stroke-width: 0.8"/>
      </g>
     </g>
     <g id="text_2">
      <!-- 10 -->
      <g style="fill: #8b949e" transform="translate(112.441796 383.038437) scale(0.1 -0.1)">
       <defs>
        <path id="DejaVuSans-31" d="M 794 531 
L 1825 531 
L 1825 4091 
L 703 3866 
L 703 4441 
L 1819 4666 
L 2450 4666 
L 2450 531 
L 3481 531 
L 3481 0 
L 794 0 
L 794 531 
z
" transform="scale(0.015625)"/>
       </defs>
       <use xlink:href="#DejaVuSans-31"/>
       <use xlink:href="#DejaVuSans-30" transform="translate(63.623047 0)"/>
      </g>
     </g>
    </g>
    <g id="xtick_3">
     <g id="line2d_3">
      <g>
       <use xlink:href="#m32ea3b698b" x="183.312654" y="368.44" style="fill: #8b949e; stroke: #8b949e; stroke-width: 0.8"/>
      </g>
     </g>
     <g id="text_3">
      <!-- 20 -->
      <g style="fill: #8b949e" transform="translate(176.950154 383.038437) scale(0.1 -0.1)">
       <defs>
        <path id="DejaVuSans-32" d="M 1228 531 
L 3431 531 
L 3431 0 
L 469 0 
L 469 531 
Q 828 903 1448 1529 
Q 2069 2156 2228 2338 
Q 2531 2678 2651 2914 
Q 2772 3150 2772 3378 
Q 2772 3750 2511 3984 
Q 2250 4219 1831 4219 
Q 1534 4219 1204 4116 
Q 875 4013 500 3803 
L 500 4441 
Q 881 4594 1212 4672 
Q 1544 4750 1819 4750 
Q 2544 4750 2975 4387 
Q 3406 4025 3406 3419 
Q 3406 3131 3298 2873 
Q 3191 2616 2906 2266 
Q 2828 2175 2409 1742 
Q 1991 1309 1228 531 
z
" transform="scale(0.015625)"/>
       </defs>
       <use xlink:href="#DejaVuSans-32"/>
       <use xlink:href="#DejaVuSans-30" transform="translate(63.623047 0)"/>
      </g>
     </g>
    </g>
    <g id="xtick_4">
     <g id="line2d_4">
      <g>
       <use xlink:href="#m32ea3b698b" x="247.821013" y="368.44" style="fill: #8b949e; stroke: #8b949e; stroke-width: 0.8"/>
      </g>
     </g>
     <g id="text_4">
      <!-- 30 -->
      <g style="fill: #8b949e" transform="translate(241.458513 383.038437) scale(0.1 -0.1)">
       <defs>
        <path id="DejaVuSans-33" d="M 2597 2516 
Q 3050 2419 3304 2112 
Q 3559 1806 3559 1356 
Q 3559 666 3084 287 
Q 2609 -91 1734 -91 
Q 1441 -91 1130 -33 
Q 819 25 488 141 
L 488 750 
Q 750 597 1062 519 
Q 1375 441 1716 441 
Q 2309 441 2620 675 
Q 2931 909 2931 1356 
Q 2931 1769 2642 2001 
Q 2353 2234 1838 2234 
L 1294 2234 
L 1294 2753 
L 1863 2753 
Q 2328 2753 2575 2939 
Q 2822 3125 2822 3475 
Q 2822 3834 2567 4026 
Q 2313 4219 1838 4219 
Q 1578 4219 1281 4162 
Q 984 4106 628 3988 
L 628 4550 
Q 988 4650 1302 4700 
Q 1616 4750 1894 4750 
Q 2613 4750 3031 4423 
Q 3450 4097 3450 3541 
Q 3450 3153 3228 2886 
Q 3006 2619 2597 2516 
z
" transform="scale(0.015625)"/>
       </defs>
       <use xlink:href="#DejaVuSans-33"/>
       <use xlink:href="#DejaVuSans-30" transform="translate(63.623047 0)"/>
      </g>
     </g>
    </g>
    <g id="xtick_5">
     <g id="line2d_5">
      <g>
       <use xlink:href="#m32ea3b698b" x="312.329371" y="368.44" style="fill: #8b949e; stroke: #8b949e; stroke-width: 0.8"/>
      </g>
     </g>
     <g id="text_5">
      <!-- 40 -->
      <g style="fill: #8b949e" transform="translate(305.966871 383.038437) scale(0.1 -0.1)">
       <defs>
        <path id="DejaVuSans-34" d="M 2419 4116 
L 825 1625 
L 2419 1625 
L 2419 4116 
z
M 2253 4666 
L 3047 4666 
L 3047 1625 
L 3713 1625 
L 3713 1100 
L 3047 1100 
L 3047 0 
L 2419 0 
L 2419 1100 
L 313 1100 
L 313 1709 
L 2253 4666 
z
" transform="scale(0.015625)"/>
       </defs>
       <use xlink:href="#DejaVuSans-34"/>
       <use xlink:href="#DejaVuSans-30" transform="translate(63.623047 0)"/>
      </g>
     </g>
    </g>
    <g id="xtick_6">
     <g id="line2d_6">
      <g>
       <use xlink:href="#m32ea3b698b" x="376.837729" y="368.44" style="fill: #8b949e; stroke: #8b949e; stroke-width: 0.8"/>
      </g>
     </g>
     <g id="text_6">
      <!-- 50 -->
      <g style="fill: #8b949e" transform="translate(370.475229 383.038437) scale(0.1 -0.1)">
       <defs>
        <path id="DejaVuSans-35" d="M 691 4666 
L 3169 4666 
L 3169 4134 
L 1269 4134 
L 1269 2991 
Q 1406 3038 1543 3061 
Q 1681 3084 1819 3084 
Q 2600 3084 3056 2656 
Q 3513 2228 3513 1497 
Q 3513 744 3044 326 
Q 2575 -91 1722 -91 
Q 1428 -91 1123 -41 
Q 819 9 494 109 
L 494 744 
Q 775 591 1075 516 
Q 1375 441 1709 441 
Q 2250 441 2565 725 
Q 2881 1009 2881 1497 
Q 2881 1984 2565 2268 
Q 2250 2553 1709 2553 
Q 1456 2553 1204 2497 
Q 953 2441 691 2322 
L 691 4666 
z
" transform="scale(0.015625)"/>
       </defs>
       <use xlink:href="#DejaVuSans-35"/>
       <use xlink:href="#DejaVuSans-30" transform="translate(63.623047 0)"/>
      </g>
     </g>
    </g>
    <g id="xtick_7">
     <g id="line2d_7">
      <g>
       <use xlink:href="#m32ea3b698b" x="441.346088" y="368.44" style="fill: #8b949e; stroke: #8b949e; stroke-width: 0.8"/>
      </g>
     </g>
     <g id="text_7">
      <!-- 60 -->
      <g style="fill: #8b949e" transform="translate(434.983588 383.038437) scale(0.1 -0.1)">
       <defs>
        <path id="DejaVuSans-36" d="M 2113 2584 
Q 1688 2584 1439 2293 
Q 1191 2003 1191 1497 
Q 1191 994 1439 701 
Q 1688 409 2113 409 
Q 2538 409 2786 701 
Q 3034 994 3034 1497 
Q 3034 2003 2786 2293 
Q 2538 2584 2113 2584 
z
M 3366 4563 
L 3366 3988 
Q 3128 4100 2886 4159 
Q 2644 4219 2406 4219 
Q 1781 4219 1451 3797 
Q 1122 3375 1075 2522 
Q 1259 2794 1537 2939 
Q 1816 3084 2150 3084 
Q 2853 3084 3261 2657 
Q 3669 2231 3669 1497 
Q 3669 778 3244 343 
Q 2819 -91 2113 -91 
Q 1303 -91 875 529 
Q 447 1150 447 2328 
Q 447 3434 972 4092 
Q 1497 4750 2381 4750 
Q 2619 4750 2861 4703 
Q 3103 4656 3366 4563 
z
" transform="scale(0.015625)"/>
       </defs>
       <use xlink:href="#DejaVuSans-36"/>
       <use xlink:href="#DejaVuSans-30" transform="translate(63.623047 0)"/>
      </g>
     </g>
    </g>
    <g id="text_8">
     <!-- Threads -->
     <g style="fill: #8b949e" transform="translate(245.079848 397.476406) scale(0.11 -0.11)">
      <defs>
       <path id="DejaVuSans-54" d="M -19 4666 
L 3928 4666 
L 3928 4134 
L 2272 4134 
L 2272 0 
L 1638 0 
L 1638 4134 
L -19 4134 
L -19 4666 
z
" transform="scale(0.015625)"/>
       <path id="DejaVuSans-68" d="M 3513 2113 
L 3513 0 
L 2938 0 
L 2938 2094 
Q 2938 2591 2744 2837 
Q 2550 3084 2163 3084 
Q 1697 3084 1428 2787 
Q 1159 2491 1159 1978 
L 1159 0 
L 581 0 
L 581 4863 
L 1159 4863 
L 1159 2956 
Q 1366 3272 1645 3428 
Q 1925 3584 2291 3584 
Q 2894 3584 3203 3211 
Q 3513 2838 3513 2113 
z
" transform="scale(0.015625)"/>
       <path id="DejaVuSans-72" d="M 2631 2963 
Q 2534 3019 2420 3045 
Q 2306 3072 2169 3072 
Q 1681 3072 1420 2755 
Q 1159 2438 1159 1844 
L 1159 0 
L 581 0 
L 581 3500 
L 1159 3500 
L 1159 2956 
Q 1341 3275 1631 3429 
Q 1922 3584 2338 3584 
Q 2397 3584 2469 3576 
Q 2541 3569 2628 3553 
L 2631 2963 
z
" transform="scale(0.015625)"/>
       <path id="DejaVuSans-65" d="M 3597 1894 
L 3597 1613 
L 953 1613 
Q 991 1019 1311 708 
Q 1631 397 2203 397 
Q 2534 397 2845 478 
Q 3156 559 3463 722 
L 3463 178 
Q 3153 47 2828 -22 
Q 2503 -91 2169 -91 
Q 1331 -91 842 396 
Q 353 884 353 1716 
Q 353 2575 817 3079 
Q 1281 3584 2069 3584 
Q 2775 3584 3186 3129 
Q 3597 2675 3597 1894 
z
M 3022 2063 
Q 3016 2534 2758 2815 
Q 2500 3097 2075 3097 
Q 1594 3097 1305 2825 
Q 1016 2553 972 2059 
L 3022 2063 
z
" transform="scale(0.015625)"/>
       <path id="DejaVuSans-61" d="M 2194 1759 
Q 1497 1759 1228 1600 
Q 959 1441 959 1056 
Q 959 750 1161 570 
Q 1363 391 1709 391 
Q 2188 391 2477 730 
Q 2766 1069 2766 1631 
L 2766 1759 
L 2194 1759 
z
M 3341 1997 
L 3341 0 
L 2766 0 
L 2766 531 
Q 2569 213 2275 61 
Q 1981 -91 1556 -91 
Q 1019 -91 701 211 
Q 384 513 384 1019 
Q 384 1609 779 1909 
Q 1175 2209 1959 2209 
L 2766 2209 
L 2766 2266 
Q 2766 2663 2505 2880 
Q 2244 3097 1772 3097 
Q 1472 3097 1187 3025 
Q 903 2953 641 2809 
L 641 3341 
Q 956 3463 1253 3523 
Q 1550 3584 1831 3584 
Q 2591 3584 2966 3190 
Q 3341 2797 3341 1997 
z
" transform="scale(0.015625)"/>
       <path id="DejaVuSans-64" d="M 2906 2969 
L 2906 4863 
L 3481 4863 
L 3481 0 
L 2906 0 
L 2906 525 
Q 2725 213 2448 61 
Q 2172 -91 1784 -91 
Q 1150 -91 751 415 
Q 353 922 353 1747 
Q 353 2572 751 3078 
Q 1150 3584 1784 3584 
Q 2172 3584 2448 3432 
Q 2725 3281 2906 2969 
z
M 947 1747 
Q 947 1113 1208 752 
Q 1469 391 1925 391 
Q 2381 391 2643 752 
Q 2906 1113 2906 1747 
Q 2906 2381 2643 2742 
Q 2381 3103 1925 3103 
Q 1469 3103 1208 2742 
Q 947 2381 947 1747 
z
" transform="scale(0.015625)"/>
       <path id="DejaVuSans-73" d="M 2834 3397 
L 2834 2853 
Q 2591 2978 2328 3040 
Q 2066 3103 1784 3103 
Q 1356 3103 1142 2972 
Q 928 2841 928 2578 
Q 928 2378 1081 2264 
Q 1234 2150 1697 2047 
L 1894 2003 
Q 2506 1872 2764 1633 
Q 3022 1394 3022 966 
Q 3022 478 2636 193 
Q 2250 -91 1575 -91 
Q 1294 -91 989 -36 
Q 684 19 347 128 
L 347 722 
Q 666 556 975 473 
Q 1284 391 1588 391 
Q 1994 391 2212 530 
Q 2431 669 2431 922 
Q 2431 1156 2273 1281 
Q 2116 1406 1581 1522 
L 1381 1569 
Q 847 1681 609 1914 
Q 372 2147 372 2553 
Q 372 3047 722 3315 
Q 1072 3584 1716 3584 
Q 2034 3584 2315 3537 
Q 2597 3491 2834 3397 
z
" transform="scale(0.015625)"/>
      </defs>
      <use xlink:href="#DejaVuSans-54"/>
      <use xlink:href="#DejaVuSans-68" transform="translate(61.083984 0)"/>
      <use xlink:href="#DejaVuSans-72" transform="translate(124.462891 0)"/>
      <use xlink:href="#DejaVuSans-65" transform="translate(163.326172 0)"/>
      <use xlink:href="#DejaVuSans-61" transform="translate(224.849609 0)"/>
      <use xlink:href="#DejaVuSans-64" transform="translate(286.128906 0)"/>
      <use xlink:href="#DejaVuSans-73" transform="translate(349.605469 0)"/>
     </g>
    </g>
   </g>
   <g id="matplotlib.axis_2">
    <g id="ytick_1">
     <g id="line2d_8">
      <defs>
       <path id="mcac7bba4f7" d="M 0 0 
L -3.5 0 
" style="stroke: #8b949e; stroke-width: 0.8"/>
      </defs>
      <g>
       <use xlink:href="#mcac7bba4f7" x="54.295938" y="368.44" style="fill: #8b949e; stroke: #8b949e; stroke-width: 0.8"/>
      </g>
     </g>
     <g id="text_9">
      <!-- 0 -->
      <g style="fill: #8b949e" transform="translate(40.933438 372.239219) scale(0.1 -0.1)">
       <use xlink:href="#DejaVuSans-30"/>
      </g>
     </g>
    </g>
    <g id="ytick_2">
     <g id="line2d_9">
      <g>
       <use xlink:href="#mcac7bba4f7" x="54.295938" y="312.137821" style="fill: #8b949e; stroke: #8b949e; stroke-width: 0.8"/>
      </g>
     </g>
     <g id="text_10">
      <!-- 500 -->
      <g style="fill: #8b949e" transform="translate(28.208438 315.93704) scale(0.1 -0.1)">
       <use xlink:href="#DejaVuSans-35"/>
       <use xlink:href="#DejaVuSans-30" transform="translate(63.623047 0)"/>
       <use xlink:href="#DejaVuSans-30" transform="translate(127.246094 0)"/>
      </g>
     </g>
    </g>
    <g id="ytick_3">
     <g id="line2d_10">
      <g>
       <use xlink:href="#mcac7bba4f7" x="54.295938" y="255.835643" style="fill: #8b949e; stroke: #8b949e; stroke-width: 0.8"/>
      </g>
     </g>
     <g id="text_11">
      <!-- 1000 -->
      <g style="fill: #8b949e" transform="translate(21.845938 259.634861) scale(0.1 -0.1)">
       <use xlink:href="#DejaVuSans-31"/>
       <use xlink:href="#DejaVuSans-30" transform="translate(63.623047 0)"/>
       <use xlink:href="#DejaVuSans-30" transform="translate(127.246094 0)"/>
       <use xlink:href="#DejaVuSans-30" transform="translate(190.869141 0)"/>
      </g>
     </g>
    </g>
    <g id="ytick_4">
     <g id="line2d_11">
      <g>
       <use xlink:href="#mcac7bba4f7" x="54.295938" y="199.533464" style="fill: #8b949e; stroke: #8b949e; stroke-width: 0.8"/>
      </g>
     </g>
     <g id="text_12">
      <!-- 1500 -->
      <g style="fill: #8b949e" transform="translate(21.845938 203.332683) scale(0.1 -0.1)">
       <use xlink:href="#DejaVuSans-31"/>
       <use xlink:href="#DejaVuSans-35" transform="translate(63.623047 0)"/>
       <use xlink:href="#DejaVuSans-30" transform="translate(127.246094 0)"/>
       <use xlink:href="#DejaVuSans-30" transform="translate(190.869141 0)"/>
      </g>
     </g>
    </g>
    <g id="ytick_5">
     <g id="line2d_12">
      <g>
       <use xlink:href="#mcac7bba4f7" x="54.295938" y="143.231285" style="fill: #8b949e; stroke: #8b949e; stroke-width: 0.8"/>
      </g>
     </g>
     <g id="text_13">
      <!-- 2000 -->
      <g style="fill: #8b949e" transform="translate(21.845938 147.030504) scale(0.1 -0.1)">
       <use xlink:href="#DejaVuSans-32"/>
       <use xlink:href="#DejaVuSans-30" transform="translate(63.623047 0)"/>
       <use xlink:href="#DejaVuSans-30" transform="translate(127.246094 0)"/>
       <use xlink:href="#DejaVuSans-30" transform="translate(190.869141 0)"/>
      </g>
     </g>
    </g>
    <g id="ytick_6">
     <g id="line2d_13">
      <g>
       <use xlink:href="#mcac7bba4f7" x="54.295938" y="86.929107" style="fill: #8b949e; stroke: #8b949e; stroke-width: 0.8"/>
      </g>
     </g>
     <g id="text_14">
      <!-- 2500 -->
      <g style="fill: #8b949e" transform="translate(21.845938 90.728325) scale(0.1 -0.1)">
       <use xlink:href="#DejaVuSans-32"/>
       <use xlink:href="#DejaVuSans-35" transform="translate(63.623047 0)"/>
       <use xlink:href="#DejaVuSans-30" transform="translate(127.246094 0)"/>
       <use xlink:href="#DejaVuSans-30" transform="translate(190.869141 0)"/>
      </g>
     </g>
    </g>
    <g id="text_15">
     <!-- Throughput (MB/s) -->
     <g style="fill: #8b949e" transform="translate(15.558281 269.400469) rotate(-90) scale(0.11 -0.11)">
      <defs>
       <path id="DejaVuSans-6f" d="M 1959 3097 
Q 1497 3097 1228 2736 
Q 959 2375 959 1747 
Q 959 1119 1226 758 
Q 1494 397 1959 397 
Q 2419 397 2687 759 
Q 2956 1122 2956 1747 
Q 2956 2369 2687 2733 
Q 2419 3097 1959 3097 
z
M 1959 3584 
Q 2709 3584 3137 3096 
Q 3566 2609 3566 1747 
Q 3566 888 3137 398 
Q 2709 -91 1959 -91 
Q 1206 -91 779 398 
Q 353 888 353 1747 
Q 353 2609 779 3096 
Q 1206 3584 1959 3584 
z
" transform="scale(0.015625)"/>
       <path id="DejaVuSans-75" d="M 544 1381 
L 544 3500 
L 1119 3500 
L 1119 1403 
Q 1119 906 1312 657 
Q 1506 409 1894 409 
Q 2359 409 2629 706 
Q 2900 1003 2900 1516 
L 2900 3500 
L 3475 3500 
L 3475 0 
L 2900 0 
L 2900 538 
Q 2691 219 2414 64 
Q 2138 -91 1772 -91 
Q 1169 -91 856 284 
Q 544 659 544 1381 
z
M 1991 3584 
L 1991 3584 
z
" transform="scale(0.015625)"/>
       <path id="DejaVuSans-67" d="M 2906 1791 
Q 2906 2416 2648 2759 
Q 2391 3103 1925 3103 
Q 1463 3103 1205 2759 
Q 947 2416 947 1791 
Q 947 1169 1205 825 
Q 1463 481 1925 481 
Q 2391 481 2648 825 
Q 2906 1169 2906 1791 
z
M 3481 434 
Q 3481 -459 3084 -895 
Q 2688 -1331 1869 -1331 
Q 1566 -1331 1297 -1286 
Q 1028 -1241 775 -1147 
L 775 -588 
Q 1028 -725 1275 -790 
Q 1522 -856 1778 -856 
Q 2344 -856 2625 -561 
Q 2906 -266 2906 331 
L 2906 616 
Q 2728 306 2450 153 
Q 2172 0 1784 0 
Q 1141 0 747 490 
Q 353 981 353 1791 
Q 353 2603 747 3093 
Q 1141 3584 1784 3584 
Q 2172 3584 2450 3431 
Q 2728 3278 2906 2969 
L 2906 3500 
L 3481 3500 
L 3481 434 
z
" transform="scale(0.015625)"/>
       <path id="DejaVuSans-70" d="M 1159 525 
L 1159 -1331 
L 581 -1331 
L 581 3500 
L 1159 3500 
L 1159 2969 
Q 1341 3281 1617 3432 
Q 1894 3584 2278 3584 
Q 2916 3584 3314 3078 
Q 3713 2572 3713 1747 
Q 3713 922 3314 415 
Q 2916 -91 2278 -91 
Q 1894 -91 1617 61 
Q 1341 213 1159 525 
z
M 3116 1747 
Q 3116 2381 2855 2742 
Q 2594 3103 2138 3103 
Q 1681 3103 1420 2742 
Q 1159 2381 1159 1747 
Q 1159 1113 1420 752 
Q 1681 391 2138 391 
Q 2594 391 2855 752 
Q 3116 1113 3116 1747 
z
" transform="scale(0.015625)"/>
       <path id="DejaVuSans-74" d="M 1172 4494 
L 1172 3500 
L 2356 3500 
L 2356 3053 
L 1172 3053 
L 1172 1153 
Q 1172 725 1289 603 
Q 1406 481 1766 481 
L 2356 481 
L 2356 0 
L 1766 0 
Q 1100 0 847 248 
Q 594 497 594 1153 
L 594 3053 
L 172 3053 
L 172 3500 
L 594 3500 
L 594 4494 
L 1172 4494 
z
" transform="scale(0.015625)"/>
       <path id="DejaVuSans-20" transform="scale(0.015625)"/>
       <path id="DejaVuSans-28" d="M 1984 4856 
Q 1566 4138 1362 3434 
Q 1159 2731 1159 2009 
Q 1159 1288 1364 580 
Q 1569 -128 1984 -844 
L 1484 -844 
Q 1016 -109 783 600 
Q 550 1309 550 2009 
Q 550 2706 781 3412 
Q 1013 4119 1484 4856 
L 1984 4856 
z
" transform="scale(0.015625)"/>
       <path id="DejaVuSans-4d" d="M 628 4666 
L 1569 4666 
L 2759 1491 
L 3956 4666 
L 4897 4666 
L 4897 0 
L 4281 0 
L 4281 4097 
L 3078 897 
L 2444 897 
L 1241 4097 
L 1241 0 
L 628 0 
L 628 4666 
z
" transform="scale(0.015625)"/>
       <path id="DejaVuSans-42" d="M 1259 2228 
L 1259 519 
L 2272 519 
Q 2781 519 3026 730 
Q 3272 941 3272 1375 
Q 3272 1813 3026 2020 
Q 2781 2228 2272 2228 
L 1259 2228 
z
M 1259 4147 
L 1259 2741 
L 2194 2741 
Q 2656 2741 2882 2914 
Q 3109 3088 3109 3444 
Q 3109 3797 2882 3972 
Q 2656 4147 2194 4147 
L 1259 4147 
z
M 628 4666 
L 2241 4666 
Q 2963 4666 3353 4366 
Q 3744 4066 3744 3513 
Q 3744 3084 3544 2831 
Q 3344 2578 2956 2516 
Q 3422 2416 3680 2098 
Q 3938 1781 3938 1306 
Q 3938 681 3513 340 
Q 3088 0 2303 0 
L 628 0 
L 628 4666 
z
" transform="scale(0.015625)"/>
       <path id="DejaVuSans-2f" d="M 1625 4666 
L 2156 4666 
L 531 -594 
L 0 -594 
L 1625 4666 
z
" transform="scale(0.015625)"/>
       <path id="DejaVuSans-29" d="M 513 4856 
L 1013 4856 
Q 1481 4119 1714 3412 
Q 1947 2706 1947 2009 
Q 1947 1309 1714 600 
Q 1481 -109 1013 -844 
L 513 -844 
Q 928 -128 1133 580 
Q 1338 1288 1338 2009 
Q 1338 2731 1133 3434 
Q 928 4138 513 4856 
z
" transform="scale(0.015625)"/>
      </defs>
      <use xlink:href="#DejaVuSans-54"/>
      <use xlink:href="#DejaVuSans-68" transform="translate(61.083984 0)"/>
      <use xlink:href="#DejaVuSans-72" transform="translate(124.462891 0)"/>
      <use xlink:href="#DejaVuSans-6f" transform="translate(163.326172 0)"/>
      <use xlink:href="#DejaVuSans-75" transform="translate(224.507812 0)"/>
      <use xlink:href="#DejaVuSans-67" transform="translate(287.886719 0)"/>
      <use xlink:href="#DejaVuSans-68" transform="translate(351.363281 0)"/>
      <use xlink:href="#DejaVuSans-70" transform="translate(414.742188 0)"/>
      <use xlink:href="#DejaVuSans-75" transform="translate(478.21875 0)"/>
      <use xlink:href="#DejaVuSans-74" transform="translate(541.597656 0)"/>
      <use xlink:href="#DejaVuSans-20" transform="translate(580.806641 0)"/>
      <use xlink:href="#DejaVuSans-28" transform="translate(612.59375 0)"/>
      <use xlink:href="#DejaVuSans-4d" transform="translate(651.607422 0)"/>
      <use xlink:href="#DejaVuSans-42" transform="translate(737.886719 0)"/>
      <use xlink:href="#DejaVuSans-2f" transform="translate(806.490234 0)"/>
      <use xlink:href="#DejaVuSans-73" transform="translate(840.181641 0)"/>
      <use xlink:href="#DejaVuSans-29" transform="translate(892.28125 0)"/>
     </g>
    </g>
   </g>
   <g id="line2d_14">
    <path d="M 60.746773 281.61078 
L 67.197609 237.046859 
L 73.648445 209.928981 
L 80.099281 191.689445 
L 86.550117 178.581466 
L 93.000953 168.706525 
L 99.451788 160.999811 
L 105.902624 154.817854 
L 112.35346 149.748884 
L 118.804296 145.517154 
L 125.255132 141.931057 
L 131.705968 138.85331 
L 138.156803 136.182974 
L 144.607639 133.844177 
L 151.058475 131.778784 
L 157.509311 129.9415 
L 163.960147 128.296513 
L 170.410983 126.815135 
L 176.861818 125.474114 
L 183.312654 124.254404 
L 189.76349 123.140257 
L 196.214326 122.118536 
L 202.665162 121.178199 
L 209.115998 120.309894 
L 215.566833 119.50565 
L 222.017669 118.75863 
L 228.468505 118.062936 
L 234.919341 117.413454 
L 241.370177 116.805727 
L 247.821013 116.235855 
L 254.271848 115.700407 
L 260.722684 115.196355 
L 267.17352 114.721017 
L 273.624356 114.272008 
L 280.075192 113.847198 
L 286.526028 113.444682 
L 292.976863 113.062751 
L 299.427699 112.699865 
L 305.878535 112.354633 
L 312.329371 112.025799 
L 318.780207 111.712221 
L 325.231043 111.412861 
L 331.681879 111.126774 
L 338.132714 110.853096 
L 344.58355 110.591037 
L 351.034386 110.339873 
L 357.485222 110.098938 
L 363.936058 109.867619 
L 370.386894 109.645352 
L 376.837729 109.431616 
L 383.288565 109.225928 
L 389.739401 109.027844 
L 396.190237 108.836949 
L 402.641073 108.652858 
L 409.091909 108.475214 
L 415.542744 108.303684 
L 421.99358 108.137958 
L 428.444416 107.977746 
L 434.895252 107.822778 
L 441.346088 107.6728 
L 447.796924 107.527575 
L 454.247759 107.38688 
L 460.698595 107.250508 
L 467.149431 107.118261 
" clip-path="url(#pfe4c33f453)" style="fill: none; stroke: #388e3c; stroke-opacity: 0.5; stroke-width: 1.5; stroke-linecap: square"/>
   </g>
   <g id="line2d_15">
    <path d="M 60.746773 281.61078 
L 67.197609 194.78156 
L 73.648445 107.95234 
L 80.099281 21.12312 
L 81.742882 -1 
" clip-path="url(#pfe4c33f453)" style="fill: none; stroke-dasharray: 3.7,1.6; stroke-dashoffset: 0; stroke: #1f6feb; stroke-opacity: 0.3"/>
   </g>
   <g id="line2d_16">
    <path d="M 118.804296 368.44 
L 118.804296 67.92 
" clip-path="url(#pfe4c33f453)" style="fill: none; stroke-dasharray: 1,1.65; stroke-dashoffset: 0; stroke: #f0883e; stroke-opacity: 0.5"/>
   </g>
   <g id="patch_3">
    <path d="M 54.295938 368.44 
L 54.295938 67.92 
" style="fill: none; stroke: #30363d; stroke-width: 0.8; stroke-linejoin: miter; stroke-linecap: square"/>
   </g>
   <g id="patch_4">
    <path d="M 54.295938 368.44 
L 480.051103 368.44 
" style="fill: none; stroke: #30363d; stroke-width: 0.8; stroke-linejoin: miter; stroke-linecap: square"/>
   </g>
   <g id="text_16">
    <!-- extrapolated  → -->
    <g style="fill: #f0883e; opacity: 0.7" transform="translate(125.255132 256.978577) scale(0.09 -0.09)">
     <defs>
      <path id="DejaVuSans-78" d="M 3513 3500 
L 2247 1797 
L 3578 0 
L 2900 0 
L 1881 1375 
L 863 0 
L 184 0 
L 1544 1831 
L 300 3500 
L 978 3500 
L 1906 2253 
L 2834 3500 
L 3513 3500 
z
" transform="scale(0.015625)"/>
      <path id="DejaVuSans-6c" d="M 603 4863 
L 1178 4863 
L 1178 0 
L 603 0 
L 603 4863 
z
" transform="scale(0.015625)"/>
      <path id="DejaVuSans-2192" d="M 5050 2147 
L 5050 1866 
L 3822 638 
L 3447 1013 
L 4175 1741 
L 366 1741 
L 366 2272 
L 4175 2272 
L 3447 3000 
L 3822 3375 
L 5050 2147 
z
" transform="scale(0.015625)"/>
     </defs>
     <use xlink:href="#DejaVuSans-65"/>
     <use xlink:href="#DejaVuSans-78" transform="translate(59.773438 0)"/>
     <use xlink:href="#DejaVuSans-74" transform="translate(118.953125 0)"/>
     <use xlink:href="#DejaVuSans-72" transform="translate(158.162109 0)"/>
     <use xlink:href="#DejaVuSans-61" transform="translate(199.275391 0)"/>
     <use xlink:href="#DejaVuSans-70" transform="translate(260.554688 0)"/>
     <use xlink:href="#DejaVuSans-6f" transform="translate(324.03125 0)"/>
     <use xlink:href="#DejaVuSans-6c" transform="translate(385.212891 0)"/>
     <use xlink:href="#DejaVuSans-61" transform="translate(412.996094 0)"/>
     <use xlink:href="#DejaVuSans-74" transform="translate(474.275391 0)"/>
     <use xlink:href="#DejaVuSans-65" transform="translate(513.484375 0)"/>
     <use xlink:href="#DejaVuSans-64" transform="translate(575.007812 0)"/>
     <use xlink:href="#DejaVuSans-20" transform="translate(638.484375 0)"/>
     <use xlink:href="#DejaVuSans-20" transform="translate(670.271484 0)"/>
     <use xlink:href="#DejaVuSans-2192" transform="translate(702.058594 0)"/>
    </g>
   </g>
   <g id="text_17">
    <!-- 771 MB/s -->
    <g style="fill: #c9d1d9" transform="translate(70.746773 271.61078) scale(0.09 -0.09)">
     <defs>
      <path id="DejaVuSans-Bold-37" d="M 428 4666 
L 3944 4666 
L 3944 3988 
L 2125 0 
L 953 0 
L 2675 3781 
L 428 3781 
L 428 4666 
z
" transform="scale(0.015625)"/>
      <path id="DejaVuSans-Bold-31" d="M 750 831 
L 1813 831 
L 1813 3847 
L 722 3622 
L 722 4441 
L 1806 4666 
L 2950 4666 
L 2950 831 
L 4013 831 
L 4013 0 
L 750 0 
L 750 831 
z
" transform="scale(0.015625)"/>
      <path id="DejaVuSans-Bold-20" transform="scale(0.015625)"/>
      <path id="DejaVuSans-Bold-4d" d="M 588 4666 
L 2119 4666 
L 3181 2169 
L 4250 4666 
L 5778 4666 
L 5778 0 
L 4641 0 
L 4641 3413 
L 3566 897 
L 2803 897 
L 1728 3413 
L 1728 0 
L 588 0 
L 588 4666 
z
" transform="scale(0.015625)"/>
      <path id="DejaVuSans-Bold-42" d="M 2456 2859 
Q 2741 2859 2887 2984 
Q 3034 3109 3034 3353 
Q 3034 3594 2887 3720 
Q 2741 3847 2456 3847 
L 1791 3847 
L 1791 2859 
L 2456 2859 
z
M 2497 819 
Q 2859 819 3042 972 
Q 3225 1125 3225 1434 
Q 3225 1738 3044 1889 
Q 2863 2041 2497 2041 
L 1791 2041 
L 1791 819 
L 2497 819 
z
M 3616 2497 
Q 4003 2384 4215 2081 
Q 4428 1778 4428 1338 
Q 4428 663 3972 331 
Q 3516 0 2584 0 
L 588 0 
L 588 4666 
L 2394 4666 
Q 3366 4666 3802 4372 
Q 4238 4078 4238 3431 
Q 4238 3091 4078 2852 
Q 3919 2613 3616 2497 
z
" transform="scale(0.015625)"/>
      <path id="DejaVuSans-Bold-2f" d="M 1644 4666 
L 2338 4666 
L 691 -594 
L 0 -594 
L 1644 4666 
z
" transform="scale(0.015625)"/>
      <path id="DejaVuSans-Bold-73" d="M 3272 3391 
L 3272 2541 
Q 2913 2691 2578 2766 
Q 2244 2841 1947 2841 
Q 1628 2841 1473 2761 
Q 1319 2681 1319 2516 
Q 1319 2381 1436 2309 
Q 1553 2238 1856 2203 
L 2053 2175 
Q 2913 2066 3209 1816 
Q 3506 1566 3506 1031 
Q 3506 472 3093 190 
Q 2681 -91 1863 -91 
Q 1516 -91 1145 -36 
Q 775 19 384 128 
L 384 978 
Q 719 816 1070 734 
Q 1422 653 1784 653 
Q 2113 653 2278 743 
Q 2444 834 2444 1013 
Q 2444 1163 2330 1236 
Q 2216 1309 1875 1350 
L 1678 1375 
Q 931 1469 631 1722 
Q 331 1975 331 2491 
Q 331 3047 712 3315 
Q 1094 3584 1881 3584 
Q 2191 3584 2531 3537 
Q 2872 3491 3272 3391 
z
" transform="scale(0.015625)"/>
     </defs>
     <use xlink:href="#DejaVuSans-Bold-37"/>
     <use xlink:href="#DejaVuSans-Bold-37" transform="translate(69.580078 0)"/>
     <use xlink:href="#DejaVuSans-Bold-31" transform="translate(139.160156 0)"/>
     <use xlink:href="#DejaVuSans-Bold-20" transform="translate(208.740234 0)"/>
     <use xlink:href="#DejaVuSans-Bold-4d" transform="translate(243.554688 0)"/>
     <use xlink:href="#DejaVuSans-Bold-42" transform="translate(343.066406 0)"/>
     <use xlink:href="#DejaVuSans-Bold-2f" transform="translate(419.287109 0)"/>
     <use xlink:href="#DejaVuSans-Bold-73" transform="translate(455.810547 0)"/>
    </g>
   </g>
   <g id="text_18">
    <!-- 1980 MB/s -->
    <g style="fill: #c9d1d9" transform="translate(128.804296 135.517154) scale(0.09 -0.09)">
     <defs>
      <path id="DejaVuSans-Bold-39" d="M 641 103 
L 641 966 
Q 928 831 1190 764 
Q 1453 697 1709 697 
Q 2247 697 2547 995 
Q 2847 1294 2900 1881 
Q 2688 1725 2447 1647 
Q 2206 1569 1925 1569 
Q 1209 1569 770 1986 
Q 331 2403 331 3084 
Q 331 3838 820 4291 
Q 1309 4744 2131 4744 
Q 3044 4744 3544 4128 
Q 4044 3513 4044 2388 
Q 4044 1231 3459 570 
Q 2875 -91 1856 -91 
Q 1528 -91 1228 -42 
Q 928 6 641 103 
z
M 2125 2350 
Q 2441 2350 2600 2554 
Q 2759 2759 2759 3169 
Q 2759 3575 2600 3781 
Q 2441 3988 2125 3988 
Q 1809 3988 1650 3781 
Q 1491 3575 1491 3169 
Q 1491 2759 1650 2554 
Q 1809 2350 2125 2350 
z
" transform="scale(0.015625)"/>
      <path id="DejaVuSans-Bold-38" d="M 2228 2088 
Q 1891 2088 1709 1903 
Q 1528 1719 1528 1375 
Q 1528 1031 1709 848 
Q 1891 666 2228 666 
Q 2563 666 2741 848 
Q 2919 1031 2919 1375 
Q 2919 1722 2741 1905 
Q 2563 2088 2228 2088 
z
M 1350 2484 
Q 925 2613 709 2878 
Q 494 3144 494 3541 
Q 494 4131 934 4440 
Q 1375 4750 2228 4750 
Q 3075 4750 3515 4442 
Q 3956 4134 3956 3541 
Q 3956 3144 3739 2878 
Q 3522 2613 3097 2484 
Q 3572 2353 3814 2058 
Q 4056 1763 4056 1313 
Q 4056 619 3595 264 
Q 3134 -91 2228 -91 
Q 1319 -91 855 264 
Q 391 619 391 1313 
Q 391 1763 633 2058 
Q 875 2353 1350 2484 
z
M 1631 3419 
Q 1631 3141 1786 2991 
Q 1941 2841 2228 2841 
Q 2509 2841 2662 2991 
Q 2816 3141 2816 3419 
Q 2816 3697 2662 3845 
Q 2509 3994 2228 3994 
Q 1941 3994 1786 3844 
Q 1631 3694 1631 3419 
z
" transform="scale(0.015625)"/>
      <path id="DejaVuSans-Bold-30" d="M 2944 2338 
Q 2944 3213 2780 3570 
Q 2616 3928 2228 3928 
Q 1841 3928 1675 3570 
Q 1509 3213 1509 2338 
Q 1509 1453 1675 1090 
Q 1841 728 2228 728 
Q 2613 728 2778 1090 
Q 2944 1453 2944 2338 
z
M 4147 2328 
Q 4147 1169 3647 539 
Q 3147 -91 2228 -91 
Q 1306 -91 806 539 
Q 306 1169 306 2328 
Q 306 3491 806 4120 
Q 1306 4750 2228 4750 
Q 3147 4750 3647 4120 
Q 4147 3491 4147 2328 
z
" transform="scale(0.015625)"/>
     </defs>
     <use xlink:href="#DejaVuSans-Bold-31"/>
     <use xlink:href="#DejaVuSans-Bold-39" transform="translate(69.580078 0)"/>
     <use xlink:href="#DejaVuSans-Bold-38" transform="translate(139.160156 0)"/>
     <use xlink:href="#DejaVuSans-Bold-30" transform="translate(208.740234 0)"/>
     <use xlink:href="#DejaVuSans-Bold-20" transform="translate(278.320312 0)"/>
     <use xlink:href="#DejaVuSans-Bold-4d" transform="translate(313.134766 0)"/>
     <use xlink:href="#DejaVuSans-Bold-42" transform="translate(412.646484 0)"/>
     <use xlink:href="#DejaVuSans-Bold-2f" transform="translate(488.867188 0)"/>
     <use xlink:href="#DejaVuSans-Bold-73" transform="translate(525.390625 0)"/>
    </g>
   </g>
   <g id="text_19">
    <!-- 2118 MB/s -->
    <g style="fill: #f0883e; opacity: 0.8" transform="translate(165.509311 112.98325) scale(0.08 -0.08)">
     <defs>
      <path id="DejaVuSans-38" d="M 2034 2216 
Q 1584 2216 1326 1975 
Q 1069 1734 1069 1313 
Q 1069 891 1326 650 
Q 1584 409 2034 409 
Q 2484 409 2743 651 
Q 3003 894 3003 1313 
Q 3003 1734 2745 1975 
Q 2488 2216 2034 2216 
z
M 1403 2484 
Q 997 2584 770 2862 
Q 544 3141 544 3541 
Q 544 4100 942 4425 
Q 1341 4750 2034 4750 
Q 2731 4750 3128 4425 
Q 3525 4100 3525 3541 
Q 3525 3141 3298 2862 
Q 3072 2584 2669 2484 
Q 3125 2378 3379 2068 
Q 3634 1759 3634 1313 
Q 3634 634 3220 271 
Q 2806 -91 2034 -91 
Q 1263 -91 848 271 
Q 434 634 434 1313 
Q 434 1759 690 2068 
Q 947 2378 1403 2484 
z
M 1172 3481 
Q 1172 3119 1398 2916 
Q 1625 2713 2034 2713 
Q 2441 2713 2670 2916 
Q 2900 3119 2900 3481 
Q 2900 3844 2670 4047 
Q 2441 4250 2034 4250 
Q 1625 4250 1398 4047 
Q 1172 3844 1172 3481 
z
" transform="scale(0.015625)"/>
     </defs>
     <use xlink:href="#DejaVuSans-32"/>
     <use xlink:href="#DejaVuSans-31" transform="translate(63.623047 0)"/>
     <use xlink:href="#DejaVuSans-31" transform="translate(127.246094 0)"/>
     <use xlink:href="#DejaVuSans-38" transform="translate(190.869141 0)"/>
     <use xlink:href="#DejaVuSans-20" transform="translate(254.492188 0)"/>
     <use xlink:href="#DejaVuSans-4d" transform="translate(286.279297 0)"/>
     <use xlink:href="#DejaVuSans-42" transform="translate(372.558594 0)"/>
     <use xlink:href="#DejaVuSans-2f" transform="translate(441.162109 0)"/>
     <use xlink:href="#DejaVuSans-73" transform="translate(474.853516 0)"/>
    </g>
    <!-- (16 cores) -->
    <g style="fill: #f0883e; opacity: 0.8" transform="translate(165.509311 121.9415) scale(0.08 -0.08)">
     <defs>
      <path id="DejaVuSans-63" d="M 3122 3366 
L 3122 2828 
Q 2878 2963 2633 3030 
Q 2388 3097 2138 3097 
Q 1578 3097 1268 2742 
Q 959 2388 959 1747 
Q 959 1106 1268 751 
Q 1578 397 2138 397 
Q 2388 397 2633 464 
Q 2878 531 3122 666 
L 3122 134 
Q 2881 22 2623 -34 
Q 2366 -91 2075 -91 
Q 1284 -91 818 406 
Q 353 903 353 1747 
Q 353 2603 823 3093 
Q 1294 3584 2113 3584 
Q 2378 3584 2631 3529 
Q 2884 3475 3122 3366 
z
" transform="scale(0.015625)"/>
     </defs>
     <use xlink:href="#DejaVuSans-28"/>
     <use xlink:href="#DejaVuSans-31" transform="translate(39.013672 0)"/>
     <use xlink:href="#DejaVuSans-36" transform="translate(102.636719 0)"/>
     <use xlink:href="#DejaVuSans-20" transform="translate(166.259766 0)"/>
     <use xlink:href="#DejaVuSans-63" transform="translate(198.046875 0)"/>
     <use xlink:href="#DejaVuSans-6f" transform="translate(253.027344 0)"/>
     <use xlink:href="#DejaVuSans-72" transform="translate(314.208984 0)"/>
     <use xlink:href="#DejaVuSans-65" transform="translate(353.072266 0)"/>
     <use xlink:href="#DejaVuSans-73" transform="translate(414.595703 0)"/>
     <use xlink:href="#DejaVuSans-29" transform="translate(466.695312 0)"/>
    </g>
   </g>
   <g id="text_20">
    <!-- 2249 MB/s -->
    <g style="fill: #f0883e; opacity: 0.8" transform="translate(268.722684 121.238105) scale(0.08 -0.08)">
     <defs>
      <path id="DejaVuSans-39" d="M 703 97 
L 703 672 
Q 941 559 1184 500 
Q 1428 441 1663 441 
Q 2288 441 2617 861 
Q 2947 1281 2994 2138 
Q 2813 1869 2534 1725 
Q 2256 1581 1919 1581 
Q 1219 1581 811 2004 
Q 403 2428 403 3163 
Q 403 3881 828 4315 
Q 1253 4750 1959 4750 
Q 2769 4750 3195 4129 
Q 3622 3509 3622 2328 
Q 3622 1225 3098 567 
Q 2575 -91 1691 -91 
Q 1453 -91 1209 -44 
Q 966 3 703 97 
z
M 1959 2075 
Q 2384 2075 2632 2365 
Q 2881 2656 2881 3163 
Q 2881 3666 2632 3958 
Q 2384 4250 1959 4250 
Q 1534 4250 1286 3958 
Q 1038 3666 1038 3163 
Q 1038 2656 1286 2365 
Q 1534 2075 1959 2075 
z
" transform="scale(0.015625)"/>
     </defs>
     <use xlink:href="#DejaVuSans-32"/>
     <use xlink:href="#DejaVuSans-32" transform="translate(63.623047 0)"/>
     <use xlink:href="#DejaVuSans-34" transform="translate(127.246094 0)"/>
     <use xlink:href="#DejaVuSans-39" transform="translate(190.869141 0)"/>
     <use xlink:href="#DejaVuSans-20" transform="translate(254.492188 0)"/>
     <use xlink:href="#DejaVuSans-4d" transform="translate(286.279297 0)"/>
     <use xlink:href="#DejaVuSans-42" transform="translate(372.558594 0)"/>
     <use xlink:href="#DejaVuSans-2f" transform="translate(441.162109 0)"/>
     <use xlink:href="#DejaVuSans-73" transform="translate(474.853516 0)"/>
    </g>
    <!-- (32 cores) -->
    <g style="fill: #f0883e; opacity: 0.8" transform="translate(268.722684 130.196355) scale(0.08 -0.08)">
     <use xlink:href="#DejaVuSans-28"/>
     <use xlink:href="#DejaVuSans-33" transform="translate(39.013672 0)"/>
     <use xlink:href="#DejaVuSans-32" transform="translate(102.636719 0)"/>
     <use xlink:href="#DejaVuSans-20" transform="translate(166.259766 0)"/>
     <use xlink:href="#DejaVuSans-63" transform="translate(198.046875 0)"/>
     <use xlink:href="#DejaVuSans-6f" transform="translate(253.027344 0)"/>
     <use xlink:href="#DejaVuSans-72" transform="translate(314.208984 0)"/>
     <use xlink:href="#DejaVuSans-65" transform="translate(353.072266 0)"/>
     <use xlink:href="#DejaVuSans-73" transform="translate(414.595703 0)"/>
     <use xlink:href="#DejaVuSans-29" transform="translate(466.695312 0)"/>
    </g>
   </g>
   <g id="text_21">
    <!-- 2321 MB/s -->
    <g style="fill: #f0883e; opacity: 0.8" transform="translate(475.149431 90.160011) scale(0.08 -0.08)">
     <use xlink:href="#DejaVuSans-32"/>
     <use xlink:href="#DejaVuSans-33" transform="translate(63.623047 0)"/>
     <use xlink:href="#DejaVuSans-32" transform="translate(127.246094 0)"/>
     <use xlink:href="#DejaVuSans-31" transform="translate(190.869141 0)"/>
     <use xlink:href="#DejaVuSans-20" transform="translate(254.492188 0)"/>
     <use xlink:href="#DejaVuSans-4d" transform="translate(286.279297 0)"/>
     <use xlink:href="#DejaVuSans-42" transform="translate(372.558594 0)"/>
     <use xlink:href="#DejaVuSans-2f" transform="translate(441.162109 0)"/>
     <use xlink:href="#DejaVuSans-73" transform="translate(474.853516 0)"/>
    </g>
    <!-- (64 cores) -->
    <g style="fill: #f0883e; opacity: 0.8" transform="translate(475.149431 99.118261) scale(0.08 -0.08)">
     <use xlink:href="#DejaVuSans-28"/>
     <use xlink:href="#DejaVuSans-36" transform="translate(39.013672 0)"/>
     <use xlink:href="#DejaVuSans-34" transform="translate(102.636719 0)"/>
     <use xlink:href="#DejaVuSans-20" transform="translate(166.259766 0)"/>
     <use xlink:href="#DejaVuSans-63" transform="translate(198.046875 0)"/>
     <use xlink:href="#DejaVuSans-6f" transform="translate(253.027344 0)"/>
     <use xlink:href="#DejaVuSans-72" transform="translate(314.208984 0)"/>
     <use xlink:href="#DejaVuSans-65" transform="translate(353.072266 0)"/>
     <use xlink:href="#DejaVuSans-73" transform="translate(414.595703 0)"/>
     <use xlink:href="#DejaVuSans-29" transform="translate(466.695312 0)"/>
    </g>
   </g>
   <g id="text_22">
    <!-- Throughput Scaling -->
    <g style="fill: #c9d1d9" transform="translate(189.693364 61.92) scale(0.14 -0.14)">
     <defs>
      <path id="DejaVuSans-Bold-54" d="M 31 4666 
L 4331 4666 
L 4331 3756 
L 2784 3756 
L 2784 0 
L 1581 0 
L 1581 3756 
L 31 3756 
L 31 4666 
z
" transform="scale(0.015625)"/>
      <path id="DejaVuSans-Bold-68" d="M 4056 2131 
L 4056 0 
L 2931 0 
L 2931 347 
L 2931 1625 
Q 2931 2084 2911 2256 
Q 2891 2428 2841 2509 
Q 2775 2619 2662 2680 
Q 2550 2741 2406 2741 
Q 2056 2741 1856 2470 
Q 1656 2200 1656 1722 
L 1656 0 
L 538 0 
L 538 4863 
L 1656 4863 
L 1656 2988 
Q 1909 3294 2193 3439 
Q 2478 3584 2822 3584 
Q 3428 3584 3742 3212 
Q 4056 2841 4056 2131 
z
" transform="scale(0.015625)"/>
      <path id="DejaVuSans-Bold-72" d="M 3138 2547 
Q 2991 2616 2845 2648 
Q 2700 2681 2553 2681 
Q 2122 2681 1889 2404 
Q 1656 2128 1656 1613 
L 1656 0 
L 538 0 
L 538 3500 
L 1656 3500 
L 1656 2925 
Q 1872 3269 2151 3426 
Q 2431 3584 2822 3584 
Q 2878 3584 2943 3579 
Q 3009 3575 3134 3559 
L 3138 2547 
z
" transform="scale(0.015625)"/>
      <path id="DejaVuSans-Bold-6f" d="M 2203 2784 
Q 1831 2784 1636 2517 
Q 1441 2250 1441 1747 
Q 1441 1244 1636 976 
Q 1831 709 2203 709 
Q 2569 709 2762 976 
Q 2956 1244 2956 1747 
Q 2956 2250 2762 2517 
Q 2569 2784 2203 2784 
z
M 2203 3584 
Q 3106 3584 3614 3096 
Q 4122 2609 4122 1747 
Q 4122 884 3614 396 
Q 3106 -91 2203 -91 
Q 1297 -91 786 396 
Q 275 884 275 1747 
Q 275 2609 786 3096 
Q 1297 3584 2203 3584 
z
" transform="scale(0.015625)"/>
      <path id="DejaVuSans-Bold-75" d="M 500 1363 
L 500 3500 
L 1625 3500 
L 1625 3150 
Q 1625 2866 1622 2436 
Q 1619 2006 1619 1863 
Q 1619 1441 1641 1255 
Q 1663 1069 1716 984 
Q 1784 875 1895 815 
Q 2006 756 2150 756 
Q 2500 756 2700 1025 
Q 2900 1294 2900 1772 
L 2900 3500 
L 4019 3500 
L 4019 0 
L 2900 0 
L 2900 506 
Q 2647 200 2364 54 
Q 2081 -91 1741 -91 
Q 1134 -91 817 281 
Q 500 653 500 1363 
z
" transform="scale(0.015625)"/>
      <path id="DejaVuSans-Bold-67" d="M 2919 594 
Q 2688 288 2409 144 
Q 2131 0 1766 0 
Q 1125 0 706 504 
Q 288 1009 288 1791 
Q 288 2575 706 3076 
Q 1125 3578 1766 3578 
Q 2131 3578 2409 3434 
Q 2688 3291 2919 2981 
L 2919 3500 
L 4044 3500 
L 4044 353 
Q 4044 -491 3511 -936 
Q 2978 -1381 1966 -1381 
Q 1638 -1381 1331 -1331 
Q 1025 -1281 716 -1178 
L 716 -306 
Q 1009 -475 1290 -558 
Q 1572 -641 1856 -641 
Q 2406 -641 2662 -400 
Q 2919 -159 2919 353 
L 2919 594 
z
M 2181 2772 
Q 1834 2772 1640 2515 
Q 1447 2259 1447 1791 
Q 1447 1309 1634 1061 
Q 1822 813 2181 813 
Q 2531 813 2725 1069 
Q 2919 1325 2919 1791 
Q 2919 2259 2725 2515 
Q 2531 2772 2181 2772 
z
" transform="scale(0.015625)"/>
      <path id="DejaVuSans-Bold-70" d="M 1656 506 
L 1656 -1331 
L 538 -1331 
L 538 3500 
L 1656 3500 
L 1656 2988 
Q 1888 3294 2169 3439 
Q 2450 3584 2816 3584 
Q 3463 3584 3878 3070 
Q 4294 2556 4294 1747 
Q 4294 938 3878 423 
Q 3463 -91 2816 -91 
Q 2450 -91 2169 54 
Q 1888 200 1656 506 
z
M 2400 2772 
Q 2041 2772 1848 2508 
Q 1656 2244 1656 1747 
Q 1656 1250 1848 986 
Q 2041 722 2400 722 
Q 2759 722 2948 984 
Q 3138 1247 3138 1747 
Q 3138 2247 2948 2509 
Q 2759 2772 2400 2772 
z
" transform="scale(0.015625)"/>
      <path id="DejaVuSans-Bold-74" d="M 1759 4494 
L 1759 3500 
L 2913 3500 
L 2913 2700 
L 1759 2700 
L 1759 1216 
Q 1759 972 1856 886 
Q 1953 800 2241 800 
L 2816 800 
L 2816 0 
L 1856 0 
Q 1194 0 917 276 
Q 641 553 641 1216 
L 641 2700 
L 84 2700 
L 84 3500 
L 641 3500 
L 641 4494 
L 1759 4494 
z
" transform="scale(0.015625)"/>
      <path id="DejaVuSans-Bold-53" d="M 3834 4519 
L 3834 3531 
Q 3450 3703 3084 3790 
Q 2719 3878 2394 3878 
Q 1963 3878 1756 3759 
Q 1550 3641 1550 3391 
Q 1550 3203 1689 3098 
Q 1828 2994 2194 2919 
L 2706 2816 
Q 3484 2659 3812 2340 
Q 4141 2022 4141 1434 
Q 4141 663 3683 286 
Q 3225 -91 2284 -91 
Q 1841 -91 1394 -6 
Q 947 78 500 244 
L 500 1259 
Q 947 1022 1364 901 
Q 1781 781 2169 781 
Q 2563 781 2772 912 
Q 2981 1044 2981 1288 
Q 2981 1506 2839 1625 
Q 2697 1744 2272 1838 
L 1806 1941 
Q 1106 2091 782 2419 
Q 459 2747 459 3303 
Q 459 4000 909 4375 
Q 1359 4750 2203 4750 
Q 2588 4750 2994 4692 
Q 3400 4634 3834 4519 
z
" transform="scale(0.015625)"/>
      <path id="DejaVuSans-Bold-63" d="M 3366 3391 
L 3366 2478 
Q 3138 2634 2908 2709 
Q 2678 2784 2431 2784 
Q 1963 2784 1702 2511 
Q 1441 2238 1441 1747 
Q 1441 1256 1702 982 
Q 1963 709 2431 709 
Q 2694 709 2930 787 
Q 3166 866 3366 1019 
L 3366 103 
Q 3103 6 2833 -42 
Q 2563 -91 2291 -91 
Q 1344 -91 809 395 
Q 275 881 275 1747 
Q 275 2613 809 3098 
Q 1344 3584 2291 3584 
Q 2566 3584 2833 3536 
Q 3100 3488 3366 3391 
z
" transform="scale(0.015625)"/>
      <path id="DejaVuSans-Bold-61" d="M 2106 1575 
Q 1756 1575 1579 1456 
Q 1403 1338 1403 1106 
Q 1403 894 1545 773 
Q 1688 653 1941 653 
Q 2256 653 2472 879 
Q 2688 1106 2688 1447 
L 2688 1575 
L 2106 1575 
z
M 3816 1997 
L 3816 0 
L 2688 0 
L 2688 519 
Q 2463 200 2181 54 
Q 1900 -91 1497 -91 
Q 953 -91 614 226 
Q 275 544 275 1050 
Q 275 1666 698 1953 
Q 1122 2241 2028 2241 
L 2688 2241 
L 2688 2328 
Q 2688 2594 2478 2717 
Q 2269 2841 1825 2841 
Q 1466 2841 1156 2769 
Q 847 2697 581 2553 
L 581 3406 
Q 941 3494 1303 3539 
Q 1666 3584 2028 3584 
Q 2975 3584 3395 3211 
Q 3816 2838 3816 1997 
z
" transform="scale(0.015625)"/>
      <path id="DejaVuSans-Bold-6c" d="M 538 4863 
L 1656 4863 
L 1656 0 
L 538 0 
L 538 4863 
z
" transform="scale(0.015625)"/>
      <path id="DejaVuSans-Bold-69" d="M 538 3500 
L 1656 3500 
L 1656 0 
L 538 0 
L 538 3500 
z
M 538 4863 
L 1656 4863 
L 1656 3950 
L 538 3950 
L 538 4863 
z
" transform="scale(0.015625)"/>
      <path id="DejaVuSans-Bold-6e" d="M 4056 2131 
L 4056 0 
L 2931 0 
L 2931 347 
L 2931 1631 
Q 2931 2084 2911 2256 
Q 2891 2428 2841 2509 
Q 2775 2619 2662 2680 
Q 2550 2741 2406 2741 
Q 2056 2741 1856 2470 
Q 1656 2200 1656 1722 
L 1656 0 
L 538 0 
L 538 3500 
L 1656 3500 
L 1656 2988 
Q 1909 3294 2193 3439 
Q 2478 3584 2822 3584 
Q 3428 3584 3742 3212 
Q 4056 2841 4056 2131 
z
" transform="scale(0.015625)"/>
     </defs>
     <use xlink:href="#DejaVuSans-Bold-54"/>
     <use xlink:href="#DejaVuSans-Bold-68" transform="translate(68.212891 0)"/>
     <use xlink:href="#DejaVuSans-Bold-72" transform="translate(139.404297 0)"/>
     <use xlink:href="#DejaVuSans-Bold-6f" transform="translate(188.720703 0)"/>
     <use xlink:href="#DejaVuSans-Bold-75" transform="translate(257.421875 0)"/>
     <use xlink:href="#DejaVuSans-Bold-67" transform="translate(328.613281 0)"/>
     <use xlink:href="#DejaVuSans-Bold-68" transform="translate(400.195312 0)"/>
     <use xlink:href="#DejaVuSans-Bold-70" transform="translate(471.386719 0)"/>
     <use xlink:href="#DejaVuSans-Bold-75" transform="translate(542.96875 0)"/>
     <use xlink:href="#DejaVuSans-Bold-74" transform="translate(614.160156 0)"/>
     <use xlink:href="#DejaVuSans-Bold-20" transform="translate(661.962891 0)"/>
     <use xlink:href="#DejaVuSans-Bold-53" transform="translate(696.777344 0)"/>
     <use xlink:href="#DejaVuSans-Bold-63" transform="translate(768.798828 0)"/>
     <use xlink:href="#DejaVuSans-Bold-61" transform="translate(828.076172 0)"/>
     <use xlink:href="#DejaVuSans-Bold-6c" transform="translate(895.556641 0)"/>
     <use xlink:href="#DejaVuSans-Bold-69" transform="translate(929.833984 0)"/>
     <use xlink:href="#DejaVuSans-Bold-6e" transform="translate(964.111328 0)"/>
     <use xlink:href="#DejaVuSans-Bold-67" transform="translate(1035.302734 0)"/>
    </g>
   </g>
   <g id="line2d_17">
    <defs>
     <path id="madb6a748a6" d="M -3 3 
L 3 3 
L 3 -3 
L -3 -3 
z
" style="stroke: #f0883e; stroke-opacity: 0.7; stroke-linejoin: miter"/>
    </defs>
    <g clip-path="url(#pfe4c33f453)">
     <use xlink:href="#madb6a748a6" x="157.509311" y="129.9415" style="fill: #f0883e; fill-opacity: 0.7; stroke: #f0883e; stroke-opacity: 0.7; stroke-linejoin: miter"/>
    </g>
   </g>
   <g id="line2d_18">
    <g clip-path="url(#pfe4c33f453)">
     <use xlink:href="#madb6a748a6" x="260.722684" y="115.196355" style="fill: #f0883e; fill-opacity: 0.7; stroke: #f0883e; stroke-opacity: 0.7; stroke-linejoin: miter"/>
    </g>
   </g>
   <g id="line2d_19">
    <g clip-path="url(#pfe4c33f453)">
     <use xlink:href="#madb6a748a6" x="467.149431" y="107.118261" style="fill: #f0883e; fill-opacity: 0.7; stroke: #f0883e; stroke-opacity: 0.7; stroke-linejoin: miter"/>
    </g>
   </g>
   <g id="line2d_20">
    <path d="M 60.746773 281.61078 
L 67.197609 230.972601 
L 80.099281 185.142627 
L 93.000953 167.261055 
L 105.902624 151.383841 
L 118.804296 145.517154 
" clip-path="url(#pfe4c33f453)" style="fill: none; stroke: #4caf50; stroke-width: 2.5; stroke-linecap: square"/>
    <defs>
     <path id="m4d9b8b196e" d="M 0 4 
C 1.060812 4 2.078319 3.578535 2.828427 2.828427 
C 3.578535 2.078319 4 1.060812 4 0 
C 4 -1.060812 3.578535 -2.078319 2.828427 -2.828427 
C 2.078319 -3.578535 1.060812 -4 0 -4 
C -1.060812 -4 -2.078319 -3.578535 -2.828427 -2.828427 
C -3.578535 -2.078319 -4 -1.060812 -4 0 
C -4 1.060812 -3.578535 2.078319 -2.828427 2.828427 
C -2.078319 3.578535 -1.060812 4 0 4 
z
" style="stroke: #ffffff; stroke-width: 1.5"/>
    </defs>
    <g clip-path="url(#pfe4c33f453)">
     <use xlink:href="#m4d9b8b196e" x="60.746773" y="281.61078" style="fill: #4caf50; stroke: #ffffff; stroke-width: 1.5"/>
     <use xlink:href="#m4d9b8b196e" x="67.197609" y="230.972601" style="fill: #4caf50; stroke: #ffffff; stroke-width: 1.5"/>
     <use xlink:href="#m4d9b8b196e" x="80.099281" y="185.142627" style="fill: #4caf50; stroke: #ffffff; stroke-width: 1.5"/>
     <use xlink:href="#m4d9b8b196e" x="93.000953" y="167.261055" style="fill: #4caf50; stroke: #ffffff; stroke-width: 1.5"/>
     <use xlink:href="#m4d9b8b196e" x="105.902624" y="151.383841" style="fill: #4caf50; stroke: #ffffff; stroke-width: 1.5"/>
     <use xlink:href="#m4d9b8b196e" x="118.804296" y="145.517154" style="fill: #4caf50; stroke: #ffffff; stroke-width: 1.5"/>
    </g>
   </g>
   <g id="legend_1">
    <g id="patch_5">
     <path d="M 323.325947 363.94 
L 473.751103 363.94 
Q 475.551103 363.94 475.551103 362.14 
L 475.551103 323.409063 
Q 475.551103 321.609063 473.751103 321.609063 
L 323.325947 321.609063 
Q 321.525947 321.609063 321.525947 323.409063 
L 321.525947 362.14 
Q 321.525947 363.94 323.325947 363.94 
z
" style="fill: #161b22; opacity: 0.8; stroke: #30363d; stroke-linejoin: miter"/>
    </g>
    <g id="line2d_21">
     <path d="M 325.125947 328.897656 
L 334.125947 328.897656 
L 343.125947 328.897656 
" style="fill: none; stroke: #388e3c; stroke-opacity: 0.5; stroke-width: 1.5; stroke-linecap: square"/>
    </g>
    <g id="text_23">
     <!-- Amdahl's law (serial=32%) -->
     <g style="fill: #c9d1d9" transform="translate(350.325947 332.047656) scale(0.09 -0.09)">
      <defs>
       <path id="DejaVuSans-41" d="M 2188 4044 
L 1331 1722 
L 3047 1722 
L 2188 4044 
z
M 1831 4666 
L 2547 4666 
L 4325 0 
L 3669 0 
L 3244 1197 
L 1141 1197 
L 716 0 
L 50 0 
L 1831 4666 
z
" transform="scale(0.015625)"/>
       <path id="DejaVuSans-6d" d="M 3328 2828 
Q 3544 3216 3844 3400 
Q 4144 3584 4550 3584 
Q 5097 3584 5394 3201 
Q 5691 2819 5691 2113 
L 5691 0 
L 5113 0 
L 5113 2094 
Q 5113 2597 4934 2840 
Q 4756 3084 4391 3084 
Q 3944 3084 3684 2787 
Q 3425 2491 3425 1978 
L 3425 0 
L 2847 0 
L 2847 2094 
Q 2847 2600 2669 2842 
Q 2491 3084 2119 3084 
Q 1678 3084 1418 2786 
Q 1159 2488 1159 1978 
L 1159 0 
L 581 0 
L 581 3500 
L 1159 3500 
L 1159 2956 
Q 1356 3278 1631 3431 
Q 1906 3584 2284 3584 
Q 2666 3584 2933 3390 
Q 3200 3197 3328 2828 
z
" transform="scale(0.015625)"/>
       <path id="DejaVuSans-27" d="M 1147 4666 
L 1147 2931 
L 616 2931 
L 616 4666 
L 1147 4666 
z
" transform="scale(0.015625)"/>
       <path id="DejaVuSans-77" d="M 269 3500 
L 844 3500 
L 1563 769 
L 2278 3500 
L 2956 3500 
L 3675 769 
L 4391 3500 
L 4966 3500 
L 4050 0 
L 3372 0 
L 2619 2869 
L 1863 0 
L 1184 0 
L 269 3500 
z
" transform="scale(0.015625)"/>
       <path id="DejaVuSans-69" d="M 603 3500 
L 1178 3500 
L 1178 0 
L 603 0 
L 603 3500 
z
M 603 4863 
L 1178 4863 
L 1178 4134 
L 603 4134 
L 603 4863 
z
" transform="scale(0.015625)"/>
       <path id="DejaVuSans-3d" d="M 678 2906 
L 4684 2906 
L 4684 2381 
L 678 2381 
L 678 2906 
z
M 678 1631 
L 4684 1631 
L 4684 1100 
L 678 1100 
L 678 1631 
z
" transform="scale(0.015625)"/>
       <path id="DejaVuSans-25" d="M 4653 2053 
Q 4381 2053 4226 1822 
Q 4072 1591 4072 1178 
Q 4072 772 4226 539 
Q 4381 306 4653 306 
Q 4919 306 5073 539 
Q 5228 772 5228 1178 
Q 5228 1588 5073 1820 
Q 4919 2053 4653 2053 
z
M 4653 2450 
Q 5147 2450 5437 2106 
Q 5728 1763 5728 1178 
Q 5728 594 5436 251 
Q 5144 -91 4653 -91 
Q 4153 -91 3862 251 
Q 3572 594 3572 1178 
Q 3572 1766 3864 2108 
Q 4156 2450 4653 2450 
z
M 1428 4353 
Q 1159 4353 1004 4120 
Q 850 3888 850 3481 
Q 850 3069 1003 2837 
Q 1156 2606 1428 2606 
Q 1700 2606 1854 2837 
Q 2009 3069 2009 3481 
Q 2009 3884 1853 4118 
Q 1697 4353 1428 4353 
z
M 4250 4750 
L 4750 4750 
L 1831 -91 
L 1331 -91 
L 4250 4750 
z
M 1428 4750 
Q 1922 4750 2215 4408 
Q 2509 4066 2509 3481 
Q 2509 2891 2217 2550 
Q 1925 2209 1428 2209 
Q 931 2209 642 2551 
Q 353 2894 353 3481 
Q 353 4063 643 4406 
Q 934 4750 1428 4750 
z
" transform="scale(0.015625)"/>
      </defs>
      <use xlink:href="#DejaVuSans-41"/>
      <use xlink:href="#DejaVuSans-6d" transform="translate(68.408203 0)"/>
      <use xlink:href="#DejaVuSans-64" transform="translate(165.820312 0)"/>
      <use xlink:href="#DejaVuSans-61" transform="translate(229.296875 0)"/>
      <use xlink:href="#DejaVuSans-68" transform="translate(290.576172 0)"/>
      <use xlink:href="#DejaVuSans-6c" transform="translate(353.955078 0)"/>
      <use xlink:href="#DejaVuSans-27" transform="translate(381.738281 0)"/>
      <use xlink:href="#DejaVuSans-73" transform="translate(409.228516 0)"/>
      <use xlink:href="#DejaVuSans-20" transform="translate(461.328125 0)"/>
      <use xlink:href="#DejaVuSans-6c" transform="translate(493.115234 0)"/>
      <use xlink:href="#DejaVuSans-61" transform="translate(520.898438 0)"/>
      <use xlink:href="#DejaVuSans-77" transform="translate(582.177734 0)"/>
      <use xlink:href="#DejaVuSans-20" transform="translate(663.964844 0)"/>
      <use xlink:href="#DejaVuSans-28" transform="translate(695.751953 0)"/>
      <use xlink:href="#DejaVuSans-73" transform="translate(734.765625 0)"/>
      <use xlink:href="#DejaVuSans-65" transform="translate(786.865234 0)"/>
      <use xlink:href="#DejaVuSans-72" transform="translate(848.388672 0)"/>
      <use xlink:href="#DejaVuSans-69" transform="translate(889.501953 0)"/>
      <use xlink:href="#DejaVuSans-61" transform="translate(917.285156 0)"/>
      <use xlink:href="#DejaVuSans-6c" transform="translate(978.564453 0)"/>
      <use xlink:href="#DejaVuSans-3d" transform="translate(1006.347656 0)"/>
      <use xlink:href="#DejaVuSans-33" transform="translate(1090.136719 0)"/>
      <use xlink:href="#DejaVuSans-32" transform="translate(1153.759766 0)"/>
      <use xlink:href="#DejaVuSans-25" transform="translate(1217.382812 0)"/>
      <use xlink:href="#DejaVuSans-29" transform="translate(1312.402344 0)"/>
     </g>
    </g>
    <g id="line2d_22">
     <path d="M 325.125947 342.107969 
L 334.125947 342.107969 
L 343.125947 342.107969 
" style="fill: none; stroke-dasharray: 3.7,1.6; stroke-dashoffset: 0; stroke: #1f6feb; stroke-opacity: 0.3"/>
    </g>
    <g id="text_24">
     <!-- Perfect linear scaling -->
     <g style="fill: #c9d1d9" transform="translate(350.325947 345.257969) scale(0.09 -0.09)">
      <defs>
       <path id="DejaVuSans-50" d="M 1259 4147 
L 1259 2394 
L 2053 2394 
Q 2494 2394 2734 2622 
Q 2975 2850 2975 3272 
Q 2975 3691 2734 3919 
Q 2494 4147 2053 4147 
L 1259 4147 
z
M 628 4666 
L 2053 4666 
Q 2838 4666 3239 4311 
Q 3641 3956 3641 3272 
Q 3641 2581 3239 2228 
Q 2838 1875 2053 1875 
L 1259 1875 
L 1259 0 
L 628 0 
L 628 4666 
z
" transform="scale(0.015625)"/>
       <path id="DejaVuSans-66" d="M 2375 4863 
L 2375 4384 
L 1825 4384 
Q 1516 4384 1395 4259 
Q 1275 4134 1275 3809 
L 1275 3500 
L 2222 3500 
L 2222 3053 
L 1275 3053 
L 1275 0 
L 697 0 
L 697 3053 
L 147 3053 
L 147 3500 
L 697 3500 
L 697 3744 
Q 697 4328 969 4595 
Q 1241 4863 1831 4863 
L 2375 4863 
z
" transform="scale(0.015625)"/>
       <path id="DejaVuSans-6e" d="M 3513 2113 
L 3513 0 
L 2938 0 
L 2938 2094 
Q 2938 2591 2744 2837 
Q 2550 3084 2163 3084 
Q 1697 3084 1428 2787 
Q 1159 2491 1159 1978 
L 1159 0 
L 581 0 
L 581 3500 
L 1159 3500 
L 1159 2956 
Q 1366 3272 1645 3428 
Q 1925 3584 2291 3584 
Q 2894 3584 3203 3211 
Q 3513 2838 3513 2113 
z
" transform="scale(0.015625)"/>
      </defs>
      <use xlink:href="#DejaVuSans-50"/>
      <use xlink:href="#DejaVuSans-65" transform="translate(56.677734 0)"/>
      <use xlink:href="#DejaVuSans-72" transform="translate(118.201172 0)"/>
      <use xlink:href="#DejaVuSans-66" transform="translate(159.314453 0)"/>
      <use xlink:href="#DejaVuSans-65" transform="translate(194.519531 0)"/>
      <use xlink:href="#DejaVuSans-63" transform="translate(256.042969 0)"/>
      <use xlink:href="#DejaVuSans-74" transform="translate(311.023438 0)"/>
      <use xlink:href="#DejaVuSans-20" transform="translate(350.232422 0)"/>
      <use xlink:href="#DejaVuSans-6c" transform="translate(382.019531 0)"/>
      <use xlink:href="#DejaVuSans-69" transform="translate(409.802734 0)"/>
      <use xlink:href="#DejaVuSans-6e" transform="translate(437.585938 0)"/>
      <use xlink:href="#DejaVuSans-65" transform="translate(500.964844 0)"/>
      <use xlink:href="#DejaVuSans-61" transform="translate(562.488281 0)"/>
      <use xlink:href="#DejaVuSans-72" transform="translate(623.767578 0)"/>
      <use xlink:href="#DejaVuSans-20" transform="translate(664.880859 0)"/>
      <use xlink:href="#DejaVuSans-73" transform="translate(696.667969 0)"/>
      <use xlink:href="#DejaVuSans-63" transform="translate(748.767578 0)"/>
      <use xlink:href="#DejaVuSans-61" transform="translate(803.748047 0)"/>
      <use xlink:href="#DejaVuSans-6c" transform="translate(865.027344 0)"/>
      <use xlink:href="#DejaVuSans-69" transform="translate(892.810547 0)"/>
      <use xlink:href="#DejaVuSans-6e" transform="translate(920.59375 0)"/>
      <use xlink:href="#DejaVuSans-67" transform="translate(983.972656 0)"/>
     </g>
    </g>
    <g id="line2d_23">
     <path d="M 325.125947 355.318281 
L 334.125947 355.318281 
L 343.125947 355.318281 
" style="fill: none; stroke: #4caf50; stroke-width: 2.5; stroke-linecap: square"/>
     <g>
      <use xlink:href="#m4d9b8b196e" x="334.125947" y="355.318281" style="fill: #4caf50; stroke: #ffffff; stroke-width: 1.5"/>
     </g>
    </g>
    <g id="text_25">
     <!-- Measured -->
     <g style="fill: #c9d1d9" transform="translate(350.325947 358.468281) scale(0.09 -0.09)">
      <use xlink:href="#DejaVuSans-4d"/>
      <use xlink:href="#DejaVuSans-65" transform="translate(86.279297 0)"/>
      <use xlink:href="#DejaVuSans-61" transform="translate(147.802734 0)"/>
      <use xlink:href="#DejaVuSans-73" transform="translate(209.082031 0)"/>
      <use xlink:href="#DejaVuSans-75" transform="translate(261.181641 0)"/>
      <use xlink:href="#DejaVuSans-72" transform="translate(324.560547 0)"/>
      <use xlink:href="#DejaVuSans-65" transform="translate(363.423828 0)"/>
      <use xlink:href="#DejaVuSans-64" transform="translate(424.947266 0)"/>
     </g>
    </g>
   </g>
  </g>
  <g id="axes_2">
   <g id="patch_6">
    <path d="M 567.850772 368.44 
L 993.605938 368.44 
L 993.605938 67.92 
L 567.850772 67.92 
z
" style="fill: #161b22"/>
   </g>
   <g id="matplotlib.axis_3">
    <g id="xtick_8">
     <g id="line2d_24">
      <g>
       <use xlink:href="#m32ea3b698b" x="567.850772" y="368.44" style="fill: #8b949e; stroke: #8b949e; stroke-width: 0.8"/>
      </g>
     </g>
     <g id="text_26">
      <!-- 0 -->
      <g style="fill: #8b949e" transform="translate(564.669522 383.038437) scale(0.1 -0.1)">
       <use xlink:href="#DejaVuSans-30"/>
      </g>
     </g>
    </g>
    <g id="xtick_9">
     <g id="line2d_25">
      <g>
       <use xlink:href="#m32ea3b698b" x="632.359131" y="368.44" style="fill: #8b949e; stroke: #8b949e; stroke-width: 0.8"/>
      </g>
     </g>
     <g id="text_27">
      <!-- 10 -->
      <g style="fill: #8b949e" transform="translate(625.996631 383.038437) scale(0.1 -0.1)">
       <use xlink:href="#DejaVuSans-31"/>
       <use xlink:href="#DejaVuSans-30" transform="translate(63.623047 0)"/>
      </g>
     </g>
    </g>
    <g id="xtick_10">
     <g id="line2d_26">
      <g>
       <use xlink:href="#m32ea3b698b" x="696.867489" y="368.44" style="fill: #8b949e; stroke: #8b949e; stroke-width: 0.8"/>
      </g>
     </g>
     <g id="text_28">
      <!-- 20 -->
      <g style="fill: #8b949e" transform="translate(690.504989 383.038437) scale(0.1 -0.1)">
       <use xlink:href="#DejaVuSans-32"/>
       <use xlink:href="#DejaVuSans-30" transform="translate(63.623047 0)"/>
      </g>
     </g>
    </g>
    <g id="xtick_11">
     <g id="line2d_27">
      <g>
       <use xlink:href="#m32ea3b698b" x="761.375847" y="368.44" style="fill: #8b949e; stroke: #8b949e; stroke-width: 0.8"/>
      </g>
     </g>
     <g id="text_29">
      <!-- 30 -->
      <g style="fill: #8b949e" transform="translate(755.013347 383.038437) scale(0.1 -0.1)">
       <use xlink:href="#DejaVuSans-33"/>
       <use xlink:href="#DejaVuSans-30" transform="translate(63.623047 0)"/>
      </g>
     </g>
    </g>
    <g id="xtick_12">
     <g id="line2d_28">
      <g>
       <use xlink:href="#m32ea3b698b" x="825.884206" y="368.44" style="fill: #8b949e; stroke: #8b949e; stroke-width: 0.8"/>
      </g>
     </g>
     <g id="text_30">
      <!-- 40 -->
      <g style="fill: #8b949e" transform="translate(819.521706 383.038437) scale(0.1 -0.1)">
       <use xlink:href="#DejaVuSans-34"/>
       <use xlink:href="#DejaVuSans-30" transform="translate(63.623047 0)"/>
      </g>
     </g>
    </g>
    <g id="xtick_13">
     <g id="line2d_29">
      <g>
       <use xlink:href="#m32ea3b698b" x="890.392564" y="368.44" style="fill: #8b949e; stroke: #8b949e; stroke-width: 0.8"/>
      </g>
     </g>
     <g id="text_31">
      <!-- 50 -->
      <g style="fill: #8b949e" transform="translate(884.030064 383.038437) scale(0.1 -0.1)">
       <use xlink:href="#DejaVuSans-35"/>
       <use xlink:href="#DejaVuSans-30" transform="translate(63.623047 0)"/>
      </g>
     </g>
    </g>
    <g id="xtick_14">
     <g id="line2d_30">
      <g>
       <use xlink:href="#m32ea3b698b" x="954.900922" y="368.44" style="fill: #8b949e; stroke: #8b949e; stroke-width: 0.8"/>
      </g>
     </g>
     <g id="text_32">
      <!-- 60 -->
      <g style="fill: #8b949e" transform="translate(948.538422 383.038437) scale(0.1 -0.1)">
       <use xlink:href="#DejaVuSans-36"/>
       <use xlink:href="#DejaVuSans-30" transform="translate(63.623047 0)"/>
      </g>
     </g>
    </g>
    <g id="text_33">
     <!-- Threads -->
     <g style="fill: #8b949e" transform="translate(758.634683 397.476406) scale(0.11 -0.11)">
      <use xlink:href="#DejaVuSans-54"/>
      <use xlink:href="#DejaVuSans-68" transform="translate(61.083984 0)"/>
      <use xlink:href="#DejaVuSans-72" transform="translate(124.462891 0)"/>
      <use xlink:href="#DejaVuSans-65" transform="translate(163.326172 0)"/>
      <use xlink:href="#DejaVuSans-61" transform="translate(224.849609 0)"/>
      <use xlink:href="#DejaVuSans-64" transform="translate(286.128906 0)"/>
      <use xlink:href="#DejaVuSans-73" transform="translate(349.605469 0)"/>
     </g>
    </g>
   </g>
   <g id="matplotlib.axis_4">
    <g id="ytick_7">
     <g id="line2d_31">
      <g>
       <use xlink:href="#mcac7bba4f7" x="567.850772" y="368.44" style="fill: #8b949e; stroke: #8b949e; stroke-width: 0.8"/>
      </g>
     </g>
     <g id="text_34">
      <!-- 0.0 -->
      <g style="fill: #8b949e" transform="translate(544.947647 372.239219) scale(0.1 -0.1)">
       <defs>
        <path id="DejaVuSans-2e" d="M 684 794 
L 1344 794 
L 1344 0 
L 684 0 
L 684 794 
z
" transform="scale(0.015625)"/>
       </defs>
       <use xlink:href="#DejaVuSans-30"/>
       <use xlink:href="#DejaVuSans-2e" transform="translate(63.623047 0)"/>
       <use xlink:href="#DejaVuSans-30" transform="translate(95.410156 0)"/>
      </g>
     </g>
    </g>
    <g id="ytick_8">
     <g id="line2d_32">
      <g>
       <use xlink:href="#mcac7bba4f7" x="567.850772" y="325.02539" style="fill: #8b949e; stroke: #8b949e; stroke-width: 0.8"/>
      </g>
     </g>
     <g id="text_35">
      <!-- 0.5 -->
      <g style="fill: #8b949e" transform="translate(544.947647 328.824609) scale(0.1 -0.1)">
       <use xlink:href="#DejaVuSans-30"/>
       <use xlink:href="#DejaVuSans-2e" transform="translate(63.623047 0)"/>
       <use xlink:href="#DejaVuSans-35" transform="translate(95.410156 0)"/>
      </g>
     </g>
    </g>
    <g id="ytick_9">
     <g id="line2d_33">
      <g>
       <use xlink:href="#mcac7bba4f7" x="567.850772" y="281.61078" style="fill: #8b949e; stroke: #8b949e; stroke-width: 0.8"/>
      </g>
     </g>
     <g id="text_36">
      <!-- 1.0 -->
      <g style="fill: #8b949e" transform="translate(544.947647 285.409999) scale(0.1 -0.1)">
       <use xlink:href="#DejaVuSans-31"/>
       <use xlink:href="#DejaVuSans-2e" transform="translate(63.623047 0)"/>
       <use xlink:href="#DejaVuSans-30" transform="translate(95.410156 0)"/>
      </g>
     </g>
    </g>
    <g id="ytick_10">
     <g id="line2d_34">
      <g>
       <use xlink:href="#mcac7bba4f7" x="567.850772" y="238.19617" style="fill: #8b949e; stroke: #8b949e; stroke-width: 0.8"/>
      </g>
     </g>
     <g id="text_37">
      <!-- 1.5 -->
      <g style="fill: #8b949e" transform="translate(544.947647 241.995389) scale(0.1 -0.1)">
       <use xlink:href="#DejaVuSans-31"/>
       <use xlink:href="#DejaVuSans-2e" transform="translate(63.623047 0)"/>
       <use xlink:href="#DejaVuSans-35" transform="translate(95.410156 0)"/>
      </g>
     </g>
    </g>
    <g id="ytick_11">
     <g id="line2d_35">
      <g>
       <use xlink:href="#mcac7bba4f7" x="567.850772" y="194.78156" style="fill: #8b949e; stroke: #8b949e; stroke-width: 0.8"/>
      </g>
     </g>
     <g id="text_38">
      <!-- 2.0 -->
      <g style="fill: #8b949e" transform="translate(544.947647 198.580779) scale(0.1 -0.1)">
       <use xlink:href="#DejaVuSans-32"/>
       <use xlink:href="#DejaVuSans-2e" transform="translate(63.623047 0)"/>
       <use xlink:href="#DejaVuSans-30" transform="translate(95.410156 0)"/>
      </g>
     </g>
    </g>
    <g id="ytick_12">
     <g id="line2d_36">
      <g>
       <use xlink:href="#mcac7bba4f7" x="567.850772" y="151.36695" style="fill: #8b949e; stroke: #8b949e; stroke-width: 0.8"/>
      </g>
     </g>
     <g id="text_39">
      <!-- 2.5 -->
      <g style="fill: #8b949e" transform="translate(544.947647 155.166169) scale(0.1 -0.1)">
       <use xlink:href="#DejaVuSans-32"/>
       <use xlink:href="#DejaVuSans-2e" transform="translate(63.623047 0)"/>
       <use xlink:href="#DejaVuSans-35" transform="translate(95.410156 0)"/>
      </g>
     </g>
    </g>
    <g id="ytick_13">
     <g id="line2d_37">
      <g>
       <use xlink:href="#mcac7bba4f7" x="567.850772" y="107.95234" style="fill: #8b949e; stroke: #8b949e; stroke-width: 0.8"/>
      </g>
     </g>
     <g id="text_40">
      <!-- 3.0 -->
      <g style="fill: #8b949e" transform="translate(544.947647 111.751559) scale(0.1 -0.1)">
       <use xlink:href="#DejaVuSans-33"/>
       <use xlink:href="#DejaVuSans-2e" transform="translate(63.623047 0)"/>
       <use xlink:href="#DejaVuSans-30" transform="translate(95.410156 0)"/>
      </g>
     </g>
    </g>
    <g id="text_41">
     <!-- Speedup vs 1 thread -->
     <g style="fill: #8b949e" transform="translate(538.659991 275.289766) rotate(-90) scale(0.11 -0.11)">
      <defs>
       <path id="DejaVuSans-53" d="M 3425 4513 
L 3425 3897 
Q 3066 4069 2747 4153 
Q 2428 4238 2131 4238 
Q 1616 4238 1336 4038 
Q 1056 3838 1056 3469 
Q 1056 3159 1242 3001 
Q 1428 2844 1947 2747 
L 2328 2669 
Q 3034 2534 3370 2195 
Q 3706 1856 3706 1288 
Q 3706 609 3251 259 
Q 2797 -91 1919 -91 
Q 1588 -91 1214 -16 
Q 841 59 441 206 
L 441 856 
Q 825 641 1194 531 
Q 1563 422 1919 422 
Q 2459 422 2753 634 
Q 3047 847 3047 1241 
Q 3047 1584 2836 1778 
Q 2625 1972 2144 2069 
L 1759 2144 
Q 1053 2284 737 2584 
Q 422 2884 422 3419 
Q 422 4038 858 4394 
Q 1294 4750 2059 4750 
Q 2388 4750 2728 4690 
Q 3069 4631 3425 4513 
z
" transform="scale(0.015625)"/>
       <path id="DejaVuSans-76" d="M 191 3500 
L 800 3500 
L 1894 563 
L 2988 3500 
L 3597 3500 
L 2284 0 
L 1503 0 
L 191 3500 
z
" transform="scale(0.015625)"/>
      </defs>
      <use xlink:href="#DejaVuSans-53"/>
      <use xlink:href="#DejaVuSans-70" transform="translate(63.476562 0)"/>
      <use xlink:href="#DejaVuSans-65" transform="translate(126.953125 0)"/>
      <use xlink:href="#DejaVuSans-65" transform="translate(188.476562 0)"/>
      <use xlink:href="#DejaVuSans-64" transform="translate(250 0)"/>
      <use xlink:href="#DejaVuSans-75" transform="translate(313.476562 0)"/>
      <use xlink:href="#DejaVuSans-70" transform="translate(376.855469 0)"/>
      <use xlink:href="#DejaVuSans-20" transform="translate(440.332031 0)"/>
      <use xlink:href="#DejaVuSans-76" transform="translate(472.119141 0)"/>
      <use xlink:href="#DejaVuSans-73" transform="translate(531.298828 0)"/>
      <use xlink:href="#DejaVuSans-20" transform="translate(583.398438 0)"/>
      <use xlink:href="#DejaVuSans-31" transform="translate(615.185547 0)"/>
      <use xlink:href="#DejaVuSans-20" transform="translate(678.808594 0)"/>
      <use xlink:href="#DejaVuSans-74" transform="translate(710.595703 0)"/>
      <use xlink:href="#DejaVuSans-68" transform="translate(749.804688 0)"/>
      <use xlink:href="#DejaVuSans-72" transform="translate(813.183594 0)"/>
      <use xlink:href="#DejaVuSans-65" transform="translate(852.046875 0)"/>
      <use xlink:href="#DejaVuSans-61" transform="translate(913.570312 0)"/>
      <use xlink:href="#DejaVuSans-64" transform="translate(974.849609 0)"/>
     </g>
    </g>
   </g>
   <g id="line2d_38">
    <path d="M 574.301608 281.61078 
L 580.752444 237.046859 
L 587.20328 209.928981 
L 593.654116 191.689445 
L 600.104951 178.581466 
L 606.555787 168.706525 
L 613.006623 160.999811 
L 619.457459 154.817854 
L 625.908295 149.748884 
L 632.359131 145.517154 
L 638.809966 141.931057 
L 645.260802 138.85331 
L 651.711638 136.182974 
L 658.162474 133.844177 
L 664.61331 131.778784 
L 671.064146 129.9415 
L 677.514981 128.296513 
L 683.965817 126.815135 
L 690.416653 125.474114 
L 696.867489 124.254404 
L 703.318325 123.140257 
L 709.769161 122.118536 
L 716.219996 121.178199 
L 722.670832 120.309894 
L 729.121668 119.50565 
L 735.572504 118.75863 
L 742.02334 118.062936 
L 748.474176 117.413454 
L 754.925012 116.805727 
L 761.375847 116.235855 
L 767.826683 115.700407 
L 774.277519 115.196355 
L 780.728355 114.721017 
L 787.179191 114.272008 
L 793.630027 113.847198 
L 800.080862 113.444682 
L 806.531698 113.062751 
L 812.982534 112.699865 
L 819.43337 112.354633 
L 825.884206 112.025799 
L 832.335042 111.712221 
L 838.785877 111.412861 
L 845.236713 111.126774 
L 851.687549 110.853096 
L 858.138385 110.591037 
L 864.589221 110.339873 
L 871.040057 110.098938 
L 877.490892 109.867619 
L 883.941728 109.645352 
L 890.392564 109.431616 
L 896.8434 109.225928 
L 903.294236 109.027844 
L 909.745072 108.836949 
L 916.195907 108.652858 
L 922.646743 108.475214 
L 929.097579 108.303684 
L 935.548415 108.137958 
L 941.999251 107.977746 
L 948.450087 107.822778 
L 954.900922 107.6728 
L 961.351758 107.527575 
L 967.802594 107.38688 
L 974.25343 107.250508 
L 980.704266 107.118261 
" clip-path="url(#pbf68425e30)" style="fill: none; stroke: #388e3c; stroke-opacity: 0.5; stroke-width: 1.5; stroke-linecap: square"/>
   </g>
   <g id="line2d_39">
    <path d="M 574.301608 281.61078 
L 580.752444 194.78156 
L 587.20328 107.95234 
L 593.654116 21.12312 
L 595.297717 -1 
" clip-path="url(#pbf68425e30)" style="fill: none; stroke-dasharray: 3.7,1.6; stroke-dashoffset: 0; stroke: #1f6feb; stroke-opacity: 0.3"/>
   </g>
   <g id="line2d_40">
    <path d="M 632.359131 368.44 
L 632.359131 67.92 
" clip-path="url(#pbf68425e30)" style="fill: none; stroke-dasharray: 1,1.65; stroke-dashoffset: 0; stroke: #f0883e; stroke-opacity: 0.5"/>
   </g>
   <g id="patch_7">
    <path d="M 567.850772 368.44 
L 567.850772 67.92 
" style="fill: none; stroke: #30363d; stroke-width: 0.8; stroke-linejoin: miter; stroke-linecap: square"/>
   </g>
   <g id="patch_8">
    <path d="M 567.850772 368.44 
L 993.605938 368.44 
" style="fill: none; stroke: #30363d; stroke-width: 0.8; stroke-linejoin: miter; stroke-linecap: square"/>
   </g>
   <g id="text_42">
    <!-- Speedup Scaling -->
    <g style="fill: #c9d1d9" transform="translate(715.032261 61.92) scale(0.14 -0.14)">
     <defs>
      <path id="DejaVuSans-Bold-65" d="M 4031 1759 
L 4031 1441 
L 1416 1441 
Q 1456 1047 1700 850 
Q 1944 653 2381 653 
Q 2734 653 3104 758 
Q 3475 863 3866 1075 
L 3866 213 
Q 3469 63 3072 -14 
Q 2675 -91 2278 -91 
Q 1328 -91 801 392 
Q 275 875 275 1747 
Q 275 2603 792 3093 
Q 1309 3584 2216 3584 
Q 3041 3584 3536 3087 
Q 4031 2591 4031 1759 
z
M 2881 2131 
Q 2881 2450 2695 2645 
Q 2509 2841 2209 2841 
Q 1884 2841 1681 2658 
Q 1478 2475 1428 2131 
L 2881 2131 
z
" transform="scale(0.015625)"/>
      <path id="DejaVuSans-Bold-64" d="M 2919 2988 
L 2919 4863 
L 4044 4863 
L 4044 0 
L 2919 0 
L 2919 506 
Q 2688 197 2409 53 
Q 2131 -91 1766 -91 
Q 1119 -91 703 423 
Q 288 938 288 1747 
Q 288 2556 703 3070 
Q 1119 3584 1766 3584 
Q 2128 3584 2408 3439 
Q 2688 3294 2919 2988 
z
M 2181 722 
Q 2541 722 2730 984 
Q 2919 1247 2919 1747 
Q 2919 2247 2730 2509 
Q 2541 2772 2181 2772 
Q 1825 2772 1636 2509 
Q 1447 2247 1447 1747 
Q 1447 1247 1636 984 
Q 1825 722 2181 722 
z
" transform="scale(0.015625)"/>
     </defs>
     <use xlink:href="#DejaVuSans-Bold-53"/>
     <use xlink:href="#DejaVuSans-Bold-70" transform="translate(72.021484 0)"/>
     <use xlink:href="#DejaVuSans-Bold-65" transform="translate(143.603516 0)"/>
     <use xlink:href="#DejaVuSans-Bold-65" transform="translate(211.425781 0)"/>
     <use xlink:href="#DejaVuSans-Bold-64" transform="translate(279.248047 0)"/>
     <use xlink:href="#DejaVuSans-Bold-75" transform="translate(350.830078 0)"/>
     <use xlink:href="#DejaVuSans-Bold-70" transform="translate(422.021484 0)"/>
     <use xlink:href="#DejaVuSans-Bold-20" transform="translate(493.603516 0)"/>
     <use xlink:href="#DejaVuSans-Bold-53" transform="translate(528.417969 0)"/>
     <use xlink:href="#DejaVuSans-Bold-63" transform="translate(600.439453 0)"/>
     <use xlink:href="#DejaVuSans-Bold-61" transform="translate(659.716797 0)"/>
     <use xlink:href="#DejaVuSans-Bold-6c" transform="translate(727.197266 0)"/>
     <use xlink:href="#DejaVuSans-Bold-69" transform="translate(761.474609 0)"/>
     <use xlink:href="#DejaVuSans-Bold-6e" transform="translate(795.751953 0)"/>
     <use xlink:href="#DejaVuSans-Bold-67" transform="translate(866.943359 0)"/>
    </g>
   </g>
   <g id="line2d_41">
    <path d="M 574.301608 281.61078 
L 580.752444 230.972601 
L 593.654116 185.142627 
L 606.555787 167.261055 
L 619.457459 151.383841 
L 632.359131 145.517154 
" clip-path="url(#pbf68425e30)" style="fill: none; stroke: #4caf50; stroke-width: 2.5; stroke-linecap: square"/>
    <g clip-path="url(#pbf68425e30)">
     <use xlink:href="#m4d9b8b196e" x="574.301608" y="281.61078" style="fill: #4caf50; stroke: #ffffff; stroke-width: 1.5"/>
     <use xlink:href="#m4d9b8b196e" x="580.752444" y="230.972601" style="fill: #4caf50; stroke: #ffffff; stroke-width: 1.5"/>
     <use xlink:href="#m4d9b8b196e" x="593.654116" y="185.142627" style="fill: #4caf50; stroke: #ffffff; stroke-width: 1.5"/>
     <use xlink:href="#m4d9b8b196e" x="606.555787" y="167.261055" style="fill: #4caf50; stroke: #ffffff; stroke-width: 1.5"/>
     <use xlink:href="#m4d9b8b196e" x="619.457459" y="151.383841" style="fill: #4caf50; stroke: #ffffff; stroke-width: 1.5"/>
     <use xlink:href="#m4d9b8b196e" x="632.359131" y="145.517154" style="fill: #4caf50; stroke: #ffffff; stroke-width: 1.5"/>
    </g>
   </g>
   <g id="legend_2">
    <g id="patch_9">
     <path d="M 898.667188 363.94 
L 987.305938 363.94 
Q 989.105938 363.94 989.105938 362.14 
L 989.105938 323.409063 
Q 989.105938 321.609063 987.305938 321.609063 
L 898.667188 321.609063 
Q 896.867188 321.609063 896.867188 323.409063 
L 896.867188 362.14 
Q 896.867188 363.94 898.667188 363.94 
z
" style="fill: #161b22; opacity: 0.8; stroke: #30363d; stroke-linejoin: miter"/>
    </g>
    <g id="line2d_42">
     <path d="M 900.467188 328.897656 
L 909.467188 328.897656 
L 918.467188 328.897656 
" style="fill: none; stroke: #388e3c; stroke-opacity: 0.5; stroke-width: 1.5; stroke-linecap: square"/>
    </g>
    <g id="text_43">
     <!-- Amdahl's law -->
     <g style="fill: #c9d1d9" transform="translate(925.667188 332.047656) scale(0.09 -0.09)">
      <use xlink:href="#DejaVuSans-41"/>
      <use xlink:href="#DejaVuSans-6d" transform="translate(68.408203 0)"/>
      <use xlink:href="#DejaVuSans-64" transform="translate(165.820312 0)"/>
      <use xlink:href="#DejaVuSans-61" transform="translate(229.296875 0)"/>
      <use xlink:href="#DejaVuSans-68" transform="translate(290.576172 0)"/>
      <use xlink:href="#DejaVuSans-6c" transform="translate(353.955078 0)"/>
      <use xlink:href="#DejaVuSans-27" transform="translate(381.738281 0)"/>
      <use xlink:href="#DejaVuSans-73" transform="translate(409.228516 0)"/>
      <use xlink:href="#DejaVuSans-20" transform="translate(461.328125 0)"/>
      <use xlink:href="#DejaVuSans-6c" transform="translate(493.115234 0)"/>
      <use xlink:href="#DejaVuSans-61" transform="translate(520.898438 0)"/>
      <use xlink:href="#DejaVuSans-77" transform="translate(582.177734 0)"/>
     </g>
    </g>
    <g id="line2d_43">
     <path d="M 900.467188 342.107969 
L 909.467188 342.107969 
L 918.467188 342.107969 
" style="fill: none; stroke-dasharray: 3.7,1.6; stroke-dashoffset: 0; stroke: #1f6feb; stroke-opacity: 0.3"/>
    </g>
    <g id="text_44">
     <!-- Perfect linear -->
     <g style="fill: #c9d1d9" transform="translate(925.667188 345.257969) scale(0.09 -0.09)">
      <use xlink:href="#DejaVuSans-50"/>
      <use xlink:href="#DejaVuSans-65" transform="translate(56.677734 0)"/>
      <use xlink:href="#DejaVuSans-72" transform="translate(118.201172 0)"/>
      <use xlink:href="#DejaVuSans-66" transform="translate(159.314453 0)"/>
      <use xlink:href="#DejaVuSans-65" transform="translate(194.519531 0)"/>
      <use xlink:href="#DejaVuSans-63" transform="translate(256.042969 0)"/>
      <use xlink:href="#DejaVuSans-74" transform="translate(311.023438 0)"/>
      <use xlink:href="#DejaVuSans-20" transform="translate(350.232422 0)"/>
      <use xlink:href="#DejaVuSans-6c" transform="translate(382.019531 0)"/>
      <use xlink:href="#DejaVuSans-69" transform="translate(409.802734 0)"/>
      <use xlink:href="#DejaVuSans-6e" transform="translate(437.585938 0)"/>
      <use xlink:href="#DejaVuSans-65" transform="translate(500.964844 0)"/>
      <use xlink:href="#DejaVuSans-61" transform="translate(562.488281 0)"/>
      <use xlink:href="#DejaVuSans-72" transform="translate(623.767578 0)"/>
     </g>
    </g>
    <g id="line2d_44">
     <path d="M 900.467188 355.318281 
L 909.467188 355.318281 
L 918.467188 355.318281 
" style="fill: none; stroke: #4caf50; stroke-width: 2.5; stroke-linecap: square"/>
     <g>
      <use xlink:href="#m4d9b8b196e" x="909.467188" y="355.318281" style="fill: #4caf50; stroke: #ffffff; stroke-width: 1.5"/>
     </g>
    </g>
    <g id="text_45">
     <!-- Measured -->
     <g style="fill: #c9d1d9" transform="translate(925.667188 358.468281) scale(0.09 -0.09)">
      <use xlink:href="#DejaVuSans-4d"/>
      <use xlink:href="#DejaVuSans-65" transform="translate(86.279297 0)"/>
      <use xlink:href="#DejaVuSans-61" transform="translate(147.802734 0)"/>
      <use xlink:href="#DejaVuSans-73" transform="translate(209.082031 0)"/>
      <use xlink:href="#DejaVuSans-75" transform="translate(261.181641 0)"/>
      <use xlink:href="#DejaVuSans-72" transform="translate(324.560547 0)"/>
      <use xlink:href="#DejaVuSans-65" transform="translate(363.423828 0)"/>
      <use xlink:href="#DejaVuSans-64" transform="translate(424.947266 0)"/>
     </g>
    </g>
   </g>
  </g>
  <g id="text_46">
   <!-- tardigrade — Core Scaling (measured + extrapolated) -->
   <g style="fill: #c9d1d9" transform="translate(257.464687 19.3575) scale(0.16 -0.16)">
    <defs>
     <path id="DejaVuSans-Bold-2014" d="M 344 2156 
L 6056 2156 
L 6056 1350 
L 344 1350 
L 344 2156 
z
" transform="scale(0.015625)"/>
     <path id="DejaVuSans-Bold-43" d="M 4288 256 
Q 3956 84 3597 -3 
Q 3238 -91 2847 -91 
Q 1681 -91 1000 561 
Q 319 1213 319 2328 
Q 319 3447 1000 4098 
Q 1681 4750 2847 4750 
Q 3238 4750 3597 4662 
Q 3956 4575 4288 4403 
L 4288 3438 
Q 3953 3666 3628 3772 
Q 3303 3878 2944 3878 
Q 2300 3878 1931 3465 
Q 1563 3053 1563 2328 
Q 1563 1606 1931 1193 
Q 2300 781 2944 781 
Q 3303 781 3628 887 
Q 3953 994 4288 1222 
L 4288 256 
z
" transform="scale(0.015625)"/>
     <path id="DejaVuSans-Bold-28" d="M 2413 -844 
L 1484 -844 
Q 1006 -72 778 623 
Q 550 1319 550 2003 
Q 550 2688 779 3389 
Q 1009 4091 1484 4856 
L 2413 4856 
Q 2013 4116 1813 3408 
Q 1613 2700 1613 2009 
Q 1613 1319 1811 609 
Q 2009 -100 2413 -844 
z
" transform="scale(0.015625)"/>
     <path id="DejaVuSans-Bold-6d" d="M 3781 2919 
Q 3994 3244 4286 3414 
Q 4578 3584 4928 3584 
Q 5531 3584 5847 3212 
Q 6163 2841 6163 2131 
L 6163 0 
L 5038 0 
L 5038 1825 
Q 5041 1866 5042 1909 
Q 5044 1953 5044 2034 
Q 5044 2406 4934 2573 
Q 4825 2741 4581 2741 
Q 4263 2741 4089 2478 
Q 3916 2216 3909 1719 
L 3909 0 
L 2784 0 
L 2784 1825 
Q 2784 2406 2684 2573 
Q 2584 2741 2328 2741 
Q 2006 2741 1831 2477 
Q 1656 2213 1656 1722 
L 1656 0 
L 531 0 
L 531 3500 
L 1656 3500 
L 1656 2988 
Q 1863 3284 2130 3434 
Q 2397 3584 2719 3584 
Q 3081 3584 3359 3409 
Q 3638 3234 3781 2919 
z
" transform="scale(0.015625)"/>
     <path id="DejaVuSans-Bold-2b" d="M 3053 4013 
L 3053 2375 
L 4684 2375 
L 4684 1638 
L 3053 1638 
L 3053 0 
L 2309 0 
L 2309 1638 
L 678 1638 
L 678 2375 
L 2309 2375 
L 2309 4013 
L 3053 4013 
z
" transform="scale(0.015625)"/>
     <path id="DejaVuSans-Bold-78" d="M 1422 1791 
L 159 3500 
L 1344 3500 
L 2059 2463 
L 2784 3500 
L 3969 3500 
L 2706 1797 
L 4031 0 
L 2847 0 
L 2059 1106 
L 1281 0 
L 97 0 
L 1422 1791 
z
" transform="scale(0.015625)"/>
     <path id="DejaVuSans-Bold-29" d="M 513 -844 
Q 913 -100 1113 609 
Q 1313 1319 1313 2009 
Q 1313 2700 1113 3408 
Q 913 4116 513 4856 
L 1441 4856 
Q 1916 4091 2145 3389 
Q 2375 2688 2375 2003 
Q 2375 1319 2147 623 
Q 1919 -72 1441 -844 
L 513 -844 
z
" transform="scale(0.015625)"/>
    </defs>
    <use xlink:href="#DejaVuSans-Bold-74"/>
    <use xlink:href="#DejaVuSans-Bold-61" transform="translate(47.802734 0)"/>
    <use xlink:href="#DejaVuSans-Bold-72" transform="translate(115.283203 0)"/>
    <use xlink:href="#DejaVuSans-Bold-64" transform="translate(164.599609 0)"/>
    <use xlink:href="#DejaVuSans-Bold-69" transform="translate(236.181641 0)"/>
    <use xlink:href="#DejaVuSans-Bold-67" transform="translate(270.458984 0)"/>
    <use xlink:href="#DejaVuSans-Bold-72" transform="translate(342.041016 0)"/>
    <use xlink:href="#DejaVuSans-Bold-61" transform="translate(391.357422 0)"/>
    <use xlink:href="#DejaVuSans-Bold-64" transform="translate(458.837891 0)"/>
    <use xlink:href="#DejaVuSans-Bold-65" transform="translate(530.419922 0)"/>
    <use xlink:href="#DejaVuSans-Bold-20" transform="translate(598.242188 0)"/>
    <use xlink:href="#DejaVuSans-Bold-2014" transform="translate(633.056641 0)"/>
    <use xlink:href="#DejaVuSans-Bold-20" transform="translate(733.056641 0)"/>
    <use xlink:href="#DejaVuSans-Bold-43" transform="translate(767.871094 0)"/>
    <use xlink:href="#DejaVuSans-Bold-6f" transform="translate(841.259766 0)"/>
    <use xlink:href="#DejaVuSans-Bold-72" transform="translate(909.960938 0)"/>
    <use xlink:href="#DejaVuSans-Bold-65" transform="translate(959.277344 0)"/>
    <use xlink:href="#DejaVuSans-Bold-20" transform="translate(1027.099609 0)"/>
    <use xlink:href="#DejaVuSans-Bold-53" transform="translate(1061.914062 0)"/>
    <use xlink:href="#DejaVuSans-Bold-63" transform="translate(1133.935547 0)"/>
    <use xlink:href="#DejaVuSans-Bold-61" transform="translate(1193.212891 0)"/>
    <use xlink:href="#DejaVuSans-Bold-6c" transform="translate(1260.693359 0)"/>
    <use xlink:href="#DejaVuSans-Bold-69" transform="translate(1294.970703 0)"/>
    <use xlink:href="#DejaVuSans-Bold-6e" transform="translate(1329.248047 0)"/>
    <use xlink:href="#DejaVuSans-Bold-67" transform="translate(1400.439453 0)"/>
    <use xlink:href="#DejaVuSans-Bold-20" transform="translate(1472.021484 0)"/>
    <use xlink:href="#DejaVuSans-Bold-28" transform="translate(1506.835938 0)"/>
    <use xlink:href="#DejaVuSans-Bold-6d" transform="translate(1552.539062 0)"/>
    <use xlink:href="#DejaVuSans-Bold-65" transform="translate(1656.738281 0)"/>
    <use xlink:href="#DejaVuSans-Bold-61" transform="translate(1724.560547 0)"/>
    <use xlink:href="#DejaVuSans-Bold-73" transform="translate(1792.041016 0)"/>
    <use xlink:href="#DejaVuSans-Bold-75" transform="translate(1851.5625 0)"/>
    <use xlink:href="#DejaVuSans-Bold-72" transform="translate(1922.753906 0)"/>
    <use xlink:href="#DejaVuSans-Bold-65" transform="translate(1972.070312 0)"/>
    <use xlink:href="#DejaVuSans-Bold-64" transform="translate(2039.892578 0)"/>
    <use xlink:href="#DejaVuSans-Bold-20" transform="translate(2111.474609 0)"/>
    <use xlink:href="#DejaVuSans-Bold-2b" transform="translate(2146.289062 0)"/>
    <use xlink:href="#DejaVuSans-Bold-20" transform="translate(2230.078125 0)"/>
    <use xlink:href="#DejaVuSans-Bold-65" transform="translate(2264.892578 0)"/>
    <use xlink:href="#DejaVuSans-Bold-78" transform="translate(2332.714844 0)"/>
    <use xlink:href="#DejaVuSans-Bold-74" transform="translate(2397.216797 0)"/>
    <use xlink:href="#DejaVuSans-Bold-72" transform="translate(2445.019531 0)"/>
    <use xlink:href="#DejaVuSans-Bold-61" transform="translate(2494.335938 0)"/>
    <use xlink:href="#DejaVuSans-Bold-70" transform="translate(2561.816406 0)"/>
    <use xlink:href="#DejaVuSans-Bold-6f" transform="translate(2633.398438 0)"/>
    <use xlink:href="#DejaVuSans-Bold-6c" transform="translate(2702.099609 0)"/>
    <use xlink:href="#DejaVuSans-Bold-61" transform="translate(2736.376953 0)"/>
    <use xlink:href="#DejaVuSans-Bold-74" transform="translate(2803.857422 0)"/>
    <use xlink:href="#DejaVuSans-Bold-65" transform="translate(2851.660156 0)"/>
    <use xlink:href="#DejaVuSans-Bold-64" transform="translate(2919.482422 0)"/>
    <use xlink:href="#DejaVuSans-Bold-29" transform="translate(2991.064453 0)"/>
   </g>
  </g>
 </g>
 <defs>
  <clipPath id="pfe4c33f453">
   <rect x="54.295938" y="67.92" width="425.755165" height="300.52"/>
  </clipPath>
  <clipPath id="pbf68425e30">
   <rect x="567.850772" y="67.92" width="425.755165" height="300.52"/>
  </clipPath>
 </defs>
</svg>
