<?xml version="1.0" encoding="utf-8" standalone="no"?>
<!DOCTYPE svg PUBLIC "-//W3C//DTD SVG 1.1//EN"
  "http://www.w3.org/Graphics/SVG/1.1/DTD/svg11.dtd">
<svg xmlns:xlink="http://www.w3.org/1999/xlink" width="715.811724pt" height="267.074531pt" viewBox="0 0 715.811724 267.074531" xmlns="http://www.w3.org/2000/svg" version="1.1">
 <metadata>
  <rdf:RDF xmlns:dc="http://purl.org/dc/elements/1.1/" xmlns:cc="http://creativecommons.org/ns#" xmlns:rdf="http://www.w3.org/1999/02/22-rdf-syntax-ns#">
   <cc:Work>
    <dc:type rdf:resource="http://purl.org/dc/dcmitype/StillImage"/>
    <dc:date>2026-04-09T07:34:38.509307</dc:date>
    <dc:format>image/svg+xml</dc:format>
    <dc:creator>
     <cc:Agent>
      <dc:title>Matplotlib v3.10.8, https://matplotlib.org/</dc:title>
     </cc:Agent>
    </dc:creator>
   </cc:Work>
  </rdf:RDF>
 </metadata>
 <defs>
  <style type="text/css">*{stroke-linejoin: round; stroke-linecap: butt}</style>
 </defs>
 <g id="figure_1">
  <g id="patch_1">
   <path d="M 0 267.074531 
L 715.811724 267.074531 
L 715.811724 0 
L 0 0 
z
" style="fill: #0e1117"/>
  </g>
  <g id="axes_1">
   <g id="patch_2">
    <path d="M 111.229062 231.858281 
L 679.39192 231.858281 
L 679.39192 23.558281 
L 111.229062 23.558281 
z
" style="fill: #161b22"/>
   </g>
   <g id="patch_3">
    <path d="M 111.229062 222.390099 
L 140.740784 222.390099 
L 140.740784 173.295823 
L 111.229062 173.295823 
z
" clip-path="url(#p4d3ba11723)" style="fill: #21262d"/>
   </g>
   <g id="patch_4">
    <path d="M 111.229062 152.255419 
L 187.97139 152.255419 
L 187.97139 103.161143 
L 111.229062 103.161143 
z
" clip-path="url(#p4d3ba11723)" style="fill: #21262d"/>
   </g>
   <g id="patch_5">
    <path d="M 111.229062 82.120739 
L 652.336545 82.120739 
L 652.336545 33.026463 
L 111.229062 33.026463 
z
" clip-path="url(#p4d3ba11723)" style="fill: #21262d"/>
   </g>
   <g id="matplotlib.axis_1">
    <g id="xtick_1">
     <g id="line2d_1">
      <path d="M 111.229062 231.858281 
L 111.229062 23.558281 
" clip-path="url(#p4d3ba11723)" style="fill: none; stroke: #21262d; stroke-width: 0.5; stroke-linecap: square"/>
     </g>
     <g id="line2d_2">
      <defs>
       <path id="m69f53baf0b" d="M 0 0 
L 0 3 
" style="stroke: #8b949e; stroke-width: 0.5"/>
      </defs>
      <g>
       <use xlink:href="#m69f53baf0b" x="111.229062" y="231.858281" style="fill: #8b949e; stroke: #8b949e; stroke-width: 0.5"/>
      </g>
     </g>
     <g id="text_1">
      <!-- 0 -->
      <g style="fill: #8b949e" transform="translate(108.519922 245.244687) scale(0.09 -0.09)">
       <defs>
        <path id="DejaVuSansMono-30" d="M 1509 2344 
Q 1509 2516 1629 2641 
Q 1750 2766 1919 2766 
Q 2094 2766 2219 2641 
Q 2344 2516 2344 2344 
Q 2344 2169 2220 2047 
Q 2097 1925 1919 1925 
Q 1744 1925 1626 2044 
Q 1509 2163 1509 2344 
z
M 1925 4250 
Q 1484 4250 1267 3775 
Q 1050 3300 1050 2328 
Q 1050 1359 1267 884 
Q 1484 409 1925 409 
Q 2369 409 2586 884 
Q 2803 1359 2803 2328 
Q 2803 3300 2586 3775 
Q 2369 4250 1925 4250 
z
M 1925 4750 
Q 2672 4750 3055 4137 
Q 3438 3525 3438 2328 
Q 3438 1134 3055 521 
Q 2672 -91 1925 -91 
Q 1178 -91 797 521 
Q 416 1134 416 2328 
Q 416 3525 797 4137 
Q 1178 4750 1925 4750 
z
" transform="scale(0.015625)"/>
       </defs>
       <use xlink:href="#DejaVuSansMono-30"/>
      </g>
     </g>
    </g>
    <g id="xtick_2">
     <g id="line2d_3">
      <path d="M 229.750031 231.858281 
L 229.750031 23.558281 
" clip-path="url(#p4d3ba11723)" style="fill: none; stroke: #21262d; stroke-width: 0.5; stroke-linecap: square"/>
     </g>
     <g id="line2d_4">
      <g>
       <use xlink:href="#m69f53baf0b" x="229.750031" y="231.858281" style="fill: #8b949e; stroke: #8b949e; stroke-width: 0.5"/>
      </g>
     </g>
     <g id="text_2">
      <!-- 20 -->
      <g style="fill: #8b949e" transform="translate(224.33175 245.244687) scale(0.09 -0.09)">
       <defs>
        <path id="DejaVuSansMono-32" d="M 1166 531 
L 3309 531 
L 3309 0 
L 475 0 
L 475 531 
Q 1059 1147 1496 1619 
Q 1934 2091 2100 2284 
Q 2413 2666 2522 2902 
Q 2631 3138 2631 3384 
Q 2631 3775 2401 3997 
Q 2172 4219 1772 4219 
Q 1488 4219 1175 4116 
Q 863 4013 513 3803 
L 513 4441 
Q 834 4594 1145 4672 
Q 1456 4750 1759 4750 
Q 2444 4750 2861 4386 
Q 3278 4022 3278 3431 
Q 3278 3131 3139 2831 
Q 3000 2531 2688 2169 
Q 2513 1966 2180 1606 
Q 1847 1247 1166 531 
z
" transform="scale(0.015625)"/>
       </defs>
       <use xlink:href="#DejaVuSansMono-32"/>
       <use xlink:href="#DejaVuSansMono-30" transform="translate(60.205078 0)"/>
      </g>
     </g>
    </g>
    <g id="xtick_3">
     <g id="line2d_5">
      <path d="M 348.271 231.858281 
L 348.271 23.558281 
" clip-path="url(#p4d3ba11723)" style="fill: none; stroke: #21262d; stroke-width: 0.5; stroke-linecap: square"/>
     </g>
     <g id="line2d_6">
      <g>
       <use xlink:href="#m69f53baf0b" x="348.271" y="231.858281" style="fill: #8b949e; stroke: #8b949e; stroke-width: 0.5"/>
      </g>
     </g>
     <g id="text_3">
      <!-- 40 -->
      <g style="fill: #8b949e" transform="translate(342.852719 245.244687) scale(0.09 -0.09)">
       <defs>
        <path id="DejaVuSansMono-34" d="M 2297 4091 
L 825 1625 
L 2297 1625 
L 2297 4091 
z
M 2194 4666 
L 2925 4666 
L 2925 1625 
L 3547 1625 
L 3547 1113 
L 2925 1113 
L 2925 0 
L 2297 0 
L 2297 1113 
L 319 1113 
L 319 1709 
L 2194 4666 
z
" transform="scale(0.015625)"/>
       </defs>
       <use xlink:href="#DejaVuSansMono-34"/>
       <use xlink:href="#DejaVuSansMono-30" transform="translate(60.205078 0)"/>
      </g>
     </g>
    </g>
    <g id="xtick_4">
     <g id="line2d_7">
      <path d="M 466.791969 231.858281 
L 466.791969 23.558281 
" clip-path="url(#p4d3ba11723)" style="fill: none; stroke: #21262d; stroke-width: 0.5; stroke-linecap: square"/>
     </g>
     <g id="line2d_8">
      <g>
       <use xlink:href="#m69f53baf0b" x="466.791969" y="231.858281" style="fill: #8b949e; stroke: #8b949e; stroke-width: 0.5"/>
      </g>
     </g>
     <g id="text_4">
      <!-- 60 -->
      <g style="fill: #8b949e" transform="translate(461.373688 245.244687) scale(0.09 -0.09)">
       <defs>
        <path id="DejaVuSansMono-36" d="M 3097 4563 
L 3097 3981 
Q 2900 4097 2678 4158 
Q 2456 4219 2216 4219 
Q 1616 4219 1306 3767 
Q 997 3316 997 2438 
Q 1147 2750 1412 2917 
Q 1678 3084 2022 3084 
Q 2697 3084 3067 2670 
Q 3438 2256 3438 1497 
Q 3438 741 3056 325 
Q 2675 -91 1984 -91 
Q 1172 -91 794 492 
Q 416 1075 416 2328 
Q 416 3509 870 4129 
Q 1325 4750 2188 4750 
Q 2419 4750 2650 4701 
Q 2881 4653 3097 4563 
z
M 1972 2591 
Q 1569 2591 1337 2300 
Q 1106 2009 1106 1497 
Q 1106 984 1337 693 
Q 1569 403 1972 403 
Q 2391 403 2603 679 
Q 2816 956 2816 1497 
Q 2816 2041 2603 2316 
Q 2391 2591 1972 2591 
z
" transform="scale(0.015625)"/>
       </defs>
       <use xlink:href="#DejaVuSansMono-36"/>
       <use xlink:href="#DejaVuSansMono-30" transform="translate(60.205078 0)"/>
      </g>
     </g>
    </g>
    <g id="xtick_5">
     <g id="line2d_9">
      <path d="M 585.312938 231.858281 
L 585.312938 23.558281 
" clip-path="url(#p4d3ba11723)" style="fill: none; stroke: #21262d; stroke-width: 0.5; stroke-linecap: square"/>
     </g>
     <g id="line2d_10">
      <g>
       <use xlink:href="#m69f53baf0b" x="585.312938" y="231.858281" style="fill: #8b949e; stroke: #8b949e; stroke-width: 0.5"/>
      </g>
     </g>
     <g id="text_5">
      <!-- 80 -->
      <g style="fill: #8b949e" transform="translate(579.894656 245.244687) scale(0.09 -0.09)">
       <defs>
        <path id="DejaVuSansMono-38" d="M 1925 2216 
Q 1503 2216 1273 1980 
Q 1044 1744 1044 1313 
Q 1044 881 1276 642 
Q 1509 403 1925 403 
Q 2350 403 2579 639 
Q 2809 875 2809 1313 
Q 2809 1741 2576 1978 
Q 2344 2216 1925 2216 
z
M 1375 2478 
Q 972 2581 745 2862 
Q 519 3144 519 3541 
Q 519 4097 897 4423 
Q 1275 4750 1925 4750 
Q 2578 4750 2956 4423 
Q 3334 4097 3334 3541 
Q 3334 3144 3107 2862 
Q 2881 2581 2478 2478 
Q 2947 2375 3195 2062 
Q 3444 1750 3444 1253 
Q 3444 622 3041 265 
Q 2638 -91 1925 -91 
Q 1213 -91 811 264 
Q 409 619 409 1247 
Q 409 1747 657 2061 
Q 906 2375 1375 2478 
z
M 1147 3481 
Q 1147 3106 1347 2909 
Q 1547 2713 1925 2713 
Q 2306 2713 2506 2909 
Q 2706 3106 2706 3481 
Q 2706 3863 2507 4063 
Q 2309 4263 1925 4263 
Q 1547 4263 1347 4061 
Q 1147 3859 1147 3481 
z
" transform="scale(0.015625)"/>
       </defs>
       <use xlink:href="#DejaVuSansMono-38"/>
       <use xlink:href="#DejaVuSansMono-30" transform="translate(60.205078 0)"/>
      </g>
     </g>
    </g>
    <g id="text_6">
     <!-- MB -->
     <g style="fill: #8b949e" transform="translate(389.89221 258.002813) scale(0.09 -0.09)">
      <defs>
       <path id="DejaVuSansMono-4d" d="M 269 4666 
L 1113 4666 
L 1919 2291 
L 2731 4666 
L 3578 4666 
L 3578 0 
L 2994 0 
L 2994 4122 
L 2163 1663 
L 1684 1663 
L 850 4122 
L 850 0 
L 269 0 
L 269 4666 
z
" transform="scale(0.015625)"/>
       <path id="DejaVuSansMono-42" d="M 1153 2228 
L 1153 519 
L 1900 519 
Q 2450 519 2684 711 
Q 2919 903 2919 1344 
Q 2919 1800 2672 2014 
Q 2425 2228 1900 2228 
L 1153 2228 
z
M 1153 4147 
L 1153 2741 
L 1888 2741 
Q 2344 2741 2548 2916 
Q 2753 3091 2753 3481 
Q 2753 3834 2551 3990 
Q 2350 4147 1888 4147 
L 1153 4147 
z
M 519 4666 
L 1900 4666 
Q 2616 4666 3003 4356 
Q 3391 4047 3391 3481 
Q 3391 3053 3186 2806 
Q 2981 2559 2572 2497 
Q 3031 2428 3292 2104 
Q 3553 1781 3553 1281 
Q 3553 647 3137 323 
Q 2722 0 1900 0 
L 519 0 
L 519 4666 
z
" transform="scale(0.015625)"/>
      </defs>
      <use xlink:href="#DejaVuSansMono-4d"/>
      <use xlink:href="#DejaVuSansMono-42" transform="translate(60.205078 0)"/>
     </g>
    </g>
   </g>
   <g id="matplotlib.axis_2">
    <g id="ytick_1">
     <g id="line2d_11">
      <defs>
       <path id="mdec5b1115b" d="M 0 0 
L -3 0 
" style="stroke: #8b949e; stroke-width: 0.5"/>
      </defs>
      <g>
       <use xlink:href="#mdec5b1115b" x="111.229062" y="197.842961" style="fill: #8b949e; stroke: #8b949e; stroke-width: 0.5"/>
      </g>
     </g>
     <g id="text_7">
      <!-- Source Project -->
      <g style="fill: #8b949e" transform="translate(28.873125 196.907102) scale(0.09 -0.09)">
       <defs>
        <path id="DejaVuSansMono-53" d="M 3163 4506 
L 3163 3866 
Q 2875 4050 2586 4144 
Q 2297 4238 2003 4238 
Q 1556 4238 1297 4030 
Q 1038 3822 1038 3469 
Q 1038 3159 1208 2996 
Q 1378 2834 1844 2725 
L 2175 2650 
Q 2831 2497 3131 2169 
Q 3431 1841 3431 1275 
Q 3431 609 3018 259 
Q 2606 -91 1819 -91 
Q 1491 -91 1159 -20 
Q 828 50 494 191 
L 494 863 
Q 853 634 1173 528 
Q 1494 422 1819 422 
Q 2297 422 2562 636 
Q 2828 850 2828 1234 
Q 2828 1584 2645 1768 
Q 2463 1953 2009 2053 
L 1672 2131 
Q 1022 2278 728 2575 
Q 434 2872 434 3372 
Q 434 3997 854 4373 
Q 1275 4750 1972 4750 
Q 2241 4750 2537 4689 
Q 2834 4628 3163 4506 
z
" transform="scale(0.015625)"/>
        <path id="DejaVuSansMono-6f" d="M 1925 3097 
Q 1488 3097 1263 2756 
Q 1038 2416 1038 1747 
Q 1038 1081 1263 739 
Q 1488 397 1925 397 
Q 2366 397 2591 739 
Q 2816 1081 2816 1747 
Q 2816 2416 2591 2756 
Q 2366 3097 1925 3097 
z
M 1925 3584 
Q 2653 3584 3039 3112 
Q 3425 2641 3425 1747 
Q 3425 850 3040 379 
Q 2656 -91 1925 -91 
Q 1197 -91 812 379 
Q 428 850 428 1747 
Q 428 2641 812 3112 
Q 1197 3584 1925 3584 
z
" transform="scale(0.015625)"/>
        <path id="DejaVuSansMono-75" d="M 609 1325 
L 609 3494 
L 1184 3494 
L 1184 1325 
Q 1184 853 1351 631 
Q 1519 409 1869 409 
Q 2275 409 2490 695 
Q 2706 981 2706 1516 
L 2706 3494 
L 3284 3494 
L 3284 0 
L 2706 0 
L 2706 525 
Q 2553 222 2289 65 
Q 2025 -91 1672 -91 
Q 1134 -91 871 261 
Q 609 613 609 1325 
z
" transform="scale(0.015625)"/>
        <path id="DejaVuSansMono-72" d="M 3609 2778 
Q 3425 2922 3234 2987 
Q 3044 3053 2816 3053 
Q 2278 3053 1993 2715 
Q 1709 2378 1709 1741 
L 1709 0 
L 1131 0 
L 1131 3500 
L 1709 3500 
L 1709 2816 
Q 1853 3188 2151 3386 
Q 2450 3584 2859 3584 
Q 3072 3584 3256 3531 
Q 3441 3478 3609 3366 
L 3609 2778 
z
" transform="scale(0.015625)"/>
        <path id="DejaVuSansMono-63" d="M 3316 178 
Q 3084 44 2839 -23 
Q 2594 -91 2338 -91 
Q 1525 -91 1067 396 
Q 609 884 609 1747 
Q 609 2609 1067 3096 
Q 1525 3584 2338 3584 
Q 2591 3584 2831 3518 
Q 3072 3453 3316 3316 
L 3316 2713 
Q 3088 2916 2858 3006 
Q 2628 3097 2338 3097 
Q 1797 3097 1506 2747 
Q 1216 2397 1216 1747 
Q 1216 1100 1508 748 
Q 1800 397 2338 397 
Q 2638 397 2875 489 
Q 3113 581 3316 775 
L 3316 178 
z
" transform="scale(0.015625)"/>
        <path id="DejaVuSansMono-65" d="M 3475 1894 
L 3475 1613 
L 984 1613 
L 984 1594 
Q 984 1022 1282 709 
Q 1581 397 2125 397 
Q 2400 397 2700 484 
Q 3000 572 3341 750 
L 3341 178 
Q 3013 44 2708 -23 
Q 2403 -91 2119 -91 
Q 1303 -91 843 398 
Q 384 888 384 1747 
Q 384 2584 834 3084 
Q 1284 3584 2034 3584 
Q 2703 3584 3089 3131 
Q 3475 2678 3475 1894 
z
M 2900 2063 
Q 2888 2569 2661 2833 
Q 2434 3097 2009 3097 
Q 1594 3097 1325 2822 
Q 1056 2547 1006 2059 
L 2900 2063 
z
" transform="scale(0.015625)"/>
        <path id="DejaVuSansMono-20" transform="scale(0.015625)"/>
        <path id="DejaVuSansMono-50" d="M 1247 4147 
L 1247 2394 
L 1978 2394 
Q 2416 2394 2661 2625 
Q 2906 2856 2906 3272 
Q 2906 3688 2662 3917 
Q 2419 4147 1978 4147 
L 1247 4147 
z
M 616 4666 
L 1978 4666 
Q 2759 4666 3162 4311 
Q 3566 3956 3566 3272 
Q 3566 2581 3164 2228 
Q 2763 1875 1978 1875 
L 1247 1875 
L 1247 0 
L 616 0 
L 616 4666 
z
" transform="scale(0.015625)"/>
        <path id="DejaVuSansMono-6a" d="M 1875 -63 
L 1875 3053 
L 884 3053 
L 884 3500 
L 2450 3500 
L 2450 -63 
Q 2450 -672 2170 -1001 
Q 1891 -1331 1375 -1331 
L 581 -1331 
L 581 -844 
L 1313 -844 
Q 1594 -844 1734 -648 
Q 1875 -453 1875 -63 
z
M 1875 4863 
L 2450 4863 
L 2450 4134 
L 1875 4134 
L 1875 4863 
z
" transform="scale(0.015625)"/>
        <path id="DejaVuSansMono-74" d="M 1919 4494 
L 1919 3500 
L 3225 3500 
L 3225 3053 
L 1919 3053 
L 1919 1153 
Q 1919 766 2066 612 
Q 2213 459 2578 459 
L 3225 459 
L 3225 0 
L 2522 0 
Q 1875 0 1609 259 
Q 1344 519 1344 1153 
L 1344 3053 
L 409 3053 
L 409 3500 
L 1344 3500 
L 1344 4494 
L 1919 4494 
z
" transform="scale(0.015625)"/>
       </defs>
       <use xlink:href="#DejaVuSansMono-53"/>
       <use xlink:href="#DejaVuSansMono-6f" transform="translate(60.205078 0)"/>
       <use xlink:href="#DejaVuSansMono-75" transform="translate(120.410156 0)"/>
       <use xlink:href="#DejaVuSansMono-72" transform="translate(180.615234 0)"/>
       <use xlink:href="#DejaVuSansMono-63" transform="translate(240.820312 0)"/>
       <use xlink:href="#DejaVuSansMono-65" transform="translate(301.025391 0)"/>
       <use xlink:href="#DejaVuSansMono-20" transform="translate(361.230469 0)"/>
       <use xlink:href="#DejaVuSansMono-50" transform="translate(421.435547 0)"/>
       <use xlink:href="#DejaVuSansMono-72" transform="translate(481.640625 0)"/>
       <use xlink:href="#DejaVuSansMono-6f" transform="translate(541.845703 0)"/>
       <use xlink:href="#DejaVuSansMono-6a" transform="translate(602.050781 0)"/>
       <use xlink:href="#DejaVuSansMono-65" transform="translate(662.255859 0)"/>
       <use xlink:href="#DejaVuSansMono-63" transform="translate(722.460938 0)"/>
       <use xlink:href="#DejaVuSansMono-74" transform="translate(782.666016 0)"/>
      </g>
      <!-- 270 files, 5 MB -->
      <g style="fill: #8b949e" transform="translate(23.454844 207.042508) scale(0.09 -0.09)">
       <defs>
        <path id="DejaVuSansMono-37" d="M 434 4666 
L 3372 4666 
L 3372 4397 
L 1703 0 
L 1044 0 
L 2669 4134 
L 434 4134 
L 434 4666 
z
" transform="scale(0.015625)"/>
        <path id="DejaVuSansMono-66" d="M 3322 4863 
L 3322 4384 
L 2669 4384 
Q 2359 4384 2239 4257 
Q 2119 4131 2119 3809 
L 2119 3500 
L 3322 3500 
L 3322 3053 
L 2119 3053 
L 2119 0 
L 1544 0 
L 1544 3053 
L 609 3053 
L 609 3500 
L 1544 3500 
L 1544 3744 
Q 1544 4319 1808 4591 
Q 2072 4863 2631 4863 
L 3322 4863 
z
" transform="scale(0.015625)"/>
        <path id="DejaVuSansMono-69" d="M 800 3500 
L 2272 3500 
L 2272 447 
L 3413 447 
L 3413 0 
L 556 0 
L 556 447 
L 1697 447 
L 1697 3053 
L 800 3053 
L 800 3500 
z
M 1697 4863 
L 2272 4863 
L 2272 4134 
L 1697 4134 
L 1697 4863 
z
" transform="scale(0.015625)"/>
        <path id="DejaVuSansMono-6c" d="M 1997 1269 
Q 1997 881 2139 684 
Q 2281 488 2559 488 
L 3231 488 
L 3231 0 
L 2503 0 
Q 1988 0 1705 331 
Q 1422 663 1422 1269 
L 1422 4447 
L 500 4447 
L 500 4897 
L 1997 4897 
L 1997 1269 
z
" transform="scale(0.015625)"/>
        <path id="DejaVuSansMono-73" d="M 3041 3378 
L 3041 2816 
Q 2794 2959 2544 3031 
Q 2294 3103 2034 3103 
Q 1644 3103 1451 2976 
Q 1259 2850 1259 2591 
Q 1259 2356 1403 2240 
Q 1547 2125 2119 2016 
L 2350 1972 
Q 2778 1891 2998 1647 
Q 3219 1403 3219 1013 
Q 3219 494 2850 201 
Q 2481 -91 1825 -91 
Q 1566 -91 1281 -36 
Q 997 19 666 128 
L 666 722 
Q 988 556 1281 473 
Q 1575 391 1838 391 
Q 2219 391 2428 545 
Q 2638 700 2638 978 
Q 2638 1378 1872 1531 
L 1847 1538 
L 1631 1581 
Q 1134 1678 906 1908 
Q 678 2138 678 2534 
Q 678 3038 1018 3311 
Q 1359 3584 1991 3584 
Q 2272 3584 2531 3532 
Q 2791 3481 3041 3378 
z
" transform="scale(0.015625)"/>
        <path id="DejaVuSansMono-2c" d="M 1569 947 
L 2356 947 
L 2356 300 
L 1741 -897 
L 1259 -897 
L 1569 300 
L 1569 947 
z
" transform="scale(0.015625)"/>
        <path id="DejaVuSansMono-35" d="M 647 4666 
L 3009 4666 
L 3009 4134 
L 1222 4134 
L 1222 2988 
Q 1356 3038 1492 3061 
Q 1628 3084 1766 3084 
Q 2491 3084 2916 2656 
Q 3341 2228 3341 1497 
Q 3341 759 2895 334 
Q 2450 -91 1678 -91 
Q 1306 -91 998 -41 
Q 691 9 447 109 
L 447 750 
Q 734 594 1025 517 
Q 1316 441 1619 441 
Q 2141 441 2423 716 
Q 2706 991 2706 1497 
Q 2706 1997 2414 2275 
Q 2122 2553 1600 2553 
Q 1347 2553 1106 2495 
Q 866 2438 647 2322 
L 647 4666 
z
" transform="scale(0.015625)"/>
       </defs>
       <use xlink:href="#DejaVuSansMono-32"/>
       <use xlink:href="#DejaVuSansMono-37" transform="translate(60.205078 0)"/>
       <use xlink:href="#DejaVuSansMono-30" transform="translate(120.410156 0)"/>
       <use xlink:href="#DejaVuSansMono-20" transform="translate(180.615234 0)"/>
       <use xlink:href="#DejaVuSansMono-66" transform="translate(240.820312 0)"/>
       <use xlink:href="#DejaVuSansMono-69" transform="translate(301.025391 0)"/>
       <use xlink:href="#DejaVuSansMono-6c" transform="translate(361.230469 0)"/>
       <use xlink:href="#DejaVuSansMono-65" transform="translate(421.435547 0)"/>
       <use xlink:href="#DejaVuSansMono-73" transform="translate(481.640625 0)"/>
       <use xlink:href="#DejaVuSansMono-2c" transform="translate(541.845703 0)"/>
       <use xlink:href="#DejaVuSansMono-20" transform="translate(602.050781 0)"/>
       <use xlink:href="#DejaVuSansMono-35" transform="translate(662.255859 0)"/>
       <use xlink:href="#DejaVuSansMono-20" transform="translate(722.460938 0)"/>
       <use xlink:href="#DejaVuSansMono-4d" transform="translate(782.666016 0)"/>
       <use xlink:href="#DejaVuSansMono-42" transform="translate(842.871094 0)"/>
      </g>
     </g>
    </g>
    <g id="ytick_2">
     <g id="line2d_12">
      <g>
       <use xlink:href="#mdec5b1115b" x="111.229062" y="127.708281" style="fill: #8b949e; stroke: #8b949e; stroke-width: 0.5"/>
      </g>
     </g>
     <g id="text_8">
      <!-- Heavy Dedup -->
      <g style="fill: #8b949e" transform="translate(45.127969 126.772422) scale(0.09 -0.09)">
       <defs>
        <path id="DejaVuSansMono-48" d="M 428 4666 
L 1063 4666 
L 1063 2753 
L 2791 2753 
L 2791 4666 
L 3425 4666 
L 3425 0 
L 2791 0 
L 2791 2222 
L 1063 2222 
L 1063 0 
L 428 0 
L 428 4666 
z
" transform="scale(0.015625)"/>
        <path id="DejaVuSansMono-61" d="M 2194 1759 
L 2003 1759 
Q 1500 1759 1245 1582 
Q 991 1406 991 1056 
Q 991 741 1181 566 
Q 1372 391 1709 391 
Q 2184 391 2456 720 
Q 2728 1050 2731 1631 
L 2731 1759 
L 2194 1759 
z
M 3309 1997 
L 3309 0 
L 2731 0 
L 2731 519 
Q 2547 206 2267 57 
Q 1988 -91 1588 -91 
Q 1053 -91 734 211 
Q 416 513 416 1019 
Q 416 1603 808 1906 
Q 1200 2209 1959 2209 
L 2731 2209 
L 2731 2300 
Q 2728 2719 2518 2908 
Q 2309 3097 1850 3097 
Q 1556 3097 1256 3012 
Q 956 2928 672 2766 
L 672 3341 
Q 991 3463 1283 3523 
Q 1575 3584 1850 3584 
Q 2284 3584 2592 3456 
Q 2900 3328 3091 3072 
Q 3209 2916 3259 2686 
Q 3309 2456 3309 1997 
z
" transform="scale(0.015625)"/>
        <path id="DejaVuSansMono-76" d="M 313 3500 
L 909 3500 
L 1925 563 
L 2944 3500 
L 3541 3500 
L 2297 0 
L 1556 0 
L 313 3500 
z
" transform="scale(0.015625)"/>
        <path id="DejaVuSansMono-79" d="M 2681 1125 
Q 2538 759 2316 163 
Q 2006 -663 1900 -844 
Q 1756 -1088 1540 -1209 
Q 1325 -1331 1038 -1331 
L 575 -1331 
L 575 -850 
L 916 -850 
Q 1169 -850 1312 -703 
Q 1456 -556 1678 56 
L 325 3500 
L 934 3500 
L 1972 763 
L 2994 3500 
L 3603 3500 
L 2681 1125 
z
" transform="scale(0.015625)"/>
        <path id="DejaVuSansMono-44" d="M 1363 519 
Q 2159 519 2475 911 
Q 2791 1303 2791 2328 
Q 2791 3363 2477 3755 
Q 2163 4147 1363 4147 
L 1063 4147 
L 1063 519 
L 1363 519 
z
M 1375 4666 
Q 2444 4666 2950 4097 
Q 3456 3528 3456 2328 
Q 3456 1134 2950 567 
Q 2444 0 1375 0 
L 428 0 
L 428 4666 
L 1375 4666 
z
" transform="scale(0.015625)"/>
        <path id="DejaVuSansMono-64" d="M 2681 3053 
L 2681 4863 
L 3256 4863 
L 3256 0 
L 2681 0 
L 2681 441 
Q 2538 181 2298 45 
Q 2059 -91 1747 -91 
Q 1113 -91 748 401 
Q 384 894 384 1759 
Q 384 2613 750 3098 
Q 1116 3584 1747 3584 
Q 2063 3584 2303 3448 
Q 2544 3313 2681 3053 
z
M 991 1747 
Q 991 1078 1203 737 
Q 1416 397 1831 397 
Q 2247 397 2464 740 
Q 2681 1084 2681 1747 
Q 2681 2413 2464 2755 
Q 2247 3097 1831 3097 
Q 1416 3097 1203 2756 
Q 991 2416 991 1747 
z
" transform="scale(0.015625)"/>
        <path id="DejaVuSansMono-70" d="M 1172 441 
L 1172 -1331 
L 594 -1331 
L 594 3500 
L 1172 3500 
L 1172 3053 
Q 1316 3313 1555 3448 
Q 1794 3584 2106 3584 
Q 2741 3584 3102 3093 
Q 3463 2603 3463 1734 
Q 3463 881 3100 395 
Q 2738 -91 2106 -91 
Q 1788 -91 1548 45 
Q 1309 181 1172 441 
z
M 2859 1747 
Q 2859 2416 2648 2756 
Q 2438 3097 2022 3097 
Q 1603 3097 1387 2755 
Q 1172 2413 1172 1747 
Q 1172 1084 1387 740 
Q 1603 397 2022 397 
Q 2438 397 2648 737 
Q 2859 1078 2859 1747 
z
" transform="scale(0.015625)"/>
       </defs>
       <use xlink:href="#DejaVuSansMono-48"/>
       <use xlink:href="#DejaVuSansMono-65" transform="translate(60.205078 0)"/>
       <use xlink:href="#DejaVuSansMono-61" transform="translate(120.410156 0)"/>
       <use xlink:href="#DejaVuSansMono-76" transform="translate(180.615234 0)"/>
       <use xlink:href="#DejaVuSansMono-79" transform="translate(240.820312 0)"/>
       <use xlink:href="#DejaVuSansMono-20" transform="translate(301.025391 0)"/>
       <use xlink:href="#DejaVuSansMono-44" transform="translate(361.230469 0)"/>
       <use xlink:href="#DejaVuSansMono-65" transform="translate(421.435547 0)"/>
       <use xlink:href="#DejaVuSansMono-64" transform="translate(481.640625 0)"/>
       <use xlink:href="#DejaVuSansMono-75" transform="translate(541.845703 0)"/>
       <use xlink:href="#DejaVuSansMono-70" transform="translate(602.050781 0)"/>
      </g>
      <!-- shared deps, 13 MB -->
      <g style="fill: #8b949e" transform="translate(7.2 136.907828) scale(0.09 -0.09)">
       <defs>
        <path id="DejaVuSansMono-68" d="M 3284 2169 
L 3284 0 
L 2706 0 
L 2706 2169 
Q 2706 2641 2540 2862 
Q 2375 3084 2022 3084 
Q 1619 3084 1401 2798 
Q 1184 2513 1184 1978 
L 1184 0 
L 609 0 
L 609 4863 
L 1184 4863 
L 1184 2975 
Q 1338 3275 1600 3429 
Q 1863 3584 2222 3584 
Q 2756 3584 3020 3232 
Q 3284 2881 3284 2169 
z
" transform="scale(0.015625)"/>
        <path id="DejaVuSansMono-31" d="M 844 531 
L 1825 531 
L 1825 4097 
L 769 3859 
L 769 4434 
L 1819 4666 
L 2450 4666 
L 2450 531 
L 3419 531 
L 3419 0 
L 844 0 
L 844 531 
z
" transform="scale(0.015625)"/>
        <path id="DejaVuSansMono-33" d="M 2425 2497 
Q 2884 2375 3128 2064 
Q 3372 1753 3372 1288 
Q 3372 644 2939 276 
Q 2506 -91 1741 -91 
Q 1419 -91 1084 -31 
Q 750 28 428 141 
L 428 769 
Q 747 603 1056 522 
Q 1366 441 1672 441 
Q 2191 441 2469 675 
Q 2747 909 2747 1350 
Q 2747 1756 2469 1995 
Q 2191 2234 1716 2234 
L 1234 2234 
L 1234 2753 
L 1716 2753 
Q 2150 2753 2394 2943 
Q 2638 3134 2638 3475 
Q 2638 3834 2411 4026 
Q 2184 4219 1766 4219 
Q 1488 4219 1191 4156 
Q 894 4094 569 3969 
L 569 4550 
Q 947 4650 1242 4700 
Q 1538 4750 1766 4750 
Q 2447 4750 2855 4408 
Q 3263 4066 3263 3500 
Q 3263 3116 3048 2859 
Q 2834 2603 2425 2497 
z
" transform="scale(0.015625)"/>
       </defs>
       <use xlink:href="#DejaVuSansMono-73"/>
       <use xlink:href="#DejaVuSansMono-68" transform="translate(60.205078 0)"/>
       <use xlink:href="#DejaVuSansMono-61" transform="translate(120.410156 0)"/>
       <use xlink:href="#DejaVuSansMono-72" transform="translate(180.615234 0)"/>
       <use xlink:href="#DejaVuSansMono-65" transform="translate(240.820312 0)"/>
       <use xlink:href="#DejaVuSansMono-64" transform="translate(301.025391 0)"/>
       <use xlink:href="#DejaVuSansMono-20" transform="translate(361.230469 0)"/>
       <use xlink:href="#DejaVuSansMono-64" transform="translate(421.435547 0)"/>
       <use xlink:href="#DejaVuSansMono-65" transform="translate(481.640625 0)"/>
       <use xlink:href="#DejaVuSansMono-70" transform="translate(541.845703 0)"/>
       <use xlink:href="#DejaVuSansMono-73" transform="translate(602.050781 0)"/>
       <use xlink:href="#DejaVuSansMono-2c" transform="translate(662.255859 0)"/>
       <use xlink:href="#DejaVuSansMono-20" transform="translate(722.460938 0)"/>
       <use xlink:href="#DejaVuSansMono-31" transform="translate(782.666016 0)"/>
       <use xlink:href="#DejaVuSansMono-33" transform="translate(842.871094 0)"/>
       <use xlink:href="#DejaVuSansMono-20" transform="translate(903.076172 0)"/>
       <use xlink:href="#DejaVuSansMono-4d" transform="translate(963.28125 0)"/>
       <use xlink:href="#DejaVuSansMono-42" transform="translate(1023.486328 0)"/>
      </g>
     </g>
    </g>
    <g id="ytick_3">
     <g id="line2d_13">
      <g>
       <use xlink:href="#mdec5b1115b" x="111.229062" y="57.573601" style="fill: #8b949e; stroke: #8b949e; stroke-width: 0.5"/>
      </g>
     </g>
     <g id="text_9">
      <!-- Large Mixed -->
      <g style="fill: #8b949e" transform="translate(45.127969 56.582898) scale(0.09 -0.09)">
       <defs>
        <path id="DejaVuSansMono-4c" d="M 672 4666 
L 1306 4666 
L 1306 531 
L 3559 531 
L 3559 0 
L 672 0 
L 672 4666 
z
" transform="scale(0.015625)"/>
        <path id="DejaVuSansMono-67" d="M 2681 1778 
Q 2681 2425 2470 2761 
Q 2259 3097 1856 3097 
Q 1434 3097 1212 2761 
Q 991 2425 991 1778 
Q 991 1131 1214 792 
Q 1438 453 1863 453 
Q 2259 453 2470 793 
Q 2681 1134 2681 1778 
z
M 3256 225 
Q 3256 -563 2884 -969 
Q 2513 -1375 1791 -1375 
Q 1553 -1375 1293 -1331 
Q 1034 -1288 775 -1203 
L 775 -634 
Q 1081 -778 1331 -847 
Q 1581 -916 1791 -916 
Q 2256 -916 2468 -662 
Q 2681 -409 2681 141 
L 2681 166 
L 2681 556 
Q 2544 263 2306 119 
Q 2069 -25 1728 -25 
Q 1116 -25 750 465 
Q 384 956 384 1778 
Q 384 2603 750 3093 
Q 1116 3584 1728 3584 
Q 2066 3584 2300 3450 
Q 2534 3316 2681 3034 
L 2681 3488 
L 3256 3488 
L 3256 225 
z
" transform="scale(0.015625)"/>
        <path id="DejaVuSansMono-78" d="M 3494 3500 
L 2241 1825 
L 3616 0 
L 2950 0 
L 1925 1403 
L 903 0 
L 238 0 
L 1613 1825 
L 359 3500 
L 997 3500 
L 1925 2234 
L 2847 3500 
L 3494 3500 
z
" transform="scale(0.015625)"/>
       </defs>
       <use xlink:href="#DejaVuSansMono-4c"/>
       <use xlink:href="#DejaVuSansMono-61" transform="translate(60.205078 0)"/>
       <use xlink:href="#DejaVuSansMono-72" transform="translate(120.410156 0)"/>
       <use xlink:href="#DejaVuSansMono-67" transform="translate(180.615234 0)"/>
       <use xlink:href="#DejaVuSansMono-65" transform="translate(240.820312 0)"/>
       <use xlink:href="#DejaVuSansMono-20" transform="translate(301.025391 0)"/>
       <use xlink:href="#DejaVuSansMono-4d" transform="translate(361.230469 0)"/>
       <use xlink:href="#DejaVuSansMono-69" transform="translate(421.435547 0)"/>
       <use xlink:href="#DejaVuSansMono-78" transform="translate(481.640625 0)"/>
       <use xlink:href="#DejaVuSansMono-65" transform="translate(541.845703 0)"/>
       <use xlink:href="#DejaVuSansMono-64" transform="translate(602.050781 0)"/>
      </g>
      <!-- logs+bins, 102 MB -->
      <g style="fill: #8b949e" transform="translate(12.618281 66.780179) scale(0.09 -0.09)">
       <defs>
        <path id="DejaVuSansMono-2b" d="M 2188 3659 
L 2188 2272 
L 3578 2272 
L 3578 1741 
L 2188 1741 
L 2188 353 
L 1663 353 
L 1663 1741 
L 275 1741 
L 275 2272 
L 1663 2272 
L 1663 3659 
L 2188 3659 
z
" transform="scale(0.015625)"/>
        <path id="DejaVuSansMono-62" d="M 2869 1747 
Q 2869 2416 2656 2756 
Q 2444 3097 2028 3097 
Q 1609 3097 1393 2755 
Q 1178 2413 1178 1747 
Q 1178 1084 1393 740 
Q 1609 397 2028 397 
Q 2444 397 2656 737 
Q 2869 1078 2869 1747 
z
M 1178 3053 
Q 1316 3309 1558 3446 
Q 1800 3584 2119 3584 
Q 2750 3584 3112 3098 
Q 3475 2613 3475 1759 
Q 3475 894 3111 401 
Q 2747 -91 2113 -91 
Q 1800 -91 1561 45 
Q 1322 181 1178 441 
L 1178 0 
L 603 0 
L 603 4863 
L 1178 4863 
L 1178 3053 
z
" transform="scale(0.015625)"/>
        <path id="DejaVuSansMono-6e" d="M 3284 2169 
L 3284 0 
L 2706 0 
L 2706 2169 
Q 2706 2641 2540 2862 
Q 2375 3084 2022 3084 
Q 1619 3084 1401 2798 
Q 1184 2513 1184 1978 
L 1184 0 
L 609 0 
L 609 3500 
L 1184 3500 
L 1184 2975 
Q 1338 3275 1600 3429 
Q 1863 3584 2222 3584 
Q 2756 3584 3020 3232 
Q 3284 2881 3284 2169 
z
" transform="scale(0.015625)"/>
       </defs>
       <use xlink:href="#DejaVuSansMono-6c"/>
       <use xlink:href="#DejaVuSansMono-6f" transform="translate(60.205078 0)"/>
       <use xlink:href="#DejaVuSansMono-67" transform="translate(120.410156 0)"/>
       <use xlink:href="#DejaVuSansMono-73" transform="translate(180.615234 0)"/>
       <use xlink:href="#DejaVuSansMono-2b" transform="translate(240.820312 0)"/>
       <use xlink:href="#DejaVuSansMono-62" transform="translate(301.025391 0)"/>
       <use xlink:href="#DejaVuSansMono-69" transform="translate(361.230469 0)"/>
       <use xlink:href="#DejaVuSansMono-6e" transform="translate(421.435547 0)"/>
       <use xlink:href="#DejaVuSansMono-73" transform="translate(481.640625 0)"/>
       <use xlink:href="#DejaVuSansMono-2c" transform="translate(541.845703 0)"/>
       <use xlink:href="#DejaVuSansMono-20" transform="translate(602.050781 0)"/>
       <use xlink:href="#DejaVuSansMono-31" transform="translate(662.255859 0)"/>
       <use xlink:href="#DejaVuSansMono-30" transform="translate(722.460938 0)"/>
       <use xlink:href="#DejaVuSansMono-32" transform="translate(782.666016 0)"/>
       <use xlink:href="#DejaVuSansMono-20" transform="translate(842.871094 0)"/>
       <use xlink:href="#DejaVuSansMono-4d" transform="translate(903.076172 0)"/>
       <use xlink:href="#DejaVuSansMono-42" transform="translate(963.28125 0)"/>
      </g>
     </g>
    </g>
   </g>
   <g id="patch_6">
    <path d="M 111.229062 197.842961 
L 125.273797 197.842961 
L 125.273797 180.309291 
L 111.229062 180.309291 
z
" clip-path="url(#p4d3ba11723)" style="fill: #8b949e; opacity: 0.6"/>
   </g>
   <g id="patch_7">
    <path d="M 111.229062 127.708281 
L 185.126887 127.708281 
L 185.126887 110.174611 
L 111.229062 110.174611 
z
" clip-path="url(#p4d3ba11723)" style="fill: #8b949e; opacity: 0.6"/>
   </g>
   <g id="patch_8">
    <path d="M 111.229062 57.573601 
L 194.312262 57.573601 
L 194.312262 40.039931 
L 111.229062 40.039931 
z
" clip-path="url(#p4d3ba11723)" style="fill: #8b949e; opacity: 0.6"/>
   </g>
   <g id="patch_9">
    <path d="M 111.229062 215.376631 
L 125.510839 215.376631 
L 125.510839 197.842961 
L 111.229062 197.842961 
z
" clip-path="url(#p4d3ba11723)" style="fill: #3fb950"/>
   </g>
   <g id="patch_10">
    <path d="M 111.229062 145.241951 
L 127.229393 145.241951 
L 127.229393 127.708281 
L 111.229062 127.708281 
z
" clip-path="url(#p4d3ba11723)" style="fill: #3fb950"/>
   </g>
   <g id="patch_11">
    <path d="M 111.229062 75.107271 
L 170.726589 75.107271 
L 170.726589 57.573601 
L 111.229062 57.573601 
z
" clip-path="url(#p4d3ba11723)" style="fill: #3fb950"/>
   </g>
   <g id="patch_12">
    <path d="M 111.229062 231.858281 
L 111.229062 23.558281 
" style="fill: none; stroke: #30363d; stroke-width: 0.8; stroke-linejoin: miter; stroke-linecap: square"/>
   </g>
   <g id="patch_13">
    <path d="M 679.39192 231.858281 
L 679.39192 23.558281 
" style="fill: none; stroke: #30363d; stroke-width: 0.8; stroke-linejoin: miter; stroke-linecap: square"/>
   </g>
   <g id="patch_14">
    <path d="M 111.229062 231.858281 
L 679.39192 231.858281 
" style="fill: none; stroke: #30363d; stroke-width: 0.8; stroke-linejoin: miter; stroke-linecap: square"/>
   </g>
   <g id="patch_15">
    <path d="M 111.229062 23.558281 
L 679.39192 23.558281 
" style="fill: none; stroke: #30363d; stroke-width: 0.8; stroke-linejoin: miter; stroke-linecap: square"/>
   </g>
   <g id="text_10">
    <!-- 2.4 MB -->
    <g style="fill: #3fb950" transform="translate(131.733575 209.093234) scale(0.09 -0.09)">
     <defs>
      <path id="DejaVuSansMono-Bold-32" d="M 1356 813 
L 3322 813 
L 3322 0 
L 359 0 
L 359 788 
L 859 1319 
Q 1750 2266 1941 2484 
Q 2175 2753 2278 2961 
Q 2381 3169 2381 3372 
Q 2381 3684 2192 3854 
Q 2003 4025 1656 4025 
Q 1409 4025 1101 3926 
Q 794 3828 459 3641 
L 459 4500 
Q 794 4622 1114 4686 
Q 1434 4750 1728 4750 
Q 2469 4750 2892 4404 
Q 3316 4059 3316 3463 
Q 3316 3188 3223 2947 
Q 3131 2706 2906 2413 
Q 2741 2200 1997 1456 
Q 1594 1053 1356 813 
z
" transform="scale(0.015625)"/>
      <path id="DejaVuSansMono-Bold-2e" d="M 1403 1147 
L 2444 1147 
L 2444 0 
L 1403 0 
L 1403 1147 
z
" transform="scale(0.015625)"/>
      <path id="DejaVuSansMono-Bold-34" d="M 2169 3641 
L 991 1797 
L 2169 1797 
L 2169 3641 
z
M 2088 4666 
L 3053 4666 
L 3053 1797 
L 3566 1797 
L 3566 1006 
L 3053 1006 
L 3053 0 
L 2169 0 
L 2169 1006 
L 319 1006 
L 319 1900 
L 2088 4666 
z
" transform="scale(0.015625)"/>
      <path id="DejaVuSansMono-Bold-20" transform="scale(0.015625)"/>
      <path id="DejaVuSansMono-Bold-4d" d="M 269 4666 
L 1369 4666 
L 1925 2619 
L 2478 4666 
L 3584 4666 
L 3584 0 
L 2791 0 
L 2791 3738 
L 2297 1697 
L 1563 1697 
L 1063 3738 
L 1063 0 
L 269 0 
L 269 4666 
z
" transform="scale(0.015625)"/>
      <path id="DejaVuSansMono-Bold-42" d="M 1281 2119 
L 1281 738 
L 1894 738 
Q 2334 738 2511 888 
Q 2688 1038 2688 1409 
Q 2688 1788 2503 1953 
Q 2319 2119 1894 2119 
L 1281 2119 
z
M 1281 3938 
L 1281 2853 
L 1894 2853 
Q 2244 2853 2392 2978 
Q 2541 3103 2541 3391 
Q 2541 3678 2389 3808 
Q 2238 3938 1894 3938 
L 1281 3938 
z
M 391 4672 
L 1894 4672 
Q 2672 4672 3064 4376 
Q 3456 4081 3456 3494 
Q 3456 3044 3225 2791 
Q 2994 2538 2547 2497 
Q 3081 2444 3351 2137 
Q 3622 1831 3622 1281 
Q 3622 606 3215 303 
Q 2809 0 1894 0 
L 391 0 
L 391 4672 
z
" transform="scale(0.015625)"/>
     </defs>
     <use xlink:href="#DejaVuSansMono-Bold-32"/>
     <use xlink:href="#DejaVuSansMono-Bold-2e" transform="translate(60.205078 0)"/>
     <use xlink:href="#DejaVuSansMono-Bold-34" transform="translate(120.410156 0)"/>
     <use xlink:href="#DejaVuSansMono-Bold-20" transform="translate(180.615234 0)"/>
     <use xlink:href="#DejaVuSansMono-Bold-4d" transform="translate(240.820312 0)"/>
     <use xlink:href="#DejaVuSansMono-Bold-42" transform="translate(301.025391 0)"/>
    </g>
   </g>
   <g id="text_11">
    <!-- 2.4 MB -->
    <g style="fill: #8b949e" transform="translate(131.496533 191.58347) scale(0.09 -0.09)">
     <defs>
      <path id="DejaVuSansMono-2e" d="M 1528 953 
L 2316 953 
L 2316 0 
L 1528 0 
L 1528 953 
z
" transform="scale(0.015625)"/>
     </defs>
     <use xlink:href="#DejaVuSansMono-32"/>
     <use xlink:href="#DejaVuSansMono-2e" transform="translate(60.205078 0)"/>
     <use xlink:href="#DejaVuSansMono-34" transform="translate(120.410156 0)"/>
     <use xlink:href="#DejaVuSansMono-20" transform="translate(180.615234 0)"/>
     <use xlink:href="#DejaVuSansMono-4d" transform="translate(240.820312 0)"/>
     <use xlink:href="#DejaVuSansMono-42" transform="translate(301.025391 0)"/>
    </g>
   </g>
   <g id="text_12">
    <!-- 2.7 MB -->
    <g style="fill: #3fb950" transform="translate(133.452129 138.958554) scale(0.09 -0.09)">
     <defs>
      <path id="DejaVuSansMono-Bold-37" d="M 422 4666 
L 3372 4666 
L 3372 4013 
L 1791 0 
L 850 0 
L 2369 3853 
L 422 3853 
L 422 4666 
z
" transform="scale(0.015625)"/>
     </defs>
     <use xlink:href="#DejaVuSansMono-Bold-32"/>
     <use xlink:href="#DejaVuSansMono-Bold-2e" transform="translate(60.205078 0)"/>
     <use xlink:href="#DejaVuSansMono-Bold-37" transform="translate(120.410156 0)"/>
     <use xlink:href="#DejaVuSansMono-Bold-20" transform="translate(180.615234 0)"/>
     <use xlink:href="#DejaVuSansMono-Bold-4d" transform="translate(240.820312 0)"/>
     <use xlink:href="#DejaVuSansMono-Bold-42" transform="translate(301.025391 0)"/>
    </g>
   </g>
   <g id="text_13">
    <!-- 12.5 MB -->
    <g style="fill: #8b949e" transform="translate(191.349623 121.44879) scale(0.09 -0.09)">
     <use xlink:href="#DejaVuSansMono-31"/>
     <use xlink:href="#DejaVuSansMono-32" transform="translate(60.205078 0)"/>
     <use xlink:href="#DejaVuSansMono-2e" transform="translate(120.410156 0)"/>
     <use xlink:href="#DejaVuSansMono-35" transform="translate(180.615234 0)"/>
     <use xlink:href="#DejaVuSansMono-20" transform="translate(240.820312 0)"/>
     <use xlink:href="#DejaVuSansMono-4d" transform="translate(301.025391 0)"/>
     <use xlink:href="#DejaVuSansMono-42" transform="translate(361.230469 0)"/>
    </g>
   </g>
   <g id="text_14">
    <!-- -78% -->
    <g style="fill: #3fb950" transform="translate(682.122349 130.743594) scale(0.11 -0.11)">
     <defs>
      <path id="DejaVuSansMono-Bold-2d" d="M 941 2297 
L 2913 2297 
L 2913 1388 
L 941 1388 
L 941 2297 
z
" transform="scale(0.015625)"/>
      <path id="DejaVuSansMono-Bold-38" d="M 1925 2081 
Q 1616 2081 1425 1886 
Q 1234 1691 1234 1369 
Q 1234 1047 1425 850 
Q 1616 653 1925 653 
Q 2234 653 2426 853 
Q 2619 1053 2619 1369 
Q 2619 1691 2428 1886 
Q 2238 2081 1925 2081 
z
M 1241 2472 
Q 888 2594 703 2855 
Q 519 3116 519 3494 
Q 519 4075 897 4412 
Q 1275 4750 1925 4750 
Q 2578 4750 2956 4412 
Q 3334 4075 3334 3494 
Q 3334 3119 3153 2858 
Q 2972 2597 2625 2472 
Q 3013 2353 3231 2047 
Q 3450 1741 3450 1313 
Q 3450 641 3053 275 
Q 2656 -91 1925 -91 
Q 1197 -91 800 275 
Q 403 641 403 1313 
Q 403 1744 625 2050 
Q 847 2356 1241 2472 
z
M 1338 3419 
Q 1338 3144 1495 2983 
Q 1653 2822 1925 2822 
Q 2200 2822 2358 2983 
Q 2516 3144 2516 3419 
Q 2516 3691 2358 3848 
Q 2200 4006 1925 4006 
Q 1656 4006 1497 3847 
Q 1338 3688 1338 3419 
z
" transform="scale(0.015625)"/>
      <path id="DejaVuSansMono-Bold-25" d="M 103 3475 
Q 103 3894 393 4184 
Q 684 4475 1100 4475 
Q 1516 4475 1808 4183 
Q 2100 3891 2100 3475 
Q 2100 3059 1808 2768 
Q 1516 2478 1100 2478 
Q 684 2478 393 2767 
Q 103 3056 103 3475 
z
M 1100 3903 
Q 922 3903 797 3779 
Q 672 3656 672 3475 
Q 672 3294 797 3170 
Q 922 3047 1100 3047 
Q 1281 3047 1404 3170 
Q 1528 3294 1528 3475 
Q 1528 3653 1403 3778 
Q 1278 3903 1100 3903 
z
M 269 1753 
L 3525 3059 
L 3653 2759 
L 378 1453 
L 269 1753 
z
M 1813 997 
Q 1813 1416 2102 1706 
Q 2391 1997 2809 1997 
Q 3222 1997 3515 1705 
Q 3809 1413 3809 997 
Q 3809 584 3515 292 
Q 3222 0 2809 0 
Q 2391 0 2102 289 
Q 1813 578 1813 997 
z
M 2803 1428 
Q 2628 1428 2504 1303 
Q 2381 1178 2381 997 
Q 2381 816 2503 692 
Q 2625 569 2803 569 
Q 2984 569 3111 694 
Q 3238 819 3238 997 
Q 3238 1175 3109 1301 
Q 2981 1428 2803 1428 
z
" transform="scale(0.015625)"/>
     </defs>
     <use xlink:href="#DejaVuSansMono-Bold-2d"/>
     <use xlink:href="#DejaVuSansMono-Bold-37" transform="translate(60.205078 0)"/>
     <use xlink:href="#DejaVuSansMono-Bold-38" transform="translate(120.410156 0)"/>
     <use xlink:href="#DejaVuSansMono-Bold-25" transform="translate(180.615234 0)"/>
    </g>
   </g>
   <g id="text_15">
    <!-- 10.0 MB -->
    <g style="fill: #3fb950" transform="translate(176.949325 68.823874) scale(0.09 -0.09)">
     <defs>
      <path id="DejaVuSansMono-Bold-31" d="M 588 813 
L 1619 813 
L 1619 3841 
L 659 3603 
L 659 4434 
L 1625 4666 
L 2516 4666 
L 2516 813 
L 3547 813 
L 3547 0 
L 588 0 
L 588 813 
z
" transform="scale(0.015625)"/>
      <path id="DejaVuSansMono-Bold-30" d="M 1538 2328 
Q 1538 2494 1650 2606 
Q 1763 2719 1925 2719 
Q 2091 2719 2203 2606 
Q 2316 2494 2316 2328 
Q 2316 2166 2203 2053 
Q 2091 1941 1925 1941 
Q 1763 1941 1650 2052 
Q 1538 2163 1538 2328 
z
M 1925 3969 
Q 1606 3969 1459 3578 
Q 1313 3188 1313 2328 
Q 1313 1472 1459 1081 
Q 1606 691 1925 691 
Q 2247 691 2394 1081 
Q 2541 1472 2541 2328 
Q 2541 3188 2394 3578 
Q 2247 3969 1925 3969 
z
M 384 2328 
Q 384 3541 768 4145 
Q 1153 4750 1925 4750 
Q 2700 4750 3084 4147 
Q 3469 3544 3469 2328 
Q 3469 1116 3084 512 
Q 2700 -91 1925 -91 
Q 1153 -91 768 514 
Q 384 1119 384 2328 
z
" transform="scale(0.015625)"/>
     </defs>
     <use xlink:href="#DejaVuSansMono-Bold-31"/>
     <use xlink:href="#DejaVuSansMono-Bold-30" transform="translate(60.205078 0)"/>
     <use xlink:href="#DejaVuSansMono-Bold-2e" transform="translate(120.410156 0)"/>
     <use xlink:href="#DejaVuSansMono-Bold-30" transform="translate(180.615234 0)"/>
     <use xlink:href="#DejaVuSansMono-Bold-20" transform="translate(240.820312 0)"/>
     <use xlink:href="#DejaVuSansMono-Bold-4d" transform="translate(301.025391 0)"/>
     <use xlink:href="#DejaVuSansMono-Bold-42" transform="translate(361.230469 0)"/>
    </g>
   </g>
   <g id="text_16">
    <!-- 14.0 MB -->
    <g style="fill: #8b949e" transform="translate(200.534998 51.31411) scale(0.09 -0.09)">
     <use xlink:href="#DejaVuSansMono-31"/>
     <use xlink:href="#DejaVuSansMono-34" transform="translate(60.205078 0)"/>
     <use xlink:href="#DejaVuSansMono-2e" transform="translate(120.410156 0)"/>
     <use xlink:href="#DejaVuSansMono-30" transform="translate(180.615234 0)"/>
     <use xlink:href="#DejaVuSansMono-20" transform="translate(240.820312 0)"/>
     <use xlink:href="#DejaVuSansMono-4d" transform="translate(301.025391 0)"/>
     <use xlink:href="#DejaVuSansMono-42" transform="translate(361.230469 0)"/>
    </g>
   </g>
   <g id="text_17">
    <!-- -28% -->
    <g style="fill: #3fb950" transform="translate(682.122349 60.608914) scale(0.11 -0.11)">
     <use xlink:href="#DejaVuSansMono-Bold-2d"/>
     <use xlink:href="#DejaVuSansMono-Bold-32" transform="translate(60.205078 0)"/>
     <use xlink:href="#DejaVuSansMono-Bold-38" transform="translate(120.410156 0)"/>
     <use xlink:href="#DejaVuSansMono-Bold-25" transform="translate(180.615234 0)"/>
    </g>
   </g>
   <g id="text_18">
    <!-- SIZE  /  smaller is better -->
    <g style="fill: #e6edf3" transform="translate(111.229062 15.558281) scale(0.11 -0.11)">
     <defs>
      <path id="DejaVuSansMono-Bold-53" d="M 1594 2047 
Q 897 2313 650 2605 
Q 403 2897 403 3391 
Q 403 4025 809 4387 
Q 1216 4750 1925 4750 
Q 2247 4750 2569 4676 
Q 2891 4603 3206 4459 
L 3206 3559 
Q 2909 3769 2603 3878 
Q 2297 3988 1997 3988 
Q 1663 3988 1484 3853 
Q 1306 3719 1306 3469 
Q 1306 3275 1436 3148 
Q 1566 3022 1978 2869 
L 2375 2719 
Q 2938 2513 3203 2172 
Q 3469 1831 3469 1313 
Q 3469 606 3051 257 
Q 2634 -91 1791 -91 
Q 1444 -91 1095 -8 
Q 747 75 422 238 
L 422 1191 
Q 791 928 1136 800 
Q 1481 672 1819 672 
Q 2159 672 2346 826 
Q 2534 981 2534 1259 
Q 2534 1469 2409 1626 
Q 2284 1784 2047 1875 
L 1594 2047 
z
" transform="scale(0.015625)"/>
      <path id="DejaVuSansMono-Bold-49" d="M 538 3853 
L 538 4666 
L 3316 4666 
L 3316 3853 
L 2388 3853 
L 2388 813 
L 3316 813 
L 3316 0 
L 538 0 
L 538 813 
L 1466 813 
L 1466 3853 
L 538 3853 
z
" transform="scale(0.015625)"/>
      <path id="DejaVuSansMono-Bold-5a" d="M 428 4666 
L 3584 4666 
L 3584 3903 
L 1422 813 
L 3628 813 
L 3628 0 
L 359 0 
L 359 763 
L 2456 3853 
L 428 3853 
L 428 4666 
z
" transform="scale(0.015625)"/>
      <path id="DejaVuSansMono-Bold-45" d="M 3431 0 
L 525 0 
L 525 4666 
L 3431 4666 
L 3431 3853 
L 1447 3853 
L 1447 2847 
L 3244 2847 
L 3244 2034 
L 1447 2034 
L 1447 813 
L 3431 813 
L 3431 0 
z
" transform="scale(0.015625)"/>
      <path id="DejaVuSansMono-Bold-2f" d="M 2809 4666 
L 3500 4666 
L 1044 -594 
L 353 -594 
L 2809 4666 
z
" transform="scale(0.015625)"/>
      <path id="DejaVuSansMono-Bold-73" d="M 3097 3391 
L 3097 2591 
Q 2844 2753 2570 2836 
Q 2297 2919 2022 2919 
Q 1716 2919 1559 2830 
Q 1403 2741 1403 2566 
Q 1403 2316 2072 2159 
L 2106 2150 
L 2369 2088 
Q 2869 1969 3101 1705 
Q 3334 1441 3334 991 
Q 3334 450 2979 179 
Q 2625 -91 1913 -91 
Q 1597 -91 1265 -36 
Q 934 19 594 128 
L 594 928 
Q 897 756 1211 665 
Q 1525 575 1819 575 
Q 2141 575 2306 669 
Q 2472 763 2472 941 
Q 2472 1116 2355 1209 
Q 2238 1303 1797 1409 
L 1544 1466 
Q 1019 1584 778 1837 
Q 538 2091 538 2516 
Q 538 3022 903 3303 
Q 1269 3584 1931 3584 
Q 2228 3584 2523 3536 
Q 2819 3488 3097 3391 
z
" transform="scale(0.015625)"/>
      <path id="DejaVuSansMono-Bold-6d" d="M 2156 3150 
Q 2259 3372 2418 3478 
Q 2578 3584 2809 3584 
Q 3263 3584 3436 3271 
Q 3609 2959 3609 1972 
L 3609 0 
L 2859 0 
L 2859 2247 
Q 2859 2638 2800 2769 
Q 2741 2900 2584 2900 
Q 2428 2900 2365 2765 
Q 2303 2631 2303 2247 
L 2303 0 
L 1563 0 
L 1563 2247 
Q 1563 2631 1500 2765 
Q 1438 2900 1281 2900 
Q 1125 2900 1065 2769 
Q 1006 2638 1006 2247 
L 1006 0 
L 256 0 
L 256 3500 
L 922 3500 
L 922 3138 
Q 1000 3344 1172 3464 
Q 1344 3584 1556 3584 
Q 1769 3584 1944 3457 
Q 2119 3331 2156 3150 
z
" transform="scale(0.015625)"/>
      <path id="DejaVuSansMono-Bold-61" d="M 2188 1644 
Q 1675 1644 1472 1512 
Q 1269 1381 1269 1063 
Q 1269 825 1409 684 
Q 1550 544 1791 544 
Q 2153 544 2353 817 
Q 2553 1091 2553 1581 
L 2553 1644 
L 2188 1644 
z
M 3463 1997 
L 3463 0 
L 2553 0 
L 2553 391 
Q 2388 159 2128 34 
Q 1869 -91 1556 -91 
Q 959 -91 626 225 
Q 294 541 294 1106 
Q 294 1719 691 2011 
Q 1088 2303 1919 2303 
L 2553 2303 
L 2553 2456 
Q 2553 2678 2392 2792 
Q 2231 2906 1919 2906 
Q 1591 2906 1283 2823 
Q 975 2741 641 2559 
L 641 3341 
Q 944 3466 1256 3525 
Q 1569 3584 1919 3584 
Q 2772 3584 3117 3237 
Q 3463 2891 3463 1997 
z
" transform="scale(0.015625)"/>
      <path id="DejaVuSansMono-Bold-6c" d="M 1209 1459 
L 1209 4159 
L 281 4159 
L 281 4863 
L 2125 4863 
L 2125 1459 
Q 2125 1047 2253 875 
Q 2381 703 2688 703 
L 3419 703 
L 3419 0 
L 2431 0 
Q 1778 0 1493 337 
Q 1209 675 1209 1459 
z
" transform="scale(0.015625)"/>
      <path id="DejaVuSansMono-Bold-65" d="M 3444 172 
Q 3125 41 2794 -25 
Q 2463 -91 2094 -91 
Q 1216 -91 752 379 
Q 288 850 288 1734 
Q 288 2591 734 3087 
Q 1181 3584 1953 3584 
Q 2731 3584 3161 3123 
Q 3591 2663 3591 1825 
L 3591 1453 
L 1219 1453 
Q 1222 1041 1462 837 
Q 1703 634 2181 634 
Q 2497 634 2803 725 
Q 3109 816 3444 1013 
L 3444 172 
z
M 2669 2141 
Q 2663 2503 2483 2689 
Q 2303 2875 1953 2875 
Q 1638 2875 1450 2683 
Q 1263 2491 1228 2138 
L 2669 2141 
z
" transform="scale(0.015625)"/>
      <path id="DejaVuSansMono-Bold-72" d="M 3597 2534 
Q 3447 2672 3245 2740 
Q 3044 2809 2803 2809 
Q 2513 2809 2295 2707 
Q 2078 2606 1959 2413 
Q 1884 2294 1854 2125 
Q 1825 1956 1825 1613 
L 1825 0 
L 909 0 
L 909 3500 
L 1825 3500 
L 1825 2956 
Q 1959 3256 2237 3420 
Q 2516 3584 2888 3584 
Q 3075 3584 3254 3539 
Q 3434 3494 3597 3406 
L 3597 2534 
z
" transform="scale(0.015625)"/>
      <path id="DejaVuSansMono-Bold-69" d="M 691 3500 
L 2503 3500 
L 2503 703 
L 3641 703 
L 3641 0 
L 447 0 
L 447 703 
L 1588 703 
L 1588 2797 
L 691 2797 
L 691 3500 
z
M 1588 5203 
L 2503 5203 
L 2503 4134 
L 1588 4134 
L 1588 5203 
z
" transform="scale(0.015625)"/>
      <path id="DejaVuSansMono-Bold-62" d="M 2656 1741 
Q 2656 2247 2487 2534 
Q 2319 2822 2022 2822 
Q 1725 2822 1553 2534 
Q 1381 2247 1381 1741 
Q 1381 1234 1553 946 
Q 1725 659 2022 659 
Q 2319 659 2487 946 
Q 2656 1234 2656 1741 
z
M 1381 3003 
Q 1550 3294 1773 3439 
Q 1997 3584 2278 3584 
Q 2900 3584 3236 3109 
Q 3572 2634 3572 1747 
Q 3572 872 3240 390 
Q 2909 -91 2309 -91 
Q 1994 -91 1759 62 
Q 1525 216 1381 519 
L 1381 0 
L 469 0 
L 469 4863 
L 1381 4863 
L 1381 3003 
z
" transform="scale(0.015625)"/>
      <path id="DejaVuSansMono-Bold-74" d="M 2156 4494 
L 2156 3500 
L 3353 3500 
L 3353 2797 
L 2156 2797 
L 2156 1141 
Q 2156 906 2270 804 
Q 2384 703 2650 703 
L 3353 703 
L 3353 0 
L 2584 0 
Q 1797 0 1519 251 
Q 1241 503 1241 1184 
L 1241 2797 
L 347 2797 
L 347 3500 
L 1241 3500 
L 1241 4494 
L 2156 4494 
z
" transform="scale(0.015625)"/>
     </defs>
     <use xlink:href="#DejaVuSansMono-Bold-53"/>
     <use xlink:href="#DejaVuSansMono-Bold-49" transform="translate(60.205078 0)"/>
     <use xlink:href="#DejaVuSansMono-Bold-5a" transform="translate(120.410156 0)"/>
     <use xlink:href="#DejaVuSansMono-Bold-45" transform="translate(180.615234 0)"/>
     <use xlink:href="#DejaVuSansMono-Bold-20" transform="translate(240.820312 0)"/>
     <use xlink:href="#DejaVuSansMono-Bold-20" transform="translate(301.025391 0)"/>
     <use xlink:href="#DejaVuSansMono-Bold-2f" transform="translate(361.230469 0)"/>
     <use xlink:href="#DejaVuSansMono-Bold-20" transform="translate(421.435547 0)"/>
     <use xlink:href="#DejaVuSansMono-Bold-20" transform="translate(481.640625 0)"/>
     <use xlink:href="#DejaVuSansMono-Bold-73" transform="translate(541.845703 0)"/>
     <use xlink:href="#DejaVuSansMono-Bold-6d" transform="translate(602.050781 0)"/>
     <use xlink:href="#DejaVuSansMono-Bold-61" transform="translate(662.255859 0)"/>
     <use xlink:href="#DejaVuSansMono-Bold-6c" transform="translate(722.460938 0)"/>
     <use xlink:href="#DejaVuSansMono-Bold-6c" transform="translate(782.666016 0)"/>
     <use xlink:href="#DejaVuSansMono-Bold-65" transform="translate(842.871094 0)"/>
     <use xlink:href="#DejaVuSansMono-Bold-72" transform="translate(903.076172 0)"/>
     <use xlink:href="#DejaVuSansMono-Bold-20" transform="translate(963.28125 0)"/>
     <use xlink:href="#DejaVuSansMono-Bold-69" transform="translate(1023.486328 0)"/>
     <use xlink:href="#DejaVuSansMono-Bold-73" transform="translate(1083.691406 0)"/>
     <use xlink:href="#DejaVuSansMono-Bold-20" transform="translate(1143.896484 0)"/>
     <use xlink:href="#DejaVuSansMono-Bold-62" transform="translate(1204.101562 0)"/>
     <use xlink:href="#DejaVuSansMono-Bold-65" transform="translate(1264.306641 0)"/>
     <use xlink:href="#DejaVuSansMono-Bold-74" transform="translate(1324.511719 0)"/>
     <use xlink:href="#DejaVuSansMono-Bold-74" transform="translate(1384.716797 0)"/>
     <use xlink:href="#DejaVuSansMono-Bold-65" transform="translate(1444.921875 0)"/>
     <use xlink:href="#DejaVuSansMono-Bold-72" transform="translate(1505.126953 0)"/>
    </g>
   </g>
   <g id="legend_1">
    <g id="patch_16">
     <path d="M 609.66192 227.858281 
L 673.79192 227.858281 
Q 675.39192 227.858281 675.39192 226.258281 
L 675.39192 191.648281 
Q 675.39192 190.048281 673.79192 190.048281 
L 609.66192 190.048281 
Q 608.06192 190.048281 608.06192 191.648281 
L 608.06192 226.258281 
Q 608.06192 227.858281 609.66192 227.858281 
z
" style="fill: #161b22; opacity: 0.8; stroke: #30363d; stroke-linejoin: miter"/>
    </g>
    <g id="patch_17">
     <path d="M 611.26192 199.369531 
L 627.26192 199.369531 
L 627.26192 193.769531 
L 611.26192 193.769531 
z
" style="fill: #21262d"/>
    </g>
    <g id="text_19">
     <!-- input -->
     <g style="fill: #8b949e" transform="translate(633.66192 199.369531) scale(0.08 -0.08)">
      <use xlink:href="#DejaVuSansMono-69"/>
      <use xlink:href="#DejaVuSansMono-6e" transform="translate(60.205078 0)"/>
      <use xlink:href="#DejaVuSansMono-70" transform="translate(120.410156 0)"/>
      <use xlink:href="#DejaVuSansMono-75" transform="translate(180.615234 0)"/>
      <use xlink:href="#DejaVuSansMono-74" transform="translate(240.820312 0)"/>
     </g>
    </g>
    <g id="patch_18">
     <path d="M 611.26192 211.154531 
L 627.26192 211.154531 
L 627.26192 205.554531 
L 611.26192 205.554531 
z
" style="fill: #8b949e; opacity: 0.6"/>
    </g>
    <g id="text_20">
     <!-- tar+zstd -->
     <g style="fill: #8b949e" transform="translate(633.66192 211.154531) scale(0.08 -0.08)">
      <defs>
       <path id="DejaVuSansMono-7a" d="M 709 3506 
L 3250 3506 
L 3250 2981 
L 1241 469 
L 3250 469 
L 3250 0 
L 634 0 
L 634 531 
L 2644 3047 
L 709 3047 
L 709 3506 
z
" transform="scale(0.015625)"/>
      </defs>
      <use xlink:href="#DejaVuSansMono-74"/>
      <use xlink:href="#DejaVuSansMono-61" transform="translate(60.205078 0)"/>
      <use xlink:href="#DejaVuSansMono-72" transform="translate(120.410156 0)"/>
      <use xlink:href="#DejaVuSansMono-2b" transform="translate(180.615234 0)"/>
      <use xlink:href="#DejaVuSansMono-7a" transform="translate(240.820312 0)"/>
      <use xlink:href="#DejaVuSansMono-73" transform="translate(301.025391 0)"/>
      <use xlink:href="#DejaVuSansMono-74" transform="translate(361.230469 0)"/>
      <use xlink:href="#DejaVuSansMono-64" transform="translate(421.435547 0)"/>
     </g>
    </g>
    <g id="patch_19">
     <path d="M 611.26192 222.939531 
L 627.26192 222.939531 
L 627.26192 217.339531 
L 611.26192 217.339531 
z
" style="fill: #3fb950"/>
    </g>
    <g id="text_21">
     <!-- tdg -->
     <g style="fill: #8b949e" transform="translate(633.66192 222.939531) scale(0.08 -0.08)">
      <use xlink:href="#DejaVuSansMono-74"/>
      <use xlink:href="#DejaVuSansMono-64" transform="translate(60.205078 0)"/>
      <use xlink:href="#DejaVuSansMono-67" transform="translate(120.410156 0)"/>
     </g>
    </g>
   </g>
  </g>
 </g>
 <defs>
  <clipPath id="p4d3ba11723">
   <rect x="111.229062" y="23.558281" width="568.162857" height="208.3"/>
  </clipPath>
 </defs>
</svg>
